<svg width="50" height="50" viewBox="0 0 50 50" fill="none" xmlns="http://www.w3.org/2000/svg">
<g clip-path="url(#clip0_129_2957)">
<path d="M10.8066 42C15.2249 42 18.8066 39.3137 18.8066 36C18.8066 32.6863 15.2249 30 10.8066 30C6.38836 30 2.80664 32.6863 2.80664 36C2.80664 39.3137 6.38836 42 10.8066 42Z" fill="#E94444"/>
<path d="M16.0619 31.4761C16.5322 32.2402 16.7946 33.0911 16.7946 33.9879C16.7946 37.3016 13.2128 39.9879 8.79458 39.9879C6.78306 39.9879 4.94497 39.4311 3.53931 38.5118C4.80669 40.571 7.58413 42 10.8066 42C15.2249 42 18.8066 39.3137 18.8066 36C18.8066 34.1949 17.7437 32.576 16.0619 31.4761Z" fill="#D83131"/>
<path d="M15.375 50H18.8613C19.2326 50 19.5933 49.8758 19.886 49.6473C20.1787 49.4188 20.3867 49.0989 20.4767 48.7386L22.6514 40.0397C23.0838 38.31 24.6379 37.0967 26.4208 37.0967H29.8387L20.8065 35.9999L13.7097 37.0967V48.3347C13.7098 49.2545 14.4553 50 15.375 50Z" fill="#F37C7C"/>
<path d="M22.8929 36.2533C21.8028 37.0665 21.0277 38.2319 20.6994 39.5517L18.6856 47.6069C18.6584 47.7157 18.5956 47.8124 18.5072 47.8814C18.4188 47.9505 18.3098 47.988 18.1976 47.988H13.7097V48.3348C13.7097 49.2545 14.4552 50 15.3749 50H18.8612C19.2325 50 19.5933 49.8759 19.886 49.6473C20.1787 49.4188 20.3866 49.0989 20.4766 48.7386L22.6513 40.0397C23.0837 38.31 24.6378 37.0967 26.4207 37.0967H29.8386L22.8929 36.2533Z" fill="#EE6161"/>
<path d="M6.78604 35.0848C5.25988 34.1165 3.95288 32.8399 2.94883 31.337C2.81338 31.134 4.11484 29.9528 3.99082 29.7418C3.8582 29.516 2.30088 30.2601 2.18203 30.0258C1.31348 28.3148 0.81875 26.3833 0.807031 24.3358C0.806738 24.2884 0.806641 24.2409 0.806641 24.1936C0.806641 22.2312 1.04033 20.3234 1.48125 18.4963C1.53496 18.2739 3.26768 18.236 3.32754 18.0159C3.40469 17.732 1.81094 17.2669 1.89805 16.9872C3.25596 12.629 5.81338 8.79963 9.18389 5.88527C9.35762 5.73508 10.5678 6.39963 10.7458 6.25432C10.9596 6.07981 10.1422 5.09651 10.362 4.92922C14.2396 1.97815 19.0353 0.171212 24.2454 0.0115444C24.6151 0.000216256 24.6265 1.37209 25.0002 1.37756C25.1317 1.37951 25.6234 0.00754047 25.7545 0.0115444C31.2425 0.18049 36.2845 2.20129 40.2746 5.46555C40.4813 5.63469 39.6231 6.82883 39.8241 7.00461C40.0027 7.16076 41.2412 6.29777 41.4152 6.45901C46.1331 10.8313 49.1186 17.0491 49.1923 23.9281C49.1942 24.1145 49.1941 24.3003 49.192 24.4857C49.1091 31.4987 43.2996 37.0969 36.2861 37.0969L6.78604 35.0848Z" fill="#F9B1B1"/>
<path d="M49.192 23.9281C49.1554 20.5144 48.4018 17.2635 47.0751 14.3202L47.18 23.9496C47.1819 24.121 47.1818 24.2918 47.1797 24.462C47.1104 30.3191 42.2234 35.0846 36.2858 35.0846H6.78589C8.7938 36.359 11.1761 37.0967 13.7232 37.0967H36.2859C43.2994 37.0967 49.1087 31.4984 49.1917 24.4854C49.194 24.3002 49.1941 24.1143 49.192 23.9281Z" fill="#F79595"/>
<path d="M42.6471 32.0413C41.5115 30.9056 40.001 30.2801 38.3943 30.2801H37.1247C36.9246 30.2801 36.7326 30.3596 36.5912 30.5011C36.4497 30.6426 36.3702 30.8345 36.3702 31.0346C36.3702 31.2347 36.4497 31.4266 36.5912 31.5681C36.7326 31.7096 36.9246 31.7891 37.1247 31.7891H38.3943C39.5979 31.7891 40.7293 32.2576 41.58 33.1083L42.7489 34.2772C42.8962 34.4245 43.0893 34.4982 43.2824 34.4982C43.4754 34.4982 43.6686 34.4244 43.8159 34.2772C43.886 34.2071 43.9415 34.1239 43.9795 34.0324C44.0174 33.9408 44.0369 33.8427 44.0369 33.7436C44.0369 33.6445 44.0174 33.5464 43.9795 33.4549C43.9415 33.3633 43.886 33.2801 43.8159 33.2101L42.6471 32.0413ZM30.8668 35.4182C30.7476 35.5174 30.6618 35.651 30.6212 35.8008C30.5806 35.9505 30.5872 36.1091 30.64 36.255C30.6928 36.4009 30.7893 36.5269 30.9163 36.616C31.0434 36.705 31.1948 36.7528 31.35 36.7527C31.5262 36.7528 31.697 36.691 31.8323 36.578C33.095 35.527 33.8192 33.9829 33.8192 32.3415C33.8192 29.3034 31.3475 26.8317 28.3093 26.8317H13.7098C13.5097 26.8317 13.3178 26.9112 13.1763 27.0526C13.0348 27.1941 12.9553 27.3861 12.9553 27.5862C12.9553 27.7863 13.0348 27.9782 13.1763 28.1197C13.3178 28.2612 13.5097 28.3406 13.7098 28.3406H28.3093C30.5154 28.3406 32.3101 30.1354 32.3101 32.3414C32.3101 33.5334 31.784 34.6548 30.8668 35.4182Z" fill="#F79595"/>
<path d="M15.625 31.587C15.4249 31.587 15.233 31.6665 15.0915 31.808C14.95 31.9495 14.8706 32.1414 14.8706 32.3415C14.8706 32.5416 14.95 32.7335 15.0915 32.875C15.233 33.0165 15.4249 33.096 15.625 33.096H28.125C28.3252 33.096 28.5171 33.0165 28.6586 32.875C28.8001 32.7335 28.8795 32.5416 28.8795 32.3415C28.8795 32.1414 28.8001 31.9495 28.6586 31.808C28.5171 31.6665 28.3252 31.587 28.125 31.587H15.625ZM47.9536 21.6592H46.5597C45.6753 21.6592 44.8258 21.2405 44.2872 20.5391L42.8968 18.7285C42.7742 18.5721 42.5947 18.4704 42.3975 18.4455C42.2003 18.4206 42.0012 18.4746 41.8435 18.5956C41.6858 18.7167 41.5823 18.8951 41.5554 19.092C41.5285 19.289 41.5804 19.4886 41.6999 19.6475L43.0903 21.4583C43.3127 21.7475 43.5707 22.0075 43.8583 22.2321C42.837 22.6375 41.8998 23.2512 41.0995 24.0516L40.045 25.1061C39.9749 25.1762 39.9193 25.2594 39.8814 25.3509C39.8434 25.4425 39.8239 25.5406 39.8239 25.6397C39.8239 25.7388 39.8434 25.8369 39.8814 25.9284C39.9193 26.02 39.9749 26.1032 40.045 26.1732C40.1923 26.3206 40.3854 26.3942 40.5785 26.3942C40.7715 26.3942 40.9647 26.3205 41.112 26.1732L42.1665 25.1187C43.4242 23.861 45.0963 23.1684 46.875 23.1684H47.9535C48.3702 23.1684 48.708 22.8306 48.708 22.4139C48.708 21.9972 48.3703 21.6592 47.9536 21.6592ZM36.8094 12.7314C36.8472 12.9279 36.9614 13.1013 37.127 13.2136C37.2926 13.3259 37.496 13.3679 37.6925 13.3302C37.7898 13.3116 37.8825 13.2739 37.9653 13.2194C38.0481 13.1649 38.1193 13.0947 38.1749 13.0127C38.2305 12.9307 38.2694 12.8385 38.2894 12.7414C38.3094 12.6444 38.31 12.5443 38.2914 12.447C38.0062 10.9605 38.4731 9.42692 39.5412 8.33268L41.4151 6.45895C41.0452 6.11614 40.6648 5.78483 40.2745 5.46549L38.5311 7.20885C38.5255 7.21413 38.52 7.2194 38.5146 7.22487C38.4992 7.2403 38.4838 7.25583 38.4686 7.27145L37.3566 8.38346C36.5444 9.19567 35.2973 9.3486 34.3241 8.75563C33.8414 8.46114 33.3452 8.18952 32.837 7.94167C32.6574 7.85731 32.4519 7.84703 32.2649 7.91305C32.0778 7.97908 31.9243 8.11609 31.8375 8.29446C31.7507 8.47282 31.7377 8.67818 31.8011 8.8661C31.8646 9.05403 31.9995 9.2094 32.1767 9.2986C32.6422 9.52556 33.0967 9.77434 33.5387 10.0441C34.1599 10.4238 34.8738 10.6247 35.6018 10.6248C36.0114 10.6247 36.4185 10.5612 36.8087 10.4366C36.6637 11.1947 36.6639 11.9734 36.8094 12.7314ZM3.13862 18.4963C3.92519 18.4957 4.7053 18.6382 5.44087 18.9168C6.3106 19.2445 7.0856 19.7448 7.74487 20.4041L8.15376 20.813C8.30112 20.9603 8.49419 21.034 8.68726 21.034C8.88032 21.034 9.07349 20.9602 9.22075 20.813C9.29084 20.7429 9.34643 20.6597 9.38436 20.5682C9.42229 20.4766 9.44182 20.3785 9.44182 20.2794C9.44182 20.1803 9.42229 20.0822 9.38436 19.9906C9.34643 19.8991 9.29084 19.8159 9.22075 19.7459L8.81187 19.337C8.26597 18.7911 7.65532 18.3336 6.98833 17.9697L9.90845 15.0497C9.97853 14.9796 10.0341 14.8964 10.0721 14.8049C10.11 14.7133 10.1295 14.6152 10.1295 14.5161C10.1295 14.417 10.11 14.3189 10.0721 14.2274C10.0341 14.1358 9.97853 14.0526 9.90845 13.9826C9.83838 13.9125 9.75521 13.8569 9.66366 13.819C9.57211 13.7811 9.47399 13.7616 9.3749 13.7616C9.27581 13.7616 9.17769 13.7811 9.08615 13.819C8.9946 13.8569 8.91142 13.9125 8.84136 13.9826L5.48579 17.3381C4.72517 17.1049 3.93399 16.9866 3.13843 16.9872H1.8979C1.7426 17.4855 1.60363 17.9888 1.4812 18.4963H3.13862ZM24.2453 0.01149V4.68747C24.2453 4.88757 24.3248 5.07948 24.4662 5.22097C24.6077 5.36247 24.7997 5.44196 24.9998 5.44196C25.1999 5.44196 25.3918 5.36247 25.5333 5.22097C25.6748 5.07948 25.7542 4.88757 25.7542 4.68747V0.01149C25.2514 -0.00383 24.7481 -0.00383 24.2453 0.01149ZM7.75239 27.7337C7.83166 27.6742 7.89843 27.5997 7.94891 27.5144C7.99938 27.4292 8.03257 27.3348 8.04657 27.2367C8.06057 27.1386 8.05512 27.0387 8.03051 26.9428C8.00591 26.8468 7.96264 26.7566 7.90317 26.6773C7.84372 26.598 7.76924 26.5313 7.68397 26.4808C7.59871 26.4303 7.50433 26.3971 7.40624 26.3831C7.30814 26.3691 7.20825 26.3746 7.11226 26.3992C7.01628 26.4238 6.92608 26.4671 6.84683 26.5265L2.18188 30.0257C2.41131 30.4776 2.66736 30.9155 2.94868 31.337L7.75239 27.7337ZM12.4532 9.15456C12.6005 9.30192 12.7936 9.37555 12.9867 9.37555C13.1797 9.37555 13.3729 9.30182 13.5202 9.15456C13.5903 9.0845 13.6458 9.00132 13.6838 8.90978C13.7217 8.81823 13.7412 8.72011 13.7412 8.62101C13.7412 8.52192 13.7217 8.42379 13.6838 8.33225C13.6458 8.2407 13.5903 8.15752 13.5202 8.08747L10.3619 4.92917C9.95933 5.23551 9.56646 5.55435 9.18384 5.88522L12.4532 9.15456Z" fill="#F79595"/>
<path d="M13.1489 16.7884C13.1466 16.794 10.7953 22.9674 10.7953 22.9674C10.76 23.06 10.7433 23.1586 10.7462 23.2576C10.749 23.3567 10.7713 23.4542 10.8119 23.5446C10.8524 23.635 10.9104 23.7166 10.9824 23.7846C11.0545 23.8526 11.1392 23.9057 11.2318 23.941C11.3244 23.9763 11.423 23.993 11.5221 23.9901C11.6211 23.9873 11.7186 23.965 11.8091 23.9244C11.8995 23.8839 11.981 23.8259 12.049 23.7539C12.117 23.6818 12.1702 23.5971 12.2054 23.5045L12.6049 22.4558H15.334L15.7289 23.5023C15.801 23.6876 15.9432 23.837 16.1248 23.9179C16.3064 23.9989 16.5126 24.005 16.6986 23.9348C16.8846 23.8646 17.0354 23.7238 17.1182 23.5431C17.201 23.3623 17.2091 23.1562 17.1408 22.9695C17.1408 22.9695 14.8099 16.7934 14.8071 16.7865C14.7399 16.622 14.6251 16.4813 14.4775 16.3824C14.3299 16.2835 14.1561 16.2309 13.9784 16.2313H13.9773C13.7995 16.2311 13.6256 16.284 13.478 16.3833C13.3304 16.4825 13.2158 16.6236 13.1489 16.7884ZM14.7646 20.9467H13.1798L13.9759 18.8564L14.7646 20.9467ZM31.2085 23.9904C31.4086 23.9904 31.6005 23.9109 31.742 23.7694C31.8835 23.6279 31.963 23.436 31.963 23.2359V16.9859C31.963 16.7858 31.8835 16.5939 31.742 16.4524C31.6005 16.3109 31.4086 16.2314 31.2085 16.2314C31.0084 16.2314 30.8165 16.3109 30.675 16.4524C30.5335 16.5939 30.454 16.7858 30.454 16.9859V19.2492H27.638V16.9859C27.638 16.7858 27.5585 16.5939 27.417 16.4524C27.2755 16.3109 27.0836 16.2314 26.8835 16.2314C26.6834 16.2314 26.4915 16.3109 26.35 16.4524C26.2085 16.5939 26.129 16.7858 26.129 16.9859V23.2359C26.129 23.436 26.2085 23.6279 26.35 23.7694C26.4915 23.9109 26.6834 23.9904 26.8835 23.9904C27.0836 23.9904 27.2755 23.9109 27.417 23.7694C27.5585 23.6279 27.638 23.436 27.638 23.2359V20.7583H30.454V23.2359C30.454 23.436 30.5335 23.6279 30.675 23.7694C30.8165 23.9109 31.0084 23.9904 31.2085 23.9904ZM19.6113 16.3237C19.5121 16.3237 19.4138 16.3432 19.3222 16.3812C19.2305 16.4192 19.1472 16.475 19.0772 16.5452C19.0071 16.6154 18.9515 16.6988 18.9137 16.7905C18.8759 16.8822 18.8565 16.9805 18.8567 17.0798V23.1449C18.8571 23.3453 18.9495 23.5372 19.0916 23.6785C19.2329 23.8191 19.4242 23.898 19.6235 23.8979C19.6235 23.8979 20.9031 23.8929 21.3925 23.8844C23.2121 23.8527 24.5328 22.2657 24.5328 20.1108C24.5328 17.8456 23.2453 16.3237 21.329 16.3237H19.6113ZM23.0239 20.1109C23.0239 21.2238 22.5114 22.3556 21.3663 22.3757C21.139 22.3797 20.7282 22.3828 20.3675 22.385V17.8328H21.3292C22.5787 17.8328 23.0239 19.0095 23.0239 20.1109ZM34.3458 23.8912H36.1147C37.9344 23.8595 39.2551 22.2657 39.2551 20.1108C39.2551 17.8456 37.9676 16.3237 36.0512 16.3237H34.3335C34.2342 16.3237 34.136 16.3432 34.0443 16.3812C33.9527 16.4192 33.8694 16.475 33.7993 16.5452C33.7292 16.6154 33.6737 16.6988 33.6358 16.7905C33.598 16.8822 33.5787 16.9805 33.5789 17.0798V23.1449C33.5793 23.3453 33.6717 23.5372 33.8137 23.6785C33.9553 23.8191 34.1465 23.8912 34.3458 23.8912ZM36.0512 17.8328C37.3008 17.8328 37.746 19.0095 37.746 20.1108C37.746 21.2237 37.2335 22.3555 36.0884 22.3756C35.8611 22.3796 35.4503 22.3827 35.0895 22.3849V17.8327H36.0512V17.8328Z" fill="#EAF9FA"/>
<path d="M22.3169 13.2678C22.3664 13.3537 22.4324 13.4289 22.511 13.4893C22.5896 13.5496 22.6793 13.5939 22.775 13.6195C22.8707 13.6452 22.9706 13.6517 23.0688 13.6387C23.1671 13.6258 23.2618 13.5936 23.3476 13.544L24.2455 13.0256V14.0624C24.2455 14.2625 24.325 14.4544 24.4665 14.5959C24.608 14.7374 24.7999 14.8169 25 14.8169C25.2001 14.8169 25.392 14.7374 25.5335 14.5959C25.675 14.4544 25.7545 14.2625 25.7545 14.0624V13.0256L26.6525 13.544C26.7383 13.5936 26.833 13.6258 26.9312 13.6387C27.0295 13.6517 27.1293 13.6452 27.225 13.6195C27.3208 13.5939 27.4105 13.5496 27.4891 13.4893C27.5677 13.4289 27.6336 13.3537 27.6831 13.2678C27.7327 13.182 27.7649 13.0873 27.7778 12.9891C27.7907 12.8908 27.7842 12.791 27.7586 12.6953C27.7329 12.5996 27.6887 12.5099 27.6283 12.4313C27.568 12.3527 27.4928 12.2867 27.407 12.2372L26.5092 11.7187L27.4072 11.2003C27.493 11.1507 27.5682 11.0848 27.6285 11.0062C27.6889 10.9276 27.7331 10.8379 27.7587 10.7421C27.7844 10.6464 27.7909 10.5466 27.778 10.4484C27.7651 10.3501 27.7329 10.2554 27.6833 10.1696C27.6338 10.0838 27.5679 10.0086 27.4892 9.94824C27.4106 9.88791 27.3209 9.84366 27.2252 9.81802C27.1295 9.79237 27.0297 9.78583 26.9314 9.79877C26.8332 9.81171 26.7385 9.84388 26.6527 9.89343L25.7547 10.4119V9.37498C25.7547 9.17487 25.6752 8.98296 25.5337 8.84147C25.3922 8.69997 25.2003 8.62048 25.0002 8.62048C24.8001 8.62048 24.6082 8.69997 24.4667 8.84147C24.3252 8.98296 24.2457 9.17487 24.2457 9.37498V10.4119L23.3478 9.89343C23.262 9.84388 23.1673 9.81171 23.069 9.79877C22.9708 9.78583 22.871 9.79237 22.7752 9.81802C22.6795 9.84366 22.5898 9.88791 22.5112 9.94824C22.4326 10.0086 22.3667 10.0838 22.3171 10.1696C22.2676 10.2554 22.2354 10.3501 22.2225 10.4484C22.2095 10.5466 22.2161 10.6464 22.2417 10.7421C22.2674 10.8379 22.3116 10.9276 22.3719 11.0062C22.4323 11.0848 22.5075 11.1507 22.5933 11.2003L23.4912 11.7187L22.5933 12.2372C22.5075 12.2867 22.4322 12.3526 22.3719 12.4312C22.3115 12.5098 22.2672 12.5995 22.2416 12.6953C22.2159 12.791 22.2093 12.8908 22.2223 12.989C22.2352 13.0873 22.2674 13.182 22.3169 13.2678Z" fill="#9857BD"/>
</g>
<defs>
<clipPath id="clip0_129_2957">
<rect width="50" height="50" fill="white"/>
</clipPath>
</defs>
</svg>
