<svg width="51" height="50" viewBox="0 0 51 50" fill="none" xmlns="http://www.w3.org/2000/svg">
<g clip-path="url(#clip0_129_3114)">
<path d="M29.7373 40.678C32.1407 41.4788 37.5738 43.7949 38.1602 49.0576C38.1727 49.1765 38.16 49.2966 38.1231 49.4102C38.0862 49.5238 38.0259 49.6284 37.946 49.7173C37.8661 49.8061 37.7685 49.8772 37.6594 49.9259C37.5503 49.9746 37.4322 49.9998 37.3127 50H13.6873C13.5678 49.9998 13.4498 49.9746 13.3407 49.9259C13.2316 49.8772 13.1339 49.8061 13.054 49.7173C12.9742 49.6284 12.9138 49.5238 12.8769 49.4102C12.84 49.2966 12.8274 49.1765 12.8399 49.0576C13.4263 43.7949 18.8568 41.4788 21.2627 40.678H29.7373Z" fill="#3B97D3"/>
<path d="M29.7373 40.6779C29.7373 40.6779 28.8898 42.3728 25.5 42.3728C22.1102 42.3728 21.2627 40.6779 21.2627 40.6779C21.7386 40.4339 22.1441 40.0722 22.4408 39.6272C22.7375 39.1822 22.9154 38.6687 22.9576 38.1356V35.4661H28.0424V38.1356C28.0846 38.6687 28.2625 39.1822 28.5592 39.6272C28.8558 40.0722 29.2614 40.4339 29.7373 40.6779Z" fill="#FDD7AD"/>
<path d="M28.0425 35.4661V37.0678C27.4815 37.1525 26.9154 37.1949 26.3476 37.1949H24.6527C24.0849 37.1949 23.5188 37.1525 22.9578 37.0678V35.4661H28.0425Z" fill="#F9C795"/>
<path d="M10.9239 22.8559C9.33916 20.6186 8.55103 16.7203 8.55103 14.4067C8.55103 5.0847 15.3307 0.847412 22.1103 0.847412C30.5849 0.847412 41.6019 3.38979 41.6019 14.4067C41.6019 18.644 40.729 21.1271 39.7714 22.5762L10.9239 22.8559Z" fill="#A56A43"/>
<path d="M13.6357 22.0339H12.7882C12.115 22.0375 11.4704 22.3065 10.9944 22.7825C10.5184 23.2585 10.2494 23.9031 10.2458 24.5763C10.2458 25.2506 10.5137 25.8973 10.9905 26.374C11.4673 26.8508 12.1139 27.1187 12.7882 27.1187H13.9323L13.6357 22.0339ZM37.3645 22.0339H38.212C38.7781 22.0339 39.3272 22.2255 39.7713 22.5763C40.079 22.8106 40.3281 23.1132 40.4987 23.4604C40.6693 23.8075 40.7568 24.1895 40.7543 24.5763C40.7543 25.2506 40.4865 25.8973 40.0097 26.374C39.5329 26.8508 38.8862 27.1187 38.212 27.1187H37.0679L37.3645 22.0339Z" fill="#F9C795"/>
<path d="M14.4832 16.3305C14.2249 16.4781 14.0103 16.6915 13.8614 16.9491C13.7125 17.2067 13.6347 17.4991 13.6358 17.7966V24.5763C13.6358 30.661 18.568 35.5933 24.6527 35.5933H26.3476C29.2695 35.5933 32.0717 34.4325 34.1378 32.3665C36.2039 30.3004 37.3646 27.4982 37.3646 24.5763V17.2712C37.3646 16.9695 37.2824 16.6738 37.1273 16.4153C36.9665 16.1328 36.7243 15.9054 36.4324 15.7627C34.5231 14.8379 32.8175 13.5414 31.4154 11.9492C30.7332 11.1927 30.1677 10.3387 29.7374 9.41528C28.3549 11.1889 26.5833 12.6213 24.5595 13.6017L14.4832 16.3305Z" fill="#FDD7AD"/>
<path d="M25.5001 32.2034C26.4362 32.2034 27.195 31.4446 27.195 30.5085C27.195 29.5724 26.4362 28.8136 25.5001 28.8136C24.564 28.8136 23.8052 29.5724 23.8052 30.5085C23.8052 31.4446 24.564 32.2034 25.5001 32.2034Z" fill="#802D40"/>
<path d="M26.3475 27.1186H24.6526C24.4279 27.1186 24.2123 27.0293 24.0534 26.8704C23.8945 26.7115 23.8052 26.4959 23.8052 26.2712C23.8052 26.0464 23.8945 25.8308 24.0534 25.6719C24.2123 25.513 24.4279 25.4237 24.6526 25.4237H26.3475C26.5723 25.4237 26.7879 25.513 26.9468 25.6719C27.1057 25.8308 27.195 26.0464 27.195 26.2712C27.195 26.4959 27.1057 26.7115 26.9468 26.8704C26.7879 27.0293 26.5723 27.1186 26.3475 27.1186Z" fill="#F09372"/>
<path d="M21.2629 24.5763H17.8731C17.6483 24.5763 17.4328 24.487 17.2738 24.3281C17.1149 24.1692 17.0256 23.9536 17.0256 23.7289C17.0256 23.5041 17.1149 23.2885 17.2738 23.1296C17.4328 22.9707 17.6483 22.8814 17.8731 22.8814H19.2172L18.9689 22.6331C18.8145 22.4733 18.7291 22.2592 18.731 22.037C18.7329 21.8148 18.8221 21.6022 18.9792 21.4451C19.1363 21.288 19.3489 21.1989 19.5711 21.1969C19.7933 21.195 20.0073 21.2804 20.1672 21.4348L21.8621 23.1297C21.9806 23.2482 22.0612 23.3992 22.0939 23.5636C22.1266 23.7279 22.1098 23.8983 22.0457 24.0531C21.9816 24.208 21.873 24.3403 21.7337 24.4334C21.5943 24.5266 21.4305 24.5763 21.2629 24.5763ZM33.1273 24.5763H29.7375C29.5699 24.5763 29.4061 24.5266 29.2668 24.4334C29.1274 24.3403 29.0188 24.208 28.9547 24.0531C28.8906 23.8983 28.8738 23.7279 28.9065 23.5636C28.9392 23.3992 29.0199 23.2482 29.1383 23.1297L30.8333 21.4348C30.9931 21.2804 31.2072 21.195 31.4294 21.1969C31.6516 21.1989 31.8641 21.288 32.0212 21.4451C32.1784 21.6022 32.2675 21.8148 32.2694 22.037C32.2714 22.2592 32.1859 22.4733 32.0316 22.6331L31.7833 22.8814H33.1273C33.3521 22.8814 33.5676 22.9707 33.7266 23.1296C33.8855 23.2885 33.9748 23.5041 33.9748 23.7289C33.9748 23.9536 33.8855 24.1692 33.7266 24.3281C33.5676 24.487 33.3521 24.5763 33.1273 24.5763Z" fill="#3F5C6C"/>
<path d="M48.246 15.3728C47.746 17.0678 45.1273 17.7203 41.3985 17.6186C36.0181 17.2974 30.6952 16.3358 25.5426 14.7542H25.5341C24.5087 14.4576 23.5002 14.1525 22.4917 13.8305C18.6985 12.6289 15.0038 11.1358 11.4409 9.36436C10.8307 9.04233 10.246 8.72877 9.69511 8.40674C9.67816 8.39826 9.65274 8.38131 9.63579 8.37284C6.00867 6.26267 3.84766 4.10165 4.3985 2.26267C5.44935 -1.24581 15.1443 0.186398 19.6273 1.04233C18.3492 1.2381 17.1035 1.60584 15.9239 2.13555C9.59342 1.23725 6.28833 1.85589 6.02562 2.75419C5.89003 3.20335 6.64427 4.6525 10.4748 6.89826C10.4832 6.89826 10.4832 6.90674 10.4917 6.90674C15.2515 9.49141 20.2857 11.5352 25.5002 13C26.5002 13.2966 27.5087 13.5762 28.5087 13.8389H28.5171C32.7661 15.0005 37.127 15.7051 41.5256 15.9406H41.5595C45.2714 16.0084 46.4917 15.322 46.6188 14.8898C46.8138 14.2288 45.3646 12.4237 40.9155 10.0423C40.4917 9.82199 40.0341 9.59318 39.551 9.34741C39.8477 9.19487 40.1443 9.04233 40.4324 8.88131C40.746 8.71182 41.051 8.54233 41.3561 8.36436C45.2799 10.3983 48.9578 13 48.246 15.3728Z" fill="#F0C419"/>
<path d="M41.3562 8.36435C41.0511 8.54232 40.746 8.71181 40.4324 8.8813C40.1443 9.04232 39.8477 9.19486 39.5511 9.3474C37.0051 10.635 34.3846 11.7698 31.7036 12.7457C30.7036 13.1101 29.6358 13.4745 28.5172 13.8389H28.5087C27.5595 14.1525 26.5595 14.4576 25.5426 14.7542H25.5341C20.0426 16.3389 13.8307 17.6186 8.907 17.644H8.75445C5.22903 17.6271 3.21208 16.8643 2.75445 15.3728C2.03411 12.983 5.86462 10.3389 9.63581 8.37282C9.65276 8.3813 9.67818 8.39825 9.69513 8.40672C10.246 8.72876 10.8307 9.04232 11.4409 9.36435C10.5087 9.82198 9.68666 10.2627 8.96632 10.6779C5.34767 12.7542 4.19513 14.2796 4.38157 14.8813C4.50022 15.2627 5.52564 15.9152 8.64428 15.9491H8.76293C13.4061 15.7802 18.0136 15.0691 22.4917 13.8305C23.4917 13.5677 24.5002 13.2881 25.5002 12.9999C30.3861 11.6617 35.1096 9.78881 39.585 7.4152C39.5934 7.40672 39.6104 7.40672 39.6189 7.39825C44.2121 4.88977 45.1273 3.26266 44.9748 2.75418C44.7121 1.8474 40.8646 1.05079 32.8053 2.50842C31.6296 2.08204 30.4226 1.7477 29.1951 1.50842C32.8477 0.694859 45.3901 -1.76277 46.6019 2.26266C47.2036 4.2796 44.6273 6.47452 41.3562 8.36435Z" fill="#955BA5"/>
<path d="M2.61874 9.32208C3.55482 9.32208 4.31366 8.56324 4.31366 7.62717C4.31366 6.69109 3.55482 5.93225 2.61874 5.93225C1.68267 5.93225 0.923828 6.69109 0.923828 7.62717C0.923828 8.56324 1.68267 9.32208 2.61874 9.32208Z" fill="#F3D55B"/>
<path d="M48.3814 10.1695C49.3175 10.1695 50.0764 9.41065 50.0764 8.47458C50.0764 7.5385 49.3175 6.77966 48.3814 6.77966C47.4454 6.77966 46.6865 7.5385 46.6865 8.47458C46.6865 9.41065 47.4454 10.1695 48.3814 10.1695Z" fill="#F3D55B"/>
<path d="M6.00859 22.0339C6.47663 22.0339 6.85605 21.6545 6.85605 21.1864C6.85605 20.7184 6.47663 20.339 6.00859 20.339C5.54055 20.339 5.16113 20.7184 5.16113 21.1864C5.16113 21.6545 5.54055 22.0339 6.00859 22.0339Z" fill="#894B9D"/>
<path d="M48.3814 20.339C48.8494 20.339 49.2289 19.9595 49.2289 19.4915C49.2289 19.0235 48.8494 18.644 48.3814 18.644C47.9134 18.644 47.5339 19.0235 47.5339 19.4915C47.5339 19.9595 47.9134 20.339 48.3814 20.339Z" fill="#894B9D"/>
<path d="M48.3814 1.69492C48.8494 1.69492 49.2289 1.3155 49.2289 0.847458C49.2289 0.37942 48.8494 0 48.3814 0C47.9134 0 47.5339 0.37942 47.5339 0.847458C47.5339 1.3155 47.9134 1.69492 48.3814 1.69492Z" fill="#894B9D"/>
<path d="M22.1102 20.3389C21.8854 20.3389 21.6698 20.2496 21.5109 20.0907C21.352 19.9318 21.2627 19.7162 21.2627 19.4915C21.2627 19.2667 21.352 19.0512 21.5109 18.8922C21.6698 18.7333 21.8854 18.644 22.1102 18.644C22.5779 18.644 22.9576 18.2644 22.9576 17.7966C22.9576 17.5718 23.0469 17.3562 23.2058 17.1973C23.3648 17.0384 23.5803 16.9491 23.8051 16.9491C24.0298 16.9491 24.2454 17.0384 24.4043 17.1973C24.5632 17.3562 24.6525 17.5718 24.6525 17.7966C24.6525 18.4708 24.3847 19.1175 23.9079 19.5943C23.4311 20.0711 22.7844 20.3389 22.1102 20.3389ZM28.8898 20.3389C28.2155 20.3389 27.5689 20.0711 27.0921 19.5943C26.6153 19.1175 26.3474 18.4708 26.3474 17.7966C26.3474 17.5718 26.4367 17.3562 26.5957 17.1973C26.7546 17.0384 26.9701 16.9491 27.1949 16.9491C27.4197 16.9491 27.6352 17.0384 27.7941 17.1973C27.9531 17.3562 28.0424 17.5718 28.0424 17.7966C28.0424 18.2644 28.422 18.644 28.8898 18.644C29.1146 18.644 29.3301 18.7333 29.4891 18.8922C29.648 19.0512 29.7373 19.2667 29.7373 19.4915C29.7373 19.7162 29.648 19.9318 29.4891 20.0907C29.3301 20.2496 29.1146 20.3389 28.8898 20.3389Z" fill="#F9C795"/>
</g>
<defs>
<clipPath id="clip0_129_3114">
<rect width="50" height="50" fill="white" transform="translate(0.5)"/>
</clipPath>
</defs>
</svg>
