<svg width="50" height="50" viewBox="0 0 50 50" fill="none" xmlns="http://www.w3.org/2000/svg">
<path d="M41.9759 18.9224V18.7273C41.9759 18.5978 42.0273 18.4736 42.1189 18.382C42.2105 18.2905 42.3347 18.239 42.4642 18.239H45.7061C45.8356 18.239 45.9597 18.1876 46.0513 18.096C46.1429 18.0044 46.1943 17.8802 46.1943 17.7507V13.876C46.1943 13.7465 46.1429 13.6223 46.0513 13.5308C45.9597 13.4392 45.8356 13.3878 45.7061 13.3878H45.0878C43.8869 13.3878 42.8642 12.454 42.8215 11.2539C42.7767 9.99391 43.7848 8.95836 45.0348 8.95836H45.7062C45.8357 8.95836 45.9598 8.90692 46.0514 8.81535C46.143 8.72378 46.1944 8.59958 46.1944 8.47008V4.59557C46.1944 4.46607 46.143 4.34187 46.0514 4.2503C45.9598 4.15873 45.8357 4.10729 45.7062 4.10729H42.4643C42.3348 4.10729 42.2106 4.05585 42.119 3.96427C42.0274 3.8727 41.976 3.74851 41.976 3.61901V3.42389C41.976 1.98727 40.8496 0.772914 39.4136 0.733559C37.9236 0.692739 36.7029 1.88834 36.7029 3.36911V3.61901C36.7029 3.74851 36.6515 3.8727 36.5599 3.96427C36.4683 4.05585 36.3441 4.10729 36.2146 4.10729H32.9727C32.8432 4.10729 32.719 4.15873 32.6274 4.2503C32.5358 4.34187 32.4844 4.46607 32.4844 4.59557V8.47028C32.4844 8.59978 32.5358 8.72397 32.6274 8.81554C32.719 8.90711 32.8432 8.95856 32.9727 8.95856H33.5909C34.7918 8.95856 35.8146 9.89235 35.8572 11.0924C35.9021 12.3524 34.8939 13.388 33.6439 13.388H32.4844V18.2392H36.2146C36.3441 18.2392 36.4682 18.2907 36.5598 18.3822C36.6514 18.4738 36.7028 18.598 36.7028 18.7275V18.9774C36.7028 20.4582 37.9235 21.6538 39.4135 21.613C40.8495 21.5735 41.9759 20.359 41.9759 18.9224Z" fill="#AF66DA"/>
<path d="M39.3744 3.42387V3.61899C39.3744 3.74849 39.4259 3.87268 39.5174 3.96425C39.609 4.05582 39.7332 4.10727 39.8627 4.10727H42.4642C42.3347 4.10727 42.2105 4.05582 42.1189 3.96425C42.0273 3.87268 41.9759 3.74849 41.9759 3.61899V3.42387C41.9759 1.98725 40.8495 0.772894 39.4134 0.733538C38.9297 0.719435 38.4516 0.839204 38.0317 1.07963C38.8372 1.54594 39.3744 2.43178 39.3744 3.42387ZM39.3744 18.7274V18.9225C39.3744 19.9146 38.8371 20.8004 38.0318 21.2667C38.4517 21.5072 38.9298 21.6269 39.4135 21.6128C40.8496 21.5735 41.976 20.3591 41.976 18.9225V18.7274C41.976 18.5979 42.0274 18.4737 42.119 18.3821C42.2106 18.2905 42.3348 18.2391 42.4643 18.2391H39.8628C39.7987 18.2391 39.7352 18.2517 39.6759 18.2762C39.6167 18.3008 39.5628 18.3367 39.5175 18.3821C39.4721 18.4274 39.4361 18.4813 39.4116 18.5405C39.387 18.5998 39.3744 18.6633 39.3744 18.7274ZM45.0348 8.95844H45.7062C45.8357 8.95844 45.9598 8.907 46.0514 8.81543C46.143 8.72386 46.1944 8.59966 46.1944 8.47016V4.59555C46.1944 4.46605 46.143 4.34185 46.0514 4.25028C45.9598 4.15871 45.8357 4.10727 45.7062 4.10727H43.1046C43.2341 4.10727 43.3583 4.15871 43.4499 4.25028C43.5414 4.34185 43.5929 4.46605 43.5929 4.59555V8.47026C43.5929 8.59976 43.5414 8.72395 43.4499 8.81552C43.3583 8.90709 43.2341 8.95854 43.1046 8.95854H42.4332C41.1832 8.95854 40.1751 9.99408 40.2199 11.254C40.2626 12.4541 41.2854 13.3879 42.4862 13.3879H43.5928V17.7509C43.5928 17.8804 43.5413 18.0046 43.4498 18.0962C43.3582 18.1878 43.234 18.2392 43.1045 18.2392H45.7061C45.8356 18.2392 45.9598 18.1878 46.0513 18.0962C46.1429 18.0046 46.1943 17.8804 46.1943 17.7509V13.8762C46.1943 13.7467 46.1429 13.6225 46.0513 13.5309C45.9598 13.4394 45.8356 13.3879 45.7061 13.3879H45.0878C43.8869 13.3879 42.8642 12.4541 42.8214 11.254C42.7767 9.99399 43.7848 8.95844 45.0348 8.95844Z" fill="#9857BD"/>
<path d="M45.0347 8.95846H45.7061C45.8356 8.95846 45.9597 8.90702 46.0513 8.81545C46.1429 8.72388 46.1943 8.59968 46.1943 8.47018V4.59557C46.1943 4.46607 46.1429 4.34187 46.0513 4.2503C45.9597 4.15873 45.8356 4.10729 45.7061 4.10729H42.4642C42.3347 4.10729 42.2105 4.05585 42.1189 3.96427C42.0273 3.8727 41.9759 3.74851 41.9759 3.61901V3.42389C41.9759 1.98727 40.8495 0.772914 39.4134 0.733559C37.9234 0.692739 36.7027 1.88834 36.7027 3.36911V3.61911C36.7027 3.74861 36.6513 3.8728 36.5597 3.96437C36.4681 4.05594 36.344 4.10739 36.2145 4.10739H32.9727C32.8432 4.10739 32.719 4.15883 32.6274 4.2504C32.5358 4.34197 32.4844 4.46617 32.4844 4.59567V8.47038C32.4844 8.59988 32.5358 8.72407 32.6274 8.81564C32.719 8.90721 32.8432 8.95866 32.9727 8.95866H33.5909C34.7918 8.95866 35.8146 9.89245 35.8572 11.0925C35.9021 12.3525 34.8939 13.3881 33.6439 13.3881H33.1455C33.8193 14.4733 34.2095 15.7531 34.2095 17.1245V18.2392H36.2145C36.3441 18.2392 36.4682 18.2907 36.5598 18.3822C36.6514 18.4738 36.7028 18.598 36.7028 18.7275V18.9774C36.7028 20.4582 37.9235 21.6538 39.4135 21.613C40.8496 21.5736 41.976 20.3592 41.976 18.9226V18.7275C41.976 18.598 42.0274 18.4738 42.119 18.3822C42.2106 18.2907 42.3348 18.2392 42.4643 18.2392H45.7062C45.8357 18.2392 45.9598 18.1878 46.0514 18.0962C46.143 18.0046 46.1944 17.8804 46.1944 17.7509V13.8762C46.1944 13.7467 46.143 13.6225 46.0514 13.531C45.9598 13.4394 45.8357 13.388 45.7062 13.388H45.0879C43.887 13.388 42.8643 12.4542 42.8216 11.2541C42.7766 9.99401 43.7847 8.95846 45.0347 8.95846Z" stroke="black" stroke-miterlimit="10" stroke-linecap="round" stroke-linejoin="round"/>
<path d="M15.8636 21.4736H17.4225V20.0225C17.4225 18.6411 18.5463 17.5174 19.9277 17.5174H28.9062C30.2876 17.5174 31.4114 18.6412 31.4114 20.0225V21.4736H32.9703C33.4161 21.4736 33.837 21.5813 34.2094 21.771V17.1244C34.2094 13.2058 31.0327 10.0292 27.1142 10.0292H21.7197C17.8012 10.0292 14.6245 13.2058 14.6245 17.1244V21.771C15.0082 21.5752 15.4328 21.4733 15.8636 21.4736Z" fill="#FFE177"/>
<path d="M27.1142 10.0291H25.7126C27.7454 11.2769 29.1016 13.5197 29.1016 16.0796V17.5255C30.3919 17.6256 31.4115 18.7068 31.4115 20.0224V21.4735H32.9704C33.4162 21.4735 33.8371 21.5812 34.2094 21.7708V17.1243C34.2095 13.2057 31.0329 10.0291 27.1142 10.0291Z" fill="#FFD15B"/>
<path d="M34.2095 21.7708V17.1243C34.2095 13.2057 31.0328 10.0291 27.1143 10.0291H21.7197C17.8012 10.0291 14.6245 13.2057 14.6245 17.1243V21.7708" stroke="black" stroke-miterlimit="10" stroke-linecap="round" stroke-linejoin="round"/>
<path d="M38.188 37.0482L27.4431 32.9438V34.8125C27.4431 36.4592 26.1545 37.8527 24.5085 37.9016C22.7982 37.9523 21.3908 36.5759 21.3908 34.8769V32.9438L10.6459 37.0482C8.51826 37.8609 7.11279 39.9023 7.11279 42.18V47.8028C7.11279 48.6118 7.76865 49.2677 8.57764 49.2677H40.2562C41.0651 49.2677 41.721 48.6118 41.721 47.8028V42.18C41.7211 39.9023 40.3156 37.861 38.188 37.0482Z" fill="#8AC9FE"/>
<path d="M38.1879 37.0482L27.443 32.9438V34.8125C27.443 35.0481 27.4157 35.2783 27.3657 35.5004L34.1023 38.0737C36.23 38.8864 37.6354 40.9278 37.6354 43.2055V48.8282C37.6356 48.9773 37.6129 49.1255 37.5682 49.2677H40.2562C41.0651 49.2677 41.721 48.6118 41.721 47.8028V42.18C41.721 39.9023 40.3155 37.861 38.1879 37.0482Z" fill="#60B7FF"/>
<path d="M34.4991 49.2677H40.2563C41.0652 49.2677 41.7211 48.6118 41.7211 47.8028V42.18C41.7211 39.9023 40.3156 37.861 38.188 37.0482L27.4431 32.9438V34.8125C27.4431 36.4592 26.1544 37.8527 24.5085 37.9017C22.7982 37.9524 21.3908 36.576 21.3908 34.877V32.9439L10.6459 37.0483C8.51826 37.861 7.11279 39.9024 7.11279 42.1801V47.8028C7.11279 48.6118 7.76865 49.2677 8.57764 49.2677H31.0811" stroke="black" stroke-miterlimit="10" stroke-linecap="round" stroke-linejoin="round"/>
<path d="M26.8227 32.548H22.0113C21.7703 32.548 21.5297 32.529 21.2917 32.4912V34.8769C21.2917 36.6028 22.691 38.0021 24.417 38.0021C26.143 38.0021 27.5423 36.6028 27.5423 34.8769V32.4912C27.3077 32.5283 27.0674 32.548 26.8227 32.548Z" fill="#FFB09E"/>
<path d="M26.8228 32.548H24.5124V34.8769C24.5124 36.053 23.8623 37.077 22.9021 37.6103C23.3655 37.8679 23.887 38.0027 24.4171 38.0021C26.1432 38.0021 27.5423 36.6028 27.5423 34.8769V32.4912C27.3043 32.529 27.0638 32.548 26.8228 32.548Z" fill="#F89580"/>
<path d="M26.8227 32.548H22.0113C21.7703 32.548 21.5297 32.529 21.2917 32.4912V34.8769C21.2917 36.6028 22.691 38.0021 24.417 38.0021C26.143 38.0021 27.5423 36.6028 27.5423 34.8769V32.4912C27.3077 32.5283 27.0674 32.548 26.8227 32.548Z" stroke="black" stroke-miterlimit="10" stroke-linecap="round" stroke-linejoin="round"/>
<path d="M17.4275 21.3744H15.8635C14.2954 21.3744 13.0242 22.6456 13.0242 24.2137V25.098C13.0242 26.6662 14.2954 27.9374 15.8635 27.9374H17.4275V21.3744Z" fill="#FFB09E"/>
<path d="M17.4275 21.3744H15.8635C14.2954 21.3744 13.0242 22.6456 13.0242 24.2137V25.098C13.0242 26.6662 14.2954 27.9374 15.8635 27.9374H17.4275V21.3744Z" stroke="black" stroke-miterlimit="10" stroke-linecap="round" stroke-linejoin="round"/>
<path d="M32.9705 21.3744H31.4065V27.9374H32.9705C34.5386 27.9374 35.8098 26.6662 35.8098 25.098V24.2137C35.8098 22.6457 34.5385 21.3744 32.9705 21.3744Z" fill="#F89580"/>
<path d="M32.9705 21.3744H31.4065V27.9374H32.9705C34.5386 27.9374 35.8098 26.6662 35.8098 25.098V24.2137C35.8098 22.6457 34.5385 21.3744 32.9705 21.3744Z" stroke="black" stroke-miterlimit="10" stroke-linecap="round" stroke-linejoin="round"/>
<path d="M26.8226 32.6471H22.0111C19.4221 32.6471 17.3232 30.5483 17.3232 27.9592V20.0225C17.3232 18.5841 18.4893 17.4181 19.9276 17.4181H28.9061C30.3444 17.4181 31.5104 18.5841 31.5104 20.0225V27.9593C31.5104 30.5483 29.4116 32.6471 26.8226 32.6471Z" fill="#FFCEBF"/>
<path d="M28.9063 17.4181H25.8408C27.2792 17.4181 28.4452 18.5841 28.4452 20.0225V27.9593C28.4452 30.5484 26.3464 32.6472 23.7573 32.6472H26.8229C29.4119 32.6472 31.5107 30.5484 31.5107 27.9593V20.0225C31.5106 18.5841 30.3446 17.4181 28.9063 17.4181Z" fill="#FFB09E"/>
<path d="M21.6796 17.4181H19.9276C18.4893 17.4181 17.3232 18.5841 17.3232 20.0225V27.9593C17.3232 30.5484 19.4221 32.6472 22.0111 32.6472H26.8226C29.4116 32.6472 31.5104 30.5484 31.5104 27.9593V20.0225C31.5104 18.5841 30.3444 17.4181 28.9061 17.4181H25.0975" stroke="black" stroke-miterlimit="10" stroke-linecap="round" stroke-linejoin="round"/>
<path d="M24.4169 23.1467L23.2491 24.5648C23.2032 24.6205 23.1792 24.691 23.1814 24.7631C23.1836 24.8352 23.212 24.9041 23.2612 24.9568L24.4168 26.1951M22.2197 29.2969H26.6142M20.928 22.2168V23.9059M27.9058 22.2168V23.9059" stroke="black" stroke-miterlimit="10" stroke-linecap="round" stroke-linejoin="round"/>
<path d="M4.59277 7.43379V14.8796L11.041 18.6024L17.4893 14.8796V7.43379L11.041 3.71094L4.59277 7.43379Z" fill="#6CF5C2"/>
<path d="M11.041 3.71094L9.03467 4.86934L13.4795 7.43555C13.6279 7.52126 13.7512 7.64453 13.8369 7.79298C13.9226 7.94143 13.9678 8.10983 13.9678 8.28125V14.0322C13.9678 14.2036 13.9227 14.372 13.8369 14.5205C13.7512 14.669 13.628 14.7922 13.4795 14.8779L9.03467 17.4441L11.041 18.6025L17.4893 14.8797V7.43379L11.041 3.71094Z" fill="#00F2A6"/>
<path d="M4.59277 12.793V14.8796L11.041 18.6025L17.4893 14.8796V7.43379L11.041 3.71094L4.59277 7.43379V9.375" stroke="black" stroke-miterlimit="10" stroke-linecap="round" stroke-linejoin="round"/>
<path d="M8.01074 12.9063V9.40723L11.0409 7.65771L14.0713 9.40723V12.9063L11.0409 14.6559L8.01074 12.9063Z" fill="#05E39C"/>
<path d="M11.0409 7.65771L9.47119 8.56406L11.0322 9.46533C11.1807 9.55104 11.304 9.67432 11.3897 9.82277C11.4754 9.97122 11.5205 10.1396 11.5205 10.311V12.0025C11.5205 12.174 11.4754 12.3424 11.3897 12.4908C11.304 12.6393 11.1807 12.7625 11.0322 12.8482L9.47119 13.7495L11.0409 14.6559L14.0712 12.9063V9.40723L11.0409 7.65771Z" fill="#0ED290"/>
<path d="M8.01074 12.9063V9.40723L11.0409 7.65771L14.0713 9.40723V12.9063L11.0409 14.6559L8.01074 12.9063Z" stroke="black" stroke-miterlimit="10" stroke-linecap="round" stroke-linejoin="round"/>
<path d="M3.80566 25.7896V22.2905L6.83594 20.541L9.86621 22.2905V25.7896L6.83594 27.5392L3.80566 25.7896Z" fill="#6CF5C2"/>
<path d="M6.83594 20.541L5.31934 21.4166L6.83594 22.2922C6.98439 22.3779 7.10767 22.5012 7.19338 22.6496C7.27909 22.7981 7.32421 22.9665 7.32422 23.1379V24.9422C7.32422 25.1136 7.2791 25.282 7.19339 25.4305C7.10768 25.5789 6.9844 25.7022 6.83594 25.7879L5.31934 26.6635L6.83594 27.5392L9.86621 25.7896V22.2905L6.83594 20.541Z" fill="#00F2A6"/>
<path d="M3.80566 25.7896V22.2905L6.83594 20.541L9.86621 22.2905V25.7896L6.83594 27.5392L3.80566 25.7896Z" stroke="black" stroke-miterlimit="10" stroke-linecap="round" stroke-linejoin="round"/>
</svg>
