<svg width="36" height="36" viewBox="0 0 36 36" fill="none" xmlns="http://www.w3.org/2000/svg">
<g clip-path="url(#clip0_337_1061)">
<path d="M22.9383 18.3214C22.6625 19.4406 22.5725 21.031 23.8498 21.9857C25.457 23.191 26.1519 23.9695 26.4521 24.721C26.6128 24.2106 26.69 23.6777 26.6784 23.1428C26.7178 21.9193 27.1575 20.7425 27.9301 19.7929C27.6811 19.8202 27.4309 19.8348 27.1805 19.8366C25.6367 19.8207 24.1428 19.2871 22.9383 18.3214ZM9.32126 10.2857C9.32126 10.1152 9.38899 9.95168 9.50955 9.83112C9.63011 9.71056 9.79362 9.64284 9.96412 9.64284C10.1346 9.64284 10.2981 9.71056 10.4187 9.83112C10.5392 9.95168 10.607 10.1152 10.607 10.2857C10.607 10.7972 10.4038 11.2877 10.0421 11.6494C9.68044 12.0111 9.1899 12.2143 8.67841 12.2143H8.01498C8.08924 12.7723 8.32497 13.2965 8.69319 13.7224C8.87319 13.9088 9.08662 14.0612 9.32126 14.1724V14.1428C9.32126 13.9723 9.38899 13.8088 9.50955 13.6883C9.63011 13.5677 9.79362 13.5 9.96412 13.5C10.1346 13.5 10.2981 13.5677 10.4187 13.6883C10.5392 13.8088 10.607 13.9723 10.607 14.1428V14.472C10.9991 14.4887 11.3913 14.4688 11.7789 14.4115L12.6416 14.2888C14.3038 13.988 15.9893 13.8351 17.6784 13.8317V13.5C17.6784 13.3295 17.7461 13.166 17.8667 13.0454C17.9873 12.9248 18.1508 12.8571 18.3213 12.8571C18.4918 12.8571 18.6553 12.9248 18.7758 13.0454C18.8964 13.166 18.9641 13.3295 18.9641 13.5V13.9885C20.0026 14.2138 20.953 14.7365 21.6995 15.4928C22.4377 16.2525 23.2435 16.9434 24.107 17.557V17.3571C24.107 16.8456 24.3102 16.3551 24.6718 15.9934C25.0335 15.6317 25.5241 15.4285 26.0356 15.4285H27.9641C28.1346 15.4285 28.2981 15.4963 28.4187 15.6168C28.5393 15.7374 28.607 15.9009 28.607 16.0714C28.607 16.2419 28.5393 16.4054 28.4187 16.526C28.2981 16.6465 28.1346 16.7143 27.9641 16.7143H26.0356C25.8651 16.7143 25.7015 16.782 25.581 16.9026C25.4604 17.0231 25.3927 17.1866 25.3927 17.3571V18.2301C26.5607 18.645 27.8328 18.6639 29.0126 18.2841C29.7579 17.9651 30.3942 17.4362 30.8441 16.7618C31.1066 16.3438 31.3189 15.8963 31.4767 15.4285H30.5356C30.3651 15.4285 30.2015 15.3608 30.081 15.2403C29.9604 15.1197 29.8927 14.9562 29.8927 14.7857C29.8927 14.6152 29.9604 14.4517 30.081 14.3311C30.2015 14.2106 30.3651 14.1428 30.5356 14.1428H31.7673C31.7917 13.9275 31.8161 13.7121 31.8193 13.4884C31.8226 13.2763 31.8123 13.0673 31.8078 12.8571H30.5356C30.3651 12.8571 30.2015 12.7894 30.081 12.6688C29.9604 12.5483 29.8927 12.3848 29.8927 12.2143C29.8927 12.0438 29.9604 11.8803 30.081 11.7597C30.2015 11.6391 30.3651 11.5714 30.5356 11.5714H31.7332C31.6585 10.7494 31.5114 9.93559 31.2935 9.13948C31.0255 8.20679 30.5462 7.34843 29.8927 6.63105V7.07141C29.8927 7.5829 29.6895 8.07344 29.3278 8.43511C28.9662 8.79679 28.4756 8.99998 27.9641 8.99998C27.7936 8.99998 27.6301 8.93225 27.5096 8.81169C27.389 8.69113 27.3213 8.52762 27.3213 8.35712C27.3213 8.18662 27.389 8.02311 27.5096 7.90255C27.6301 7.78199 27.7936 7.71426 27.9641 7.71426C28.1346 7.71426 28.2981 7.64653 28.4187 7.52598C28.5393 7.40542 28.607 7.2419 28.607 7.07141V5.46426C28.1909 5.14442 27.7619 4.8416 27.3213 4.55655V5.78569C27.3213 5.95619 27.2535 6.1197 27.133 6.24026C27.0124 6.36082 26.8489 6.42855 26.6784 6.42855C26.5079 6.42855 26.3444 6.36082 26.2238 6.24026C26.1033 6.1197 26.0356 5.95619 26.0356 5.78569V3.85712C26.0356 3.84234 26.0433 3.83012 26.0439 3.81534C25.0337 3.28533 23.9461 2.91824 22.8213 2.72762V4.49998H23.4641C23.6346 4.49998 23.7981 4.56771 23.9187 4.68827C24.0393 4.80883 24.107 4.97234 24.107 5.14284C24.107 5.31333 24.0393 5.47685 23.9187 5.5974C23.7981 5.71796 23.6346 5.78569 23.4641 5.78569H22.1784C22.0079 5.78569 21.8444 5.71796 21.7238 5.5974C21.6033 5.47685 21.5356 5.31333 21.5356 5.14284V2.58748C21.1477 2.5698 20.7592 2.5698 20.3713 2.58748C20.3315 2.58748 20.2903 2.59519 20.2498 2.59776V3.21426C20.2498 3.38476 20.1821 3.54827 20.0615 3.66883C19.941 3.78939 19.7775 3.85712 19.607 3.85712C19.4365 3.85712 19.273 3.78939 19.1524 3.66883C19.0319 3.54827 18.9641 3.38476 18.9641 3.21426V2.70512C18.5353 2.75205 18.1066 2.81184 17.6784 2.87548V3.21426C17.6784 3.38476 17.6107 3.54827 17.4901 3.66883C17.3696 3.78939 17.206 3.85712 17.0356 3.85712C16.8651 3.85712 16.7015 3.78939 16.581 3.66883C16.4604 3.54827 16.3927 3.38476 16.3927 3.21426V3.08569C15.827 3.18662 15.2664 3.29269 14.7213 3.40326C14.2006 3.50741 13.685 3.63984 13.1784 3.79926V5.14284C13.1784 5.31333 13.2461 5.47685 13.3667 5.5974C13.4873 5.71796 13.6508 5.78569 13.8213 5.78569C13.9918 5.78569 14.1553 5.85342 14.2758 5.97398C14.3964 6.09454 14.4641 6.25805 14.4641 6.42855C14.4641 6.59905 14.3964 6.76256 14.2758 6.88312C14.1553 7.00368 13.9918 7.07141 13.8213 7.07141C13.3098 7.07141 12.8192 6.86822 12.4576 6.50654C12.0959 6.14486 11.8927 5.65432 11.8927 5.14284V4.30262C11.3059 4.56903 10.7722 4.93926 10.317 5.39548C9.84632 5.89998 9.44289 6.4633 9.11684 7.07141H10.607C10.7775 7.07141 10.941 7.13914 11.0615 7.2597C11.1821 7.38025 11.2498 7.54377 11.2498 7.71426C11.2498 7.88476 11.1821 8.04827 11.0615 8.16883C10.941 8.28939 10.7775 8.35712 10.607 8.35712H8.53119C8.38398 8.79234 8.14548 9.77976 8.05998 10.1449C8.00939 10.4037 7.97525 10.6654 7.95776 10.9285H8.67841C8.8489 10.9285 9.01242 10.8608 9.13298 10.7403C9.25353 10.6197 9.32126 10.4562 9.32126 10.2857ZM26.6784 12.8571C26.8489 12.8571 27.0124 12.7894 27.133 12.6688C27.2535 12.5483 27.3213 12.3848 27.3213 12.2143V10.9285C27.3213 10.7581 27.389 10.5945 27.5096 10.474C27.6301 10.3534 27.7936 10.2857 27.9641 10.2857C28.1346 10.2857 28.2981 10.3534 28.4187 10.474C28.5393 10.5945 28.607 10.7581 28.607 10.9285V12.2143C28.607 12.7258 28.4038 13.2163 28.0421 13.578C27.6804 13.9396 27.1899 14.1428 26.6784 14.1428H26.0356C25.8651 14.1428 25.7015 14.0751 25.581 13.9545C25.4604 13.834 25.3927 13.6705 25.3927 13.5C25.3927 13.3295 25.4604 13.166 25.581 13.0454C25.7015 12.9248 25.8651 12.8571 26.0356 12.8571H26.6784ZM24.7498 7.07141H25.3927C25.5632 7.07141 25.7267 7.13914 25.8473 7.2597C25.9678 7.38025 26.0356 7.54377 26.0356 7.71426C26.0356 7.88476 25.9678 8.04827 25.8473 8.16883C25.7267 8.28939 25.5632 8.35712 25.3927 8.35712H24.7498C24.5793 8.35712 24.4158 8.42485 24.2953 8.54541C24.1747 8.66597 24.107 8.82948 24.107 8.99998C24.107 9.17047 24.1747 9.33399 24.2953 9.45455C24.4158 9.57511 24.5793 9.64284 24.7498 9.64284H25.3927C25.5632 9.64284 25.7267 9.71056 25.8473 9.83112C25.9678 9.95168 26.0356 10.1152 26.0356 10.2857C26.0356 10.4562 25.9678 10.6197 25.8473 10.7403C25.7267 10.8608 25.5632 10.9285 25.3927 10.9285H24.7498C24.2383 10.9285 23.7478 10.7254 23.3861 10.3637C23.0245 10.002 22.8213 9.51147 22.8213 8.99998C22.8213 8.48849 23.0245 7.99795 23.3861 7.63627C23.7478 7.27459 24.2383 7.07141 24.7498 7.07141ZM21.5356 10.9285V11.5714C21.5356 11.7419 21.6033 11.9054 21.7238 12.026C21.8444 12.1465 22.0079 12.2143 22.1784 12.2143H22.8213C22.9918 12.2143 23.1553 12.282 23.2758 12.4026C23.3964 12.5231 23.4641 12.6866 23.4641 12.8571C23.4641 13.0276 23.3964 13.1911 23.2758 13.3117C23.1553 13.4322 22.9918 13.5 22.8213 13.5H22.1784C21.6669 13.5 21.1764 13.2968 20.8147 12.9351C20.453 12.5734 20.2498 12.0829 20.2498 11.5714V10.9285C20.2498 10.7581 20.3176 10.5945 20.4381 10.474C20.5587 10.3534 20.7222 10.2857 20.8927 10.2857C21.0632 10.2857 21.2267 10.3534 21.3473 10.474C21.4678 10.5945 21.5356 10.7581 21.5356 10.9285ZM15.7498 7.07141C15.7498 6.55992 15.953 6.06938 16.3147 5.7077C16.6764 5.34602 17.1669 5.14284 17.6784 5.14284H18.9641C19.4756 5.14284 19.9662 5.34602 20.3278 5.7077C20.6895 6.06938 20.8927 6.55992 20.8927 7.07141V7.71426C20.8927 7.88476 20.825 8.04827 20.7044 8.16883C20.5838 8.28939 20.4203 8.35712 20.2498 8.35712C20.0793 8.35712 19.9158 8.28939 19.7953 8.16883C19.6747 8.04827 19.607 7.88476 19.607 7.71426V7.07141C19.607 6.90091 19.5393 6.7374 19.4187 6.61684C19.2981 6.49628 19.1346 6.42855 18.9641 6.42855H17.6784C17.5079 6.42855 17.3444 6.49628 17.2238 6.61684C17.1033 6.7374 17.0356 6.90091 17.0356 7.07141V7.71426C17.0356 7.88476 16.9678 8.04827 16.8473 8.16883C16.7267 8.28939 16.5632 8.35712 16.3927 8.35712C16.2222 8.35712 16.0587 8.28939 15.9381 8.16883C15.8176 8.04827 15.7498 7.88476 15.7498 7.71426V7.07141ZM16.3927 10.2857H17.0356C17.206 10.2857 17.3696 10.218 17.4901 10.0974C17.6107 9.97684 17.6784 9.81333 17.6784 9.64284V8.35712C17.6784 8.18662 17.7461 8.02311 17.8667 7.90255C17.9873 7.78199 18.1508 7.71426 18.3213 7.71426C18.4918 7.71426 18.6553 7.78199 18.7758 7.90255C18.8964 8.02311 18.9641 8.18662 18.9641 8.35712V9.64284C18.9641 10.1543 18.7609 10.6449 18.3993 11.0065C18.0376 11.3682 17.547 11.5714 17.0356 11.5714H16.3927C16.2222 11.5714 16.0587 11.5037 15.9381 11.3831C15.8176 11.2626 15.7498 11.099 15.7498 10.9285C15.7498 10.7581 15.8176 10.5945 15.9381 10.474C16.0587 10.3534 16.2222 10.2857 16.3927 10.2857ZM11.8927 10.2857C11.8927 9.7742 12.0959 9.28366 12.4576 8.92199C12.8192 8.56031 13.3098 8.35712 13.8213 8.35712H14.4641C14.6346 8.35712 14.7981 8.42485 14.9187 8.54541C15.0393 8.66597 15.107 8.82948 15.107 8.99998C15.107 9.17047 15.0393 9.33399 14.9187 9.45455C14.7981 9.57511 14.6346 9.64284 14.4641 9.64284H13.8213C13.6508 9.64284 13.4873 9.71056 13.3667 9.83112C13.2461 9.95168 13.1784 10.1152 13.1784 10.2857V10.9285C13.1784 11.099 13.2461 11.2626 13.3667 11.3831C13.4873 11.5037 13.6508 11.5714 13.8213 11.5714H14.4641C14.6346 11.5714 14.7981 11.6391 14.9187 11.7597C15.0393 11.8803 15.107 12.0438 15.107 12.2143C15.107 12.3848 15.0393 12.5483 14.9187 12.6688C14.7981 12.7894 14.6346 12.8571 14.4641 12.8571H13.8213C13.3098 12.8571 12.8192 12.6539 12.4576 12.2923C12.0959 11.9306 11.8927 11.44 11.8927 10.9285V10.2857Z" fill="#1E8FD3"/>
<path d="M3.07856 21.9954C3.62949 22.2757 4.38228 22.6601 4.53206 23.4489C4.62519 23.9344 4.56474 24.4368 4.35914 24.8863C4.24985 25.1158 4.13735 25.3171 4.03771 25.4913C4.00364 25.5511 3.96699 25.6198 3.93421 25.6771C4.19778 25.8886 4.56549 26.1637 4.71978 26.2781C4.78877 26.3292 4.84682 26.3937 4.8905 26.4676C4.93418 26.5415 4.96262 26.6234 4.97412 26.7085C4.98563 26.7936 4.97997 26.8801 4.95749 26.963C4.935 27.0459 4.89614 27.1234 4.84321 27.191C4.74806 27.3151 4.66578 27.4481 4.59699 27.5889L4.73456 27.668C5.01523 27.7889 5.26647 27.969 5.47107 28.196C5.67566 28.4231 5.8288 28.6916 5.91999 28.9833C6.01192 29.4397 5.99135 29.9109 5.85957 30.3571C5.82999 30.4908 5.79978 30.6238 5.78242 30.7569C5.74549 31.1418 5.79853 31.53 5.93735 31.8909C6.00389 32.1785 6.17933 32.429 6.42677 32.5899C6.67421 32.7508 6.97439 32.8095 7.26421 32.7536C9.1338 32.2976 10.9774 31.7409 12.787 31.0861C13.4022 30.8758 13.9647 30.6791 14.4231 30.5184C14.929 30.341 15.3102 30.2079 15.5018 30.1475C18.1729 29.3118 18.7161 28.3436 18.6994 27.6815C18.6973 27.5971 18.7119 27.5131 18.7423 27.4343C18.7728 27.3555 18.8184 27.2835 18.8767 27.2224C18.9349 27.1612 19.0047 27.1122 19.0819 27.078C19.1591 27.0438 19.2424 27.0252 19.3268 27.0232C19.6771 27.0277 19.9645 27.3016 19.9851 27.6513C20.0224 29.2584 18.6441 30.5088 15.8881 31.3741C15.7043 31.4319 15.3359 31.5611 14.8486 31.7315C14.704 31.7829 14.5491 31.8363 14.3851 31.8935C15.4488 33.0687 16.2257 34.4743 16.6551 36.0001L31.2338 35.9602L31.1875 35.8901C31.0037 35.625 30.8381 35.3478 30.6919 35.0602C30.3736 34.4082 30.1064 33.7324 29.8928 33.0391C29.5025 31.7241 29.2331 30.3762 29.0879 29.0122C28.8326 26.8623 29.1566 24.6832 30.0265 22.7006C30.5406 21.6296 31.1751 20.6206 31.9178 19.6933C32.2919 19.1893 32.6789 18.668 33.0106 18.1396C33.9 16.7636 34.3794 15.1628 34.3928 13.5245C34.4292 11.8073 34.2189 10.0938 33.7686 8.43627C33.1995 6.48551 32.0054 4.77571 30.3698 3.56984C26.9999 0.928981 23.8795 -0.171591 20.2422 0.0199809C18.2134 0.16141 16.1986 0.450695 14.2116 0.885267C11.581 1.41434 9.69614 2.31434 8.45092 3.62577C7.43373 4.71133 6.64905 5.99325 6.14499 7.39291C5.92449 8.02934 5.74514 8.67991 5.60757 9.34013L5.55549 9.56448C5.40231 10.1452 5.19327 10.7097 4.93128 11.2501C4.80603 11.5221 4.68897 11.7977 4.58028 12.0768C4.51471 12.2182 4.47999 12.3712 4.47742 12.5268C4.50506 12.7248 4.75064 12.9498 5.01035 13.1876C5.27352 13.3722 5.49385 13.6113 5.65636 13.8886C5.81887 14.1659 5.91975 14.475 5.95214 14.7948C5.94151 15.1015 5.85492 15.4008 5.70014 15.6658C4.89689 17.3596 3.9125 18.9613 2.76421 20.4429C2.26985 21.0466 2.16892 21.2786 2.16699 21.3783C2.28528 21.4895 2.41128 21.5917 2.54499 21.6843C2.71406 21.8026 2.89214 21.9067 3.07856 21.9954ZM6.80328 9.87306C6.84249 9.70527 7.15299 8.37198 7.35035 7.83648C7.39021 7.72913 7.43971 7.62948 7.48278 7.52406C7.49512 7.48465 7.51127 7.44654 7.53099 7.41027C7.96838 6.33923 8.59681 5.35662 9.38564 4.51034C10.2002 3.71091 11.1878 3.10974 12.2721 2.75341C12.2862 2.74698 12.301 2.74377 12.3158 2.73798C13.0165 2.48727 13.7346 2.28991 14.4642 2.14591C16.1292 1.79234 17.8122 1.53327 19.5061 1.36998C19.5391 1.36037 19.5729 1.3537 19.6071 1.35005C19.6219 1.35005 19.6341 1.35712 19.6489 1.35841C19.8681 1.34041 20.0873 1.31534 20.3065 1.30377C20.5514 1.2922 20.7906 1.28577 21.0271 1.28577C24.0338 1.28577 26.6701 2.30341 29.5771 4.58427C30.9955 5.62427 32.0329 7.10143 32.5298 8.78856C32.8345 9.89765 33.0173 11.0367 33.0749 12.1854C33.0749 12.1957 33.0807 12.2041 33.0807 12.2143V12.2259C33.1039 12.6483 33.1135 13.0758 33.1071 13.5071C33.0978 13.9364 33.0524 14.3641 32.9714 14.7858C32.9707 14.8771 32.9503 14.9672 32.9116 15.05C32.7278 15.9012 32.3957 16.7135 31.9306 17.4498C31.4982 18.0797 30.9534 18.6245 30.3235 19.0569L30.3042 19.0743C29.1406 20.2006 27.9642 21.5647 27.9642 23.1429C27.9642 26.0281 26.4914 26.8483 26.323 26.9358C26.2247 26.9849 26.1155 27.008 26.0058 27.0029C25.896 26.9978 25.7894 26.9646 25.6961 26.9066C25.6028 26.8486 25.526 26.7676 25.4729 26.6714C25.4198 26.5753 25.3922 26.4671 25.3928 26.3572C25.3928 25.22 25.3928 24.7501 23.0785 23.0143C20.9301 21.4072 21.4546 18.6931 21.8571 17.4215C21.4982 17.0914 21.1452 16.7549 20.7983 16.4122C19.0169 14.6701 16.9469 14.9677 12.8224 15.5611L11.9571 15.6858C10.0979 15.9493 8.68235 15.5868 7.75664 14.6058C6.29992 13.0578 6.65864 10.5924 6.80328 9.87306Z" fill="#1E8FD3"/>
</g>
<defs>
<clipPath id="clip0_337_1061">
<rect width="36" height="36" fill="white"/>
</clipPath>
</defs>
</svg>
