<svg width="16" height="16" viewBox="0 0 16 16" fill="none" xmlns="http://www.w3.org/2000/svg">
<path d="M13.7819 12.3713C14.0388 12.0384 14.1972 11.6402 14.2393 11.2218C14.2814 10.8034 14.2054 10.3816 14.02 10.0042C13.8345 9.62687 13.547 9.30901 13.1901 9.08672C12.8332 8.86443 12.4211 8.74661 12.0006 8.74661C11.5801 8.74661 11.1681 8.86443 10.8112 9.08672C10.4542 9.30901 10.1667 9.62687 9.98129 10.0042C9.79583 10.3816 9.71984 10.8034 9.76192 11.2218C9.804 11.6402 9.96248 12.0384 10.2194 12.3713C9.75885 12.7366 9.42835 13.2407 9.27687 13.8088C9.22598 14.0009 9.25348 14.2055 9.35333 14.3774C9.45318 14.5493 9.61721 14.6746 9.80937 14.7256C9.87158 14.7421 9.93567 14.7502 10 14.75C10.1653 14.7499 10.3259 14.6952 10.4569 14.5944C10.5879 14.4935 10.6819 14.3523 10.7244 14.1925C10.875 13.6375 11.3969 13.25 12 13.25C12.6031 13.25 13.125 13.6375 13.275 14.1925C13.3287 14.3818 13.4547 14.5424 13.6257 14.6397C13.7968 14.737 13.9992 14.7632 14.1894 14.7126C14.3795 14.662 14.5422 14.5387 14.6423 14.3693C14.7424 14.1998 14.7718 13.9978 14.7244 13.8069C14.5727 13.2394 14.2422 12.736 13.7819 12.3713ZM12 10.25C12.1483 10.25 12.2933 10.294 12.4167 10.3764C12.54 10.4588 12.6361 10.5759 12.6929 10.713C12.7497 10.85 12.7645 11.0008 12.7356 11.1463C12.7066 11.2918 12.6352 11.4254 12.5303 11.5303C12.4254 11.6352 12.2918 11.7067 12.1463 11.7356C12.0008 11.7645 11.85 11.7497 11.713 11.6929C11.5759 11.6361 11.4588 11.54 11.3764 11.4167C11.294 11.2933 11.25 11.1483 11.25 11C11.25 10.8011 11.329 10.6103 11.4697 10.4697C11.6103 10.329 11.8011 10.25 12 10.25ZM13.5 4.25H8.33687L6.71187 2.41938C6.59436 2.28722 6.45015 2.18151 6.28875 2.10922C6.12736 2.03692 5.95247 1.9997 5.77563 2H2.5C2.16848 2 1.85054 2.1317 1.61612 2.36612C1.3817 2.60054 1.25 2.91848 1.25 3.25V12.5381C1.25033 12.8593 1.37803 13.1673 1.60509 13.3945C1.83216 13.6216 2.14005 13.7495 2.46125 13.75H7.035C7.23391 13.75 7.42468 13.671 7.56533 13.5303C7.70598 13.3897 7.785 13.1989 7.785 13C7.785 12.8011 7.70598 12.6103 7.56533 12.4697C7.42468 12.329 7.23391 12.25 7.035 12.25H2.75V5.75H13.25V6.75C13.25 6.94891 13.329 7.13968 13.4697 7.28033C13.6103 7.42098 13.8011 7.5 14 7.5C14.1989 7.5 14.3897 7.42098 14.5303 7.28033C14.671 7.13968 14.75 6.94891 14.75 6.75V5.5C14.75 5.16848 14.6183 4.85054 14.3839 4.61612C14.1495 4.3817 13.8315 4.25 13.5 4.25ZM2.75 4.25V3.5H5.66313L6.33 4.25H2.75Z" fill="#555756"/>
</svg>
