<svg width="47" height="46" viewBox="0 0 47 46" fill="none" xmlns="http://www.w3.org/2000/svg">
<path d="M39.9663 24.0938C29.9936 30.1777 20.8174 32.6317 7.03345 24.0938C13.617 17.1758 8.7147 8.52774 13.3553 3.43712C17.9959 -1.65351 23.4999 2.15157 23.4999 2.15157C23.4999 2.15157 29.0077 -1.6539 33.6444 3.43712C38.2811 8.52813 33.3827 17.1758 39.9663 24.0938Z" fill="#3C4969"/>
<path d="M38.4375 45.1484H8.56246C8.30048 45.1484 8.04182 45.0898 7.8054 44.9769C7.56898 44.864 7.36078 44.6998 7.19603 44.4961C7.03127 44.2924 6.91413 44.0544 6.85318 43.7996C6.79222 43.5448 6.78899 43.2796 6.84371 43.0234L7.93746 37.8672C8.32305 36.0459 9.32284 34.4124 10.7693 33.2404C12.2158 32.0685 14.0211 31.4292 15.8828 31.4297H31.1171C32.9788 31.4292 34.7841 32.0685 36.2306 33.2404C37.6771 34.4124 38.6769 36.0459 39.0625 37.8672L40.1562 43.0234C40.2109 43.2796 40.2077 43.5448 40.1467 43.7996C40.0858 44.0544 39.9686 44.2924 39.8039 44.4961C39.6391 44.6998 39.4309 44.864 39.1945 44.9769C38.9581 45.0898 38.6994 45.1484 38.4375 45.1484Z" fill="#8BE08E"/>
<path d="M28.966 31.4093C25.322 34.0044 21.6779 34.0044 18.0339 31.4093C18.0339 31.4093 19.9738 29.0534 19.9738 26.7335H27.0261C27.0261 29.0546 28.966 31.4093 28.966 31.4093Z" fill="#FFB7AB"/>
<path d="M32.2813 12.5402V19.791C32.2813 24.2531 28.3516 27.8726 23.5 27.8726C18.6484 27.8726 14.7188 24.2531 14.7188 19.791V12.5402C18.677 11.5597 21.6137 9.67104 23.5 6.84839C25.3863 9.67104 28.323 11.5597 32.2813 12.5402Z" fill="#FFD0C8"/>
<path d="M9.17871 16.505C13.501 16.505 17.0049 13.0011 17.0049 8.67883C17.0049 4.35656 13.501 0.852661 9.17871 0.852661C4.85644 0.852661 1.35254 4.35656 1.35254 8.67883C1.35254 13.0011 4.85644 16.505 9.17871 16.505Z" fill="#5ECEE6"/>
<path d="M37.9659 35.9667C42.2082 35.9667 45.6472 32.5277 45.6472 28.2855C45.6472 24.0433 42.2082 20.6042 37.9659 20.6042C33.7237 20.6042 30.2847 24.0433 30.2847 28.2855C30.2847 32.5277 33.7237 35.9667 37.9659 35.9667Z" fill="#FB607C"/>
<path d="M35.1367 8.21877C35.2227 8.75042 35.2879 9.34846 35.3414 10.1004C35.352 10.2485 35.4184 10.387 35.5271 10.488C35.6359 10.589 35.7789 10.6449 35.9273 10.6446H35.9695C36.1243 10.6334 36.2683 10.5614 36.37 10.4442C36.4718 10.3271 36.5229 10.1743 36.5121 10.0196C36.4562 9.23167 36.3871 8.60081 36.2949 8.03362C36.2847 7.95587 36.2589 7.88097 36.2192 7.81336C36.1795 7.74574 36.1266 7.68679 36.0637 7.63999C36.0008 7.59319 35.9291 7.55949 35.8529 7.5409C35.7768 7.5223 35.6976 7.51919 35.6202 7.53174C35.5428 7.54429 35.4687 7.57226 35.4023 7.61397C35.3359 7.65569 35.2785 7.7103 35.2336 7.77459C35.1887 7.83888 35.1572 7.91152 35.1409 7.98823C35.1246 8.06493 35.1238 8.14412 35.1387 8.22112L35.1367 8.21877ZM19.973 17.516C20.1284 17.516 20.2775 17.4543 20.3874 17.3444C20.4973 17.2345 20.559 17.0855 20.559 16.9301V15.8516C20.559 15.6962 20.4973 15.5472 20.3874 15.4373C20.2775 15.3274 20.1284 15.2657 19.973 15.2657C19.8176 15.2657 19.6686 15.3274 19.5587 15.4373C19.4488 15.5472 19.3871 15.6962 19.3871 15.8516V16.9309C19.3873 17.0862 19.4491 17.235 19.559 17.3447C19.6689 17.4544 19.8178 17.516 19.973 17.516ZM27.027 17.516C27.1824 17.516 27.3314 17.4543 27.4413 17.3444C27.5512 17.2345 27.6129 17.0855 27.6129 16.9301V15.8516C27.6129 15.6962 27.5512 15.5472 27.4413 15.4373C27.3314 15.3274 27.1824 15.2657 27.027 15.2657C26.8716 15.2657 26.7225 15.3274 26.6126 15.4373C26.5027 15.5472 26.441 15.6962 26.441 15.8516V16.9309C26.4412 17.0862 26.503 17.235 26.6129 17.3447C26.7228 17.4544 26.8717 17.516 27.027 17.516ZM21.6449 23.0391C22.1504 23.5053 22.8128 23.7641 23.5004 23.7641C24.188 23.7641 24.8504 23.5053 25.3559 23.0391C25.4774 22.9422 25.5556 22.801 25.573 22.6466C25.5905 22.4921 25.5459 22.337 25.449 22.2155C25.3522 22.0939 25.211 22.0158 25.0565 21.9983C24.902 21.9808 24.747 22.0254 24.6254 22.1223C24.3267 22.4198 23.9224 22.5869 23.5008 22.5869C23.0792 22.5869 22.6748 22.4198 22.3762 22.1223C22.2546 22.0254 22.0995 21.9808 21.9451 21.9983C21.7906 22.0158 21.6494 22.0939 21.5525 22.2155C21.4557 22.337 21.4111 22.4921 21.4285 22.6466C21.446 22.801 21.5241 22.9422 21.6457 23.0391H21.6449ZM13.1594 10.4801C13.0137 10.4264 12.8526 10.4327 12.7115 10.4976C12.5704 10.5626 12.4609 10.6809 12.407 10.8266C12.1628 11.4859 11.7225 12.0546 11.1454 12.4562C10.5682 12.8578 9.88201 13.0731 9.17891 13.0731C8.47581 13.0731 7.78957 12.8578 7.21246 12.4562C6.63535 12.0546 6.19506 11.4859 5.95078 10.8266C5.92516 10.753 5.88513 10.6853 5.83303 10.6274C5.78092 10.5695 5.7178 10.5226 5.64734 10.4893C5.57688 10.4561 5.50051 10.4373 5.42268 10.4339C5.34485 10.4306 5.26714 10.4428 5.19409 10.4698C5.12103 10.4968 5.0541 10.5382 4.99721 10.5914C4.94031 10.6446 4.8946 10.7086 4.86274 10.7797C4.83089 10.8508 4.81353 10.9275 4.81167 11.0054C4.80982 11.0832 4.82351 11.1607 4.85195 11.2332C5.17924 12.1171 5.76935 12.8795 6.54291 13.418C7.31648 13.9564 8.23639 14.2451 9.17891 14.2451C10.1214 14.2451 11.0413 13.9564 11.8149 13.418C12.5885 12.8795 13.1786 12.1171 13.5059 11.2332C13.5326 11.161 13.5448 11.0843 13.5419 11.0073C13.5389 10.9304 13.5209 10.8548 13.4887 10.7849C13.4565 10.7149 13.4109 10.652 13.3544 10.5997C13.2979 10.5474 13.2316 10.5068 13.1594 10.4801ZM5.14062 7.1676C5.14062 6.98019 5.21507 6.80045 5.3476 6.66793C5.48012 6.53541 5.65985 6.46096 5.84727 6.46096C6.03468 6.46096 6.21442 6.53541 6.34694 6.66793C6.47946 6.80045 6.55391 6.98019 6.55391 7.1676C6.55391 7.323 6.61564 7.47204 6.72552 7.58192C6.83541 7.69181 6.98444 7.75354 7.13984 7.75354C7.29524 7.75354 7.44428 7.69181 7.55416 7.58192C7.66405 7.47204 7.72578 7.323 7.72578 7.1676C7.72578 6.66939 7.52787 6.19158 7.17558 5.83929C6.82329 5.487 6.34548 5.28909 5.84727 5.28909C5.34905 5.28909 4.87124 5.487 4.51895 5.83929C4.16666 6.19158 3.96875 6.66939 3.96875 7.1676C3.96875 7.323 4.03048 7.47204 4.14037 7.58192C4.25025 7.69181 4.39929 7.75354 4.55469 7.75354C4.71009 7.75354 4.85912 7.69181 4.96901 7.58192C5.07889 7.47204 5.14062 7.323 5.14062 7.1676ZM12.5094 5.2887C12.0113 5.28932 11.5339 5.4875 11.1817 5.83975C10.8296 6.192 10.6317 6.66955 10.6312 7.1676C10.6312 7.323 10.693 7.47204 10.8029 7.58192C10.9128 7.69181 11.0618 7.75354 11.2172 7.75354C11.3726 7.75354 11.5216 7.69181 11.6315 7.58192C11.7414 7.47204 11.8031 7.323 11.8031 7.1676C11.8009 7.07343 11.8175 6.97977 11.8521 6.89212C11.8866 6.80448 11.9382 6.72461 12.0041 6.65723C12.0699 6.58984 12.1485 6.5363 12.2353 6.49974C12.3221 6.46318 12.4154 6.44435 12.5096 6.44435C12.6038 6.44435 12.697 6.46318 12.7838 6.49974C12.8706 6.5363 12.9493 6.58984 13.0151 6.65723C13.0809 6.72461 13.1326 6.80448 13.1671 6.89212C13.2016 6.97977 13.2182 7.07343 13.216 7.1676C13.216 7.323 13.2777 7.47204 13.3876 7.58192C13.4975 7.69181 13.6466 7.75354 13.802 7.75354C13.9574 7.75354 14.1064 7.69181 14.2163 7.58192C14.3262 7.47204 14.3879 7.323 14.3879 7.1676C14.3875 6.66948 14.1894 6.19187 13.8373 5.83961C13.4851 5.48735 13.0075 5.28921 12.5094 5.2887Z" fill="black"/>
<path d="M46.2343 28.2855C46.2318 26.0937 45.36 23.9923 43.8102 22.4425C42.2603 20.8926 40.1589 20.0208 37.9671 20.0183C37.0546 17.8875 36.8089 15.6754 36.6925 13.5922C36.6821 13.4372 36.6115 13.2926 36.4956 13.1891C36.3798 13.0857 36.2281 13.0318 36.073 13.039C35.9961 13.0433 35.9208 13.0626 35.8514 13.096C35.782 13.1294 35.7199 13.1761 35.6685 13.2335C35.6172 13.2909 35.5777 13.3578 35.5522 13.4305C35.5268 13.5032 35.5159 13.5801 35.5202 13.657C35.5723 15.8629 35.983 18.0456 36.7363 20.1195C35.1767 20.3532 33.7172 21.0302 32.5316 22.0699C32.7522 21.3294 32.8652 20.561 32.8671 19.7883V12.539C32.8671 12.4082 32.8233 12.2811 32.7427 12.178C32.662 12.0749 32.5492 12.0018 32.4222 11.9703C28.6093 11.0258 25.771 9.19256 23.987 6.52224C23.9304 6.44642 23.8569 6.38486 23.7723 6.34246C23.6877 6.30005 23.5944 6.27797 23.4997 6.27797C23.4051 6.27797 23.3118 6.30005 23.2272 6.34246C23.1426 6.38486 23.069 6.44642 23.0124 6.52224C21.5899 8.59566 19.5751 10.1919 17.2312 11.1023C17.6758 9.63412 17.7087 8.072 17.3263 6.58638C16.9439 5.10075 16.1608 3.7487 15.0624 2.67771C18.9515 -0.182834 22.9894 2.51365 23.1659 2.63435C23.2636 2.70154 23.3794 2.73751 23.498 2.73751C23.6165 2.73751 23.7323 2.70154 23.83 2.63435C24.0386 2.49178 28.9827 -0.808225 33.2093 3.83162C33.5304 4.18354 33.8138 4.5682 34.0546 4.97927C34.0929 5.04685 34.1442 5.10615 34.2055 5.15373C34.2669 5.2013 34.3371 5.23621 34.4121 5.2564C34.4871 5.2766 34.5653 5.28169 34.6423 5.27139C34.7193 5.26108 34.7934 5.23557 34.8605 5.19635C34.9275 5.15713 34.986 5.10498 35.0327 5.04293C35.0794 4.98088 35.1133 4.91017 35.1324 4.83491C35.1515 4.75964 35.1555 4.68133 35.1441 4.60452C35.1327 4.52771 35.1061 4.45393 35.0659 4.38748C34.7836 3.90594 34.4517 3.45519 34.0757 3.04256C29.8237 -1.62737 24.8214 0.716384 23.4999 1.46756C22.3038 0.787087 18.0902 -1.19963 14.1425 1.90271C13.071 1.11766 11.8288 0.597685 10.5176 0.38539C9.20637 0.173094 7.86352 0.274526 6.59908 0.68137C5.33463 1.08822 4.18459 1.78889 3.24321 2.72598C2.30182 3.66307 1.59588 4.80989 1.18325 6.07245C0.770625 7.33502 0.663047 8.6774 0.869338 9.98956C1.07563 11.3017 1.58991 12.5463 2.37005 13.6214C3.15018 14.6964 4.17396 15.5713 5.35747 16.1744C6.54098 16.7774 7.85054 17.0914 9.17883 17.0906C9.42766 17.0906 9.67297 17.0746 9.91633 17.0515C9.50286 19.5445 8.35147 21.8563 6.61086 23.6883C6.55088 23.7515 6.50575 23.8272 6.47875 23.9101C6.45175 23.9929 6.44357 24.0807 6.45479 24.1671C6.46602 24.2535 6.49637 24.3363 6.54364 24.4095C6.59091 24.4827 6.65391 24.5444 6.72805 24.5902C10.9187 27.1859 14.7784 28.8426 18.4991 29.641C18.2701 30.0577 18.0139 30.459 17.7323 30.8422H15.8827C13.9534 30.8404 12.0783 31.4804 10.5527 32.6615C9.02703 33.8425 7.93755 35.4974 7.45578 37.3656C7.4366 37.4401 7.43228 37.5177 7.44308 37.5939C7.45388 37.6701 7.47958 37.7435 7.51872 37.8097C7.55786 37.876 7.60966 37.9339 7.67118 37.9802C7.7327 38.0264 7.80273 38.0601 7.87727 38.0793C7.9518 38.0985 8.02939 38.1028 8.10559 38.092C8.18179 38.0812 8.25512 38.0555 8.32139 38.0163C8.38766 37.9772 8.44558 37.9254 8.49183 37.8639C8.53807 37.8024 8.57175 37.7323 8.59094 37.6578C9.00812 36.0416 9.95099 34.6101 11.2711 33.5886C12.5912 32.5672 14.2136 32.0138 15.8827 32.0156H17.8866C19.3618 33.088 21.0982 33.7441 22.914 33.9152V44.5625H15.0534V39.7137C15.0534 39.5583 14.9917 39.4092 14.8818 39.2993C14.7719 39.1894 14.6229 39.1277 14.4675 39.1277C14.3121 39.1277 14.1631 39.1894 14.0532 39.2993C13.9433 39.4092 13.8816 39.5583 13.8816 39.7137V44.5625H8.56242C8.38768 44.5625 8.21516 44.5234 8.05748 44.4481C7.89981 44.3727 7.76097 44.2631 7.65113 44.1272C7.54129 43.9913 7.46323 43.8326 7.42268 43.6626C7.38212 43.4926 7.38008 43.3158 7.41672 43.1449L7.84641 41.118C7.86409 41.0421 7.86647 40.9634 7.85339 40.8866C7.84031 40.8098 7.81204 40.7363 7.77024 40.6706C7.72843 40.6048 7.67393 40.5481 7.60992 40.5036C7.54592 40.4592 7.47369 40.428 7.39747 40.4118C7.32125 40.3956 7.24256 40.3948 7.16602 40.4094C7.08948 40.424 7.01662 40.4537 6.9517 40.4968C6.88678 40.5399 6.83111 40.5955 6.78794 40.6604C6.74478 40.7252 6.71499 40.7981 6.70031 40.8746L6.27063 42.9004C6.19754 43.242 6.20178 43.5957 6.28301 43.9355C6.36424 44.2753 6.52042 44.5927 6.74012 44.8644C6.95981 45.136 7.23747 45.3552 7.55277 45.5057C7.86807 45.6562 8.21303 45.7343 8.56242 45.7344H38.4374C38.7867 45.7343 39.1315 45.6562 39.4467 45.5057C39.7619 45.3553 40.0395 45.1363 40.2592 44.8647C40.4789 44.5932 40.6351 44.276 40.7164 43.9363C40.7977 43.5967 40.8021 43.2431 40.7292 42.9015L39.6355 37.7453C39.539 37.3022 39.4084 36.8671 39.2448 36.4441C41.1902 36.1385 42.9628 35.1491 44.2439 33.6536C45.5251 32.1581 46.2308 30.2547 46.2343 28.2855ZM29.2691 30.8437C28.9956 30.471 28.7461 30.0813 28.5222 29.6769C28.9438 29.5887 29.363 29.4892 29.7792 29.3785C29.844 29.8759 29.9541 30.3663 30.1081 30.8437H29.2691ZM29.7038 28.1828C29.1434 28.338 28.5774 28.4724 28.007 28.5855C27.872 28.2456 27.7674 27.8943 27.6945 27.5359C28.5425 27.1454 29.3275 26.6303 30.0234 26.0078C29.82 26.7152 29.7125 27.4468 29.7038 28.1828ZM23.4999 7.85349C25.382 10.3047 28.1335 12.0304 31.6952 12.9926V19.7894C31.6952 22.7492 29.7855 25.4387 26.83 26.641C24.6925 27.4965 22.3077 27.4965 20.1702 26.641C17.2144 25.4383 15.3046 22.7488 15.3046 19.789V14.4254C15.8257 13.8723 16.2698 13.2514 16.6249 12.5797C19.5456 11.5785 21.857 9.99451 23.4999 7.85349ZM1.93742 8.67888C1.93734 7.24693 2.36188 5.84712 3.15735 4.65644C3.95282 3.46576 5.08349 2.5377 6.4064 1.98961C7.7293 1.44152 9.18502 1.29802 10.5895 1.57724C11.9939 1.85647 13.2841 2.54589 14.2967 3.55832C15.3094 4.57075 15.9991 5.86073 16.2786 7.26513C16.5581 8.66953 16.4149 10.1253 15.8671 11.4483C15.3193 12.7713 14.3915 13.9022 13.201 14.6979C12.0105 15.4937 10.6108 15.9185 9.17883 15.9187C7.25913 15.9169 5.41857 15.1536 4.06099 13.7963C2.70341 12.439 1.9397 10.5986 1.93742 8.67888ZM11.1429 16.8496C12.2217 16.5895 13.2381 16.1175 14.1327 15.4609V19.789C14.1327 23.0816 16.1495 26.0738 19.3046 27.5363C19.235 27.8821 19.1357 28.2213 19.0077 28.55C15.5163 27.8394 11.8866 26.3359 7.94445 23.9625C9.66443 21.9434 10.7738 19.4762 11.1429 16.8496ZM19.9023 29.4574C20.118 28.9793 20.2865 28.4812 20.4054 27.9703C22.4176 28.6196 24.583 28.6196 26.5952 27.9703C26.7169 28.4942 26.891 29.0046 27.1148 29.4937C27.4003 30.1144 27.7402 30.7087 28.1304 31.2695C25.03 33.2617 21.9702 33.2617 18.8698 31.2695C19.2679 30.6978 19.6134 30.0913 19.9023 29.4574ZM38.4894 37.9887L39.5831 43.1449C39.6196 43.3157 39.6174 43.4924 39.5767 43.6623C39.5361 43.8321 39.458 43.9907 39.3482 44.1264C39.2384 44.2622 39.0996 44.3717 38.942 44.4469C38.7844 44.5222 38.612 44.5613 38.4374 44.5613H33.1183V39.7137C33.1183 39.5583 33.0565 39.4092 32.9467 39.2993C32.8368 39.1894 32.6877 39.1277 32.5323 39.1277C32.3769 39.1277 32.2279 39.1894 32.118 39.2993C32.0081 39.4092 31.9464 39.5583 31.9464 39.7137V44.5625H24.0859V33.9152C25.9016 33.7441 27.638 33.088 29.1132 32.0156H30.5976C31.2867 33.3789 32.34 34.5247 33.6406 35.3259C34.9412 36.1271 36.4384 36.5524 37.9659 36.5547C37.9866 36.5547 38.005 36.5519 38.0273 36.5515C38.2284 37.0141 38.3832 37.4955 38.4894 37.9887ZM37.9659 35.3808C36.5627 35.3806 35.191 34.9643 34.0243 34.1845C32.8576 33.4047 31.9484 32.2965 31.4116 31C30.8747 29.7035 30.7344 28.2769 31.0083 26.9006C31.2822 25.5243 31.958 24.2601 32.9504 23.268C33.9427 22.2758 35.207 21.6001 36.5833 21.3265C37.9596 21.0528 39.3862 21.1934 40.6826 21.7304C41.9791 22.2675 43.0871 23.1769 43.8667 24.3437C44.6463 25.5105 45.0624 26.8823 45.0624 28.2855C45.0608 30.1672 44.3126 31.9713 42.9821 33.3019C41.6517 34.6326 39.8476 35.3809 37.9659 35.3828V35.3808Z" fill="black"/>
<path d="M37.9659 29.0292C37.039 29.0314 36.1348 29.3162 35.374 29.8457C34.6132 30.3752 34.0321 31.1241 33.7081 31.9925C33.6541 32.1383 33.6603 32.2995 33.7253 32.4407C33.7902 32.5819 33.9086 32.6915 34.0543 32.7454C34.2001 32.7994 34.3613 32.7932 34.5025 32.7282C34.6437 32.6633 34.7534 32.5449 34.8073 32.3991C35.0462 31.7541 35.477 31.1977 36.0416 30.8048C36.6062 30.4118 37.2776 30.2012 37.9655 30.2012C38.6534 30.2012 39.3247 30.4118 39.8894 30.8048C40.454 31.1977 40.8847 31.7541 41.1237 32.3991C41.1652 32.5113 41.2401 32.6081 41.3383 32.6765C41.4365 32.7448 41.5533 32.7815 41.6729 32.7816C41.7422 32.7817 41.811 32.7694 41.876 32.7452C41.9482 32.7186 42.0144 32.6779 42.0709 32.6257C42.1274 32.5734 42.173 32.5105 42.2052 32.4406C42.2373 32.3707 42.2554 32.2952 42.2584 32.2183C42.2614 32.1414 42.2492 32.0647 42.2225 31.9925C41.8987 31.1242 41.3177 30.3754 40.5571 29.8459C39.7966 29.3164 38.8926 29.0315 37.9659 29.0292ZM34.0139 26.8019C34.0139 26.6206 34.0859 26.4467 34.2141 26.3185C34.3423 26.1903 34.5162 26.1183 34.6975 26.1183C34.8788 26.1183 35.0527 26.1903 35.1809 26.3185C35.3091 26.4467 35.3811 26.6206 35.3811 26.8019C35.3811 26.9573 35.4428 27.1063 35.5527 27.2162C35.6626 27.3261 35.8116 27.3878 35.967 27.3878C36.1224 27.3878 36.2715 27.3261 36.3814 27.2162C36.4912 27.1063 36.553 26.9573 36.553 26.8019C36.553 26.3098 36.3575 25.8378 36.0095 25.4899C35.6616 25.1419 35.1896 24.9464 34.6975 24.9464C34.2054 24.9464 33.7335 25.1419 33.3855 25.4899C33.0375 25.8378 32.842 26.3098 32.842 26.8019C32.842 26.9573 32.9038 27.1063 33.0137 27.2162C33.1235 27.3261 33.2726 27.3878 33.428 27.3878C33.5834 27.3878 33.7324 27.3261 33.8423 27.2162C33.9522 27.1063 34.0139 26.9573 34.0139 26.8019ZM41.2342 24.9472C40.7425 24.9477 40.271 25.1433 39.9233 25.491C39.5756 25.8387 39.3801 26.3101 39.3795 26.8019C39.3795 26.9573 39.4413 27.1063 39.5512 27.2162C39.661 27.3261 39.8101 27.3878 39.9655 27.3878C40.1209 27.3878 40.2699 27.3261 40.3798 27.2162C40.4897 27.1063 40.5514 26.9573 40.5514 26.8019C40.5514 26.6206 40.6234 26.4467 40.7516 26.3185C40.8798 26.1903 41.0537 26.1183 41.235 26.1183C41.4163 26.1183 41.5902 26.1903 41.7184 26.3185C41.8466 26.4467 41.9186 26.6206 41.9186 26.8019C41.9186 26.9573 41.9803 27.1063 42.0902 27.2162C42.2001 27.3261 42.3491 27.3878 42.5045 27.3878C42.6599 27.3878 42.809 27.3261 42.9189 27.2162C43.0287 27.1063 43.0905 26.9573 43.0905 26.8019C43.09 26.3099 42.8942 25.8382 42.5461 25.4904C42.1981 25.1427 41.7262 24.9473 41.2342 24.9472Z" fill="black"/>
</svg>
