<svg width="23" height="23" viewBox="0 0 23 23" fill="none" xmlns="http://www.w3.org/2000/svg">
<g clip-path="url(#clip0_124_184)">
<path d="M22.4375 3.41407V6.59376H0.5625V3.41407C0.570533 2.79997 0.821784 2.21412 1.26115 1.78501C1.70052 1.35589 2.29213 1.11854 2.90625 1.12501H4.46875V2.68751C4.46875 3.30911 4.71568 3.90525 5.15522 4.34479C5.59476 4.78433 6.1909 5.03126 6.8125 5.03126C7.4341 5.03126 8.03024 4.78433 8.46978 4.34479C8.90932 3.90525 9.15625 3.30911 9.15625 2.68751V1.12501H13.8438V2.68751C13.8438 3.30911 14.0907 3.90525 14.5302 4.34479C14.9698 4.78433 15.5659 5.03126 16.1875 5.03126C16.8091 5.03126 17.4052 4.78433 17.8448 4.34479C18.2843 3.90525 18.5312 3.30911 18.5312 2.68751V1.12501H20.0938C20.7079 1.11854 21.2995 1.35589 21.7388 1.78501C22.1782 2.21412 22.4295 2.79997 22.4375 3.41407ZM0.5625 8.15626V20.711C0.570533 21.3251 0.821784 21.9109 1.26115 22.34C1.70052 22.7691 2.29213 23.0065 2.90625 23H20.0938C20.7079 23.0065 21.2995 22.7691 21.7388 22.34C22.1782 21.9109 22.4295 21.3251 22.4375 20.711V8.15626H0.5625ZM7.59375 19.0938C7.59313 19.3008 7.51062 19.4991 7.36424 19.6455C7.21787 19.7919 7.01951 19.8744 6.8125 19.875H5.25C5.04299 19.8744 4.84464 19.7919 4.69826 19.6455C4.55188 19.4991 4.46937 19.3008 4.46875 19.0938V17.5313C4.46937 17.3243 4.55188 17.1259 4.69826 16.9795C4.84464 16.8331 5.04299 16.7506 5.25 16.75H6.8125C7.01951 16.7506 7.21787 16.8331 7.36424 16.9795C7.51062 17.1259 7.59313 17.3243 7.59375 17.5313V19.0938ZM7.59375 13.625C7.59313 13.832 7.51062 14.0304 7.36424 14.1768C7.21787 14.3231 7.01951 14.4056 6.8125 14.4063H5.25C5.04299 14.4056 4.84464 14.3231 4.69826 14.1768C4.55188 14.0304 4.46937 13.832 4.46875 13.625V12.0625C4.46937 11.8555 4.55188 11.6571 4.69826 11.5108C4.84464 11.3644 5.04299 11.2819 5.25 11.2813H6.8125C7.01951 11.2819 7.21787 11.3644 7.36424 11.5108C7.51062 11.6571 7.59313 11.8555 7.59375 12.0625V13.625ZM13.0625 19.0938C13.0619 19.3008 12.9794 19.4991 12.833 19.6455C12.6866 19.7919 12.4883 19.8744 12.2812 19.875H10.7188C10.5117 19.8744 10.3134 19.7919 10.167 19.6455C10.0206 19.4991 9.93812 19.3008 9.9375 19.0938V17.5313C9.93812 17.3243 10.0206 17.1259 10.167 16.9795C10.3134 16.8331 10.5117 16.7506 10.7188 16.75H12.2812C12.4883 16.7506 12.6866 16.8331 12.833 16.9795C12.9794 17.1259 13.0619 17.3243 13.0625 17.5313V19.0938ZM13.0625 13.625C13.0619 13.832 12.9794 14.0304 12.833 14.1768C12.6866 14.3231 12.4883 14.4056 12.2812 14.4063H10.7188C10.5117 14.4056 10.3134 14.3231 10.167 14.1768C10.0206 14.0304 9.93812 13.832 9.9375 13.625V12.0625C9.93812 11.8555 10.0206 11.6571 10.167 11.5108C10.3134 11.3644 10.5117 11.2819 10.7188 11.2813H12.2812C12.4883 11.2819 12.6866 11.3644 12.833 11.5108C12.9794 11.6571 13.0619 11.8555 13.0625 12.0625V13.625ZM18.5312 13.625C18.5306 13.832 18.4481 14.0304 18.3017 14.1768C18.1554 14.3231 17.957 14.4056 17.75 14.4063H16.1875C15.9805 14.4056 15.7821 14.3231 15.6358 14.1768C15.4894 14.0304 15.4069 13.832 15.4062 13.625V12.0625C15.4069 11.8555 15.4894 11.6571 15.6358 11.5108C15.7821 11.3644 15.9805 11.2819 16.1875 11.2813H17.75C17.957 11.2819 18.1554 11.3644 18.3017 11.5108C18.4481 11.6571 18.5306 11.8555 18.5312 12.0625V13.625Z" fill="black"/>
<path d="M22.4375 3.41407V6.59376H0.5625V3.41407C0.570533 2.79997 0.821784 2.21412 1.26115 1.78501C1.70052 1.35589 2.29213 1.11854 2.90625 1.12501H4.46875V2.68751C4.46875 3.30911 4.71568 3.90525 5.15522 4.34479C5.59476 4.78433 6.1909 5.03126 6.8125 5.03126C7.4341 5.03126 8.03024 4.78433 8.46978 4.34479C8.90932 3.90525 9.15625 3.30911 9.15625 2.68751V1.12501H13.8438V2.68751C13.8438 3.30911 14.0907 3.90525 14.5302 4.34479C14.9698 4.78433 15.5659 5.03126 16.1875 5.03126C16.8091 5.03126 17.4052 4.78433 17.8448 4.34479C18.2843 3.90525 18.5312 3.30911 18.5312 2.68751V1.12501H20.0938C20.7079 1.11854 21.2995 1.35589 21.7388 1.78501C22.1782 2.21412 22.4295 2.79997 22.4375 3.41407ZM0.5625 8.15626V20.711C0.570533 21.3251 0.821784 21.9109 1.26115 22.34C1.70052 22.7691 2.29213 23.0065 2.90625 23H20.0938C20.7079 23.0065 21.2995 22.7691 21.7388 22.34C22.1782 21.9109 22.4295 21.3251 22.4375 20.711V8.15626H0.5625ZM7.59375 19.0938C7.59313 19.3008 7.51062 19.4991 7.36424 19.6455C7.21787 19.7919 7.01951 19.8744 6.8125 19.875H5.25C5.04299 19.8744 4.84464 19.7919 4.69826 19.6455C4.55188 19.4991 4.46937 19.3008 4.46875 19.0938V17.5313C4.46937 17.3243 4.55188 17.1259 4.69826 16.9795C4.84464 16.8331 5.04299 16.7506 5.25 16.75H6.8125C7.01951 16.7506 7.21787 16.8331 7.36424 16.9795C7.51062 17.1259 7.59313 17.3243 7.59375 17.5313V19.0938ZM7.59375 13.625C7.59313 13.832 7.51062 14.0304 7.36424 14.1768C7.21787 14.3231 7.01951 14.4056 6.8125 14.4063H5.25C5.04299 14.4056 4.84464 14.3231 4.69826 14.1768C4.55188 14.0304 4.46937 13.832 4.46875 13.625V12.0625C4.46937 11.8555 4.55188 11.6571 4.69826 11.5108C4.84464 11.3644 5.04299 11.2819 5.25 11.2813H6.8125C7.01951 11.2819 7.21787 11.3644 7.36424 11.5108C7.51062 11.6571 7.59313 11.8555 7.59375 12.0625V13.625ZM13.0625 19.0938C13.0619 19.3008 12.9794 19.4991 12.833 19.6455C12.6866 19.7919 12.4883 19.8744 12.2812 19.875H10.7188C10.5117 19.8744 10.3134 19.7919 10.167 19.6455C10.0206 19.4991 9.93812 19.3008 9.9375 19.0938V17.5313C9.93812 17.3243 10.0206 17.1259 10.167 16.9795C10.3134 16.8331 10.5117 16.7506 10.7188 16.75H12.2812C12.4883 16.7506 12.6866 16.8331 12.833 16.9795C12.9794 17.1259 13.0619 17.3243 13.0625 17.5313V19.0938ZM13.0625 13.625C13.0619 13.832 12.9794 14.0304 12.833 14.1768C12.6866 14.3231 12.4883 14.4056 12.2812 14.4063H10.7188C10.5117 14.4056 10.3134 14.3231 10.167 14.1768C10.0206 14.0304 9.93812 13.832 9.9375 13.625V12.0625C9.93812 11.8555 10.0206 11.6571 10.167 11.5108C10.3134 11.3644 10.5117 11.2819 10.7188 11.2813H12.2812C12.4883 11.2819 12.6866 11.3644 12.833 11.5108C12.9794 11.6571 13.0619 11.8555 13.0625 12.0625V13.625ZM18.5312 13.625C18.5306 13.832 18.4481 14.0304 18.3017 14.1768C18.1554 14.3231 17.957 14.4056 17.75 14.4063H16.1875C15.9805 14.4056 15.7821 14.3231 15.6358 14.1768C15.4894 14.0304 15.4069 13.832 15.4062 13.625V12.0625C15.4069 11.8555 15.4894 11.6571 15.6358 11.5108C15.7821 11.3644 15.9805 11.2819 16.1875 11.2813H17.75C17.957 11.2819 18.1554 11.3644 18.3017 11.5108C18.4481 11.6571 18.5306 11.8555 18.5312 12.0625V13.625Z" fill="url(#paint0_linear_124_184)"/>
<path d="M7.59375 1.125V2.6875C7.59375 2.8947 7.51144 3.09341 7.36493 3.23993C7.21841 3.38644 7.0197 3.46875 6.8125 3.46875C6.6053 3.46875 6.40659 3.38644 6.26007 3.23993C6.11356 3.09341 6.03125 2.8947 6.03125 2.6875V1.125C6.03125 0.9178 6.11356 0.719086 6.26007 0.572573C6.40659 0.42606 6.6053 0.34375 6.8125 0.34375C7.0197 0.34375 7.21841 0.42606 7.36493 0.572573C7.51144 0.719086 7.59375 0.9178 7.59375 1.125ZM16.9688 1.125V2.6875C16.9688 2.8947 16.8864 3.09341 16.7399 3.23993C16.5934 3.38644 16.3947 3.46875 16.1875 3.46875C15.9803 3.46875 15.7816 3.38644 15.6351 3.23993C15.4886 3.09341 15.4062 2.8947 15.4062 2.6875V1.125C15.4062 0.9178 15.4886 0.719086 15.6351 0.572573C15.7816 0.42606 15.9803 0.34375 16.1875 0.34375C16.3947 0.34375 16.5934 0.42606 16.7399 0.572573C16.8864 0.719086 16.9688 0.9178 16.9688 1.125Z" fill="black"/>
<path d="M7.59375 1.125V2.6875C7.59375 2.8947 7.51144 3.09341 7.36493 3.23993C7.21841 3.38644 7.0197 3.46875 6.8125 3.46875C6.6053 3.46875 6.40659 3.38644 6.26007 3.23993C6.11356 3.09341 6.03125 2.8947 6.03125 2.6875V1.125C6.03125 0.9178 6.11356 0.719086 6.26007 0.572573C6.40659 0.42606 6.6053 0.34375 6.8125 0.34375C7.0197 0.34375 7.21841 0.42606 7.36493 0.572573C7.51144 0.719086 7.59375 0.9178 7.59375 1.125ZM16.9688 1.125V2.6875C16.9688 2.8947 16.8864 3.09341 16.7399 3.23993C16.5934 3.38644 16.3947 3.46875 16.1875 3.46875C15.9803 3.46875 15.7816 3.38644 15.6351 3.23993C15.4886 3.09341 15.4062 2.8947 15.4062 2.6875V1.125C15.4062 0.9178 15.4886 0.719086 15.6351 0.572573C15.7816 0.42606 15.9803 0.34375 16.1875 0.34375C16.3947 0.34375 16.5934 0.42606 16.7399 0.572573C16.8864 0.719086 16.9688 0.9178 16.9688 1.125Z" fill="url(#paint1_linear_124_184)"/>
</g>
<defs>
<linearGradient id="paint0_linear_124_184" x1="0.5625" y1="23.0001" x2="26.8135" y2="14.2436" gradientUnits="userSpaceOnUse">
<stop stop-color="#40D3B6"/>
<stop offset="1" stop-color="#1E8FD3"/>
</linearGradient>
<linearGradient id="paint1_linear_124_184" x1="6.03125" y1="3.46875" x2="12.2037" y2="-3.73763" gradientUnits="userSpaceOnUse">
<stop stop-color="#40D3B6"/>
<stop offset="1" stop-color="#1E8FD3"/>
</linearGradient>
<clipPath id="clip0_124_184">
<rect width="23" height="23" fill="white"/>
</clipPath>
</defs>
</svg>
