<svg width="23" height="23" viewBox="0 0 23 23" fill="none" xmlns="http://www.w3.org/2000/svg">
<g clip-path="url(#clip0_129_3393)">
<path d="M11.5 23C17.8513 23 23 17.8513 23 11.5C23 5.14873 17.8513 0 11.5 0C5.14873 0 0 5.14873 0 11.5C0 17.8513 5.14873 23 11.5 23Z" fill="#32BA7C"/>
<path d="M8.56152 16.6877L14.4748 22.6009C19.3722 21.2949 23 16.8328 23 11.5V11.1735L18.3565 6.8927L8.56152 16.6877Z" fill="#0AA06E"/>
<path d="M11.7904 14.0757C12.2983 14.5836 12.2983 15.4543 11.7904 15.9622L10.7384 17.0142C10.2305 17.5221 9.35983 17.5221 8.85194 17.0142L4.24468 12.3707C3.7368 11.8628 3.7368 10.9921 4.24468 10.4842L5.29673 9.43218C5.80462 8.9243 6.67528 8.9243 7.18317 9.43218L11.7904 14.0757Z" fill="white"/>
<path d="M15.8171 6.05841C16.3249 5.55052 17.1956 5.55052 17.7035 6.05841L18.7555 7.11046C19.2634 7.61834 19.2634 8.489 18.7555 8.99689L10.7745 16.9417C10.2666 17.4496 9.39593 17.4496 8.88804 16.9417L7.83599 15.8896C7.32811 15.3817 7.32811 14.5111 7.83599 14.0032L15.8171 6.05841Z" fill="white"/>
</g>
<defs>
<clipPath id="clip0_129_3393">
<rect width="23" height="23" fill="white"/>
</clipPath>
</defs>
</svg>
