<svg width="22" height="22" viewBox="0 0 22 22" fill="none" xmlns="http://www.w3.org/2000/svg">
<path fill-rule="evenodd" clip-rule="evenodd" d="M10.7416 0C13.6082 0.0518017 16.3399 1.22691 18.3488 3.27246C20.3577 5.318 21.4833 8.07045 21.4833 10.9375C21.4833 13.8045 20.3577 16.557 18.3488 18.6025C16.3399 20.6481 13.6082 21.8232 10.7416 21.875C7.87506 21.8232 5.14339 20.6481 3.13448 18.6025C1.12556 16.557 0 13.8045 0 10.9375C0 8.07045 1.12556 5.318 3.13448 3.27246C5.14339 1.22691 7.87506 0.0518017 10.7416 0ZM8.47021 14.4905L5.79164 11.8095C5.57238 11.5895 5.44927 11.2916 5.44927 10.981C5.44927 10.6703 5.57238 10.3724 5.79164 10.1524C6.01201 9.93334 6.31009 9.8104 6.6208 9.8104C6.93151 9.8104 7.2296 9.93334 7.44997 10.1524L9.33687 12.0417L14.0333 7.34524C14.2533 7.12598 14.5513 7.00287 14.8619 7.00287C15.1725 7.00287 15.4704 7.12598 15.6904 7.34524C15.9094 7.56541 16.0323 7.8633 16.0323 8.17381C16.0323 8.48432 15.9094 8.78221 15.6904 9.00238L10.1643 14.5286C10.0521 14.6402 9.9185 14.728 9.77156 14.7867C9.62461 14.8454 9.46732 14.8739 9.30912 14.8703C9.15091 14.8667 8.99506 14.8313 8.8509 14.766C8.70675 14.7007 8.57726 14.607 8.47021 14.4905Z" fill="#00BA00"/>
<path fill-rule="evenodd" clip-rule="evenodd" d="M10.7416 0C13.6082 0.0518017 16.3399 1.22691 18.3488 3.27246C20.3577 5.318 21.4833 8.07045 21.4833 10.9375C21.4833 13.8045 20.3577 16.557 18.3488 18.6025C16.3399 20.6481 13.6082 21.8232 10.7416 21.875C7.87506 21.8232 5.14339 20.6481 3.13448 18.6025C1.12556 16.557 0 13.8045 0 10.9375C0 8.07045 1.12556 5.318 3.13448 3.27246C5.14339 1.22691 7.87506 0.0518017 10.7416 0ZM8.47021 14.4905L5.79164 11.8095C5.57238 11.5895 5.44927 11.2916 5.44927 10.981C5.44927 10.6703 5.57238 10.3724 5.79164 10.1524C6.01201 9.93334 6.31009 9.8104 6.6208 9.8104C6.93151 9.8104 7.2296 9.93334 7.44997 10.1524L9.33687 12.0417L14.0333 7.34524C14.2533 7.12598 14.5513 7.00287 14.8619 7.00287C15.1725 7.00287 15.4704 7.12598 15.6904 7.34524C15.9094 7.56541 16.0323 7.8633 16.0323 8.17381C16.0323 8.48432 15.9094 8.78221 15.6904 9.00238L10.1643 14.5286C10.0521 14.6402 9.9185 14.728 9.77156 14.7867C9.62461 14.8454 9.46732 14.8739 9.30912 14.8703C9.15091 14.8667 8.99506 14.8313 8.8509 14.766C8.70675 14.7007 8.57726 14.607 8.47021 14.4905Z" fill="url(#paint0_linear_129_3220)"/>
<defs>
<linearGradient id="paint0_linear_129_3220" x1="0" y1="21.875" x2="25.8728" y2="13.3991" gradientUnits="userSpaceOnUse">
<stop stop-color="#40D3B6"/>
<stop offset="1" stop-color="#1E8FD3"/>
</linearGradient>
</defs>
</svg>
