<svg width="50" height="50" viewBox="0 0 50 50" fill="none" xmlns="http://www.w3.org/2000/svg">
<circle cx="25" cy="25" r="25" fill="url(#paint0_linear_240_918)"/>
<path fill-rule="evenodd" clip-rule="evenodd" d="M28.7498 15C28.8651 14.8806 29.003 14.7854 29.1556 14.7199C29.3081 14.6544 29.4721 14.6199 29.6381 14.6184C29.804 14.617 29.9686 14.6486 30.1223 14.7115C30.2759 14.7743 30.4154 14.8671 30.5328 14.9845C30.6502 15.1019 30.743 15.2414 30.8058 15.3951C30.8687 15.5487 30.9003 15.7133 30.8989 15.8793C30.8974 16.0452 30.8629 16.2092 30.7974 16.3618C30.7319 16.5143 30.6367 16.6522 30.5173 16.7675L23.1686 24.1162C22.9342 24.3507 22.8026 24.6685 22.8026 25C22.8026 25.3315 22.9342 25.6493 23.1686 25.8837L30.5186 33.2325C30.7529 33.467 30.8846 33.7851 30.8844 34.1167C30.8843 34.4483 30.7525 34.7662 30.5179 35.0006C30.2834 35.235 29.9653 35.3666 29.6337 35.3665C29.3022 35.3664 28.9842 35.2345 28.7498 35L19.6336 25.8837C19.3992 25.6493 19.2676 25.3315 19.2676 25C19.2676 24.6685 19.3992 24.3507 19.6336 24.1162L28.7498 15Z" fill="white"/>
<defs>
<linearGradient id="paint0_linear_240_918" x1="50" y1="22.5" x2="9.12696e-07" y2="25" gradientUnits="userSpaceOnUse">
<stop stop-color="#1E8FD3"/>
<stop offset="1" stop-color="#2195D0"/>
</linearGradient>
</defs>
</svg>
