<svg width="36" height="36" viewBox="0 0 36 36" fill="none" xmlns="http://www.w3.org/2000/svg">
<path d="M18 11.25C20.6924 11.25 22.875 9.06739 22.875 6.375C22.875 3.68261 20.6924 1.5 18 1.5C15.3076 1.5 13.125 3.68261 13.125 6.375C13.125 9.06739 15.3076 11.25 18 11.25Z" fill="#1E8FD3"/>
<path d="M9 7.5H8.25V6.75C8.25 6.55109 8.17098 6.36032 8.03033 6.21967C7.88968 6.07902 7.69891 6 7.5 6C7.30109 6 7.11032 6.07902 6.96967 6.21967C6.82902 6.36032 6.75 6.55109 6.75 6.75V7.5H6C5.80109 7.5 5.61032 7.57902 5.46967 7.71967C5.32902 7.86032 5.25 8.05109 5.25 8.25C5.25 8.44891 5.32902 8.63968 5.46967 8.78033C5.61032 8.92098 5.80109 9 6 9H6.75V9.75C6.75 9.94891 6.82902 10.1397 6.96967 10.2803C7.11032 10.421 7.30109 10.5 7.5 10.5C7.69891 10.5 7.88968 10.421 8.03033 10.2803C8.17098 10.1397 8.25 9.94891 8.25 9.75V9H9C9.19891 9 9.38968 8.92098 9.53033 8.78033C9.67098 8.63968 9.75 8.44891 9.75 8.25C9.75 8.05109 9.67098 7.86032 9.53033 7.71967C9.38968 7.57902 9.19891 7.5 9 7.5ZM32.25 13.5H31.5V12.75C31.5 12.5511 31.421 12.3603 31.2803 12.2197C31.1397 12.079 30.9489 12 30.75 12C30.5511 12 30.3603 12.079 30.2197 12.2197C30.079 12.3603 30 12.5511 30 12.75V13.5H29.25C29.0511 13.5 28.8603 13.579 28.7197 13.7197C28.579 13.8603 28.5 14.0511 28.5 14.25C28.5 14.4489 28.579 14.6397 28.7197 14.7803C28.8603 14.921 29.0511 15 29.25 15H30V15.75C30 15.9489 30.079 16.1397 30.2197 16.2803C30.3603 16.421 30.5511 16.5 30.75 16.5C30.9489 16.5 31.1397 16.421 31.2803 16.2803C31.421 16.1397 31.5 15.9489 31.5 15.75V15H32.25C32.4489 15 32.6397 14.921 32.7803 14.7803C32.921 14.6397 33 14.4489 33 14.25C33 14.0511 32.921 13.8603 32.7803 13.7197C32.6397 13.579 32.4489 13.5 32.25 13.5Z" fill="#1E8FD3"/>
<path d="M28.5 8.25C28.9142 8.25 29.25 7.91421 29.25 7.5C29.25 7.08579 28.9142 6.75 28.5 6.75C28.0858 6.75 27.75 7.08579 27.75 7.5C27.75 7.91421 28.0858 8.25 28.5 8.25Z" fill="#1E8FD3"/>
<path d="M3.75 15C4.16421 15 4.5 14.6642 4.5 14.25C4.5 13.8358 4.16421 13.5 3.75 13.5C3.33579 13.5 3 13.8358 3 14.25C3 14.6642 3.33579 15 3.75 15Z" fill="#1E8FD3"/>
<path d="M31.831 21.4313L27.1878 18.1178L24.7878 13.323C24.4777 12.6987 23.9991 12.1737 23.4061 11.8074C22.813 11.441 22.1293 11.2479 21.4323 11.25H14.5668C13.8695 11.2477 13.1855 11.4406 12.5922 11.807C11.9989 12.1733 11.52 12.6985 11.2098 13.323L8.80979 18.1178L4.17404 21.4268C3.62946 21.8054 3.24289 22.3708 3.08776 23.0157C2.93263 23.6605 3.01973 24.3399 3.33254 24.9248C3.64635 25.4644 4.14188 25.8749 4.73054 26.0828C4.78702 25.3897 5.00288 24.7191 5.36126 24.1232C5.71965 23.5273 6.21087 23.0222 6.79661 22.6475C7.38235 22.2727 8.04675 22.0384 8.73799 21.9627C9.42922 21.887 10.1286 21.9721 10.7815 22.2113L11.6643 22.533L12.394 22.008C12.5201 21.9189 12.6379 21.8185 12.7458 21.708V22.9238L16.714 24.3683L17.9995 24.8385L22.6803 23.1353L23.2533 22.926V21.711C23.3607 21.8211 23.4777 21.9215 23.6028 22.011L24.3348 22.536L25.2198 22.2135C25.8732 21.9736 26.5734 21.8882 27.2653 21.964C27.9573 22.0398 28.6223 22.2749 29.2083 22.6506C29.7943 23.0264 30.2853 23.5328 30.6428 24.1301C31.0004 24.7273 31.2148 25.3993 31.2693 26.0933C31.8854 25.8743 32.3975 25.4333 32.7055 24.8565C32.9995 24.2765 33.0729 23.6096 32.912 22.9795C32.7512 22.3495 32.367 21.7994 31.831 21.4313ZM9.97454 31.5428C9.97729 32.1073 10.1418 32.6592 10.4486 33.1331C10.7554 33.6069 11.1916 33.983 11.7055 34.2165C12.065 34.385 12.4542 34.4807 12.8509 34.4979C13.2475 34.5152 13.6436 34.4537 14.0163 34.317L15.8065 33.6653L9.97454 31.5428Z" fill="#1E8FD3"/>
<path d="M29.607 25.4249C29.4715 25.0518 29.2637 24.7091 28.9956 24.4164C28.7275 24.1237 28.4043 23.8866 28.0445 23.7189C27.6847 23.5512 27.2954 23.456 26.8988 23.4389C26.5023 23.4217 26.1062 23.4829 25.7333 23.6189L20.193 25.6349L24.5633 27.2249C25.6851 27.6332 26.5995 28.4691 27.1065 29.5499L27.8003 29.2972C28.5526 29.0222 29.1652 28.4603 29.5038 27.7344C29.8425 27.0086 29.8796 26.1781 29.607 25.4249ZM23.0183 34.4999C22.6652 34.4997 22.3149 34.4376 21.9833 34.3162L8.19977 29.3002C7.82683 29.1645 7.48428 28.9566 7.19167 28.6885C6.89906 28.4204 6.66212 28.0973 6.49438 27.7376C6.32664 27.3779 6.23139 26.9887 6.21406 26.5922C6.19674 26.1958 6.25767 25.7997 6.39339 25.4268C6.52912 25.0539 6.73696 24.7113 7.00507 24.4187C7.27318 24.1261 7.59629 23.8892 7.95597 23.7214C8.31565 23.5537 8.70484 23.4584 9.10133 23.4411C9.49781 23.4238 9.89383 23.4847 10.2668 23.6204L24.0503 28.6364C24.7167 28.8805 25.276 29.3513 25.6304 29.9662C25.9847 30.5812 26.1114 31.3011 25.9884 32.0001C25.8654 32.6991 25.5004 33.3325 24.9574 33.7896C24.4144 34.2466 23.728 34.498 23.0183 34.4999Z" fill="#1E8FD3"/>
</svg>
