<svg width="14" height="14" viewBox="0 0 14 14" fill="none" xmlns="http://www.w3.org/2000/svg">
<path d="M11.25 1.22C10.1012 0.594375 8.5925 0.25 7 0.25C5.4075 0.25 3.89875 0.594375 2.75 1.22C1.46063 1.92438 0.75 2.91125 0.75 4V10C0.75 11.0887 1.46063 12.0756 2.75 12.78C3.89687 13.405 5.40562 13.75 7 13.75C8.59438 13.75 10.1012 13.4056 11.25 12.78C12.5413 12.0756 13.25 11.0887 13.25 10V4C13.25 2.91125 12.5394 1.92438 11.25 1.22ZM11.75 7C11.75 8.0625 9.79938 9.25 7 9.25C4.20062 9.25 2.25 8.0625 2.25 7V6.47125C2.4111 6.58291 2.578 6.68598 2.75 6.78C3.89687 7.405 5.40562 7.75 7 7.75C8.59438 7.75 10.1012 7.40563 11.25 6.78C11.422 6.68598 11.5889 6.58291 11.75 6.47125V7ZM7 1.75C9.79938 1.75 11.75 2.9375 11.75 4C11.75 5.0625 9.79938 6.25 7 6.25C4.20062 6.25 2.25 5.0625 2.25 4C2.25 2.9375 4.20062 1.75 7 1.75ZM7 12.25C4.20062 12.25 2.25 11.0625 2.25 10V9.47125C2.4111 9.58291 2.578 9.68598 2.75 9.78C3.89687 10.405 5.40562 10.75 7 10.75C8.59438 10.75 10.1012 10.4056 11.25 9.78C11.422 9.68598 11.5889 9.58291 11.75 9.47125V10C11.75 11.0625 9.79938 12.25 7 12.25Z" fill="#555756"/>
</svg>
