<svg width="50" height="50" viewBox="0 0 50 50" fill="none" xmlns="http://www.w3.org/2000/svg">
<g clip-path="url(#clip0_129_3005)">
<path d="M38.7109 49.8954H31.3292L30.1802 44.4661L39.7282 46.2521V48.8781C39.7282 49.44 39.2728 49.8954 38.7109 49.8954Z" fill="#FFB09E"/>
<path d="M36.7078 45.0446V48.1649C36.7078 49.0033 36.1184 49.7264 35.2971 49.8955H38.7109C39.2727 49.8955 39.7282 49.4401 39.7282 48.8782V46.2523L36.7078 45.0446Z" fill="#F89580"/>
<path d="M30.8985 28.9551H8.8269C7.28013 28.9551 6.02612 27.7012 6.02612 26.1543V9.63857C6.02612 4.37305 10.2947 0.104492 15.5602 0.104492H24.1652C29.4307 0.104492 33.6993 4.37305 33.6993 9.63857V26.1543C33.6993 27.7012 32.4454 28.9551 30.8985 28.9551Z" fill="#C68D7A"/>
<path d="M24.1651 0.104614H20.9434C26.2089 0.104614 29.6847 4.37317 29.6847 9.6387V26.1544C29.6847 27.7012 28.4308 28.9552 26.884 28.9552H30.8984C32.4452 28.9552 33.6992 27.7013 33.6992 26.1544V9.6386C33.6992 4.37317 29.4307 0.104614 24.1651 0.104614Z" fill="#BC7C63"/>
<path d="M9.06128 21.3849H11.6309L10.0436 15.3206H9.06128C7.38667 15.3206 6.02905 16.6781 6.02905 18.3528C6.02915 20.0274 7.38667 21.3849 9.06128 21.3849ZM30.667 21.3849H28.3087L29.6848 15.3206H30.6671C32.3417 15.3206 33.6994 16.6781 33.6994 18.3528C33.6993 20.0274 32.3417 21.3849 30.667 21.3849Z" fill="#FFB09E"/>
<path d="M5.37676 33.6537C2.40723 33.6537 0 36.0609 0 39.0304V46.2522L8.39893 49.8955H11.6309L18.0297 48.0737L22.2027 49.8955H28.3087L31.3293 33.6538H29.4243L19.8626 36.1842L11.6309 33.6537H5.37676Z" fill="#FD8087"/>
<path d="M28.3086 33.6542H31.3293V49.8955H28.3086V33.6542ZM7.64438 47.0067C7.5453 47.0067 7.44718 46.9872 7.35564 46.9493C7.26409 46.9114 7.18091 46.8558 7.11085 46.7858C7.04079 46.7157 6.98521 46.6325 6.9473 46.541C6.90939 46.4494 6.88988 46.3513 6.88989 46.2522V42.6801C6.88989 42.48 6.96938 42.288 7.11088 42.1465C7.25237 42.0051 7.44428 41.9256 7.64438 41.9256C7.84449 41.9256 8.0364 42.0051 8.17789 42.1465C8.31939 42.288 8.39888 42.48 8.39888 42.6801V46.2522C8.39889 46.3513 8.37938 46.4494 8.34147 46.541C8.30356 46.6325 8.24798 46.7157 8.17792 46.7858C8.10786 46.8558 8.02468 46.9114 7.93313 46.9493C7.84159 46.9872 7.74347 47.0067 7.64438 47.0067Z" fill="#FE646F"/>
<path d="M23.6185 32.1949L20.598 27.3126H16.11V32.1949C16.11 33.0006 15.4568 33.6537 14.6512 33.6537H11.6309V37.8459C11.6309 39.0397 12.5985 40.0073 13.7923 40.0073H22.9902C24.59 40.0073 26.4406 39.0397 26.4406 37.8459L29.4243 33.6537H25.0771C24.2716 33.6537 23.6185 33.0006 23.6185 32.1949Z" fill="#FFB09E"/>
<path d="M22.0569 33.6537H25.0773C24.2717 33.6537 23.6186 33.0006 23.6186 32.1949V27.3125H20.5981V32.1948C20.598 33.0006 21.2512 33.6537 22.0569 33.6537ZM25.1518 33.6537V37.8459C25.1518 39.0396 24.1841 40.0073 22.9903 40.0073H26.0107C27.2044 40.0073 28.1722 39.0396 28.1722 37.8459L29.4245 33.6537H25.1518Z" fill="#F89580"/>
<path d="M20.9435 28.9551H16.0313C12.7245 28.9551 10.0437 26.2743 10.0437 22.9675V9.31384H29.6849L28.3088 22.9674C28.3087 26.2743 24.6988 28.9551 20.9435 28.9551Z" fill="#FFCEBF"/>
<path d="M26.6644 9.31396V22.9675C26.6644 26.2743 23.9836 28.9551 20.6768 28.9551H23.6972C27.004 28.9551 29.6848 26.2743 29.6848 22.9675V15.3206L26.6644 9.31396Z" fill="#FFB09E"/>
<path d="M18.0728 23.9192C17.9056 23.9192 17.7432 23.8637 17.611 23.7615C17.4788 23.6593 17.3842 23.5161 17.3422 23.3544C17.3001 23.1926 17.3129 23.0215 17.3786 22.8678C17.4442 22.7142 17.559 22.5866 17.705 22.5052C19.1377 21.7073 20.5906 21.7074 22.0231 22.5053C22.1952 22.6041 22.3215 22.7667 22.3745 22.9579C22.4276 23.1491 22.4032 23.3535 22.3066 23.5269C22.2101 23.7002 22.0491 23.8285 21.8587 23.8841C21.6682 23.9396 21.4635 23.9179 21.2889 23.8237C20.317 23.2824 19.4115 23.2823 18.4391 23.8238C18.3271 23.8863 18.201 23.9192 18.0728 23.9192Z" fill="#FD8087"/>
<path d="M15.3244 20.4779C14.8197 20.4779 14.315 20.3413 13.8244 20.068C13.6523 19.9692 13.5261 19.8066 13.473 19.6154C13.42 19.4242 13.4444 19.2198 13.5409 19.0465C13.6375 18.8731 13.7984 18.7448 13.9889 18.6892C14.1794 18.6337 14.3841 18.6554 14.5587 18.7497C15.0882 19.0446 15.5604 19.0447 16.09 18.7497C16.2646 18.6554 16.4693 18.6337 16.6598 18.6892C16.8503 18.7448 17.0112 18.8731 17.1078 19.0465C17.2043 19.2198 17.2287 19.4242 17.1757 19.6154C17.1226 19.8066 16.9964 19.9692 16.8243 20.068C16.3337 20.3413 15.829 20.4779 15.3244 20.4779ZM24.4037 20.4779C23.8991 20.4779 23.3944 20.3413 22.9038 20.068C22.729 19.9706 22.6 19.8078 22.5452 19.6153C22.4904 19.4229 22.5143 19.2165 22.6116 19.0416C22.709 18.8669 22.8718 18.7379 23.0643 18.6831C23.2567 18.6284 23.463 18.6522 23.6379 18.7496C24.1678 19.0446 24.64 19.0445 25.1694 18.7497C25.344 18.6554 25.5487 18.6337 25.7392 18.6892C25.9297 18.7448 26.0906 18.8731 26.1872 19.0465C26.2837 19.2198 26.3081 19.4242 26.2551 19.6154C26.202 19.8066 26.0758 19.9692 25.9037 20.068C25.4131 20.3413 24.9084 20.4779 24.4037 20.4779Z" fill="#678D98"/>
<path d="M24.9973 4.82175L16.2267 4.31189L9.32617 7.50671L10.0435 15.3205C13.939 15.3205 17.5599 11.8842 19.093 10.2096C19.5077 9.75671 20.2203 9.75671 20.6351 10.2096C22.1682 11.8841 25.7891 15.3205 29.6846 15.3205V9.31384L24.9973 4.82175Z" fill="#C68D7A"/>
<path d="M28.1721 27.5437V42.2694C28.1721 42.7025 27.981 43.1136 27.6499 43.3927L25.8243 44.9312C25.2905 45.3811 25.6087 46.2522 26.3067 46.2522H48.2146C49.2008 46.2522 50.0002 45.4528 50.0002 44.4667V27.5437C50.0002 26.5576 49.2008 25.7582 48.2146 25.7582H29.9578C28.9716 25.7582 28.1721 26.5576 28.1721 27.5437Z" fill="#FFF0AD"/>
<path d="M48.2145 25.7582H45.1941C46.1802 25.7582 46.9796 26.5576 46.9796 27.5437L46.9619 31.1931L45.1941 34.1957L46.9619 37.5019L46.9796 44.4666C46.9796 45.4527 46.1802 46.2521 45.1941 46.2521H48.2145C49.2006 46.2521 50.0001 45.4527 50.0001 44.4666V27.5437C50.0001 26.5576 49.2006 25.7582 48.2145 25.7582Z" fill="#FFE177"/>
<path d="M46.9618 31.1931V37.502C46.9618 38.2054 46.3916 38.7757 45.6882 38.7757H42.336C42.0473 38.7757 41.7643 38.8567 41.5193 39.0095C41.2742 39.1622 41.0769 39.3806 40.9497 39.6398L39.336 42.9225C39.2096 43.1798 39.0058 43.391 38.7531 43.5265C38.5005 43.6621 38.2118 43.7151 37.9275 43.6781C37.1649 43.5785 36.6338 42.8713 36.7495 42.1107L37.1413 39.539C37.2024 39.1375 36.8917 38.7758 36.4855 38.7758H32.8759C32.1784 38.7758 31.578 38.2401 31.5447 37.5434C31.5092 36.7994 32.1026 36.1843 32.839 36.1843C32.6689 36.1844 32.5005 36.1509 32.3434 36.0858C32.1863 36.0207 32.0436 35.9253 31.9234 35.805C31.7774 35.6592 31.6683 35.4805 31.6055 35.284C31.5427 35.0874 31.5278 34.8786 31.5622 34.6752C31.6638 34.0615 32.197 33.5927 32.8398 33.5927C32.6697 33.5928 32.5011 33.5593 32.3438 33.4942C32.1866 33.4291 32.0437 33.3337 31.9233 33.2134C31.7773 33.0676 31.6682 32.8889 31.6054 32.6924C31.5425 32.4958 31.5277 32.287 31.5621 32.0836C31.6637 31.4699 32.1969 31.001 32.8397 31.001H33.4866C33.3164 31.0013 33.1478 30.9679 32.9905 30.9029C32.8332 30.8378 32.6904 30.7422 32.5701 30.6218C32.424 30.476 32.315 30.2973 32.2522 30.1008C32.1893 29.9042 32.1745 29.6954 32.2089 29.492C32.3105 28.8783 32.8437 28.4105 33.4865 28.4105H39.0076C39.3688 28.4105 39.7993 28.491 40.1243 28.6479L41.7953 29.7304C42.1434 29.8974 42.5247 29.9196 42.911 29.9196H45.6877C46.3915 29.9195 46.9618 30.4897 46.9618 31.1931Z" fill="#FFB09E"/>
<path d="M36.2273 35.4295C36.2274 35.5286 36.2079 35.6268 36.17 35.7183C36.1321 35.8099 36.0765 35.8931 36.0064 35.9632C35.9364 36.0332 35.8532 36.0888 35.7616 36.1267C35.6701 36.1646 35.5719 36.1841 35.4728 36.184H32.839C32.669 36.1841 32.5006 36.1507 32.3435 36.0856C32.1864 36.0205 32.0437 35.9251 31.9235 35.8047C31.7774 35.659 31.6684 35.4803 31.6056 35.2838C31.5427 35.0872 31.5279 34.8784 31.5623 34.675H35.4727C35.5718 34.6749 35.67 34.6944 35.7616 34.7323C35.8531 34.7702 35.9363 34.8258 36.0064 34.8959C36.0765 34.9659 36.1321 35.0491 36.17 35.1407C36.2079 35.2323 36.2274 35.3304 36.2273 35.4295ZM36.2273 32.8379C36.2274 32.937 36.2079 33.0352 36.17 33.1267C36.1321 33.2183 36.0765 33.3015 36.0064 33.3716C35.9364 33.4416 35.8532 33.4972 35.7616 33.5351C35.6701 33.573 35.5719 33.5925 35.4728 33.5924H32.84C32.6698 33.5925 32.5013 33.5591 32.344 33.494C32.1868 33.4289 32.0439 33.3335 31.9235 33.2131C31.7774 33.0674 31.6684 32.8887 31.6055 32.6922C31.5427 32.4956 31.5279 32.2868 31.5623 32.0834H35.4727C35.5718 32.0833 35.67 32.1028 35.7615 32.1407C35.8531 32.1786 35.9363 32.2342 36.0064 32.3043C36.0765 32.3744 36.1321 32.4576 36.17 32.5491C36.2079 32.6407 36.2274 32.7388 36.2273 32.8379ZM32.5704 30.6217C32.4243 30.476 32.3153 30.2973 32.2524 30.1008C32.1896 29.9042 32.1747 29.6954 32.2092 29.4919H35.4727C35.5718 29.4919 35.67 29.5114 35.7615 29.5493C35.8531 29.5872 35.9363 29.6427 36.0064 29.7128C36.0764 29.7829 36.132 29.8661 36.1699 29.9576C36.2078 30.0492 36.2273 30.1473 36.2272 30.2464C36.2274 30.3456 36.2079 30.4437 36.1701 30.5353C36.1322 30.6269 36.0766 30.7101 36.0065 30.7802C35.9364 30.8503 35.8532 30.9059 35.7616 30.9438C35.67 30.9816 35.5718 31.0011 35.4727 31.0009H33.4868C33.3166 31.0012 33.148 30.9678 32.9908 30.9028C32.8335 30.8377 32.6906 30.7422 32.5704 30.6217Z" fill="#F89580"/>
<path d="M1.01729 49.8955H8.39902V46.2522H0V48.8782C0 49.4401 0.455469 49.8955 1.01729 49.8955Z" fill="#FFB09E"/>
<path d="M21.6507 49.8954L13.4978 47.8332L14.4023 43.6891V39.1855C14.4023 38.9483 14.4966 38.7207 14.6644 38.553C14.8321 38.3852 15.0597 38.2909 15.2969 38.2909H18.2392C18.7333 38.2909 20.2205 38.6915 20.2205 39.1855L21.6507 49.8954Z" fill="#F5F8F9"/>
<path d="M20.7563 38.2909H18.2393C18.4765 38.2909 18.7041 38.3852 18.8718 38.553C19.0396 38.7207 19.1339 38.9483 19.1339 39.1855V49.2282L21.6508 49.8954V39.1855C21.6508 39.068 21.6277 38.9517 21.5827 38.8432C21.5378 38.7346 21.4719 38.636 21.3888 38.5529C21.3057 38.4699 21.2071 38.404 21.0986 38.359C20.9901 38.314 20.8737 38.2909 20.7563 38.2909Z" fill="#E8EDF2"/>
<path d="M11.6309 49.8954L12.2016 46.224C12.2915 45.6451 12.5964 45.1214 13.0555 44.7573L14.4023 43.6891V45.962C14.4023 46.1245 14.4669 46.2803 14.5817 46.3951C14.6966 46.51 14.8524 46.5745 15.0148 46.5745L18.7383 46.5744C19.2588 46.5744 20.4682 46.9965 20.4682 47.5171L19.681 49.8953L11.6309 49.8954Z" fill="#FFCEBF"/>
<path d="M22.198 47.5171V49.8954H19.681V47.5171C19.681 46.997 19.2584 46.5745 18.7383 46.5745H21.2554C21.7756 46.5745 22.198 46.997 22.198 47.5171Z" fill="#FFB09E"/>
<path d="M18.0265 41.7222C18.4432 41.7222 18.781 41.3844 18.781 40.9678C18.781 40.5511 18.4432 40.2133 18.0265 40.2133C17.6098 40.2133 17.272 40.5511 17.272 40.9678C17.272 41.3844 17.6098 41.7222 18.0265 41.7222Z" fill="#678D98"/>
</g>
<defs>
<clipPath id="clip0_129_3005">
<rect width="50" height="50" fill="white"/>
</clipPath>
</defs>
</svg>
