<svg width="35" height="36" viewBox="0 0 35 36" fill="none" xmlns="http://www.w3.org/2000/svg">
<g clip-path="url(#clip0_368_1466)">
<path d="M9.67969 22.6796L16.4611 26.0703V17.3196L9.67969 13.9289V22.6796ZM24.0355 12.2494L17.4991 8.9812L10.9627 12.2494L17.4991 15.5176L24.0355 12.2494Z" fill="white"/>
<path d="M18.5366 7.17916C27.4333 11.6275 26.8931 11.3389 27.044 11.4728C27.187 11.5991 27.2921 11.7625 27.3478 11.9448C27.414 12.1605 27.394 11.2564 27.394 22.6527L33.4829 25.4204C33.4883 23.9711 33.4834 20.0818 33.4834 9.48145C33.4834 9.29697 33.4343 9.11582 33.341 8.95665C33.2477 8.79749 33.1137 8.66607 32.9527 8.57592L18.5366 0.500138V7.17916ZM26.3773 24.4709C17.228 29.0456 17.8829 28.7528 17.6057 28.7816C17.4132 28.802 17.2189 28.7677 17.045 28.6827C16.9563 28.6394 18.0068 29.1643 8.62001 24.471L2.50309 27.2514C3.55539 27.8416 6.81441 29.6666 16.9914 35.3676C17.1464 35.4544 17.3211 35.5 17.4987 35.5C17.6763 35.5 17.851 35.4544 18.006 35.3676C28.1836 29.6662 31.4422 27.8414 32.4943 27.2514L26.3773 24.4709ZM7.60328 22.6527C7.60328 11.542 7.58618 12.1722 7.64071 11.9742C7.67695 11.8425 7.73885 11.7193 7.82286 11.6115C7.90686 11.5038 8.01131 11.4137 8.13022 11.3465C8.1806 11.318 7.74513 11.5369 16.4607 7.17916V0.5C15.2412 1.17849 11.8187 3.10054 2.04451 8.57585C1.88357 8.66601 1.74956 8.79744 1.65628 8.9566C1.56301 9.11576 1.51383 9.2969 1.51383 9.48138C1.51383 9.71776 1.51314 22.2611 1.51466 25.4202L7.60328 22.6527Z" fill="white"/>
<path d="M25.3176 13.9288L18.5361 17.3195V26.0703L25.3176 22.6796V13.9288Z" fill="white"/>
</g>
<defs>
<clipPath id="clip0_368_1466">
<rect width="35" height="35" fill="white" transform="translate(0 0.5)"/>
</clipPath>
</defs>
</svg>
