<svg width="15" height="15" viewBox="0 0 15 15" fill="none" xmlns="http://www.w3.org/2000/svg">
<g clip-path="url(#clip0_368_1407)">
<path d="M11.6866 7.21266C11.3154 7.17563 10.4986 7.17563 10.4986 6.65578C10.4986 5.95055 11.538 5.02242 13.2086 4.02C13.7282 3.68578 14.8052 3.16617 14.8052 2.4607C14.8052 1.90383 14.3967 1.49555 13.5429 1.60687C12.7261 1.7182 11.4637 2.27508 9.79332 3.68578C8.0484 5.13375 6.41504 7.54688 6.41504 9.92274C6.41504 12.3359 8.0484 14.749 10.6844 14.749C12.8004 14.749 14.6196 13.1527 14.6196 10.9622C14.6193 9.29156 13.4686 7.36125 11.6866 7.21266Z" fill="white"/>
<path d="M6.46742 6.1688C6.15707 6.00477 5.81688 5.90489 5.46711 5.87513C5.09586 5.8381 4.27906 5.8381 4.27906 5.31826C4.27906 4.61302 5.31852 3.6849 6.98914 2.68248C7.50899 2.34826 8.58547 1.82865 8.58547 1.12318C8.58547 0.566303 8.17695 0.158022 7.32313 0.26935C6.50633 0.380679 5.24399 0.937553 3.57359 2.34826C1.82891 3.79623 0.195312 6.20935 0.195312 8.58544C0.195312 10.9986 1.82867 13.4117 4.46469 13.4117C5.06733 13.4124 5.66275 13.2805 6.20867 13.0252C5.68859 12.0849 5.41133 10.9969 5.41133 9.92302C5.41156 8.59693 5.83859 7.31091 6.46742 6.1688Z" fill="white"/>
</g>
<defs>
<clipPath id="clip0_368_1407">
<rect width="15" height="15" fill="white"/>
</clipPath>
</defs>
</svg>
