<svg width="150" height="150" viewBox="0 0 150 150" fill="none" xmlns="http://www.w3.org/2000/svg">
<path d="M75 145.312C113.833 145.312 145.312 113.833 145.312 75C145.312 36.1675 113.833 4.6875 75 4.6875C36.1675 4.6875 4.6875 36.1675 4.6875 75C4.6875 113.833 36.1675 145.312 75 145.312Z" fill="#FF5A54"/>
<path fill-rule="evenodd" clip-rule="evenodd" d="M145.3 73.9926C145.305 74.3283 145.313 74.6632 145.313 75.0001C145.313 113.833 113.833 145.313 75.0004 145.313C74.6315 145.313 74.2647 145.304 73.8971 145.299L47.9216 119.323C47.4615 118.929 47.0856 118.446 46.8162 117.904C46.5468 117.361 46.3895 116.77 46.3536 116.165L42.7217 56.5996H43.177L38.0597 51.4823C37.9234 51.3466 37.8153 51.1853 37.7415 51.0077C37.6678 50.83 37.6298 50.6396 37.6299 50.4473V42.9004C37.6299 40.411 39.6602 38.3811 42.1492 38.3811H61.1919V34.6858C61.1919 31.8786 63.4814 29.5894 66.2884 29.5894H83.7124C85.2036 29.5894 86.5489 30.2354 87.4823 31.2622L94.6012 38.3811H107.852C109.252 38.3811 110.507 39.0235 111.337 40.0287L145.3 73.9926Z" fill="#DB3A3C"/>
<path fill-rule="evenodd" clip-rule="evenodd" d="M60.3287 68.6827C60.9503 68.6827 61.5465 68.9296 61.986 69.3692C62.4255 69.8087 62.6725 70.4049 62.6725 71.0265V100.788C62.6725 101.409 62.4255 102.005 61.986 102.445C61.5465 102.885 60.9503 103.131 60.3287 103.131C59.7071 103.131 59.111 102.885 58.6714 102.445C58.2319 102.005 57.985 101.409 57.985 100.788V71.0265C57.985 70.4049 58.2319 69.8087 58.6714 69.3692C59.111 68.9296 59.7071 68.6827 60.3287 68.6827ZM72.656 71.0265C72.656 70.4049 72.9029 69.8087 73.3424 69.3692C73.782 68.9296 74.3781 68.6827 74.9997 68.6827C75.6213 68.6827 76.2175 68.9296 76.657 69.3692C77.0965 69.8087 77.3435 70.4049 77.3435 71.0265V100.788C77.3435 101.409 77.0965 102.005 76.657 102.445C76.2175 102.885 75.6213 103.131 74.9997 103.131C74.3781 103.131 73.782 102.885 73.3424 102.445C72.9029 102.005 72.656 101.409 72.656 100.788V71.0265ZM87.327 71.0265C87.327 70.4049 87.5739 69.8087 88.0134 69.3692C88.453 68.9296 89.0491 68.6827 89.6707 68.6827C90.2923 68.6827 90.8884 68.9296 91.328 69.3692C91.7675 69.8087 92.0145 70.4049 92.0145 71.0265V100.788C92.0145 101.409 91.7675 102.005 91.328 102.445C90.8884 102.885 90.2923 103.131 89.6707 103.131C89.0491 103.131 88.453 102.885 88.0134 102.445C87.5739 102.005 87.327 101.409 87.327 100.788V71.0265ZM42.721 56.5998L46.3529 116.166C46.4218 117.315 46.9272 118.394 47.7657 119.183C48.6042 119.972 49.7125 120.411 50.8638 120.41H99.1354C100.287 120.411 101.395 119.972 102.233 119.183C103.072 118.394 103.577 117.315 103.646 116.166L107.278 56.5998H42.721ZM42.1485 38.3815H61.1912V34.6863C61.1912 31.8791 63.4808 29.5898 66.2877 29.5898H83.7117C86.5187 29.5898 88.8082 31.8791 88.8082 34.6863V38.3815H107.851C110.34 38.3815 112.37 40.4118 112.37 42.9009V50.4478C112.37 51.2546 111.712 51.9126 110.905 51.9126H39.0938C38.7055 51.9118 38.3334 51.7572 38.0588 51.4827C37.7843 51.2082 37.6297 50.836 37.6289 50.4478V42.9009C37.6289 40.4115 39.6595 38.3815 42.1485 38.3815Z" fill="white"/>
</svg>
