<svg width="45" height="48" viewBox="0 0 45 48" fill="none" xmlns="http://www.w3.org/2000/svg">
<path fill-rule="evenodd" clip-rule="evenodd" d="M26.9864 46.8978H9.1988C12.2631 31.6399 1.78327 25.9541 3.88103 15.2739C4.90085 10.0836 7.97849 6.18214 12.0123 3.7963C14.9667 2.04884 18.3109 1.16212 21.6801 1.08957C25.0737 1.01652 28.4927 1.76945 31.5639 3.30119C35.8276 5.42755 39.1884 8.97482 40.0804 13.4731C40.6049 16.1174 40.251 18.7785 40.0276 21.146C40.0494 22.0075 41.139 24.5051 42.8551 27.1318C43.3437 27.8885 43.7321 28.3471 43.6265 29.1528C43.4435 30.5512 40.7507 29.8747 40.086 31.2304C39.8648 31.6821 40.0398 32.6253 40.2454 33.0386C40.5952 33.7424 40.5695 34.4283 39.592 34.6727C39.25 34.7581 38.8199 34.8306 38.5077 34.996C38.5783 35.0393 38.9123 35.2527 39.5991 35.5283C40.2958 35.6759 40.6256 36.6407 39.9128 37.3652C39.7044 37.5065 39.7368 37.9291 39.8335 38.3546C40.1058 39.5519 40.3768 40.7848 39.2196 41.7346C38.5936 42.2484 37.5288 42.2424 36.1145 42.1202C34.1555 41.8607 32.0766 41.1955 30.1046 41.8838C28.5821 42.4152 27.6594 45.0221 26.9862 46.8978H26.9864Z" fill="#FDB0A0"/>
<path fill-rule="evenodd" clip-rule="evenodd" d="M24.462 46.8978H9.19882C12.2631 31.6399 1.7832 25.9543 3.88105 15.274C4.90087 10.0836 7.97851 6.18218 12.0123 3.79634C14.7299 2.18892 17.7774 1.30991 20.8707 1.1228C23.6911 1.29224 26.4855 2.02739 29.0396 3.30112C33.3033 5.42749 36.6641 8.97476 37.5561 13.473C38.0806 16.1173 37.7268 18.7785 37.5033 21.1459C37.5251 22.0075 38.6147 24.505 40.3309 27.1317C40.8194 27.8885 41.2078 28.347 41.1022 29.1529C40.9192 30.5512 38.2264 29.8748 37.5618 31.2304C37.3406 31.6822 37.5156 32.6253 37.7212 33.0386C38.071 33.7423 38.0453 34.4284 37.0678 34.6726C36.3893 34.9062 36.4379 35.2726 37.0749 35.5284C37.7716 35.6759 38.1014 36.6408 37.3886 37.3652C37.1802 37.5065 37.2126 37.9292 37.3093 38.3546C37.5816 39.5519 37.8526 40.7848 36.6954 41.7346C36.4843 41.908 36.2229 42.022 35.9153 42.0925C34.2692 41.854 32.5444 41.3733 30.874 41.6812C29.7689 41.5358 28.6587 41.5075 27.5805 41.8838C26.058 42.4152 25.1353 45.0221 24.4622 46.8978H24.462Z" fill="#FFCEC0"/>
<path fill-rule="evenodd" clip-rule="evenodd" d="M37.715 1.3595H41.6603L39.2967 5.45334H43.7332L35.2387 14.8311L37.4829 8.51438H33.5693L37.715 1.3595Z" fill="#FDC72E"/>
<path fill-rule="evenodd" clip-rule="evenodd" d="M37.715 1.3595H40.0825L37.7188 5.45334H42.1555L36.2569 11.9652L37.4829 8.51438H33.5693L37.715 1.3595Z" fill="#FCDB35"/>
<path fill-rule="evenodd" clip-rule="evenodd" d="M23.4386 7.24699C23.8187 6.88395 24.2812 6.61865 24.7865 6.47392C25.2917 6.32919 25.8246 6.30935 26.3392 6.41611C26.8539 6.52287 27.3349 6.75304 27.7409 7.08681C28.1469 7.42058 28.4657 7.84798 28.67 8.33224C31.1722 8.79689 32.5727 10.5487 32.5252 12.5791C35.2419 13.6225 35.9646 17.2801 34.4157 19.5521C34.6137 19.9492 34.7208 20.3855 34.7292 20.8292C34.7376 21.2728 34.6471 21.7128 34.4643 22.1172C34.2814 22.5215 34.0108 22.8801 33.6721 23.1668C33.3334 23.4536 32.9351 23.6613 32.5062 23.7749C32.7149 25.9379 31.3017 27.8505 28.67 28.3394C28.4657 28.8236 28.1469 29.251 27.7409 29.5848C27.3349 29.9186 26.8539 30.1487 26.3392 30.2555C25.8246 30.3623 25.2917 30.3424 24.7865 30.1977C24.2812 30.053 23.8187 29.7877 23.4386 29.4246V7.24699ZM20.2593 29.4244C19.8792 29.7875 19.4167 30.0528 18.9114 30.1975C18.4061 30.3422 17.8733 30.3621 17.3586 30.2553C16.844 30.1485 16.363 29.9184 15.957 29.5846C15.551 29.2508 15.2321 28.8234 15.0279 28.3392C12.5258 27.8744 11.1252 26.1227 11.1727 24.0923C8.45607 23.0489 7.73332 19.3913 9.28215 17.1194C9.08416 16.7222 8.97709 16.286 8.9687 15.8423C8.96032 15.3986 9.05083 14.9586 9.23368 14.5543C9.41652 14.1499 9.68711 13.7914 10.0258 13.5046C10.3645 13.2179 10.7628 13.0101 11.1917 12.8965C10.983 10.7335 12.3961 8.82091 15.0278 8.33205C15.232 7.84778 15.5509 7.42039 15.9569 7.08661C16.3629 6.75284 16.8439 6.52268 17.3585 6.41592C17.8732 6.30916 18.406 6.329 18.9113 6.47373C19.4166 6.61846 19.8791 6.88375 20.2592 7.24679V29.4242L20.2593 29.4244Z" fill="#FF6B84"/>
<path fill-rule="evenodd" clip-rule="evenodd" d="M5.41231 25.8585H9.35752L6.99395 29.9524H11.4305L2.93594 39.3301L5.18027 33.0135H1.2666L5.41231 25.8585Z" fill="#FDC72E"/>
<path fill-rule="evenodd" clip-rule="evenodd" d="M5.4123 25.8586H7.77978L5.41621 29.9524H9.85273L3.9542 36.4642L5.18027 33.0135H1.2666L5.4123 25.8586Z" fill="#FCDB35"/>
<path fill-rule="evenodd" clip-rule="evenodd" d="M27.5738 18.3467C27.5733 18.6247 27.6349 18.8993 27.754 19.1504C27.8731 19.4016 28.0468 19.6229 28.2624 19.7984C28.367 19.8838 28.4426 19.9995 28.4789 20.1296C28.5151 20.2597 28.5102 20.3978 28.4648 20.525C28.4194 20.6522 28.3357 20.7623 28.2253 20.84C28.1149 20.9178 27.9831 20.9595 27.8481 20.9593C27.6973 20.9595 27.5512 20.9073 27.4346 20.8118C26.6915 20.2047 26.2652 19.3063 26.2652 18.3467C26.2652 17.3872 26.6914 16.4888 27.4344 15.8817C27.569 15.7742 27.7406 15.7241 27.9119 15.7423C28.0832 15.7605 28.2404 15.8455 28.3494 15.9789C28.4584 16.1123 28.5104 16.2834 28.4941 16.4549C28.4778 16.6263 28.3945 16.7845 28.2623 16.895C28.0467 17.0705 27.873 17.2919 27.7538 17.543C27.6347 17.7942 27.5731 18.0688 27.5736 18.3468L27.5738 18.3467ZM20.7022 6.80757C20.7661 6.86864 20.817 6.94205 20.8518 7.02336C20.8866 7.10467 20.9045 7.19218 20.9045 7.28062V29.4128C20.9045 29.5916 20.8315 29.7625 20.7022 29.8859C19.9649 30.5901 18.9901 30.9603 18.0057 30.9603C17.4241 30.9609 16.8499 30.8305 16.3257 30.5788C15.5677 30.2141 14.9661 29.6178 14.584 28.9031C12.958 28.521 11.6977 27.6012 11.0312 26.3051C10.7439 25.7463 10.579 25.1432 10.5365 24.5191C9.36222 23.931 8.49279 22.8669 8.0839 21.5084C7.63497 20.0168 7.81427 18.3712 8.55871 17.0807C8.26554 16.3026 8.24425 15.434 8.52746 14.6145C8.86105 13.6488 9.59894 12.8633 10.5311 12.4615C10.536 11.7889 10.6777 11.1351 10.959 10.5351C11.6052 9.15757 12.8894 8.18882 14.5836 7.79087C14.9657 7.07583 15.5676 6.47925 16.3258 6.1145C17.778 5.41587 19.5368 5.69439 20.7022 6.80757ZM19.596 29.1137V27.0521C19.1865 27.3959 18.6851 27.6473 18.095 27.748C17.925 27.7748 17.7513 27.7336 17.6115 27.6332C17.4717 27.5328 17.377 27.3814 17.3481 27.2118C17.3191 27.0421 17.3582 26.8679 17.4568 26.7268C17.5554 26.5858 17.7056 26.4892 17.8749 26.4582C18.9927 26.2674 19.5959 25.1525 19.5959 24.2002V7.57984C18.8305 6.98833 17.7765 6.8687 16.8929 7.2937C15.9287 7.75757 15.3445 8.78511 15.4391 9.85083C15.5337 10.9166 16.2898 11.8252 17.3204 12.1122C17.4032 12.1352 17.4806 12.1743 17.5483 12.2273C17.6159 12.2802 17.6725 12.346 17.7147 12.4208C17.757 12.4956 17.7841 12.578 17.7945 12.6633C17.8049 12.7486 17.7983 12.8351 17.7753 12.9178C17.7523 13.0006 17.7132 13.078 17.6603 13.1457C17.6073 13.2134 17.5415 13.27 17.4667 13.3122C17.3919 13.3544 17.3095 13.3815 17.2242 13.3919C17.1389 13.4023 17.0524 13.3958 16.9696 13.3727C15.417 12.9407 14.278 11.5718 14.1357 9.96655C14.1162 9.74462 14.1161 9.52142 14.1353 9.29947C13.2129 9.67173 12.5195 10.2887 12.1432 11.091C11.6641 12.1125 11.7424 13.3223 12.3639 14.4977C12.4166 14.5974 12.4426 14.709 12.4395 14.8217C12.4363 14.9343 12.4041 15.0443 12.346 15.1409C12.2879 15.2375 12.2058 15.3174 12.1077 15.373C12.0096 15.4285 11.8988 15.4577 11.786 15.4579C11.667 15.4579 11.5501 15.4255 11.4481 15.3641C11.3461 15.3027 11.2628 15.2146 11.2071 15.1093C10.994 14.7072 10.8273 14.2821 10.7105 13.8422C10.2744 14.1226 9.93527 14.545 9.76359 15.0419C9.47658 15.8728 9.67687 16.7826 10.2861 17.4162C10.4775 17.6153 10.7027 17.7787 10.9514 17.8988C11.1045 17.9761 11.2211 18.1105 11.2761 18.273C11.3311 18.4355 11.3201 18.6131 11.2455 18.7675C11.1708 18.922 11.0385 19.0409 10.877 19.0988C10.7155 19.1566 10.5378 19.1487 10.382 19.0768C10.0163 18.9 9.68285 18.6629 9.39572 18.3754C9.08937 19.234 9.06134 20.2177 9.33634 21.1316C9.58126 21.9455 10.0408 22.6127 10.6549 23.0639C10.7315 22.7245 10.8385 22.3927 10.9746 22.0724C11.0425 21.9127 11.1709 21.7865 11.3318 21.7215C11.4927 21.6565 11.6728 21.6581 11.8325 21.7258C11.9116 21.7594 11.9833 21.8082 12.0436 21.8695C12.1038 21.9307 12.1513 22.0033 12.1835 22.0829C12.2157 22.1626 12.2319 22.2478 12.2311 22.3337C12.2304 22.4196 12.2127 22.5046 12.1791 22.5836C11.7151 23.6763 11.7206 24.7856 12.1944 25.7069C12.5796 26.4559 13.2552 27.0371 14.1352 27.3935C14.1161 27.1717 14.1162 26.9487 14.1356 26.7269C14.2779 25.1217 15.4169 23.7529 16.9695 23.3209C17.1357 23.2773 17.3124 23.3009 17.4614 23.3865C17.6104 23.4721 17.7197 23.6128 17.7657 23.7784C17.8118 23.9439 17.7909 24.1209 17.7076 24.2711C17.6242 24.4214 17.4851 24.5328 17.3203 24.5814C16.2896 24.8682 15.5335 25.7769 15.439 26.8426C15.3444 27.9084 15.9286 28.936 16.8928 29.3999C17.7762 29.825 18.8303 29.7052 19.5958 29.1137H19.596ZM16.2633 15.8817C16.1287 15.7742 15.9571 15.7241 15.7858 15.7423C15.6145 15.7605 15.4573 15.8455 15.3483 15.9789C15.2393 16.1123 15.1873 16.2834 15.2036 16.4549C15.2199 16.6263 15.3032 16.7845 15.4354 16.895C15.873 17.2526 16.1239 17.7816 16.1239 18.3468C16.1239 18.9121 15.873 19.4411 15.4354 19.7985C15.3032 19.909 15.2199 20.0671 15.2036 20.2386C15.1873 20.4101 15.2393 20.5811 15.3483 20.7145C15.4573 20.8479 15.6145 20.933 15.7858 20.9512C15.9571 20.9694 16.1287 20.9193 16.2633 20.8118C17.0064 20.2046 17.4324 19.3062 17.4324 18.3467C17.4324 17.3873 17.0063 16.4887 16.2633 15.8817ZM43.5612 27.0355C43.5053 26.9512 43.4499 26.8666 43.3948 26.7817C41.674 24.1478 40.7226 21.8607 40.6763 21.1727C40.6981 20.943 40.721 20.7105 40.7443 20.4756C40.9598 18.2949 41.204 15.8234 40.7152 13.3587C40.5349 12.4492 40.2527 11.5547 39.8756 10.6935L44.2098 5.90865C44.2948 5.81479 44.3508 5.69827 44.3709 5.57322C44.391 5.44817 44.3744 5.31998 44.323 5.2042C44.2717 5.08842 44.1878 4.99004 44.0817 4.92098C43.9755 4.85193 43.8516 4.81518 43.7249 4.81519H40.4233L42.2192 1.70425C42.2767 1.60481 42.307 1.49199 42.307 1.37714C42.307 1.26229 42.2768 1.14945 42.2194 1.04999C42.162 0.95052 42.0794 0.867926 41.9799 0.810509C41.8804 0.753092 41.7676 0.722877 41.6527 0.722903H37.7091C37.5944 0.722906 37.4818 0.753049 37.3824 0.810313C37.283 0.867576 37.2005 0.949947 37.143 1.04917L35.0256 4.70337C34.0564 3.96363 32.993 3.30152 31.8522 2.73257C28.7101 1.16548 25.1887 0.377884 21.6661 0.453176C18.0986 0.530032 14.6466 1.49712 11.6832 3.24986C7.23458 5.88101 4.2383 10.1108 3.24621 15.1599C2.4883 19.0187 3.26525 22.2294 4.69308 25.8144L0.708804 32.6907C0.651166 32.7901 0.620745 32.903 0.620606 33.0179C0.620466 33.1328 0.650613 33.2458 0.708009 33.3454C0.765405 33.4449 0.848025 33.5276 0.947548 33.5851C1.04707 33.6426 1.15998 33.6728 1.27492 33.6728H4.26037L2.32716 39.1138C2.27658 39.2563 2.27693 39.412 2.32814 39.5543C2.37936 39.6966 2.47828 39.8167 2.60809 39.8943C2.73789 39.9719 2.89057 40.0021 3.04014 39.9798C3.18972 39.9576 3.32696 39.8842 3.42853 39.7721L8.12374 34.5886C9.29416 38.6652 9.42609 42.4689 8.56251 46.7688C8.54343 46.8637 8.54566 46.9617 8.56906 47.0557C8.59245 47.1497 8.63642 47.2373 8.69778 47.3122C8.75915 47.3871 8.83639 47.4475 8.92391 47.4889C9.01144 47.5303 9.10708 47.5518 9.20392 47.5518H26.985C27.1197 47.5518 27.2512 47.5102 27.3614 47.4327C27.4716 47.3551 27.5552 47.2454 27.6007 47.1186L27.6199 47.065C28.2112 45.4169 29.1048 42.9265 30.3176 42.5032C31.6868 42.0252 33.1343 42.2805 34.6667 42.5508C35.1116 42.6293 35.5719 42.7105 36.0236 42.7704C36.0334 42.7716 36.0434 42.7728 36.0532 42.7736C37.4489 42.8941 38.7728 42.9443 39.6283 42.2419C41.1056 41.0294 40.7353 39.4013 40.4648 38.2126C40.4137 37.9879 40.4049 37.8586 40.4055 37.7932C40.8939 37.2758 41.0737 36.6013 40.8866 35.9798C40.7786 35.6208 40.5544 35.3196 40.2612 35.1203C40.6578 34.9139 40.8608 34.6363 40.9647 34.4114C41.115 34.0856 41.2126 33.5334 40.8245 32.7525C40.6509 32.4032 40.5801 31.7011 40.6668 31.5243C40.8511 31.1483 41.4878 31.0057 42.1037 30.8676C42.952 30.6775 44.1136 30.4172 44.2671 29.2444C44.3917 28.2921 43.9884 27.6816 43.5613 27.0352L43.5612 27.0355ZM34.7001 7.87515H34.6999L38.0859 2.0315H40.5193L38.7234 5.14243C38.6659 5.24188 38.6356 5.3547 38.6356 5.46955C38.6356 5.5844 38.6658 5.69723 38.7232 5.7967C38.7806 5.89616 38.8632 5.97876 38.9627 6.03618C39.0622 6.09359 39.175 6.12381 39.2899 6.12378H42.2493L38.6141 10.1371C38.6128 10.1384 38.6116 10.1398 38.6104 10.1412L36.9455 11.9791L38.0934 8.74839C38.1284 8.64969 38.1393 8.54401 38.125 8.44023C38.1108 8.33646 38.0718 8.23763 38.0114 8.15205C37.951 8.06648 37.8709 7.99665 37.7779 7.94845C37.6849 7.90024 37.5817 7.87507 37.477 7.87505L34.7001 7.87515ZM5.80343 33.2379L4.65558 36.4686L9.95939 30.6132H6.99972C6.76593 30.6132 6.55001 30.4885 6.43322 30.2861C6.31642 30.0836 6.31642 29.8343 6.43322 29.6319L8.22931 26.521H5.79581L2.40988 32.3647H5.18683C5.29158 32.3647 5.39479 32.3899 5.48779 32.4381C5.58079 32.4863 5.66085 32.5561 5.72125 32.6417C5.78166 32.7273 5.82063 32.8261 5.83489 32.9299C5.84916 33.0337 5.8383 33.1393 5.80324 33.238L5.80343 33.2379ZM42.4695 27.7567C42.4141 27.6727 42.3565 27.5856 42.2975 27.4942C40.628 24.9389 39.3946 22.2791 39.3667 21.1725C39.366 21.1465 39.3669 21.1205 39.3694 21.0946C39.3926 20.8484 39.4172 20.5992 39.4422 20.347C39.6588 18.1546 39.8828 15.8877 39.4319 13.6133C39.3065 12.985 39.129 12.3682 38.9013 11.7693L35.7187 15.2828C35.6994 15.3037 35.6788 15.3234 35.6569 15.3418C36.0482 16.7912 35.8579 18.3669 35.1394 19.6126C35.4325 20.3908 35.4538 21.2593 35.1706 22.0789C34.837 23.0446 34.0992 23.83 33.1671 24.2318C33.1622 24.9043 33.0205 25.5582 32.7391 26.1582C32.093 27.5356 30.8087 28.5043 29.1145 28.9023C28.7323 29.6173 28.1305 30.2139 27.3723 30.5788C26.848 30.8305 26.2738 30.9609 25.6923 30.9603C24.7078 30.9603 23.7332 30.5902 22.9958 29.8859C22.9319 29.8248 22.881 29.7514 22.8462 29.6701C22.8114 29.5888 22.7935 29.5013 22.7935 29.4128V7.28062C22.7935 7.10191 22.8665 6.93101 22.9957 6.80757C24.1611 5.69448 25.9199 5.41607 27.3721 6.1147C28.1301 6.47935 28.7317 7.07564 29.1139 7.79048C30.8193 8.19107 32.1095 9.17163 32.7505 10.5603C32.9853 11.0689 33.125 11.6162 33.1627 12.1751C33.8773 12.5334 34.4791 13.0671 34.9323 13.7374L36.5502 9.18384H33.5649C33.4499 9.1838 33.3371 9.1535 33.2376 9.09599C33.1381 9.03847 33.0555 8.95578 32.9981 8.85622C32.9408 8.75666 32.9106 8.64375 32.9107 8.52884C32.9108 8.41392 32.9412 8.30107 32.9987 8.20161L34.3646 5.84439C33.4263 5.11363 32.3873 4.46197 31.2683 3.90386C28.3152 2.43111 25.0041 1.69097 21.6944 1.76177C18.3511 1.83374 15.1196 2.73784 12.3493 4.37652C8.22628 6.81519 5.44923 10.7345 4.53009 15.4127C3.84171 18.9176 4.54992 21.8905 5.86193 25.2129H9.36261C9.5964 25.2129 9.81232 25.3376 9.92912 25.5401C10.0459 25.7425 10.0459 25.9918 9.92912 26.1943L8.13302 29.3052H11.4348C11.5614 29.3052 11.6854 29.342 11.7915 29.411C11.8977 29.4801 11.9815 29.5785 12.0329 29.6942C12.0842 29.81 12.1009 29.9382 12.0808 30.0633C12.0606 30.1883 12.0047 30.3048 11.9196 30.3987L9.14962 33.4567C10.041 36.2745 10.9873 40.5277 9.9921 46.2441H26.5246C27.2287 44.2979 28.1959 41.8586 29.886 41.2687C31.5776 40.6782 33.2634 40.9757 34.8936 41.2632C35.3397 41.3419 35.7612 41.4164 36.1805 41.4723C37.4441 41.5807 38.3726 41.5807 38.798 41.2316C39.6089 40.566 39.4747 39.7614 39.1886 38.5038C39.1213 38.2078 38.9221 37.3314 39.4668 36.8819C39.6862 36.6412 39.6571 36.4367 39.6334 36.358C39.6223 36.321 39.5768 36.1989 39.4567 36.1735C39.4197 36.1657 39.3835 36.1547 39.3485 36.1406C38.8791 35.9522 38.4821 35.7585 38.1689 35.5649L38.1594 35.5591C38.061 35.4988 37.9803 35.4136 37.9255 35.312C37.8707 35.2104 37.8438 35.0962 37.8474 34.9808C37.851 34.8655 37.885 34.7532 37.9461 34.6552C38.0071 34.5573 38.093 34.4772 38.1949 34.4232C38.5156 34.2532 38.8827 34.1692 39.2067 34.0951C39.2825 34.0777 39.3565 34.0609 39.4265 34.0434C39.6491 33.9877 39.754 33.912 39.7762 33.864C39.801 33.8102 39.8029 33.6384 39.6525 33.3359C39.4189 32.8662 39.1318 31.6837 39.4914 30.9495C39.9522 30.0096 40.9862 29.7779 41.8172 29.5918C42.5899 29.4186 42.9396 29.303 42.9693 29.0754C43.0283 28.625 42.8687 28.3617 42.4693 27.7573L42.4695 27.7567ZM33.9338 21.6516C34.2208 20.8208 34.0205 19.9109 33.4112 19.2774C33.22 19.0783 32.9948 18.9149 32.7462 18.7949C32.5927 18.7178 32.4756 18.5834 32.4203 18.4208C32.365 18.2581 32.3758 18.0803 32.4505 17.9256C32.5253 17.7709 32.6578 17.6517 32.8196 17.5939C32.9814 17.5362 33.1594 17.5443 33.3152 17.6167C33.6811 17.7935 34.0146 18.0306 34.3018 18.318C34.6081 17.4594 34.6361 16.4756 34.3611 15.5618C34.1167 14.7493 33.658 14.0828 33.0453 13.6316C32.9331 14.1257 32.7483 14.6214 32.4904 15.1091C32.4503 15.1851 32.3956 15.2524 32.3294 15.3072C32.2632 15.362 32.1869 15.4032 32.1048 15.4285C32.0227 15.4538 31.9364 15.4627 31.8509 15.4547C31.7653 15.4467 31.6822 15.4219 31.6063 15.3817C31.5303 15.3415 31.463 15.2868 31.4082 15.2206C31.3534 15.1545 31.3122 15.0782 31.2869 14.9961C31.2616 14.9139 31.2527 14.8277 31.2607 14.7421C31.2687 14.6566 31.2935 14.5735 31.3337 14.4975C31.9511 13.3297 32.0324 12.1262 31.5626 11.1085C31.1888 10.2988 30.4917 9.67486 29.5623 9.29956C29.5812 9.51939 29.5818 9.74234 29.5619 9.96655C29.4195 11.5717 28.2807 12.9406 26.728 13.3726C26.6451 13.3963 26.5582 13.4034 26.4725 13.3933C26.3868 13.3833 26.3039 13.3565 26.2286 13.3143C26.1533 13.2721 26.0871 13.2155 26.0338 13.1476C25.9805 13.0798 25.9412 13.002 25.918 12.9189C25.8949 12.8358 25.8884 12.7489 25.899 12.6632C25.9096 12.5776 25.937 12.4949 25.9797 12.4199C26.0224 12.3449 26.0794 12.2791 26.1477 12.2262C26.2159 12.1734 26.2939 12.1345 26.3772 12.112C27.4078 11.8251 28.1639 10.9165 28.2585 9.85073C28.3531 8.78501 27.769 7.75738 26.8048 7.29361C25.9215 6.8687 24.8674 6.98814 24.1018 7.57974V9.64136C24.5112 9.29761 25.0127 9.04615 25.6027 8.94546C25.7727 8.91864 25.9464 8.95988 26.0862 9.06025C26.226 9.16062 26.3206 9.31204 26.3496 9.4817C26.3785 9.65135 26.3395 9.82559 26.2409 9.96664C26.1423 10.1077 25.992 10.2042 25.8228 10.2353C24.705 10.4259 24.1018 11.541 24.1018 12.4932V29.1137C24.8672 29.7052 25.9213 29.8249 26.8048 29.3999C27.769 28.9361 28.353 27.9085 28.2585 26.8427C28.164 25.777 27.4078 24.8683 26.3772 24.5815C26.2944 24.5585 26.217 24.5193 26.1493 24.4664C26.0817 24.4134 26.0251 24.3477 25.9829 24.2728C25.9406 24.198 25.9136 24.1156 25.9032 24.0303C25.8928 23.945 25.8993 23.8586 25.9223 23.7758C25.9454 23.693 25.9845 23.6156 26.0374 23.5479C26.0904 23.4803 26.1562 23.4237 26.231 23.3815C26.3058 23.3393 26.3882 23.3122 26.4735 23.3018C26.5588 23.2914 26.6453 23.2979 26.728 23.321C28.2806 23.753 29.4195 25.1218 29.5619 26.7271C29.5818 26.9514 29.5811 27.1744 29.5623 27.3943C30.4847 27.022 31.1781 26.405 31.5544 25.6028C32.0336 24.5813 31.9553 23.3714 31.3338 22.196C31.2934 22.1201 31.2684 22.0369 31.2602 21.9513C31.252 21.8656 31.2608 21.7792 31.286 21.6969C31.3113 21.6147 31.3525 21.5382 31.4074 21.472C31.4622 21.4057 31.5296 21.3508 31.6056 21.3106C31.6817 21.2704 31.7649 21.2456 31.8506 21.2376C31.9362 21.2296 32.0226 21.2386 32.1048 21.264C32.187 21.2894 32.2634 21.3308 32.3296 21.3858C32.3957 21.4408 32.4504 21.5083 32.4904 21.5844C32.7036 21.9865 32.8703 22.4116 32.9871 22.8514C33.4232 22.571 33.7623 22.1487 33.934 21.6518H33.9339L33.9338 21.6516Z" fill="black"/>
</svg>
