<svg width="47" height="48" viewBox="0 0 47 48" fill="none" xmlns="http://www.w3.org/2000/svg">
<path d="M16.5423 35.4821C14.136 35.4555 11.6915 35.4235 9.38837 34.7266C7.08525 34.0297 4.90087 32.5641 3.90087 30.3758C5.42534 30.9573 7.11768 30.9138 8.61025 30.2547C6.29306 29.2883 4.01415 27.9821 2.56728 25.9297C1.1204 23.8774 0.707122 20.9391 2.12665 18.868C2.51415 21.1211 4.47275 23.0125 6.73759 23.3203C5.7829 22.5578 5.40009 21.2742 5.31884 20.0555C5.23759 18.836 5.40243 17.6086 5.29306 16.3914C5.18368 15.1742 4.73603 13.9 3.73056 13.2055L8.30322 15.5789C7.40927 12.2475 7.35344 8.74658 8.14072 5.38831C7.76415 7.12737 9.09384 8.82659 10.6548 9.68049C12.2157 10.5344 14.0196 10.825 15.6579 11.5188C18.6735 12.7961 20.9993 15.4305 22.2907 18.4399C23.5821 21.4492 23.9048 24.8086 23.6477 28.0735C23.5407 29.4305 23.3306 30.8008 22.7634 32.0383C22.1962 33.2758 21.2329 34.3781 19.9657 34.8742L16.5423 35.4821Z" fill="#F47C94"/>
<path d="M16.775 33.918C14.6929 33.8946 12.5476 33.8587 10.6148 33.2743C9.86758 33.0526 9.15458 32.7287 8.49604 32.3118C9.03419 32.209 9.55874 32.0446 10.0593 31.8219C11.2312 31.2977 11.2093 29.6274 10.025 29.1329C7.57964 28.1134 5.9812 26.9868 4.99526 25.5868C4.64888 25.0893 4.388 24.5374 4.22339 23.954C5.15386 24.7352 6.29136 25.2704 7.50933 25.436L7.69058 25.4313C8.91245 25.4001 9.56089 23.9735 8.78042 23.0329L8.62104 22.8407C8.02573 22.3657 7.87573 21.3751 7.83901 20.8274C7.80776 20.3563 7.82183 19.8641 7.83667 19.3423C7.85229 18.8063 7.86792 18.2555 7.83589 17.6844L8.49995 18.0298C9.6312 18.6173 10.9203 17.579 10.589 16.3485C10.2107 14.9437 10.0038 13.4983 9.97261 12.0438C10.2007 12.2071 10.4367 12.3555 10.6757 12.486C11.6601 13.0251 12.6804 13.3391 13.6671 13.643C14.3148 13.8423 14.9265 14.0313 15.4968 14.2727C17.8187 15.2563 19.8023 17.3399 20.939 19.9891C21.9562 22.3587 22.3453 25.1634 22.0968 28.3251C22.0218 29.2774 21.8742 30.5032 21.3968 31.5462C20.9968 32.4188 20.3796 33.0868 19.6898 33.4009L16.775 33.918Z" fill="#F15574"/>
<path d="M15.8593 30.7563C14.5429 30.5532 13.3234 29.7829 12.5757 28.6805C11.8281 27.5782 11.5616 26.1602 11.8601 24.8618C12.3671 25.6235 13.3585 26.0282 14.2538 25.8399C13.3109 25.2391 13.1054 23.9735 13.0062 22.8602C12.907 21.7469 12.746 20.4868 11.8398 19.8329C12.882 20.254 14.0288 20.3032 15.1406 20.4673C17.0952 20.7563 19.0515 21.454 20.4757 22.8235C21.8999 24.193 22.6906 26.3227 22.1116 28.2118C21.5327 30.1009 19.3773 31.4766 17.4976 30.8696L15.8593 30.7563Z" fill="#EE2F56"/>
<path d="M18.4282 29.4516C18.2712 29.4516 18.1188 29.4282 17.9751 29.3821L17.7938 29.3235L16.0384 29.2024C15.6022 29.1238 15.1859 28.9598 14.8134 28.7196C14.441 28.4795 14.1197 28.168 13.8681 27.8032C13.7905 27.6887 13.7205 27.5691 13.6587 27.4454L13.8063 27.4477C14.0657 27.4477 14.3243 27.4212 14.5743 27.368C15.9446 27.0798 16.2728 25.2735 15.0923 24.5212C14.7001 24.2712 14.5954 23.104 14.561 22.7204C14.5399 22.4643 14.5128 22.2088 14.4798 21.954C14.6235 21.9719 14.7673 21.9915 14.9103 22.0126C16.2399 22.2094 18.0978 22.7048 19.3907 23.9493C20.4954 25.0118 20.9876 26.5407 20.6157 27.754C20.329 28.6891 19.3478 29.4516 18.4282 29.4516Z" fill="#E2123C"/>
<path d="M15.2859 13.0625L14.0023 10.7523C13.3689 9.61238 13.1029 8.30461 13.2408 7.00777C13.3787 5.71094 13.9137 4.48833 14.7727 3.50703C15.3669 2.82753 16.0995 2.28295 16.9214 1.90985C17.7434 1.53674 18.6356 1.34372 19.5383 1.34375H22.8242C24.6516 1.34375 26.4375 1.88437 27.9578 2.89766L28.9289 3.54453C29.1822 3.7135 29.4757 3.81247 29.7796 3.8314C30.0835 3.85034 30.387 3.78856 30.6594 3.65234C31.1862 3.38904 31.7874 3.31436 32.3626 3.44075C32.9379 3.56715 33.4524 3.88697 33.8203 4.34687C34.2699 4.909 34.5764 5.57181 34.7136 6.27843C34.8508 6.98505 34.8145 7.7144 34.6078 8.40391L33.2094 13.0625L32.5937 15.4062H16.9687L15.2859 13.0625Z" fill="#7B828E"/>
<path d="M24.0001 1.42344C23.6103 1.37217 23.2176 1.34555 22.8244 1.34375H19.5384C18.4357 1.34379 17.3521 1.63176 16.3949 2.17918C15.4376 2.7266 14.6399 3.51448 14.0806 4.46487C13.5214 5.41525 13.22 6.4952 13.2063 7.59783C13.1926 8.70046 13.467 9.78757 14.0025 10.7516L15.2861 13.0625L16.9689 15.4062H24.0001V1.42344Z" fill="#656B76"/>
<path d="M33.9867 8.37502C33.5541 8.37505 33.1274 8.27432 32.7406 8.08081C32.3537 7.8873 32.0172 7.60634 31.7578 7.26018C31.3442 6.70871 30.7408 6.33015 30.0644 6.19768C29.3879 6.06522 28.6863 6.18825 28.0953 6.54299C27.546 6.87264 26.9318 7.0795 26.2951 7.14935C25.6583 7.21921 25.0139 7.15041 24.4062 6.94768L21.1195 5.85237C19.9624 5.46646 19.0059 4.63695 18.4601 3.54612L18.4507 3.52737C18.1452 2.91187 17.9818 2.23558 17.9726 1.54846C16.7322 1.86226 15.6161 2.54491 14.7718 3.50627C13.9131 4.48768 13.3782 5.71027 13.2403 7.00705C13.1025 8.30383 13.3683 9.61156 14.0015 10.7516L15.2859 13.0625L16.9687 15.4063H32.5937L33.2093 13.0625L34.607 8.40393C34.6101 8.39456 34.6109 8.3844 34.614 8.37502H33.9867Z" fill="#656B76"/>
<path d="M24 6.81252L21.1195 5.85237C19.9624 5.46646 19.0059 4.63695 18.4601 3.54612L18.4507 3.52737C18.1452 2.91187 17.9818 2.23558 17.9726 1.54846C16.7322 1.86226 15.6161 2.54491 14.7718 3.50627C13.9131 4.48768 13.3782 5.71027 13.2403 7.00705C13.1025 8.30383 13.3683 9.61156 14.0015 10.7516L15.2859 13.0625L16.9687 15.4063H24V6.81252Z" fill="#545A63"/>
<path d="M28.832 27.9063H19.168C16.5128 27.9065 13.9664 28.9613 12.0888 30.8388C10.2113 32.7164 9.15646 35.2628 9.15625 37.918V46.6562H38.8438V37.918C38.8439 36.6032 38.585 35.3013 38.0819 34.0865C37.5788 32.8718 36.8413 31.7681 35.9116 30.8384C34.9819 29.9087 33.8782 29.1712 32.6635 28.6681C31.4487 28.165 30.1468 27.9061 28.832 27.9063Z" fill="#A2BDCD"/>
<path d="M24 27.9062H19.168C16.5128 27.9065 13.9664 28.9613 12.0888 30.8388C10.2113 32.7164 9.15646 35.2628 9.15625 37.918V46.6562H24V27.9062Z" fill="#769FB6"/>
<path d="M34.9375 39.625V38.8438C34.9374 38.6163 34.8877 38.3917 34.7919 38.1854C34.696 37.9792 34.5564 37.7963 34.3827 37.6496C34.2089 37.5029 34.0053 37.3958 33.7859 37.3358C33.5665 37.2758 33.3367 37.2644 33.1125 37.3023C32.3445 37.4273 31.8125 38.1492 31.8125 38.9273V43.5312C26.2031 43.5312 21.6562 38.9844 21.6562 33.375V27.9062H19.168C16.5128 27.9065 13.9664 28.9613 12.0888 30.8388C10.2113 32.7164 9.15646 35.2628 9.15625 37.918V46.6562H38.8438V43.5312C37.8077 43.5312 36.8142 43.1197 36.0816 42.3871C35.3491 41.6546 34.9375 40.661 34.9375 39.625Z" fill="#769FB6"/>
<path d="M24 39.8625C22.4827 38.0414 21.6532 35.7453 21.6562 33.375V27.9062H19.168C16.5128 27.9065 13.9664 28.9613 12.0888 30.8388C10.2113 32.7164 9.15646 35.2628 9.15625 37.918V46.6562H24V39.8625Z" fill="#608EA9"/>
<path d="M28.8321 27.9062H27.9063V20.875H20.0938V27.9062H19.168C18.7141 27.9062 18.2649 27.9469 17.8196 28.0078C18.2493 31.0406 20.8485 33.375 24 33.375C27.1516 33.375 29.7508 31.0406 30.1805 28.0078C29.7339 27.9434 29.2833 27.9094 28.8321 27.9062Z" fill="#F6B98D"/>
<path d="M24 20.875H20.0938V27.9062H19.168C18.7141 27.9062 18.2649 27.9469 17.8196 28.0078C18.2493 31.0406 20.8485 33.375 24 33.375V20.875Z" fill="#F3A268"/>
<path d="M21.6563 27.9062C22.8699 27.9067 24.0668 27.6239 25.1519 27.0803C26.2369 26.5367 27.1801 25.7473 27.9063 24.775V20.875H20.0938V27.9062H19.168C18.7141 27.9062 18.2649 27.9469 17.8196 28.0078C17.9747 29.0897 18.4105 30.1121 19.0837 30.9732C19.7568 31.8343 20.6438 32.504 21.6563 32.9156V27.9062Z" fill="#F3A268"/>
<path d="M24 20.875H20.0938V27.9062H19.168C18.7141 27.9062 18.2649 27.9469 17.8196 28.0078C17.9747 29.0897 18.4105 30.1121 19.0837 30.9732C19.7568 31.8343 20.6438 32.504 21.6563 32.9156V27.9062C22.452 27.9031 23.2426 27.7774 24 27.5336V20.875Z" fill="#F29654"/>
<path d="M24 26.3439C19.6852 26.3439 16.1875 22.8462 16.1875 18.5314V12.9798C16.1879 12.2112 16.3766 11.4543 16.7371 10.7755C17.0975 10.0966 17.6188 9.51634 18.2553 9.08542C18.8917 8.6545 19.6241 8.38603 20.3883 8.30347C21.1525 8.22091 21.9252 8.32679 22.6391 8.61184L24.8289 9.48762C25.7422 9.85308 26.7427 9.94248 27.7064 9.74472C28.67 9.54697 29.5544 9.07076 30.25 8.37512L30.8758 9.3134C31.4867 10.2298 31.8126 11.3066 31.8125 12.4079V18.5314C31.8125 22.8462 28.3148 26.3439 24 26.3439Z" fill="#F9CDAE"/>
<path d="M24 9.15626L22.6391 8.61173C21.9253 8.32628 21.1524 8.2201 20.388 8.30248C19.6237 8.38487 18.8912 8.6533 18.2546 9.0843C17.618 9.51529 17.0967 10.0957 16.7364 10.7748C16.376 11.4539 16.1876 12.2109 16.1875 12.9797V18.5313C16.1875 22.8461 19.6852 26.3438 24 26.3438V9.15626ZM16.1875 17.3594H15.7969C14.8645 17.3594 13.9703 16.989 13.311 16.3297C12.6516 15.6704 12.2812 14.7762 12.2812 13.8438C12.2812 13.3258 12.487 12.829 12.8533 12.4627C13.2196 12.0964 13.7164 11.8906 14.2344 11.8906C14.7524 11.8906 15.2492 12.0964 15.6154 12.4627C15.9817 12.829 16.1875 13.3258 16.1875 13.8438V17.3594ZM31.8125 17.75H32.2031C33.1355 17.75 34.0297 17.3796 34.689 16.7203C35.3484 16.061 35.7188 15.1668 35.7188 14.2344C35.7188 13.7164 35.513 13.2196 35.1467 12.8533C34.7804 12.487 34.2836 12.2813 33.7656 12.2813C33.2476 12.2813 32.7508 12.487 32.3846 12.8533C32.0183 13.2196 31.8125 13.7164 31.8125 14.2344V17.75Z" fill="#F6B98D"/>
<path d="M30.8758 9.31329L30.25 8.37501C29.5544 9.07064 28.67 9.54686 27.7064 9.74461C26.7427 9.94237 25.7422 9.85297 24.8289 9.48751L22.6391 8.61173C21.9253 8.32628 21.1524 8.2201 20.388 8.30248C19.6237 8.38487 18.8912 8.6533 18.2546 9.0843C17.618 9.51529 17.0967 10.0957 16.7364 10.7748C16.376 11.4539 16.1876 12.2109 16.1875 12.9797V18.5313C16.1875 22.8461 19.6852 26.3438 24 26.3438C26.7578 26.3438 29.1773 24.9109 30.5672 22.7531C29.3095 23.5682 27.8425 24.0013 26.3438 24C22.0289 24 18.5312 20.5024 18.5312 16.1875V11.2586C19.148 10.8995 19.8384 10.6855 20.5502 10.633C21.2619 10.5805 21.9763 10.6908 22.6391 10.9555L24.8289 11.8313C25.7422 12.1967 26.7427 12.2861 27.7064 12.0884C28.67 11.8906 29.5544 11.4144 30.25 10.7188L30.8758 11.657C31.4867 12.5735 31.8126 13.6502 31.8125 14.7516V12.4078C31.8126 11.3065 31.4867 10.2297 30.8758 9.31329Z" fill="#F6B98D"/>
<path d="M24 23.6414C20.8305 22.6461 18.5312 19.6859 18.5312 16.1875V11.2586C19.148 10.8995 19.8384 10.6855 20.5502 10.633C21.2619 10.5805 21.9763 10.6908 22.6391 10.9555L24 11.5V9.15626L22.6391 8.61173C21.9253 8.32628 21.1524 8.2201 20.388 8.30248C19.6237 8.38487 18.8912 8.6533 18.2546 9.0843C17.618 9.51529 17.0967 10.0957 16.7364 10.7748C16.376 11.4539 16.1876 12.2109 16.1875 12.9797V18.5313C16.1875 22.8461 19.6852 26.3438 24 26.3438V23.6414ZM33.375 14.625V12.3203C32.9338 12.4104 32.5373 12.6501 32.2526 12.9989C31.9679 13.3477 31.8124 13.7841 31.8125 14.2344V17.75H32.2031C32.6649 17.7507 33.1222 17.66 33.5489 17.4833C33.9755 17.3066 34.363 17.0473 34.6891 16.7203C34.2959 16.529 33.9643 16.2313 33.732 15.8608C33.4997 15.4904 33.376 15.0622 33.375 14.625Z" fill="#F3A268"/>
<path d="M14.6251 14.2344V11.9297C15.0663 12.0197 15.4628 12.2594 15.7475 12.6082C16.0322 12.957 16.1877 13.3935 16.1876 13.8438V17.3594H15.797C15.3352 17.36 14.8778 17.2694 14.4512 17.0927C14.0246 16.916 13.6371 16.6567 13.311 16.3297C13.7042 16.1384 14.0358 15.8406 14.2681 15.4702C14.5004 15.0998 14.6241 14.6716 14.6251 14.2344Z" fill="#F3A268"/>
<path d="M35.9391 29.7954C33.9719 28.0735 31.4464 27.1246 28.8321 27.1251H28.6875V25.7251C31.036 24.1891 32.5938 21.5407 32.5938 18.5313V18.5118C33.6606 18.4133 34.6523 17.9203 35.3748 17.1292C36.0973 16.3381 36.4985 15.3058 36.5 14.2344C36.5 12.9688 35.6305 11.911 34.461 11.6008L35.3586 8.62819C35.6002 7.81673 35.6419 6.95887 35.4802 6.1278C35.3184 5.29674 34.958 4.51714 34.4297 3.85553C33.4454 2.62819 31.7102 2.25006 30.311 2.95631C30.0063 3.10631 29.6438 3.08365 29.3649 2.8985L28.3907 2.24615C28.0975 2.05131 27.794 1.87266 27.4813 1.711C27.2984 1.62817 27.0906 1.61887 26.9011 1.68501C26.7115 1.75116 26.5546 1.88769 26.4629 2.06632C26.3713 2.24495 26.3518 2.452 26.4086 2.64459C26.4654 2.83717 26.5941 3.00054 26.768 3.10084C27.0118 3.22584 27.2618 3.3735 27.5258 3.54772L28.4961 4.19694C28.8644 4.44039 29.2901 4.58301 29.7306 4.61057C30.1712 4.63812 30.6114 4.54964 31.0071 4.35397C31.3738 4.17073 31.7922 4.11824 32.1928 4.20519C32.5935 4.29214 32.9524 4.51331 33.2102 4.83209C33.5805 5.29644 33.8331 5.84343 33.9464 6.42646C34.0597 7.00949 34.0304 7.61127 33.861 8.18053L32.8024 11.6837C32.7158 11.7175 32.631 11.7558 32.5485 11.7985C32.4541 10.7559 32.1024 9.75299 31.525 8.87975L30.8993 7.94147C30.8353 7.8451 30.7507 7.76417 30.6516 7.70455C30.5525 7.64492 30.4414 7.60809 30.3263 7.59672C30.2112 7.58535 30.095 7.59974 29.9861 7.63882C29.8773 7.67791 29.7785 7.74073 29.6969 7.82272C29.11 8.41124 28.363 8.81414 27.5488 8.98126C26.7346 9.14837 25.8893 9.07231 25.118 8.76256L24.7813 8.6274V1.42194C24.7814 1.23354 24.7134 1.05147 24.5897 0.909313C24.4661 0.76716 24.2952 0.674522 24.1086 0.648498C23.6844 0.589715 23.2565 0.560997 22.8282 0.562561H19.5391C18.525 0.562738 17.5227 0.779687 16.5993 1.19887C15.676 1.61804 14.8529 2.22977 14.1852 2.99303C13.2224 4.09632 12.6227 5.46929 12.4675 6.92535C12.3124 8.3814 12.6093 9.84992 13.318 11.1313L13.3883 11.2571C12.2961 11.6157 11.5 12.6337 11.5 13.8438C11.5015 14.9152 11.9028 15.9474 12.6253 16.7386C13.3477 17.5297 14.3394 18.0227 15.4063 18.1212V18.5313C15.4063 18.9438 15.4453 19.3469 15.5024 19.7446C15.4188 19.7305 15.3368 19.7063 15.2539 19.6946C14.9833 19.6556 14.7122 19.6202 14.4407 19.5883C13.6125 19.4868 12.8313 19.3915 12.1313 19.1087C11.9543 19.0371 11.7572 19.0328 11.5772 19.0967C11.3973 19.1605 11.2469 19.2881 11.1546 19.4552C11.0623 19.6224 11.0344 19.8175 11.0761 20.0038C11.1179 20.1902 11.2265 20.3547 11.3813 20.4665C11.9993 20.9126 12.1375 21.9282 12.2274 22.9305C12.2594 23.2868 12.3055 23.7985 12.4391 24.3391C12.3432 24.2332 12.2201 24.1557 12.0832 24.1149C11.9463 24.074 11.8009 24.0715 11.6627 24.1076C11.5244 24.1437 11.3988 24.217 11.2993 24.3195C11.1998 24.422 11.1304 24.5499 11.0985 24.6891C10.9307 25.4457 10.9177 26.2284 11.0605 26.9901C11.2032 27.7518 11.4986 28.4767 11.9289 29.1212C12.0422 29.2876 12.1743 29.4438 12.3086 29.6001C12.2274 29.6672 12.1407 29.7282 12.061 29.7977C10.8068 30.9003 9.82609 32.2793 9.19613 33.8258C7.72894 33.3141 6.48207 32.5337 5.6016 31.5516C6.74083 31.6345 7.88297 31.436 8.92738 30.9735C9.06665 30.9113 9.18466 30.8097 9.26685 30.6812C9.34904 30.5527 9.39182 30.4029 9.38991 30.2504C9.388 30.0979 9.34148 29.9493 9.2561 29.8229C9.17071 29.6965 9.0502 29.5978 8.90941 29.5391C7.02348 28.7516 5.57816 27.893 4.49066 26.9141C4.41484 26.8431 4.32562 26.7879 4.22821 26.7518C4.1308 26.7156 4.02716 26.6993 3.92336 26.7037C3.81956 26.7081 3.71768 26.7332 3.62369 26.7775C3.5297 26.8217 3.44548 26.8843 3.37596 26.9615C3.30644 27.0387 3.25302 27.129 3.21882 27.2271C3.18463 27.3252 3.17034 27.4292 3.1768 27.5329C3.18327 27.6365 3.21034 27.7379 3.25646 27.831C3.30257 27.9241 3.36679 28.0071 3.44535 28.0751C4.21957 28.7719 5.14301 29.4094 6.23832 30.0008C5.53615 30.0207 4.837 29.9013 4.18129 29.6493C4.03637 29.5929 3.87792 29.581 3.72621 29.6152C3.57451 29.6494 3.43646 29.7281 3.32974 29.8412C3.22301 29.9543 3.15247 30.0966 3.12714 30.2501C3.1018 30.4035 3.12283 30.561 3.18754 30.7024C4.13285 32.7696 6.13363 34.4258 8.70629 35.3165C8.49004 36.1669 8.3788 37.0406 8.37504 37.918V46.6563C8.37504 46.8635 8.45735 47.0622 8.60386 47.2087C8.75037 47.3553 8.94909 47.4376 9.15629 47.4376C9.36349 47.4376 9.5622 47.3553 9.70871 47.2087C9.85523 47.0622 9.93754 46.8635 9.93754 46.6563V37.918C9.93754 35.2563 11.0868 32.7243 13.0899 30.9712C14.2662 29.9449 15.684 29.2344 17.2102 28.9063C17.9438 31.6977 20.35 33.7829 23.2188 34.1071V46.6563C23.2188 46.8635 23.3011 47.0622 23.4476 47.2087C23.5941 47.3553 23.7928 47.4376 24 47.4376C24.2072 47.4376 24.406 47.3553 24.5525 47.2087C24.699 47.0622 24.7813 46.8635 24.7813 46.6563V34.1071C26.1888 33.9426 27.5144 33.3588 28.5859 32.4314C29.6574 31.5039 30.4253 30.2757 30.7899 28.9063C32.3161 29.2349 33.7341 29.9453 34.911 30.9712C35.9008 31.8378 36.6941 32.9059 37.2376 34.104C37.7811 35.302 38.0624 36.6024 38.0625 37.918V46.6563C38.0625 46.8635 38.1448 47.0622 38.2914 47.2087C38.4379 47.3553 38.6366 47.4376 38.8438 47.4376C39.051 47.4376 39.2497 47.3553 39.3962 47.2087C39.5427 47.0622 39.625 46.8635 39.625 46.6563V37.918C39.625 34.8055 38.2813 31.8454 35.9391 29.7954ZM34.9375 14.2344C34.9367 14.8917 34.6995 15.5268 34.2692 16.0236C33.8389 16.5205 33.2442 16.846 32.5938 16.9407V14.2344C32.5938 13.5883 33.1196 13.0626 33.7657 13.0626C34.4118 13.0626 34.9375 13.5883 34.9375 14.2344ZM30.086 9.53678L30.2258 9.74615C30.7519 10.5341 31.0323 11.4605 31.0313 12.4079V18.5313C31.0313 22.1438 28.2914 25.1258 24.7813 25.5165V22.4454C25.495 22.3342 26.1761 22.0692 26.7774 21.6688C26.9498 21.5538 27.0694 21.375 27.11 21.1718C27.1506 20.9686 27.1088 20.7576 26.9938 20.5852C26.8788 20.4128 26.7 20.2932 26.4968 20.2526C26.2936 20.212 26.0826 20.2538 25.9102 20.3688C25.5659 20.5955 25.1835 20.758 24.7813 20.8485V19.3126C24.7814 19.21 24.7612 19.1083 24.7219 19.0136C24.6827 18.9188 24.625 18.8327 24.5524 18.7602L24.1696 18.3774L24.6993 17.3188C24.7532 17.21 24.7812 17.0902 24.7813 16.9688V10.293C25.6611 10.6031 26.6027 10.6963 27.5263 10.5646C28.4498 10.4329 29.3279 10.0804 30.086 9.53678ZM15.361 4.02272C15.8819 3.42686 16.5242 2.94928 17.2448 2.62199C17.9654 2.2947 18.7477 2.12527 19.5391 2.12506H22.8282C22.9618 2.12506 23.0914 2.12819 23.2188 2.13365V12.3954C23.2032 12.386 23.1938 12.3712 23.1774 12.3633C22.9938 12.2716 22.7816 12.2557 22.5864 12.3191C22.3912 12.3826 22.2289 12.5202 22.1344 12.7024L21.8266 12.4977C20.8511 11.8463 19.7043 11.4991 18.5313 11.5001C18.3241 11.5001 18.1254 11.5824 17.9789 11.7289C17.8323 11.8754 17.75 12.0741 17.75 12.2813C17.75 12.4885 17.8323 12.6872 17.9789 12.8337C18.1254 12.9803 18.3241 13.0626 18.5313 13.0626C19.3985 13.0626 20.2391 13.3172 20.9602 13.7977L22.0039 14.4938C22.0961 14.5554 22.2004 14.5966 22.3098 14.6148C22.4191 14.6329 22.5311 14.6276 22.6383 14.5992C22.7454 14.5707 22.8453 14.5198 22.9312 14.4498C23.0172 14.3797 23.0872 14.2922 23.1368 14.193L23.2188 14.0282V16.7844L22.5196 18.1821C22.4464 18.3288 22.4212 18.4948 22.4475 18.6566C22.4739 18.8184 22.5505 18.9678 22.6664 19.0837L23.2188 19.636V21.011C22.505 21.1222 21.824 21.3872 21.2227 21.7876C21.0503 21.9026 20.9307 22.0813 20.8901 22.2845C20.8495 22.4878 20.8913 22.6988 21.0063 22.8712C21.1213 23.0435 21.3001 23.1632 21.5033 23.2038C21.7065 23.2444 21.9175 23.2026 22.0899 23.0876C22.4342 22.8609 22.8166 22.6983 23.2188 22.6079V25.5165C19.7086 25.1258 16.9688 22.1438 16.9688 18.5313V12.9797C16.9673 12.4311 17.0815 11.8883 17.3039 11.3868C17.5262 10.8852 17.8518 10.4361 18.2594 10.0688C18.6669 9.70153 19.1473 9.42424 19.6692 9.25503C20.1911 9.08582 20.7428 9.02849 21.2883 9.08678C21.3904 9.0978 21.4937 9.08847 21.5922 9.05934C21.6907 9.03021 21.7825 8.98184 21.8621 8.91705C21.9418 8.85225 22.0079 8.7723 22.0565 8.68182C22.1051 8.59134 22.1353 8.49212 22.1454 8.3899C22.1665 8.18385 22.105 7.97782 21.9744 7.81711C21.8437 7.65639 21.6545 7.55416 21.4485 7.53287C20.1642 7.39619 18.8731 7.71976 17.8051 8.44598C16.7371 9.1722 15.9615 10.2539 15.6164 11.4985C15.4835 11.4186 15.344 11.3504 15.1993 11.2946L14.6836 10.3712C14.1311 9.37146 13.8996 8.22588 14.0208 7.09008C14.142 5.95428 14.6099 4.88332 15.361 4.02272ZM13.0625 13.8438C13.0625 13.1977 13.5883 12.6719 14.2344 12.6719C14.8805 12.6719 15.4063 13.1977 15.4063 13.8438V16.5501C14.7559 16.4554 14.1612 16.1299 13.7309 15.633C13.3006 15.1362 13.0634 14.5011 13.0625 13.8438ZM18.7766 28.7055C18.9071 28.7001 19.0368 28.6876 19.168 28.6876C19.3752 28.6876 19.5739 28.6052 19.7204 28.4587C19.8669 28.3122 19.9493 28.1135 19.9493 27.9063C19.9493 27.6991 19.8669 27.5004 19.7204 27.3539C19.5739 27.2074 19.3752 27.1251 19.168 27.1251C17.1844 27.1251 15.2547 27.6727 13.5797 28.6876C13.4492 28.5482 13.3296 28.3991 13.2219 28.2415C12.8527 27.6907 12.6217 27.0591 12.5485 26.4001C13.1345 26.6587 13.7861 26.7299 14.4141 26.604C14.566 26.572 14.7049 26.4954 14.8131 26.3842C14.9213 26.2729 14.994 26.1319 15.0217 25.9791C15.0495 25.8264 15.0311 25.6689 14.9689 25.5266C14.9068 25.3844 14.8036 25.2639 14.6727 25.1805C14.043 24.779 13.8735 23.7946 13.7836 22.7899C13.7407 22.3087 13.6844 21.6719 13.5 21.0407C13.7516 21.0766 14.0024 21.1079 14.25 21.1383C14.5094 21.1704 14.768 21.2016 15.025 21.2399C15.3235 21.2837 15.6204 21.354 15.9164 21.4204C17.0227 24.5047 19.8368 26.779 23.2188 27.086V32.5321C22.1927 32.3786 21.2309 31.9378 20.4448 31.2606C19.6587 30.5835 19.0804 29.6976 18.7766 28.7055ZM24.7813 32.5313V27.0852C25.585 27.0114 26.3741 26.8238 27.125 26.5282V27.9063C27.125 28.1135 27.2073 28.3122 27.3539 28.4587C27.5004 28.6052 27.6991 28.6876 27.9063 28.6876H28.8321C28.9633 28.6876 29.093 28.7001 29.2235 28.7055C28.9198 29.6976 28.3415 30.5834 27.5554 31.2605C26.7692 31.9375 25.8074 32.3781 24.7813 32.5313Z" fill="#464A51"/>
<path d="M20.0938 15.4062C20.5252 15.4062 20.875 15.0565 20.875 14.625C20.875 14.1935 20.5252 13.8438 20.0938 13.8438C19.6623 13.8438 19.3125 14.1935 19.3125 14.625C19.3125 15.0565 19.6623 15.4062 20.0938 15.4062Z" fill="#464A51"/>
<path d="M27.9062 15.4062C28.3377 15.4062 28.6875 15.0565 28.6875 14.625C28.6875 14.1935 28.3377 13.8438 27.9062 13.8438C27.4748 13.8438 27.125 14.1935 27.125 14.625C27.125 15.0565 27.4748 15.4062 27.9062 15.4062Z" fill="#464A51"/>
<path d="M25.5625 13.8438C25.6465 13.8436 25.7298 13.8299 25.8094 13.8031L26.4961 13.5742C26.9239 13.4302 27.376 13.3725 27.8262 13.4045C28.2764 13.4366 28.7157 13.5577 29.1188 13.761C29.2105 13.8069 29.3105 13.8342 29.4128 13.8415C29.5152 13.8488 29.618 13.8359 29.7153 13.8035C29.8127 13.7711 29.9027 13.7198 29.9802 13.6525C30.0578 13.5853 30.1213 13.5035 30.1672 13.4117C30.2131 13.32 30.2405 13.22 30.2478 13.1177C30.2551 13.0153 30.2422 12.9125 30.2097 12.8152C30.1773 12.7178 30.126 12.6278 30.0588 12.5503C29.9916 12.4727 29.9098 12.4092 29.818 12.3633C29.2314 12.0678 28.5921 11.8917 27.937 11.8452C27.2818 11.7986 26.624 11.8826 26.0016 12.0922L25.3149 12.3211C25.1386 12.3797 24.989 12.499 24.8929 12.6579C24.7967 12.8167 24.7602 13.0047 24.79 13.1879C24.8199 13.3712 24.914 13.5379 25.0555 13.6581C25.1971 13.7783 25.3768 13.8441 25.5625 13.8438ZM17.9789 16.7399L18.3063 17.0672C18.7814 17.5436 19.3946 17.8581 20.0587 17.966C20.7228 18.0738 21.404 17.9695 22.0055 17.668C22.1908 17.5753 22.3317 17.4127 22.3972 17.2161C22.4627 17.0195 22.4474 16.8049 22.3547 16.6195C22.262 16.4342 22.0994 16.2933 21.9028 16.2278C21.7062 16.1623 21.4916 16.1776 21.3063 16.2703C20.9979 16.4246 20.6488 16.4778 20.3085 16.4226C19.9682 16.3673 19.6539 16.2064 19.4102 15.9625L19.0828 15.6352C19.0103 15.5627 18.9242 15.5052 18.8294 15.466C18.7347 15.4268 18.6331 15.4066 18.5306 15.4067C18.4281 15.4067 18.3265 15.4269 18.2318 15.4662C18.1371 15.5055 18.051 15.563 17.9785 15.6356C17.906 15.7081 17.8486 15.7942 17.8094 15.8889C17.7701 15.9837 17.75 16.0852 17.75 16.1878C17.7501 16.2903 17.7703 16.3919 17.8096 16.4866C17.8488 16.5813 17.9064 16.6674 17.9789 16.7399ZM28.6875 16.1875H27.125C26.9178 16.1875 26.7191 16.2698 26.5726 16.4163C26.4261 16.5628 26.3438 16.7616 26.3438 16.9688C26.3438 17.176 26.4261 17.3747 26.5726 17.5212C26.7191 17.6677 26.9178 17.75 27.125 17.75H28.6875C28.8947 17.75 29.0934 17.6677 29.2399 17.5212C29.3865 17.3747 29.4688 17.176 29.4688 16.9688C29.4688 16.7616 29.3865 16.5628 29.2399 16.4163C29.0934 16.2698 28.8947 16.1875 28.6875 16.1875ZM14.625 38.0625C14.4178 38.0625 14.2191 38.1448 14.0726 38.2913C13.9261 38.4378 13.8438 38.6366 13.8438 38.8438V46.6563C13.8438 46.8635 13.9261 47.0622 14.0726 47.2087C14.2191 47.3552 14.4178 47.4375 14.625 47.4375C14.8322 47.4375 15.0309 47.3552 15.1774 47.2087C15.324 47.0622 15.4063 46.8635 15.4063 46.6563V38.8438C15.4063 38.6366 15.324 38.4378 15.1774 38.2913C15.0309 38.1448 14.8322 38.0625 14.625 38.0625ZM33.375 38.0625C33.1678 38.0625 32.9691 38.1448 32.8226 38.2913C32.6761 38.4378 32.5938 38.6366 32.5938 38.8438V46.6563C32.5938 46.8635 32.6761 47.0622 32.8226 47.2087C32.9691 47.3552 33.1678 47.4375 33.375 47.4375C33.5822 47.4375 33.7809 47.3552 33.9274 47.2087C34.074 47.0622 34.1563 46.8635 34.1563 46.6563V38.8438C34.1563 38.6366 34.074 38.4378 33.9274 38.2913C33.7809 38.1448 33.5822 38.0625 33.375 38.0625ZM6.6383 24.0945C6.80765 24.1172 6.97976 24.0837 7.12825 23.9992C7.27674 23.9146 7.39344 23.7838 7.46045 23.6266C7.52747 23.4694 7.54111 23.2946 7.49929 23.129C7.45748 22.9633 7.3625 22.8159 7.22892 22.7094C6.35236 22.011 6.14533 20.7156 6.10002 20.0055C6.06564 19.4695 6.08127 18.9305 6.09845 18.3586C6.11798 17.6977 6.13752 17.0141 6.0758 16.3211C6.04313 15.9445 5.9799 15.5711 5.88673 15.2047L7.74298 16.1672L7.94611 16.2719C8.0807 16.3417 8.2327 16.3709 8.38357 16.3558C8.53444 16.3407 8.67767 16.282 8.79577 16.1869C8.91388 16.0919 9.00177 15.9645 9.04871 15.8203C9.09566 15.6761 9.09964 15.5214 9.06017 15.375C8.48695 13.2416 8.26867 11.0285 8.41408 8.82423C8.93507 9.45074 9.56927 9.97363 10.2836 10.3656C10.4647 10.457 10.6743 10.4743 10.8679 10.4139C11.0616 10.3535 11.2242 10.2202 11.3213 10.0421C11.4184 9.864 11.4425 9.65511 11.3883 9.45961C11.3342 9.26411 11.2062 9.09733 11.0313 8.99454C9.75626 8.29923 8.61642 6.89533 8.90548 5.55704C8.94232 5.35836 8.90082 5.15314 8.78969 4.98438C8.67856 4.81562 8.50642 4.69642 8.30935 4.65178C8.11228 4.60713 7.90557 4.6405 7.73256 4.74488C7.55955 4.84927 7.43365 5.01658 7.38126 5.21173C6.69475 8.13203 6.62372 11.1633 7.17267 14.1125C6.14645 13.581 5.12119 13.0477 4.09689 12.5125C3.92087 12.421 3.71663 12.3999 3.52561 12.4535C3.33459 12.507 3.17111 12.6312 3.06832 12.8009C2.96554 12.9706 2.93116 13.173 2.97215 13.3671C3.01315 13.5612 3.12646 13.7325 3.28908 13.8461C3.96408 14.3149 4.41252 15.268 4.51955 16.4617C4.57345 17.0625 4.55548 17.6703 4.53673 18.3141C4.51955 18.8961 4.50236 19.4977 4.54064 20.1063C4.57189 20.5945 4.65158 21.157 4.82345 21.7211C3.83595 21.0078 3.10158 19.9242 2.89455 18.7336C2.86773 18.5804 2.7959 18.4386 2.68821 18.3263C2.58052 18.214 2.44185 18.1363 2.28986 18.1031C2.13778 18.0708 1.97952 18.0844 1.83515 18.1421C1.69078 18.1998 1.5668 18.2991 1.47892 18.4274C0.180484 20.3336 0.12814 23.0024 1.3422 25.393C1.4366 25.5768 1.59995 25.7157 1.79652 25.7793C1.99309 25.843 2.20687 25.8261 2.39106 25.7325C2.57526 25.639 2.71488 25.4762 2.77937 25.2799C2.84386 25.0836 2.82797 24.8698 2.73517 24.6852C2.1258 23.486 1.91642 22.1797 2.10548 21.0235C3.06408 22.6492 4.75002 23.8406 6.6383 24.0945ZM36.5 11.5C36.6797 11.5 36.861 11.4383 37.0078 11.3117L42.4766 6.62423C42.5557 6.55783 42.6209 6.47639 42.6684 6.38463C42.7158 6.29286 42.7446 6.1926 42.7531 6.08963C42.7615 5.98667 42.7495 5.88305 42.7176 5.78478C42.6857 5.68651 42.6347 5.59553 42.5674 5.51711C42.5002 5.4387 42.418 5.3744 42.3258 5.32794C42.2335 5.28148 42.1329 5.25379 42.0299 5.24646C41.9268 5.23913 41.8233 5.25231 41.7254 5.28524C41.6275 5.31817 41.5371 5.37019 41.4594 5.43829L35.9906 10.1258C35.8695 10.2297 35.783 10.3683 35.743 10.5229C35.703 10.6775 35.7113 10.8406 35.7668 10.9903C35.8223 11.14 35.9223 11.2691 36.0534 11.3602C36.1845 11.4514 36.3404 11.5002 36.5 11.5ZM42.3305 13.9656L33.7367 19.4344C33.6501 19.4895 33.5753 19.5611 33.5163 19.6451C33.4574 19.7292 33.4156 19.824 33.3934 19.9242C33.3711 20.0244 33.3688 20.1279 33.3865 20.229C33.4043 20.3301 33.4418 20.4267 33.4969 20.5133C33.552 20.5999 33.6236 20.6748 33.7076 20.7337C33.7917 20.7926 33.8865 20.8344 33.9867 20.8567C34.0869 20.8789 34.1904 20.8813 34.2915 20.8635C34.3926 20.8457 34.4892 20.8082 34.5758 20.7531L43.1695 15.2844C43.3444 15.1731 43.4679 14.9969 43.5129 14.7946C43.5579 14.5923 43.5207 14.3804 43.4094 14.2055C43.2981 14.0306 43.1219 13.9071 42.9196 13.8621C42.7173 13.8171 42.5054 13.8544 42.3305 13.9656ZM41.7016 20.1406L33.1078 23.2656C33.0096 23.2993 32.919 23.3522 32.8414 23.4212C32.7638 23.4903 32.7008 23.5741 32.656 23.6678C32.6111 23.7615 32.5855 23.8632 32.5805 23.967C32.5754 24.0707 32.5911 24.1744 32.6267 24.272C32.6622 24.3696 32.7168 24.4592 32.7874 24.5354C32.8579 24.6117 32.943 24.6731 33.0375 24.716C33.1321 24.759 33.2343 24.7827 33.3381 24.7857C33.4419 24.7887 33.5453 24.771 33.6422 24.7336L42.236 21.6086C42.3342 21.575 42.4248 21.5221 42.5024 21.453C42.58 21.384 42.643 21.3001 42.6878 21.2064C42.7326 21.1127 42.7583 21.011 42.7633 20.9073C42.7684 20.8035 42.7527 20.6998 42.7171 20.6022C42.6816 20.5046 42.627 20.4151 42.5564 20.3388C42.4859 20.2626 42.4008 20.2012 42.3063 20.1582C42.2117 20.1152 42.1095 20.0915 42.0057 20.0885C41.9019 20.0855 41.7985 20.1032 41.7016 20.1406ZM43.307 24.0328L35.4945 26.3766C35.3963 26.4061 35.3047 26.4546 35.2252 26.5195C35.1457 26.5844 35.0798 26.6643 35.0311 26.7546C34.9825 26.845 34.9521 26.944 34.9417 27.0461C34.9314 27.1482 34.9412 27.2513 34.9707 27.3496C35.0002 27.4479 35.0488 27.5394 35.1136 27.6189C35.1785 27.6985 35.2584 27.7644 35.3488 27.8131C35.4391 27.8617 35.5382 27.8921 35.6403 27.9024C35.7423 27.9128 35.8455 27.9029 35.9438 27.8735L43.7563 25.5297C43.9548 25.4701 44.1215 25.3341 44.2197 25.1517C44.3179 24.9692 44.3397 24.7552 44.2801 24.5567C44.2205 24.3582 44.0845 24.1915 43.9021 24.0932C43.7196 23.995 43.5055 23.9733 43.307 24.0328ZM43.4024 28.6985L38.7149 29.4797C38.6117 29.4944 38.5126 29.5296 38.4232 29.5832C38.3339 29.6368 38.2562 29.7077 38.1947 29.7918C38.1332 29.8759 38.0891 29.9714 38.0651 30.0728C38.041 30.1742 38.0375 30.2793 38.0547 30.3821C38.0719 30.4848 38.1095 30.5831 38.1652 30.6711C38.2209 30.7591 38.2937 30.8351 38.3792 30.8946C38.4648 30.954 38.5613 30.9958 38.6632 31.0174C38.7652 31.039 38.8704 31.04 38.9727 31.0203L43.6602 30.2391C43.7633 30.2244 43.8625 30.1892 43.9518 30.1356C44.0411 30.082 44.1188 30.011 44.1803 29.927C44.2418 29.8429 44.2859 29.7473 44.31 29.646C44.334 29.5446 44.3375 29.4395 44.3203 29.3367C44.3031 29.234 44.2656 29.1357 44.2098 29.0477C44.1541 28.9597 44.0813 28.8837 43.9958 28.8242C43.9103 28.7647 43.8137 28.723 43.7118 28.7014C43.6099 28.6798 43.5047 28.6788 43.4024 28.6985Z" fill="#464A51"/>
<path d="M45.0938 13.8438C45.5252 13.8438 45.875 13.494 45.875 13.0625C45.875 12.631 45.5252 12.2812 45.0938 12.2812C44.6623 12.2812 44.3125 12.631 44.3125 13.0625C44.3125 13.494 44.6623 13.8438 45.0938 13.8438Z" fill="#464A51"/>
<path d="M44.3125 20.875C44.744 20.875 45.0938 20.5252 45.0938 20.0938C45.0938 19.6623 44.744 19.3125 44.3125 19.3125C43.881 19.3125 43.5312 19.6623 43.5312 20.0938C43.5312 20.5252 43.881 20.875 44.3125 20.875Z" fill="#464A51"/>
<path d="M45.875 24.7812C46.3065 24.7812 46.6562 24.4315 46.6562 24C46.6562 23.5685 46.3065 23.2188 45.875 23.2188C45.4435 23.2188 45.0938 23.5685 45.0938 24C45.0938 24.4315 45.4435 24.7812 45.875 24.7812Z" fill="#464A51"/>
<path d="M45.875 29.4688C46.3065 29.4688 46.6562 29.119 46.6562 28.6875C46.6562 28.256 46.3065 27.9062 45.875 27.9062C45.4435 27.9062 45.0938 28.256 45.0938 28.6875C45.0938 29.119 45.4435 29.4688 45.875 29.4688Z" fill="#464A51"/>
<path d="M44.3125 5.25C44.744 5.25 45.0938 4.90022 45.0938 4.46875C45.0938 4.03728 44.744 3.6875 44.3125 3.6875C43.881 3.6875 43.5312 4.03728 43.5312 4.46875C43.5312 4.90022 43.881 5.25 44.3125 5.25Z" fill="#464A51"/>
<path d="M37.2812 6.03125C37.3838 6.03136 37.4854 6.01119 37.5802 5.97191C37.675 5.93263 37.7611 5.875 37.8336 5.80235L40.1773 3.4586C40.2498 3.38606 40.3074 3.29995 40.3466 3.20518C40.3859 3.11041 40.4061 3.00883 40.4061 2.90625C40.4061 2.80367 40.3859 2.7021 40.3466 2.60733C40.3074 2.51256 40.2498 2.42644 40.1773 2.35391C40.1048 2.28138 40.0187 2.22384 39.9239 2.18458C39.8291 2.14533 39.7275 2.12512 39.625 2.12512C39.5224 2.12512 39.4208 2.14533 39.326 2.18458C39.2313 2.22384 39.1452 2.28138 39.0726 2.35391L36.7289 4.69766C36.6193 4.80677 36.5445 4.94599 36.5142 5.09764C36.4838 5.2493 36.4992 5.40655 36.5584 5.54944C36.6176 5.69233 36.7179 5.81441 36.8466 5.9002C36.9753 5.98598 37.1266 6.0316 37.2812 6.03125ZM39.3125 13.6875L42.4375 11.3438C42.6032 11.2194 42.7128 11.0344 42.7421 10.8292C42.7714 10.6241 42.718 10.4158 42.5937 10.25C42.4694 10.0842 42.2843 9.97466 42.0792 9.94536C41.8741 9.91605 41.6657 9.96943 41.5 10.0938L38.375 12.4375C38.2092 12.5618 38.0996 12.7469 38.0703 12.952C38.041 13.1571 38.0944 13.3655 38.2187 13.5313C38.343 13.697 38.5281 13.8066 38.7332 13.8359C38.9383 13.8652 39.1467 13.8118 39.3125 13.6875Z" fill="#464A51"/>
</svg>
