<svg width="18" height="10" viewBox="0 0 18 10" fill="none" xmlns="http://www.w3.org/2000/svg">
<path d="M8.99999 9.99999C8.83548 10.0009 8.6724 9.96941 8.52011 9.9072C8.36781 9.845 8.22929 9.75334 8.11249 9.63749L0.612488 2.13749C0.377108 1.90211 0.244873 1.58286 0.244873 1.24999C0.244873 0.917111 0.377108 0.597867 0.612488 0.362488C0.847867 0.127108 1.16711 -0.00512695 1.49999 -0.00512695C1.83286 -0.00512695 2.15211 0.127108 2.38749 0.362488L8.99999 6.98749L15.6125 0.374988C15.8516 0.170205 16.1592 0.0631968 16.4738 0.0753483C16.7884 0.0874997 17.0868 0.217916 17.3094 0.440534C17.5321 0.663152 17.6625 0.961576 17.6746 1.27617C17.6868 1.59077 17.5798 1.89836 17.375 2.13749L9.87499 9.63749C9.64216 9.86842 9.32791 9.99861 8.99999 9.99999Z" fill="black"/>
<path d="M8.99999 9.99999C8.83548 10.0009 8.6724 9.96941 8.52011 9.9072C8.36781 9.845 8.22929 9.75334 8.11249 9.63749L0.612488 2.13749C0.377108 1.90211 0.244873 1.58286 0.244873 1.24999C0.244873 0.917111 0.377108 0.597867 0.612488 0.362488C0.847867 0.127108 1.16711 -0.00512695 1.49999 -0.00512695C1.83286 -0.00512695 2.15211 0.127108 2.38749 0.362488L8.99999 6.98749L15.6125 0.374988C15.8516 0.170205 16.1592 0.0631968 16.4738 0.0753483C16.7884 0.0874997 17.0868 0.217916 17.3094 0.440534C17.5321 0.663152 17.6625 0.961576 17.6746 1.27617C17.6868 1.59077 17.5798 1.89836 17.375 2.13749L9.87499 9.63749C9.64216 9.86842 9.32791 9.99861 8.99999 9.99999Z" fill="url(#paint0_linear_124_191)"/>
<defs>
<linearGradient id="paint0_linear_124_191" x1="0.244873" y1="10" x2="17.6214" y2="-0.0982471" gradientUnits="userSpaceOnUse">
<stop stop-color="#40D3B6"/>
<stop offset="1" stop-color="#1E8FD3"/>
</linearGradient>
</defs>
</svg>
