<svg width="20" height="20" viewBox="0 0 20 20" fill="none" xmlns="http://www.w3.org/2000/svg">
<g clip-path="url(#clip0_286_1650)">
<path d="M9.99967 0C4.47707 0 0 4.4774 0 9.9998C0 15.5222 4.47707 20 9.99967 20C15.5223 20 19.9999 15.5225 19.9999 9.9998C19.9999 4.47713 15.5223 0 9.99967 0ZM14.7534 7.19633L13.8036 8.14613L11.8702 6.21287L11.1367 6.94633L13.0701 8.87973L8.328 13.6215L6.39473 11.6884L5.66127 12.4219L7.59453 14.3551L7.122 14.8277L7.113 14.8187C7.08686 14.8619 7.05222 14.8994 7.01118 14.9289C6.97013 14.9585 6.92354 14.9793 6.8742 14.9903L5.07133 15.3923C5.00977 15.4061 4.94572 15.4041 4.88514 15.3865C4.82456 15.3689 4.76943 15.3362 4.72487 15.2915C4.68016 15.2469 4.64747 15.1917 4.62984 15.1311C4.61222 15.0704 4.61023 15.0063 4.62407 14.9447L5.02587 13.1423C5.03696 13.093 5.0579 13.0464 5.08743 13.0054C5.11696 12.9644 5.15448 12.9297 5.19773 12.9035L5.1886 12.8944L12.8199 5.26273C12.8738 5.20906 12.9467 5.17896 13.0227 5.17902C13.0988 5.17908 13.1716 5.20931 13.2254 5.26307L14.7535 6.79087C14.8073 6.84466 14.8374 6.9176 14.8374 6.99363C14.8374 7.06966 14.8072 7.14257 14.7534 7.19633Z" fill="#323131"/>
</g>
<defs>
<clipPath id="clip0_286_1650">
<rect width="20" height="20" fill="white"/>
</clipPath>
</defs>
</svg>
