<svg width="40" height="40" viewBox="0 0 40 40" fill="none" xmlns="http://www.w3.org/2000/svg">
<path d="M25.9184 21.6602L22.5683 25.0217C21.2098 26.3849 18.8195 26.4143 17.4316 25.0217L14.0813 21.6602L2.04883 33.7318C2.49672 33.9389 2.99055 34.0625 3.51555 34.0625H36.4843C37.0093 34.0625 37.503 33.9391 37.9507 33.7319L25.9184 21.6602Z" fill="black"/>
<path d="M25.9184 21.6602L22.5683 25.0217C21.2098 26.3849 18.8195 26.4143 17.4316 25.0217L14.0813 21.6602L2.04883 33.7318C2.49672 33.9389 2.99055 34.0625 3.51555 34.0625H36.4843C37.0093 34.0625 37.503 33.9391 37.9507 33.7319L25.9184 21.6602Z" fill="url(#paint0_linear_255_1697)"/>
<path d="M36.4844 5.9375H3.51562C2.99062 5.9375 2.4968 6.06109 2.04906 6.2682L14.9066 19.1684C14.9075 19.1693 14.9085 19.1695 14.9094 19.1703C14.9099 19.1709 14.9103 19.1716 14.9104 19.1723L19.0911 23.3669C19.5352 23.8109 20.465 23.8109 20.9091 23.3669L25.0889 19.173C25.0889 19.173 25.0899 19.1712 25.0908 19.1703C25.0908 19.1703 25.0927 19.1693 25.0935 19.1684L37.9508 6.26813C37.503 6.06094 37.0094 5.9375 36.4844 5.9375ZM0.373906 7.90719C0.142187 8.37578 0 8.89594 0 9.45312V30.5469C0 31.1041 0.142031 31.6242 0.373828 32.0928L12.4272 20.0004L0.373906 7.90719ZM39.6261 7.90703L27.5729 20.0004L39.6261 32.093C39.8578 31.6244 40 31.1042 40 30.5469V9.45312C40 8.89578 39.8578 8.37562 39.6261 7.90703Z" fill="black"/>
<path d="M36.4844 5.9375H3.51562C2.99062 5.9375 2.4968 6.06109 2.04906 6.2682L14.9066 19.1684C14.9075 19.1693 14.9085 19.1695 14.9094 19.1703C14.9099 19.1709 14.9103 19.1716 14.9104 19.1723L19.0911 23.3669C19.5352 23.8109 20.465 23.8109 20.9091 23.3669L25.0889 19.173C25.0889 19.173 25.0899 19.1712 25.0908 19.1703C25.0908 19.1703 25.0927 19.1693 25.0935 19.1684L37.9508 6.26813C37.503 6.06094 37.0094 5.9375 36.4844 5.9375ZM0.373906 7.90719C0.142187 8.37578 0 8.89594 0 9.45312V30.5469C0 31.1041 0.142031 31.6242 0.373828 32.0928L12.4272 20.0004L0.373906 7.90719ZM39.6261 7.90703L27.5729 20.0004L39.6261 32.093C39.8578 31.6244 40 31.1042 40 30.5469V9.45312C40 8.89578 39.8578 8.37562 39.6261 7.90703Z" fill="url(#paint1_linear_255_1697)"/>
<defs>
<linearGradient id="paint0_linear_255_1697" x1="2.04883" y1="34.0625" x2="26.8248" y2="10.1383" gradientUnits="userSpaceOnUse">
<stop stop-color="#40D3B6"/>
<stop offset="1" stop-color="#1E8FD3"/>
</linearGradient>
<linearGradient id="paint1_linear_255_1697" x1="0" y1="32.093" x2="42.3275" y2="10.5001" gradientUnits="userSpaceOnUse">
<stop stop-color="#40D3B6"/>
<stop offset="1" stop-color="#1E8FD3"/>
</linearGradient>
</defs>
</svg>
