<svg width="36" height="36" viewBox="0 0 36 36" fill="none" xmlns="http://www.w3.org/2000/svg">
<path d="M26.6889 2.35549C23.1576 2.35549 20.0863 4.36038 18.5107 7.31385C18.2962 7.71597 17.7266 7.71597 17.512 7.31385C15.9364 4.36038 12.865 2.35549 9.33377 2.35549C4.19583 2.35549 0 6.59927 0 11.8342C0 13.9973 0.529945 16.0647 1.4078 18.0057H11.6741L13.2675 13.3094C13.3382 13.1009 13.4725 12.9197 13.6514 12.7914C13.8303 12.663 14.0449 12.594 14.2651 12.5939H14.2731C14.4946 12.5956 14.71 12.6671 14.8886 12.7983C15.0672 12.9294 15.1999 13.1135 15.2678 13.3244L16.7297 17.8546H18.5243C18.9863 17.8546 19.3944 18.1558 19.5308 18.5975L20.2418 20.897L22.3172 13.75C22.3811 13.5285 22.5161 13.3341 22.7013 13.1968C22.8866 13.0594 23.1118 12.9867 23.3423 12.9898C23.5728 12.9929 23.796 13.0714 23.9776 13.2133C24.1592 13.3553 24.2893 13.5529 24.3479 13.7759L25.587 18.4858H34.6359C35.4874 16.6233 36 14.6362 36 12.5502C36 6.8552 32.3787 2.34557 26.6889 2.35549Z" fill="#1E8FD3"/>
<path d="M23.7563 19.809L23.2793 17.9955L21.2856 24.861C21.2225 25.0787 21.0908 25.2703 20.9102 25.4072C20.7296 25.5442 20.5096 25.6192 20.2829 25.6213H20.2738C20.0487 25.6212 19.8295 25.549 19.6484 25.4154C19.4673 25.2817 19.3337 25.0935 19.2673 24.8784L17.7479 19.9639H15.9633C15.7404 19.9638 15.5233 19.8931 15.3431 19.7618C15.163 19.6306 15.0291 19.4455 14.9607 19.2334L14.2406 17.002L13.4271 19.3995C13.3564 19.6081 13.2222 19.7893 13.0432 19.9176C12.8643 20.0459 12.6496 20.115 12.4294 20.115H2.52148C6.77518 27.1682 15.1382 32.202 17.4229 33.4866C17.6033 33.588 17.8064 33.6423 18.0133 33.6443C18.2202 33.6464 18.4243 33.5962 18.6067 33.4983C20.9022 32.2669 29.2655 27.4531 33.5031 20.5951H24.7752C24.5424 20.5951 24.3162 20.5179 24.1319 20.3757C23.9475 20.2335 23.8155 20.0342 23.7563 19.809Z" fill="#1E8FD3"/>
</svg>
