<svg width="16" height="16" viewBox="0 0 16 16" fill="none" xmlns="http://www.w3.org/2000/svg">
<path d="M4.46819 3.78438C4.42205 3.62958 4.32717 3.49382 4.19767 3.39729C4.06817 3.30076 3.91096 3.24862 3.74944 3.24862C3.58792 3.24862 3.43071 3.30076 3.30121 3.39729C3.17171 3.49382 3.07683 3.62958 3.03069 3.78438L0.780688 11.2844C0.747046 11.3965 0.740095 11.5148 0.760392 11.6301C0.780689 11.7453 0.82767 11.8542 0.897578 11.9481C0.967487 12.0419 1.05838 12.1181 1.163 12.1705C1.26761 12.2229 1.38305 12.2502 1.50006 12.25H6.00006C6.11697 12.25 6.23226 12.2226 6.33672 12.1701C6.44117 12.1176 6.5319 12.0414 6.60167 11.9476C6.67144 11.8538 6.71831 11.7449 6.73854 11.6298C6.75877 11.5146 6.7518 11.3964 6.71819 11.2844L4.46819 3.78438ZM2.50819 10.75L3.75006 6.61L4.99194 10.75H2.50819ZM13.2501 4.625C13.2501 3.95749 13.0521 3.30497 12.6813 2.74995C12.3104 2.19494 11.7833 1.76235 11.1666 1.50691C10.5499 1.25146 9.87132 1.18463 9.21663 1.31485C8.56195 1.44508 7.96058 1.76651 7.48858 2.23852C7.01658 2.71052 6.69514 3.31189 6.56491 3.96657C6.43469 4.62126 6.50152 5.29986 6.75697 5.91656C7.01242 6.53326 7.445 7.06036 8.00001 7.43121C8.55503 7.80206 9.20755 8 9.87506 8C10.7699 7.99901 11.6277 7.64311 12.2605 7.01039C12.8932 6.37767 13.2491 5.5198 13.2501 4.625ZM8.00006 4.625C8.00006 4.25416 8.11003 3.89165 8.31606 3.58331C8.52209 3.27497 8.81492 3.03464 9.15753 2.89273C9.50014 2.75081 9.87714 2.71368 10.2409 2.78603C10.6046 2.85838 10.9387 3.03695 11.2009 3.29918C11.4631 3.5614 11.6417 3.89549 11.714 4.25921C11.7864 4.62292 11.7493 4.99992 11.6073 5.34253C11.4654 5.68514 11.2251 5.97798 10.9168 6.18401C10.6084 6.39003 10.2459 6.5 9.87506 6.5C9.37778 6.5 8.90087 6.30246 8.54924 5.95083C8.19761 5.5992 8.00006 5.12228 8.00006 4.625ZM14.0001 9H8.50006C8.30115 9 8.11039 9.07902 7.96973 9.21967C7.82908 9.36032 7.75006 9.55109 7.75006 9.75V13C7.75006 13.1989 7.82908 13.3897 7.96973 13.5303C8.11039 13.671 8.30115 13.75 8.50006 13.75H14.0001C14.199 13.75 14.3897 13.671 14.5304 13.5303C14.671 13.3897 14.7501 13.1989 14.7501 13V9.75C14.7501 9.55109 14.671 9.36032 14.5304 9.21967C14.3897 9.07902 14.199 9 14.0001 9ZM13.2501 12.25H9.25006V10.5H13.2501V12.25Z" fill="#555756"/>
</svg>
