<svg width="25" height="25" viewBox="0 0 25 25" fill="none" xmlns="http://www.w3.org/2000/svg">
<path d="M19.4633 9.72656L17.9219 10.3492C17.7251 10.4293 17.5147 10.4704 17.3023 10.4703C17.076 10.4694 16.8522 10.4222 16.6448 10.3314C16.4374 10.2407 16.2508 10.1084 16.0965 9.94269C15.9423 9.77701 15.8236 9.58147 15.7479 9.36813C15.6722 9.1548 15.641 8.9282 15.6562 8.70234L15.7727 7.04453L14.7031 5.77266C14.4737 5.49493 14.3427 5.14908 14.3305 4.78906H4.19531C2.35938 4.78906 0.859375 6.28906 0.859375 8.13281V17.4297C0.859375 19.2734 2.35938 20.7656 4.19531 20.7656H6.73438L6.67969 22.3203C6.67331 22.5407 6.71124 22.7602 6.79123 22.9657C6.87122 23.1712 6.99165 23.3585 7.14537 23.5166C7.29909 23.6747 7.48298 23.8003 7.68615 23.886C7.88931 23.9718 8.10762 24.0158 8.32812 24.0156C8.67187 24.0156 9.01562 23.8984 9.30469 23.6797L13.1797 20.7656H17.6484C19.4844 20.7656 20.9844 19.2734 20.9844 17.4297V10.3414L19.4633 9.72656ZM11.3102 15.2578H7.20937C7.02289 15.2578 6.84405 15.1837 6.71219 15.0519C6.58033 14.92 6.50625 14.7412 6.50625 14.5547C6.50625 14.3682 6.58033 14.1894 6.71219 14.0575C6.84405 13.9256 7.02289 13.8516 7.20937 13.8516H11.3102C11.4966 13.8516 11.6755 13.9256 11.8073 14.0575C11.9392 14.1894 12.0133 14.3682 12.0133 14.5547C12.0133 14.7412 11.9392 14.92 11.8073 15.0519C11.6755 15.1837 11.4966 15.2578 11.3102 15.2578ZM14.9453 11.7063H7.21094C7.02446 11.7063 6.84561 11.6322 6.71375 11.5003C6.58189 11.3684 6.50781 11.1896 6.50781 11.0031C6.50781 10.8166 6.58189 10.6378 6.71375 10.5059C6.84561 10.3741 7.02446 10.3 7.21094 10.3H14.9453C15.1318 10.3 15.3106 10.3741 15.4425 10.5059C15.5744 10.6378 15.6484 10.8166 15.6484 11.0031C15.6484 11.1896 15.5744 11.3684 15.4425 11.5003C15.3106 11.6322 15.1318 11.7063 14.9453 11.7063Z" fill="#323131"/>
<path d="M19.4633 9.72656L17.9219 10.3492C17.7251 10.4293 17.5147 10.4704 17.3023 10.4703C17.076 10.4694 16.8522 10.4222 16.6448 10.3314C16.4374 10.2407 16.2508 10.1084 16.0965 9.94269C15.9423 9.77701 15.8236 9.58147 15.7479 9.36813C15.6722 9.1548 15.641 8.9282 15.6562 8.70234L15.7727 7.04453L14.7031 5.77266C14.4737 5.49493 14.3427 5.14908 14.3305 4.78906H4.19531C2.35938 4.78906 0.859375 6.28906 0.859375 8.13281V17.4297C0.859375 19.2734 2.35938 20.7656 4.19531 20.7656H6.73438L6.67969 22.3203C6.67331 22.5407 6.71124 22.7602 6.79123 22.9657C6.87122 23.1712 6.99165 23.3585 7.14537 23.5166C7.29909 23.6747 7.48298 23.8003 7.68615 23.886C7.88931 23.9718 8.10762 24.0158 8.32812 24.0156C8.67187 24.0156 9.01562 23.8984 9.30469 23.6797L13.1797 20.7656H17.6484C19.4844 20.7656 20.9844 19.2734 20.9844 17.4297V10.3414L19.4633 9.72656ZM11.3102 15.2578H7.20937C7.02289 15.2578 6.84405 15.1837 6.71219 15.0519C6.58033 14.92 6.50625 14.7412 6.50625 14.5547C6.50625 14.3682 6.58033 14.1894 6.71219 14.0575C6.84405 13.9256 7.02289 13.8516 7.20937 13.8516H11.3102C11.4966 13.8516 11.6755 13.9256 11.8073 14.0575C11.9392 14.1894 12.0133 14.3682 12.0133 14.5547C12.0133 14.7412 11.9392 14.92 11.8073 15.0519C11.6755 15.1837 11.4966 15.2578 11.3102 15.2578ZM14.9453 11.7063H7.21094C7.02446 11.7063 6.84561 11.6322 6.71375 11.5003C6.58189 11.3684 6.50781 11.1896 6.50781 11.0031C6.50781 10.8166 6.58189 10.6378 6.71375 10.5059C6.84561 10.3741 7.02446 10.3 7.21094 10.3H14.9453C15.1318 10.3 15.3106 10.3741 15.4425 10.5059C15.5744 10.6378 15.6484 10.8166 15.6484 11.0031C15.6484 11.1896 15.5744 11.3684 15.4425 11.5003C15.3106 11.6322 15.1318 11.7063 14.9453 11.7063Z" fill="url(#paint0_linear_158_601)"/>
<path d="M19.8695 1.9172L21.0015 3.72892L23.0742 4.24533C23.4179 4.33126 23.5531 4.74689 23.3257 5.01876L21.9523 6.6547L22.1015 8.78517C22.1071 8.86628 22.0921 8.94749 22.0577 9.02117C22.0233 9.09485 21.9708 9.15859 21.905 9.20639C21.8392 9.25419 21.7624 9.28449 21.6817 9.29445C21.601 9.3044 21.5191 9.29368 21.4437 9.2633L19.4632 8.46251L17.4828 9.2633C17.4074 9.29368 17.3255 9.3044 17.2448 9.29445C17.1641 9.28449 17.0872 9.25419 17.0215 9.20639C16.9557 9.15859 16.9032 9.09485 16.8688 9.02117C16.8344 8.94749 16.8193 8.86628 16.825 8.78517L16.9742 6.6547L15.6007 5.01876C15.5485 4.95642 15.513 4.88183 15.4975 4.802C15.4821 4.72216 15.4871 4.6397 15.5123 4.56237C15.5374 4.48504 15.5818 4.41537 15.6413 4.35991C15.7008 4.30445 15.7734 4.26502 15.8523 4.24533L17.925 3.72892L19.057 1.9172C19.1 1.84826 19.1599 1.79141 19.231 1.75199C19.302 1.71258 19.382 1.69189 19.4632 1.69189C19.5445 1.69189 19.6244 1.71258 19.6955 1.75199C19.7666 1.79141 19.8264 1.84826 19.8695 1.9172Z" fill="#323131"/>
<path d="M19.8695 1.9172L21.0015 3.72892L23.0742 4.24533C23.4179 4.33126 23.5531 4.74689 23.3257 5.01876L21.9523 6.6547L22.1015 8.78517C22.1071 8.86628 22.0921 8.94749 22.0577 9.02117C22.0233 9.09485 21.9708 9.15859 21.905 9.20639C21.8392 9.25419 21.7624 9.28449 21.6817 9.29445C21.601 9.3044 21.5191 9.29368 21.4437 9.2633L19.4632 8.46251L17.4828 9.2633C17.4074 9.29368 17.3255 9.3044 17.2448 9.29445C17.1641 9.28449 17.0872 9.25419 17.0215 9.20639C16.9557 9.15859 16.9032 9.09485 16.8688 9.02117C16.8344 8.94749 16.8193 8.86628 16.825 8.78517L16.9742 6.6547L15.6007 5.01876C15.5485 4.95642 15.513 4.88183 15.4975 4.802C15.4821 4.72216 15.4871 4.6397 15.5123 4.56237C15.5374 4.48504 15.5818 4.41537 15.6413 4.35991C15.7008 4.30445 15.7734 4.26502 15.8523 4.24533L17.925 3.72892L19.057 1.9172C19.1 1.84826 19.1599 1.79141 19.231 1.75199C19.302 1.71258 19.382 1.69189 19.4632 1.69189C19.5445 1.69189 19.6244 1.71258 19.6955 1.75199C19.7666 1.79141 19.8264 1.84826 19.8695 1.9172Z" fill="url(#paint1_linear_158_601)"/>
<defs>
<linearGradient id="paint0_linear_158_601" x1="0.859375" y1="24.0156" x2="24.7812" y2="15.6631" gradientUnits="userSpaceOnUse">
<stop stop-color="#40D3B6"/>
<stop offset="1" stop-color="#1E8FD3"/>
</linearGradient>
<linearGradient id="paint1_linear_158_601" x1="15.4888" y1="9.29806" x2="24.9409" y2="6.0029" gradientUnits="userSpaceOnUse">
<stop stop-color="#40D3B6"/>
<stop offset="1" stop-color="#1E8FD3"/>
</linearGradient>
</defs>
</svg>
