<svg width="25" height="25" viewBox="0 0 25 25" fill="none" xmlns="http://www.w3.org/2000/svg">
<path d="M12.5 13.2812C15.9518 13.2812 18.75 10.483 18.75 7.03125C18.75 3.57947 15.9518 0.78125 12.5 0.78125C9.04822 0.78125 6.25 3.57947 6.25 7.03125C6.25 10.483 9.04822 13.2812 12.5 13.2812Z" fill="#323131"/>
<path d="M12.5 13.2812C15.9518 13.2812 18.75 10.483 18.75 7.03125C18.75 3.57947 15.9518 0.78125 12.5 0.78125C9.04822 0.78125 6.25 3.57947 6.25 7.03125C6.25 10.483 9.04822 13.2812 12.5 13.2812Z" fill="url(#paint0_linear_191_2331)"/>
<path d="M3.90625 24.2188H13.5625C12.1907 23.1192 11.2823 21.5442 11.0174 19.8062C10.7526 18.0682 11.1507 16.2941 12.1328 14.8359C10.1131 14.7356 8.21004 13.8596 6.82031 12.3906C5.26242 13.0483 3.93286 14.1504 2.99775 15.5593C2.06263 16.9682 1.56343 18.6215 1.5625 20.3125V21.875C1.56435 22.496 1.81188 23.0911 2.25102 23.5302C2.69015 23.9694 3.28522 24.2169 3.90625 24.2188Z" fill="#323131"/>
<path d="M3.90625 24.2188H13.5625C12.1907 23.1192 11.2823 21.5442 11.0174 19.8062C10.7526 18.0682 11.1507 16.2941 12.1328 14.8359C10.1131 14.7356 8.21004 13.8596 6.82031 12.3906C5.26242 13.0483 3.93286 14.1504 2.99775 15.5593C2.06263 16.9682 1.56343 18.6215 1.5625 20.3125V21.875C1.56435 22.496 1.81188 23.0911 2.25102 23.5302C2.69015 23.9694 3.28522 24.2169 3.90625 24.2188Z" fill="url(#paint1_linear_191_2331)"/>
<path d="M12.5 18.75C12.5 19.8316 12.8207 20.8889 13.4217 21.7883C14.0226 22.6876 14.8767 23.3885 15.876 23.8025C16.8752 24.2164 17.9748 24.3247 19.0357 24.1137C20.0965 23.9027 21.0709 23.3818 21.8357 22.617C22.6006 21.8522 23.1214 20.8777 23.3324 19.8169C23.5434 18.7561 23.4351 17.6565 23.0212 16.6572C22.6073 15.6579 21.9064 14.8038 21.007 14.2029C20.1077 13.602 19.0504 13.2812 17.9688 13.2812C16.5189 13.2829 15.1288 13.8596 14.1036 14.8848C13.0784 15.9101 12.5017 17.3001 12.5 18.75ZM18.75 17.1875V17.9688H19.5312C19.7385 17.9688 19.9372 18.0511 20.0837 18.1976C20.2302 18.3441 20.3125 18.5428 20.3125 18.75C20.3125 18.9572 20.2302 19.1559 20.0837 19.3024C19.9372 19.4489 19.7385 19.5312 19.5312 19.5312H18.75V20.3125C18.75 20.5197 18.6677 20.7184 18.5212 20.8649C18.3747 21.0114 18.176 21.0938 17.9688 21.0938C17.7615 21.0938 17.5628 21.0114 17.4163 20.8649C17.2698 20.7184 17.1875 20.5197 17.1875 20.3125V19.5312H16.4062C16.199 19.5312 16.0003 19.4489 15.8538 19.3024C15.7073 19.1559 15.625 18.9572 15.625 18.75C15.625 18.5428 15.7073 18.3441 15.8538 18.1976C16.0003 18.0511 16.199 17.9688 16.4062 17.9688H17.1875V17.1875C17.1875 16.9803 17.2698 16.7816 17.4163 16.6351C17.5628 16.4886 17.7615 16.4062 17.9688 16.4062C18.176 16.4062 18.3747 16.4886 18.5212 16.6351C18.6677 16.7816 18.75 16.9803 18.75 17.1875Z" fill="#323131"/>
<path d="M12.5 18.75C12.5 19.8316 12.8207 20.8889 13.4217 21.7883C14.0226 22.6876 14.8767 23.3885 15.876 23.8025C16.8752 24.2164 17.9748 24.3247 19.0357 24.1137C20.0965 23.9027 21.0709 23.3818 21.8357 22.617C22.6006 21.8522 23.1214 20.8777 23.3324 19.8169C23.5434 18.7561 23.4351 17.6565 23.0212 16.6572C22.6073 15.6579 21.9064 14.8038 21.007 14.2029C20.1077 13.602 19.0504 13.2812 17.9688 13.2812C16.5189 13.2829 15.1288 13.8596 14.1036 14.8848C13.0784 15.9101 12.5017 17.3001 12.5 18.75ZM18.75 17.1875V17.9688H19.5312C19.7385 17.9688 19.9372 18.0511 20.0837 18.1976C20.2302 18.3441 20.3125 18.5428 20.3125 18.75C20.3125 18.9572 20.2302 19.1559 20.0837 19.3024C19.9372 19.4489 19.7385 19.5312 19.5312 19.5312H18.75V20.3125C18.75 20.5197 18.6677 20.7184 18.5212 20.8649C18.3747 21.0114 18.176 21.0938 17.9688 21.0938C17.7615 21.0938 17.5628 21.0114 17.4163 20.8649C17.2698 20.7184 17.1875 20.5197 17.1875 20.3125V19.5312H16.4062C16.199 19.5312 16.0003 19.4489 15.8538 19.3024C15.7073 19.1559 15.625 18.9572 15.625 18.75C15.625 18.5428 15.7073 18.3441 15.8538 18.1976C16.0003 18.0511 16.199 17.9688 16.4062 17.9688H17.1875V17.1875C17.1875 16.9803 17.2698 16.7816 17.4163 16.6351C17.5628 16.4886 17.7615 16.4062 17.9688 16.4062C18.176 16.4062 18.3747 16.4886 18.5212 16.6351C18.6677 16.7816 18.75 16.9803 18.75 17.1875Z" fill="url(#paint2_linear_191_2331)"/>
<defs>
<linearGradient id="paint0_linear_191_2331" x1="6.25" y1="13.2812" x2="21.2505" y2="8.27748" gradientUnits="userSpaceOnUse">
<stop stop-color="#40D3B6"/>
<stop offset="1" stop-color="#1E8FD3"/>
</linearGradient>
<linearGradient id="paint1_linear_191_2331" x1="1.5625" y1="24.2188" x2="15.9209" y2="19.3596" gradientUnits="userSpaceOnUse">
<stop stop-color="#40D3B6"/>
<stop offset="1" stop-color="#1E8FD3"/>
</linearGradient>
<linearGradient id="paint2_linear_191_2331" x1="12.5" y1="24.2188" x2="25.6255" y2="19.8404" gradientUnits="userSpaceOnUse">
<stop stop-color="#40D3B6"/>
<stop offset="1" stop-color="#1E8FD3"/>
</linearGradient>
</defs>
</svg>
