<svg width="25" height="19" viewBox="0 0 25 19" fill="none" xmlns="http://www.w3.org/2000/svg">
<path d="M20.4942 16.9941L4.50499 1.00537L4.50157 1.00146C4.415 0.9156 4.31238 0.847632 4.19954 0.801435C4.08671 0.755238 3.96588 0.731717 3.84396 0.732216C3.72204 0.732715 3.60141 0.757223 3.48896 0.804342C3.37651 0.85146 3.27444 0.920266 3.18858 1.00683C3.10272 1.0934 3.03475 1.19602 2.98856 1.30886C2.94236 1.42169 2.91884 1.54251 2.91934 1.66444C2.92034 1.91067 3.01913 2.14642 3.19395 2.31982L4.59385 3.71972C2.89615 4.88244 1.43485 6.35716 0.287701 8.06542C0.100372 8.342 0.000244141 8.66839 0.000244141 9.00244C0.000244141 9.33648 0.100372 9.66287 0.287701 9.93945C3.21592 14.2734 7.85801 16.8125 12.5001 16.7808C14.0038 16.7862 15.4974 16.5359 16.9171 16.0405L19.1832 18.3066C19.3578 18.4756 19.5917 18.5693 19.8347 18.5677C20.0776 18.566 20.3103 18.4691 20.4825 18.2978C20.6548 18.1265 20.753 17.8944 20.756 17.6514C20.759 17.4085 20.6666 17.1741 20.4986 16.9985L20.4942 16.9941ZM12.5001 14.2607C11.6206 14.2604 10.7552 14.0397 9.98302 13.6187C9.21082 13.1977 8.55644 12.5899 8.07968 11.8509C7.60292 11.1118 7.31898 10.2651 7.25382 9.38797C7.18865 8.5109 7.34434 7.63147 7.70665 6.83007L9.16905 8.29247C9.05125 8.84755 9.07402 9.42326 9.23527 9.9673C9.39652 10.5113 9.69114 11.0065 10.0924 11.4077C10.4936 11.809 10.9888 12.1036 11.5328 12.2648C12.0768 12.4261 12.6525 12.4488 13.2076 12.331L14.67 13.7935C13.9884 14.1025 13.2485 14.2618 12.5001 14.2607ZM24.7125 8.06298C21.7843 3.72656 17.1422 1.18749 12.5001 1.21923C10.9965 1.21379 9.50283 1.4641 8.08311 1.95947L10.3292 4.20556C11.3039 3.76449 12.3898 3.63093 13.4423 3.82268C14.4947 4.01443 15.4638 4.52239 16.2203 5.27886C16.9767 6.03533 17.4847 7.00438 17.6764 8.05686C17.8682 9.10934 17.7346 10.1953 17.2936 11.1699L20.4059 14.2822C22.1039 13.1197 23.5653 11.6449 24.7125 9.93652C24.8997 9.65999 24.9998 9.3337 24.9998 8.99975C24.9998 8.6658 24.8997 8.33951 24.7125 8.06298Z" fill="black"/>
<path d="M20.4942 16.9941L4.50499 1.00537L4.50157 1.00146C4.415 0.9156 4.31238 0.847632 4.19954 0.801435C4.08671 0.755238 3.96588 0.731717 3.84396 0.732216C3.72204 0.732715 3.60141 0.757223 3.48896 0.804342C3.37651 0.85146 3.27444 0.920266 3.18858 1.00683C3.10272 1.0934 3.03475 1.19602 2.98856 1.30886C2.94236 1.42169 2.91884 1.54251 2.91934 1.66444C2.92034 1.91067 3.01913 2.14642 3.19395 2.31982L4.59385 3.71972C2.89615 4.88244 1.43485 6.35716 0.287701 8.06542C0.100372 8.342 0.000244141 8.66839 0.000244141 9.00244C0.000244141 9.33648 0.100372 9.66287 0.287701 9.93945C3.21592 14.2734 7.85801 16.8125 12.5001 16.7808C14.0038 16.7862 15.4974 16.5359 16.9171 16.0405L19.1832 18.3066C19.3578 18.4756 19.5917 18.5693 19.8347 18.5677C20.0776 18.566 20.3103 18.4691 20.4825 18.2978C20.6548 18.1265 20.753 17.8944 20.756 17.6514C20.759 17.4085 20.6666 17.1741 20.4986 16.9985L20.4942 16.9941ZM12.5001 14.2607C11.6206 14.2604 10.7552 14.0397 9.98302 13.6187C9.21082 13.1977 8.55644 12.5899 8.07968 11.8509C7.60292 11.1118 7.31898 10.2651 7.25382 9.38797C7.18865 8.5109 7.34434 7.63147 7.70665 6.83007L9.16905 8.29247C9.05125 8.84755 9.07402 9.42326 9.23527 9.9673C9.39652 10.5113 9.69114 11.0065 10.0924 11.4077C10.4936 11.809 10.9888 12.1036 11.5328 12.2648C12.0768 12.4261 12.6525 12.4488 13.2076 12.331L14.67 13.7935C13.9884 14.1025 13.2485 14.2618 12.5001 14.2607ZM24.7125 8.06298C21.7843 3.72656 17.1422 1.18749 12.5001 1.21923C10.9965 1.21379 9.50283 1.4641 8.08311 1.95947L10.3292 4.20556C11.3039 3.76449 12.3898 3.63093 13.4423 3.82268C14.4947 4.01443 15.4638 4.52239 16.2203 5.27886C16.9767 6.03533 17.4847 7.00438 17.6764 8.05686C17.8682 9.10934 17.7346 10.1953 17.2936 11.1699L20.4059 14.2822C22.1039 13.1197 23.5653 11.6449 24.7125 9.93652C24.8997 9.65999 24.9998 9.3337 24.9998 8.99975C24.9998 8.6658 24.8997 8.33951 24.7125 8.06298Z" fill="url(#paint0_linear_29_115)"/>
<defs>
<linearGradient id="paint0_linear_29_115" x1="0.000244141" y1="18.5677" x2="27.3582" y2="5.77619" gradientUnits="userSpaceOnUse">
<stop stop-color="#40D3B6"/>
<stop offset="1" stop-color="#1E8FD3"/>
</linearGradient>
</defs>
</svg>
