<svg width="25" height="25" viewBox="0 0 25 25" fill="none" xmlns="http://www.w3.org/2000/svg">
<path d="M16.9683 11.5917C13.3026 11.5917 10.3213 14.5742 10.3213 18.2387C10.3213 21.9033 13.3026 24.8857 16.9683 24.8857C20.6339 24.8857 23.6153 21.9033 23.6153 18.2387C23.6153 14.5742 20.6339 11.5917 16.9683 11.5917ZM19.2282 19.1057H16.9683C16.7383 19.1057 16.5178 19.0144 16.3552 18.8518C16.1926 18.6892 16.1013 18.4687 16.1013 18.2387V15.8863C16.1013 15.6563 16.1926 15.4358 16.3552 15.2732C16.5178 15.1106 16.7383 15.0193 16.9683 15.0193C17.1982 15.0193 17.4187 15.1106 17.5813 15.2732C17.7439 15.4358 17.8353 15.6563 17.8353 15.8863V17.3717H19.2282C19.4582 17.3717 19.6787 17.4631 19.8413 17.6257C20.0039 17.7883 20.0952 18.0088 20.0952 18.2387C20.0952 18.4687 20.0039 18.6892 19.8413 18.8518C19.6787 19.0144 19.4582 19.1057 19.2282 19.1057ZM18.1243 2.34375H6.56425C4.80713 2.34375 3.38525 3.76563 3.38525 5.52275V20.5507C3.38525 22.3079 4.80713 23.7297 6.56425 23.7297H10.6565C9.31801 22.2143 8.58177 20.2606 8.58725 18.2387C8.58725 13.6147 12.3443 9.85775 16.9683 9.85775C18.5635 9.85775 20.0432 10.297 21.3033 11.0831V5.52275C21.3033 3.76563 19.8814 2.34375 18.1243 2.34375ZM8.87625 14.4817H7.72025C7.24629 14.4817 6.85325 14.0887 6.85325 13.6147C6.85325 13.1408 7.24629 12.7477 7.72025 12.7477H8.87625C9.35021 12.7477 9.74325 13.1408 9.74325 13.6147C9.74325 14.0887 9.35021 14.4817 8.87625 14.4817ZM12.3443 11.0137H7.72025C7.24629 11.0137 6.85325 10.6207 6.85325 10.1467C6.85325 9.67279 7.24629 9.27975 7.72025 9.27975H12.3443C12.8182 9.27975 13.2113 9.67279 13.2113 10.1467C13.2113 10.6207 12.8182 11.0137 12.3443 11.0137ZM16.9683 7.54575H7.72025C7.24629 7.54575 6.85325 7.15271 6.85325 6.67875C6.85325 6.20479 7.24629 5.81175 7.72025 5.81175H16.9683C17.4422 5.81175 17.8353 6.20479 17.8353 6.67875C17.8353 7.15271 17.4422 7.54575 16.9683 7.54575Z" fill="#323131"/>
<path d="M16.9683 11.5917C13.3026 11.5917 10.3213 14.5742 10.3213 18.2387C10.3213 21.9033 13.3026 24.8857 16.9683 24.8857C20.6339 24.8857 23.6153 21.9033 23.6153 18.2387C23.6153 14.5742 20.6339 11.5917 16.9683 11.5917ZM19.2282 19.1057H16.9683C16.7383 19.1057 16.5178 19.0144 16.3552 18.8518C16.1926 18.6892 16.1013 18.4687 16.1013 18.2387V15.8863C16.1013 15.6563 16.1926 15.4358 16.3552 15.2732C16.5178 15.1106 16.7383 15.0193 16.9683 15.0193C17.1982 15.0193 17.4187 15.1106 17.5813 15.2732C17.7439 15.4358 17.8353 15.6563 17.8353 15.8863V17.3717H19.2282C19.4582 17.3717 19.6787 17.4631 19.8413 17.6257C20.0039 17.7883 20.0952 18.0088 20.0952 18.2387C20.0952 18.4687 20.0039 18.6892 19.8413 18.8518C19.6787 19.0144 19.4582 19.1057 19.2282 19.1057ZM18.1243 2.34375H6.56425C4.80713 2.34375 3.38525 3.76563 3.38525 5.52275V20.5507C3.38525 22.3079 4.80713 23.7297 6.56425 23.7297H10.6565C9.31801 22.2143 8.58177 20.2606 8.58725 18.2387C8.58725 13.6147 12.3443 9.85775 16.9683 9.85775C18.5635 9.85775 20.0432 10.297 21.3033 11.0831V5.52275C21.3033 3.76563 19.8814 2.34375 18.1243 2.34375ZM8.87625 14.4817H7.72025C7.24629 14.4817 6.85325 14.0887 6.85325 13.6147C6.85325 13.1408 7.24629 12.7477 7.72025 12.7477H8.87625C9.35021 12.7477 9.74325 13.1408 9.74325 13.6147C9.74325 14.0887 9.35021 14.4817 8.87625 14.4817ZM12.3443 11.0137H7.72025C7.24629 11.0137 6.85325 10.6207 6.85325 10.1467C6.85325 9.67279 7.24629 9.27975 7.72025 9.27975H12.3443C12.8182 9.27975 13.2113 9.67279 13.2113 10.1467C13.2113 10.6207 12.8182 11.0137 12.3443 11.0137ZM16.9683 7.54575H7.72025C7.24629 7.54575 6.85325 7.15271 6.85325 6.67875C6.85325 6.20479 7.24629 5.81175 7.72025 5.81175H16.9683C17.4422 5.81175 17.8353 6.20479 17.8353 6.67875C17.8353 7.15271 17.4422 7.54575 16.9683 7.54575Z" fill="url(#paint0_linear_158_597)"/>
<defs>
<linearGradient id="paint0_linear_158_597" x1="3.38525" y1="24.8857" x2="28.1446" y2="17.4738" gradientUnits="userSpaceOnUse">
<stop stop-color="#40D3B6"/>
<stop offset="1" stop-color="#1E8FD3"/>
</linearGradient>
</defs>
</svg>
