<svg width="12" height="13" viewBox="0 0 12 13" fill="none" xmlns="http://www.w3.org/2000/svg">
<path d="M12 6.49954V12.4995C12 12.6321 11.9473 12.7593 11.8536 12.8531C11.7598 12.9469 11.6326 12.9995 11.5 12.9995H8C7.86739 12.9995 7.74021 12.9469 7.64645 12.8531C7.55268 12.7593 7.5 12.6321 7.5 12.4995V9.24954C7.5 9.18323 7.47366 9.11964 7.42678 9.07276C7.37989 9.02588 7.3163 8.99954 7.25 8.99954H4.75C4.6837 8.99954 4.62011 9.02588 4.57322 9.07276C4.52634 9.11964 4.5 9.18323 4.5 9.24954V12.4995C4.5 12.6321 4.44732 12.7593 4.35355 12.8531C4.25979 12.9469 4.13261 12.9995 4 12.9995H0.5C0.367392 12.9995 0.240215 12.9469 0.146447 12.8531C0.0526785 12.7593 0 12.6321 0 12.4995V6.49954C0.000122931 6.23437 0.10556 5.9801 0.293125 5.79266L5.29313 0.792662C5.48064 0.605267 5.7349 0.5 6 0.5C6.2651 0.5 6.51936 0.605267 6.70687 0.792662L11.7069 5.79266C11.8944 5.9801 11.9999 6.23437 12 6.49954Z" fill="#113A5D"/>
</svg>
