<svg width="25" height="26" viewBox="0 0 25 26" fill="none" xmlns="http://www.w3.org/2000/svg">
<g clip-path="url(#clip0_298_2081)">
<path d="M22.2506 17.6494L20.798 16.1694C20.5956 15.9645 20.4823 15.6879 20.483 15.3999V10.9248C20.483 7.3125 18.0714 4.25342 14.7735 3.27197C14.8033 3.12354 14.819 2.97168 14.819 2.81934C14.819 1.54053 13.7784 0.5 12.4996 0.5C11.2208 0.5 10.1803 1.54053 10.1803 2.81934C10.1803 2.97314 10.1954 3.12451 10.2242 3.27246C6.92735 4.25439 4.51622 7.31299 4.51622 10.9248V15.3999C4.51622 15.6895 4.4044 15.9629 4.20128 16.1694L2.74864 17.6494C1.942 18.4707 1.71739 19.6406 2.16319 20.7026C2.6085 21.7642 3.60069 22.4238 4.75206 22.4238H20.2472C21.3985 22.4238 22.3907 21.7642 22.836 20.7026C23.2818 19.6406 23.0572 18.4707 22.2506 17.6494ZM11.9068 2.96338C11.8961 2.91943 11.8893 2.87207 11.8893 2.81934C11.8893 2.48291 12.1632 2.20898 12.4996 2.20898C12.836 2.20898 13.11 2.48291 13.11 2.81934C13.11 2.87207 13.1031 2.91943 13.0924 2.96338C12.8966 2.94922 12.6988 2.94141 12.4996 2.94141C12.3004 2.94141 12.1026 2.94922 11.9068 2.96338ZM12.5177 25.5C13.941 25.5 15.1007 24.3721 15.152 22.9609H9.88341C9.93516 24.3721 11.0943 25.5 12.5177 25.5Z" fill="#323131"/>
<path d="M22.2506 17.6494L20.798 16.1694C20.5956 15.9645 20.4823 15.6879 20.483 15.3999V10.9248C20.483 7.3125 18.0714 4.25342 14.7735 3.27197C14.8033 3.12354 14.819 2.97168 14.819 2.81934C14.819 1.54053 13.7784 0.5 12.4996 0.5C11.2208 0.5 10.1803 1.54053 10.1803 2.81934C10.1803 2.97314 10.1954 3.12451 10.2242 3.27246C6.92735 4.25439 4.51622 7.31299 4.51622 10.9248V15.3999C4.51622 15.6895 4.4044 15.9629 4.20128 16.1694L2.74864 17.6494C1.942 18.4707 1.71739 19.6406 2.16319 20.7026C2.6085 21.7642 3.60069 22.4238 4.75206 22.4238H20.2472C21.3985 22.4238 22.3907 21.7642 22.836 20.7026C23.2818 19.6406 23.0572 18.4707 22.2506 17.6494ZM11.9068 2.96338C11.8961 2.91943 11.8893 2.87207 11.8893 2.81934C11.8893 2.48291 12.1632 2.20898 12.4996 2.20898C12.836 2.20898 13.11 2.48291 13.11 2.81934C13.11 2.87207 13.1031 2.91943 13.0924 2.96338C12.8966 2.94922 12.6988 2.94141 12.4996 2.94141C12.3004 2.94141 12.1026 2.94922 11.9068 2.96338ZM12.5177 25.5C13.941 25.5 15.1007 24.3721 15.152 22.9609H9.88341C9.93516 24.3721 11.0943 25.5 12.5177 25.5Z" fill="url(#paint0_linear_298_2081)"/>
</g>
<defs>
<linearGradient id="paint0_linear_298_2081" x1="1.9375" y1="25.5" x2="28.0349" y2="18.1442" gradientUnits="userSpaceOnUse">
<stop stop-color="#40D3B6"/>
<stop offset="1" stop-color="#1E8FD3"/>
</linearGradient>
<clipPath id="clip0_298_2081">
<rect width="25" height="25" fill="white" transform="translate(0 0.5)"/>
</clipPath>
</defs>
</svg>
