<svg width="49" height="50" viewBox="0 0 49 50" fill="none" xmlns="http://www.w3.org/2000/svg">
<path d="M20.5938 7.03125H28.4062V14.0625H20.5938V7.03125Z" fill="#D8B42F"/>
<path d="M21.375 7.03125H28.4062V13.2812H21.375V7.03125Z" fill="#F9D647"/>
<path d="M12 14.8438L17.4688 10.1562V13.2812H24.5V16.4062H17.4688V19.5312L12 14.8438Z" fill="#498F47"/>
<path d="M17.4688 13.2812H24.5V14.8438H12L17.4688 10.1562V13.2812Z" fill="#5BB162"/>
<path d="M28.4062 35V39.8438H28.5109C32.1691 39.8435 35.7869 40.6078 39.1323 42.0878C42.4778 43.5677 45.477 45.7305 47.9375 48.4375H1.0625C3.52304 45.7305 6.52222 43.5677 9.86765 42.0878C13.2131 40.6078 16.8309 39.8435 20.4891 39.8438H20.5938V35H28.4062Z" fill="#25668D"/>
<path d="M28.5109 39.8438H28.4062V35H22.9375V39.8438H22.8328C19.1747 39.8435 15.5568 40.6078 12.2114 42.0878C8.86597 43.5677 5.86679 45.7305 3.40625 48.4375H47.9375C45.477 45.7305 42.4778 43.5677 39.1323 42.0878C35.7869 40.6078 32.1691 39.8435 28.5109 39.8438Z" fill="#3080C1"/>
<path d="M19.8125 42.9688L21.375 45.3125L24.5 43.75L27.625 45.3125L29.1875 42.9688H33.0938V40.2547C31.5811 39.9838 30.0476 39.8463 28.5109 39.8438H28.4062V35H20.5938V39.8438H20.4891C18.9524 39.8463 17.4189 39.9838 15.9062 40.2547V42.9688H19.8125Z" fill="#3E9FE1"/>
<path d="M28.4062 35V39.8438L24.5 42.1875L20.5938 39.8438V35H28.4062ZM15.9102 25H15.125C14.5034 25 13.9073 25.2469 13.4677 25.6865C13.0282 26.126 12.7813 26.7221 12.7812 27.3438C12.7813 27.9654 13.0282 28.5615 13.4677 29.001C13.9073 29.4406 14.5034 29.6875 15.125 29.6875H16.2297M33.0938 25H33.875C34.4966 25 35.0927 25.2469 35.5323 25.6865C35.9718 26.126 36.2188 26.7221 36.2188 27.3438C36.2188 27.9654 35.9718 28.5615 35.5323 29.001C35.0927 29.4406 34.4966 29.6875 33.875 29.6875H32.7703" fill="#E0B1AA"/>
<path d="M33.0938 19.5312V27.3438C33.0938 29.623 32.1883 31.8088 30.5767 33.4204C28.9651 35.0321 26.7792 35.9375 24.5 35.9375C22.2208 35.9375 20.0349 35.0321 18.4233 33.4204C16.8117 31.8088 15.9062 29.623 15.9062 27.3438V19.5312H33.0938Z" fill="#E0B1AA"/>
<path d="M16.6875 26.5625C16.6855 28.2153 17.1606 29.8335 18.0559 31.2228C18.9512 32.6121 20.2286 33.7133 21.7346 34.3943C23.2405 35.0752 24.9111 35.3069 26.5455 35.0616C28.18 34.8162 29.7088 34.1041 30.9484 33.0109C32.3314 31.4471 33.0945 29.4314 33.0938 27.3438V19.5312H16.6875V26.5625Z" fill="#FDE1D5"/>
<path d="M23.7188 40.125H25.2812V48.4375H23.7188V40.125Z" fill="#25668D"/>
<path d="M20.5938 36.0156V39.8438L24.5 42.1875L28.4062 39.8438V36.0156C27.1637 36.5069 25.8358 36.7459 24.5 36.7188C23.1642 36.7459 21.8363 36.5069 20.5938 36.0156Z" fill="#FDE1D5"/>
<path d="M19.8125 25H21.375V26.5625H19.8125V25ZM27.625 25H29.1875V26.5625H27.625V25ZM22.1562 30.4688H26.8438V32.0312H22.1562V30.4688Z" fill="#E0B1AA"/>
<path d="M11.5665 23.3063L9.2227 21.7438C9.08878 21.6544 8.98576 21.5258 8.92772 21.3756C8.86968 21.2254 8.85947 21.0609 8.89849 20.9047L9.50396 18.4828L7.84692 17.9297L8.34067 16.4453L10.6844 17.2266C10.871 17.2888 11.0272 17.4191 11.1219 17.5914C11.2166 17.7637 11.2428 17.9655 11.1954 18.1563L10.5477 20.7477L12.4336 22.0047L11.5665 23.3063ZM36.6524 22.525L35.7852 21.225L37.6711 19.968L37.0235 17.3766C36.976 17.1858 37.0023 16.9841 37.097 16.8117C37.1917 16.6394 37.3479 16.5091 37.5344 16.4469L39.8782 15.6656L40.3719 17.15L38.7149 17.7031L39.3204 20.125C39.3594 20.2812 39.3492 20.4457 39.2911 20.5959C39.2331 20.7461 39.1301 20.8747 38.9961 20.9641L36.6524 22.525ZM36.6524 8.46252L35.7852 7.16252L37.6711 5.90549L37.0235 3.31409C36.976 3.12326 37.0023 2.92156 37.097 2.74923C37.1917 2.5769 37.3479 2.44662 37.5344 2.3844L39.8782 1.60315L40.3719 3.08752L38.7188 3.63752L39.3243 6.0594C39.3633 6.21562 39.3531 6.38008 39.295 6.53027C39.237 6.68047 39.134 6.80906 39 6.89846L36.6524 8.46252ZM13.129 9.24377L10.7852 7.68127C10.6513 7.59188 10.5483 7.46328 10.4902 7.31309C10.4322 7.16289 10.422 6.99843 10.461 6.84221L11.0665 4.42034L9.40942 3.86721L9.90317 2.38284L12.2469 3.16409C12.4335 3.22631 12.5897 3.35659 12.6844 3.52892C12.7791 3.70124 12.8053 3.90295 12.7579 4.09377L12.1102 6.68518L13.9961 7.94221L13.129 9.24377Z" fill="#F9D647"/>
<path d="M28.4062 7.03125H26.8438V4.6875C26.8438 4.0659 26.5968 3.46976 26.1573 3.03022C25.7177 2.59068 25.1216 2.34375 24.5 2.34375C23.8784 2.34375 23.2823 2.59068 22.8427 3.03022C22.4032 3.46976 22.1562 4.0659 22.1562 4.6875V7.03125H20.5938V4.6875C20.5938 3.6515 21.0053 2.65793 21.7379 1.92536C22.4704 1.1928 23.464 0.78125 24.5 0.78125C25.536 0.78125 26.5296 1.1928 27.2621 1.92536C27.9947 2.65793 28.4062 3.6515 28.4062 4.6875V7.03125Z" fill="#77787C"/>
<path d="M37 11.7188L31.5312 7.03125V10.1562H24.5V13.2812H31.5312V16.4062L37 11.7188Z" fill="#DC4051"/>
<path d="M31.5312 10.1562H24.5V11.7188H37L31.5312 7.03125V10.1562Z" fill="#E26B7A"/>
<path d="M29.1875 39.0711V35.45C31.1137 34.3319 32.5809 32.5668 33.3282 30.4688H33.875C34.7038 30.4688 35.4987 30.1395 36.0847 29.5535C36.6708 28.9674 37 28.1726 37 27.3438C37 26.5149 36.6708 25.7201 36.0847 25.134C35.4987 24.548 34.7038 24.2188 33.875 24.2188V19.5312C33.875 19.324 33.7927 19.1253 33.6462 18.9788C33.4997 18.8323 33.301 18.75 33.0938 18.75H18.25V17.1875H24.5C24.7072 17.1875 24.906 17.1052 25.0525 16.9587C25.199 16.8122 25.2813 16.6135 25.2813 16.4062V14.0625H30.75V16.4062C30.75 16.5557 30.7929 16.702 30.8735 16.8278C30.9542 16.9536 31.0692 17.0536 31.205 17.116C31.3407 17.1784 31.4915 17.2006 31.6395 17.1799C31.7875 17.1592 31.9265 17.0965 32.0399 16.9992L37.5086 12.3117C37.5941 12.2384 37.6628 12.1474 37.7098 12.0451C37.7569 11.9427 37.7812 11.8314 37.7812 11.7188C37.7812 11.6061 37.7569 11.4948 37.7098 11.3924C37.6628 11.2901 37.5941 11.1991 37.5086 11.1258L32.0399 6.43828C31.9265 6.34101 31.7875 6.2783 31.6395 6.2576C31.4915 6.23689 31.3407 6.25906 31.205 6.32148C31.0692 6.38389 30.9542 6.48393 30.8735 6.60974C30.7929 6.73554 30.75 6.88182 30.75 7.03125V9.375H29.1875V7.03125C29.1875 6.82405 29.1052 6.62534 28.9587 6.47882C28.8122 6.33231 28.6135 6.25 28.4063 6.25V4.6875C28.4063 3.6515 27.9947 2.65793 27.2622 1.92536C26.5296 1.1928 25.536 0.78125 24.5 0.78125C23.464 0.78125 22.4705 1.1928 21.7379 1.92536C21.0053 2.65793 20.5938 3.6515 20.5938 4.6875V6.25C20.3866 6.25 20.1879 6.33231 20.0414 6.47882C19.8948 6.62534 19.8125 6.82405 19.8125 7.03125V12.5H18.25V10.1562C18.25 10.0068 18.2072 9.86054 18.1265 9.73473C18.0459 9.60893 17.9309 9.50889 17.7951 9.44648C17.6593 9.38406 17.5085 9.36189 17.3605 9.3826C17.2126 9.4033 17.0736 9.46601 16.9602 9.56328L11.4914 14.2508C11.4059 14.3241 11.3373 14.4151 11.2903 14.5174C11.2432 14.6198 11.2189 14.7311 11.2189 14.8438C11.2189 14.9564 11.2432 15.0677 11.2903 15.1701C11.3373 15.2724 11.4059 15.3634 11.4914 15.4367L15.5055 18.8742C15.3906 18.9414 15.2952 19.0373 15.2285 19.1525C15.1618 19.2677 15.1262 19.3982 15.125 19.5312V24.2188C14.2962 24.2188 13.5014 24.548 12.9153 25.134C12.3293 25.7201 12 26.5149 12 27.3438C12 28.1726 12.3293 28.9674 12.9153 29.5535C13.5014 30.1395 14.2962 30.4688 15.125 30.4688H15.6719C16.4191 32.5668 17.8863 34.3319 19.8125 35.45V39.0711C16.1613 39.1658 12.5669 39.9978 9.24543 41.5171C5.92393 43.0363 2.94389 45.2115 0.484411 47.9117C0.382515 48.0237 0.315355 48.1629 0.291098 48.3123C0.266841 48.4618 0.286533 48.6151 0.347779 48.7535C0.409024 48.892 0.509185 49.0097 0.636078 49.0923C0.762972 49.1749 0.91113 49.2188 1.06254 49.2188H47.9375C48.0889 49.2188 48.2371 49.1749 48.364 49.0923C48.4909 49.0097 48.591 48.892 48.6523 48.7535C48.7135 48.6151 48.7332 48.4618 48.709 48.3123C48.6847 48.1629 48.6176 48.0237 48.5157 47.9117C46.0562 45.2115 43.0761 43.0363 39.7546 41.5171C36.4331 39.9978 32.8388 39.1658 29.1875 39.0711ZM32.3125 40.9148V42.1875H29.1875C29.0589 42.1875 28.9323 42.2192 28.819 42.2799C28.7056 42.3405 28.6089 42.4282 28.5375 42.5352L27.3578 44.3047L25.2813 43.2672V42.6297L28.618 40.625C29.8549 40.6315 31.0897 40.7284 32.3125 40.9148ZM35.4375 27.3438C35.4375 27.7582 35.2729 28.1556 34.9799 28.4486C34.6869 28.7416 34.2894 28.9062 33.875 28.9062H33.7336C33.8244 28.3903 33.8717 27.8676 33.875 27.3438V25.7812C34.2894 25.7812 34.6869 25.9459 34.9799 26.2389C35.2729 26.5319 35.4375 26.9293 35.4375 27.3438ZM31.5313 10.9375C31.7385 10.9375 31.9372 10.8552 32.0837 10.7087C32.2302 10.5622 32.3125 10.3635 32.3125 10.1562V8.72969L35.7993 11.7188L32.3125 14.7078V13.2812C32.3125 13.074 32.2302 12.8753 32.0837 12.7288C31.9372 12.5823 31.7385 12.5 31.5313 12.5H25.2813V10.9375H31.5313ZM22.1563 4.6875C22.1563 4.0659 22.4032 3.46976 22.8428 3.03022C23.2823 2.59068 23.8784 2.34375 24.5 2.34375C25.1216 2.34375 25.7178 2.59068 26.1573 3.03022C26.5969 3.46976 26.8438 4.0659 26.8438 4.6875V6.25H22.1563V4.6875ZM21.375 7.8125H27.625V9.375H24.5C24.2928 9.375 24.0941 9.45731 23.9476 9.60382C23.8011 9.75034 23.7188 9.94905 23.7188 10.1562V12.5H21.375V7.8125ZM16.6875 11.8547V13.2812C16.6875 13.4885 16.7698 13.6872 16.9164 13.8337C17.0629 13.9802 17.2616 14.0625 17.4688 14.0625H23.7188V15.625H17.4688C17.2616 15.625 17.0629 15.7073 16.9164 15.8538C16.7698 16.0003 16.6875 16.199 16.6875 16.4062V17.8328L13.2008 14.8438L16.6875 11.8547ZM15.125 28.9062C14.7106 28.9062 14.3132 28.7416 14.0202 28.4486C13.7272 28.1556 13.5625 27.7582 13.5625 27.3438C13.5625 26.9293 13.7272 26.5319 14.0202 26.2389C14.3132 25.9459 14.7106 25.7812 15.125 25.7812V27.3438C15.1284 27.8676 15.1757 28.3903 15.2664 28.9062H15.125ZM16.6875 27.3438V20.3125H32.3125V27.3438C32.3125 29.4158 31.4894 31.4029 30.0243 32.868C28.5592 34.3331 26.572 35.1562 24.5 35.1562C22.428 35.1562 20.4409 34.3331 18.9758 32.868C17.5106 31.4029 16.6875 29.4158 16.6875 27.3438ZM24.5 36.7188C25.5653 36.7165 26.6223 36.5315 27.625 36.1719V39.4016L24.5 41.2766L21.375 39.4016V36.1719C22.3778 36.5315 23.4348 36.7165 24.5 36.7188ZM20.3821 40.625L23.7188 42.6297V43.2672L21.6422 44.3047L20.4625 42.5352C20.3912 42.4282 20.2945 42.3405 20.1811 42.2799C20.0677 42.2192 19.9411 42.1875 19.8125 42.1875H16.6875V40.9148C17.9103 40.7284 19.1451 40.6315 20.3821 40.625ZM15.125 41.2062V42.9688C15.125 43.1759 15.2073 43.3747 15.3539 43.5212C15.5004 43.6677 15.6991 43.75 15.9063 43.75H19.3946L20.7227 45.7453C20.8283 45.9037 20.9881 46.0182 21.1721 46.0671C21.3561 46.116 21.5516 46.096 21.7219 46.0109L23.7188 45.0133V47.6562H2.918C6.31771 44.4264 10.541 42.1948 15.125 41.2062ZM25.2813 47.6562V45.0133L27.2766 46.0109C27.4469 46.096 27.6424 46.116 27.8264 46.0671C28.0104 46.0182 28.1702 45.9037 28.2758 45.7453L29.6055 43.75H33.0938C33.301 43.75 33.4997 43.6677 33.6462 43.5212C33.7927 43.3747 33.875 43.1759 33.875 42.9688V41.2062C38.459 42.1948 42.6824 44.4264 46.0821 47.6562H25.2813Z" fill="black"/>
<path d="M19.8125 25H21.375V26.5625H19.8125V25ZM27.625 25H29.1875V26.5625H27.625V25ZM22.1563 30.4688H26.8438V32.0312H22.1563V30.4688ZM7.84692 17.9281L9.50396 18.4813L8.89849 20.9031C8.85947 21.0593 8.86968 21.2238 8.92772 21.374C8.98576 21.5242 9.08878 21.6528 9.2227 21.7422L11.5665 23.3047L12.4336 22.0047L10.5477 20.7477L11.1954 18.1562C11.2428 17.9654 11.2166 17.7637 11.1219 17.5914C11.0272 17.4191 10.871 17.2888 10.6844 17.2266L8.34067 16.4453L7.84692 17.9281ZM39.8782 15.6656L37.5344 16.4469C37.3479 16.5091 37.1917 16.6394 37.097 16.8117C37.0023 16.984 36.976 17.1857 37.0235 17.3766L37.6711 19.968L35.7852 21.225L36.6524 22.525L38.9961 20.9625C39.1301 20.8731 39.2331 20.7445 39.2911 20.5943C39.3492 20.4441 39.3594 20.2797 39.3204 20.1234L38.7149 17.7016L40.3719 17.1484L39.8782 15.6656ZM36.6524 8.4625L38.9961 6.9C39.1301 6.8106 39.2331 6.68201 39.2911 6.53181C39.3492 6.38162 39.3594 6.21716 39.3204 6.06094L38.7149 3.63906L40.3719 3.08594L39.8782 1.60156L37.5344 2.38281C37.3479 2.44503 37.1917 2.57531 37.097 2.74764C37.0023 2.91997 36.976 3.12168 37.0235 3.3125L37.6711 5.90391L35.7852 7.1625L36.6524 8.4625ZM12.2469 3.16563L9.90317 2.38438L9.40942 3.86875L11.0665 4.42188L10.461 6.84375C10.422 6.99997 10.4322 7.16443 10.4902 7.31462C10.5483 7.46482 10.6513 7.59341 10.7852 7.68281L13.129 9.24531L13.9961 7.94531L12.1102 6.68672L12.7579 4.09531C12.8053 3.90449 12.7791 3.70278 12.6844 3.53045C12.5897 3.35812 12.4335 3.22785 12.2469 3.16563Z" fill="black"/>
</svg>
