<svg width="16" height="16" viewBox="0 0 16 16" fill="none" xmlns="http://www.w3.org/2000/svg">
<path d="M13 6H3C2.66848 6 2.35054 6.1317 2.11612 6.36612C1.8817 6.60054 1.75 6.91848 1.75 7.25V12.5C1.75 12.8315 1.8817 13.1495 2.11612 13.3839C2.35054 13.6183 2.66848 13.75 3 13.75H13C13.3315 13.75 13.6495 13.6183 13.8839 13.3839C14.1183 13.1495 14.25 12.8315 14.25 12.5V7.25C14.25 6.91848 14.1183 6.60054 13.8839 6.36612C13.6495 6.1317 13.3315 6 13 6ZM12.75 12.25H3.25V7.5H12.75V12.25ZM2.75 4.25C2.75 4.05109 2.82902 3.86032 2.96967 3.71967C3.11032 3.57902 3.30109 3.5 3.5 3.5H12.5C12.6989 3.5 12.8897 3.57902 13.0303 3.71967C13.171 3.86032 13.25 4.05109 13.25 4.25C13.25 4.44891 13.171 4.63968 13.0303 4.78033C12.8897 4.92098 12.6989 5 12.5 5H3.5C3.30109 5 3.11032 4.92098 2.96967 4.78033C2.82902 4.63968 2.75 4.44891 2.75 4.25ZM3.75 1.75C3.75 1.55109 3.82902 1.36032 3.96967 1.21967C4.11032 1.07902 4.30109 1 4.5 1H11.5C11.6989 1 11.8897 1.07902 12.0303 1.21967C12.171 1.36032 12.25 1.55109 12.25 1.75C12.25 1.94891 12.171 2.13968 12.0303 2.28033C11.8897 2.42098 11.6989 2.5 11.5 2.5H4.5C4.30109 2.5 4.11032 2.42098 3.96967 2.28033C3.82902 2.13968 3.75 1.94891 3.75 1.75Z" fill="#555756"/>
</svg>
