<svg width="23" height="25" viewBox="0 0 23 25" fill="none" xmlns="http://www.w3.org/2000/svg">
<path d="M21.1506 3.27369C19.5692 3.10532 18.0128 2.75343 16.5128 2.22512C15.1364 1.73867 13.816 1.106 12.5745 0.337942C12.2506 0.141362 11.8789 0.0374146 11.5 0.0374146C11.1211 0.0374146 10.7494 0.141362 10.4255 0.337942L10.4243 0.339122C9.18303 1.10656 7.86313 1.73883 6.48718 2.22512C4.98794 2.75322 3.43236 3.1051 1.85179 3.27369C1.34407 3.32539 0.873602 3.56367 0.531499 3.94238C0.189396 4.32109 3.02549e-06 4.81328 0 5.32363V11.4511C0.000859504 13.7122 0.605997 15.9319 1.75278 17.8806C2.89955 19.8293 4.5463 21.4361 6.52256 22.5347L10.4974 24.7439C10.8035 24.916 11.1488 25.0065 11.5 25.0065C11.8512 25.0065 12.1965 24.916 12.5026 24.7439L16.4774 22.5347C18.4537 21.4361 20.1004 19.8293 21.2472 17.8806C22.394 15.9319 22.9991 13.7122 23 11.4511V5.32481C23.0006 4.81442 22.8118 4.32196 22.4702 3.94281C22.1285 3.56366 21.6583 3.32598 21.1506 3.27369ZM16.1932 10.353L11.7701 15.0709C11.56 15.2951 11.2706 15.4283 10.9637 15.4421C10.6568 15.456 10.3566 15.3495 10.1271 15.1452L7.47323 12.7862C7.35159 12.6851 7.25154 12.5606 7.17902 12.42C7.1065 12.2794 7.06299 12.1257 7.05109 11.968C7.03919 11.8102 7.05914 11.6517 7.10975 11.5019C7.16036 11.352 7.24059 11.2139 7.34568 11.0956C7.45077 10.9774 7.57856 10.8815 7.72145 10.8137C7.86435 10.7459 8.01943 10.7075 8.17747 10.7008C8.33551 10.6941 8.49327 10.7193 8.64138 10.7748C8.78948 10.8304 8.92491 10.9152 9.03959 11.0241L10.8359 12.6199L14.4735 8.73943C14.5839 8.62201 14.7171 8.52839 14.8649 8.4643C15.0128 8.4002 15.1722 8.367 15.3333 8.36671C15.5634 8.36659 15.7885 8.43378 15.9809 8.56C16.1733 8.68622 16.3246 8.86596 16.4161 9.07708C16.5076 9.2882 16.5354 9.52148 16.496 9.74818C16.4566 9.97488 16.3506 10.1851 16.1932 10.353Z" fill="black"/>
<path d="M21.1506 3.27369C19.5692 3.10532 18.0128 2.75343 16.5128 2.22512C15.1364 1.73867 13.816 1.106 12.5745 0.337942C12.2506 0.141362 11.8789 0.0374146 11.5 0.0374146C11.1211 0.0374146 10.7494 0.141362 10.4255 0.337942L10.4243 0.339122C9.18303 1.10656 7.86313 1.73883 6.48718 2.22512C4.98794 2.75322 3.43236 3.1051 1.85179 3.27369C1.34407 3.32539 0.873602 3.56367 0.531499 3.94238C0.189396 4.32109 3.02549e-06 4.81328 0 5.32363V11.4511C0.000859504 13.7122 0.605997 15.9319 1.75278 17.8806C2.89955 19.8293 4.5463 21.4361 6.52256 22.5347L10.4974 24.7439C10.8035 24.916 11.1488 25.0065 11.5 25.0065C11.8512 25.0065 12.1965 24.916 12.5026 24.7439L16.4774 22.5347C18.4537 21.4361 20.1004 19.8293 21.2472 17.8806C22.394 15.9319 22.9991 13.7122 23 11.4511V5.32481C23.0006 4.81442 22.8118 4.32196 22.4702 3.94281C22.1285 3.56366 21.6583 3.32598 21.1506 3.27369ZM16.1932 10.353L11.7701 15.0709C11.56 15.2951 11.2706 15.4283 10.9637 15.4421C10.6568 15.456 10.3566 15.3495 10.1271 15.1452L7.47323 12.7862C7.35159 12.6851 7.25154 12.5606 7.17902 12.42C7.1065 12.2794 7.06299 12.1257 7.05109 11.968C7.03919 11.8102 7.05914 11.6517 7.10975 11.5019C7.16036 11.352 7.24059 11.2139 7.34568 11.0956C7.45077 10.9774 7.57856 10.8815 7.72145 10.8137C7.86435 10.7459 8.01943 10.7075 8.17747 10.7008C8.33551 10.6941 8.49327 10.7193 8.64138 10.7748C8.78948 10.8304 8.92491 10.9152 9.03959 11.0241L10.8359 12.6199L14.4735 8.73943C14.5839 8.62201 14.7171 8.52839 14.8649 8.4643C15.0128 8.4002 15.1722 8.367 15.3333 8.36671C15.5634 8.36659 15.7885 8.43378 15.9809 8.56C16.1733 8.68622 16.3246 8.86596 16.4161 9.07708C16.5076 9.2882 16.5354 9.52148 16.496 9.74818C16.4566 9.97488 16.3506 10.1851 16.1932 10.353Z" fill="url(#paint0_linear_276_1015)"/>
<defs>
<linearGradient id="paint0_linear_276_1015" x1="0" y1="25.0065" x2="28.0261" y2="16.3949" gradientUnits="userSpaceOnUse">
<stop stop-color="#40D3B6"/>
<stop offset="1" stop-color="#1E8FD3"/>
</linearGradient>
</defs>
</svg>
