<svg width="24" height="22" viewBox="0 0 24 22" fill="none" xmlns="http://www.w3.org/2000/svg">
<path d="M7.62017 8.80469H6.16016V11.7324H7.62017C8.4247 11.7324 9.08018 11.075 9.08018 10.2685C9.08018 9.4618 8.4247 8.80469 7.62017 8.80469Z" fill="#D04424"/>
<path d="M22.9496 2.94936H13.4597V0.753677C13.4597 0.535419 13.3636 0.328943 13.1957 0.189802C13.0291 0.0507632 12.8057 -0.00936185 12.5956 0.0347671L0.915977 2.23045C0.569953 2.29519 0.320312 2.59663 0.320312 2.94936V19.0524C0.320312 19.4038 0.569953 19.7066 0.915977 19.7713L12.5955 21.9671C12.6393 21.9757 12.6846 21.9802 12.7299 21.9802C12.8992 21.9802 13.0641 21.9217 13.1956 21.8117C13.3637 21.6729 13.4597 21.465 13.4597 21.2481V19.0524H22.9496C23.3527 19.0524 23.6795 18.7246 23.6795 18.3203V3.68127C23.6796 3.2772 23.3528 2.94936 22.9496 2.94936ZM7.62017 13.1967H6.16016V15.3928C6.16016 15.7968 5.83297 16.1247 5.43028 16.1247C5.02738 16.1247 4.70015 15.7968 4.70015 15.3928V8.07298C4.70015 7.66892 5.02738 7.34107 5.43028 7.34107H7.62017C9.23039 7.34107 10.5399 8.65422 10.5399 10.269C10.5399 11.8836 9.23039 13.1967 7.62017 13.1967ZM13.4597 7.34092C14.1255 6.4521 15.1855 5.87715 16.3798 5.87715V9.53675H20.0297C20.0297 11.5587 18.396 13.1966 16.3798 13.1966C15.1855 13.1966 14.1255 12.6218 13.4597 11.7329V7.34092ZM20.0297 16.1247H13.4597V14.6607H20.0297C20.4326 14.6607 20.7596 14.9886 20.7596 15.3928C20.7596 15.7968 20.4326 16.1247 20.0297 16.1247ZM17.8397 8.07303V4.41318C19.856 4.41318 21.4895 6.05128 21.4896 8.07303H17.8397Z" fill="#D04424"/>
</svg>
