<svg width="40" height="40" viewBox="0 0 40 40" fill="none" xmlns="http://www.w3.org/2000/svg">
<g clip-path="url(#clip0_282_1430)">
<path d="M14.0476 31.3612L8.07984 34.6164C7.73658 34.8078 7.41539 35.0364 7.12207 35.298C10.7225 38.3412 15.2861 40.0079 20.0003 40.0015C24.8714 40.0015 29.3342 38.2581 32.8038 35.3644C32.4826 35.0882 32.1293 34.8515 31.7517 34.6595L25.3613 31.4646C24.9565 31.2622 24.616 30.9511 24.3781 30.5661C24.1401 30.1811 24.0141 29.7375 24.014 29.2849V26.7776C24.1937 26.5731 24.399 26.3105 24.6186 26.0003C25.4809 24.7749 26.1508 23.4249 26.6051 21.9971C27.4247 21.7442 28.0285 20.9872 28.0285 20.0876V17.4112C28.0285 16.8225 27.7666 16.2965 27.3598 15.9282V12.0593C27.3598 12.0593 28.1546 6.03873 20.0011 6.03873C11.8475 6.03873 12.6423 12.0593 12.6423 12.0593V15.9282C12.4329 16.1145 12.2652 16.3429 12.1499 16.5985C12.0347 16.854 11.9746 17.1309 11.9736 17.4112V20.0876C11.9736 20.7925 12.3442 21.4129 12.8989 21.7714C13.5676 24.6825 15.3186 26.7776 15.3186 26.7776V29.223C15.318 29.6607 15.1998 30.0901 14.9761 30.4663C14.7525 30.8425 14.4318 31.1516 14.0476 31.3612Z" fill="#EEEEEE"/>
<path d="M20.3426 0.00297835C9.29843 -0.185708 0.191667 8.61463 0.00298032 19.6588C-0.104194 25.921 2.68686 31.5491 7.1308 35.2919C7.42138 35.0329 7.73952 34.8066 8.07952 34.6171L14.0473 31.3619C14.4317 31.1522 14.7525 30.8428 14.976 30.4663C15.1995 30.0898 15.3175 29.6601 15.3175 29.2222V26.7768C15.3175 26.7768 13.5658 24.6817 12.8978 21.7706C12.6151 21.5897 12.3823 21.3407 12.2206 21.0466C12.059 20.7524 11.9737 20.4224 11.9725 20.0868V17.4104C11.9725 16.8217 12.2344 16.2957 12.6412 15.9274V12.0585C12.6412 12.0585 11.8465 6.03793 20 6.03793C28.1535 6.03793 27.3588 12.0585 27.3588 12.0585V15.9274C27.7663 16.2957 28.0275 16.8217 28.0275 17.4104V20.0868C28.0275 20.9864 27.4237 21.7434 26.604 21.9963C26.1497 23.4241 25.4798 24.7741 24.6175 25.9995C24.3979 26.3097 24.1926 26.5723 24.013 26.7768V29.2841C24.013 30.2072 24.5345 31.0517 25.3602 31.4638L31.7506 34.6587C32.127 34.8506 32.4792 35.0868 32.7997 35.3621C37.1093 31.768 39.8936 26.3942 39.997 20.3426C40.1872 9.29843 31.3876 0.191665 20.3426 0.00297835Z" fill="#D8D8D8"/>
</g>
<defs>
<clipPath id="clip0_282_1430">
<rect width="40" height="40" fill="white"/>
</clipPath>
</defs>
</svg>
