<svg width="50" height="50" viewBox="0 0 50 50" fill="none" xmlns="http://www.w3.org/2000/svg">
<path d="M35.9375 9.37502C36.3519 9.37502 36.7493 9.2104 37.0424 8.91738C37.3354 8.62435 37.5 8.22692 37.5 7.81252C37.5 7.39812 37.3354 7.00069 37.0424 6.70767C36.7493 6.41464 36.3519 6.25002 35.9375 6.25002H35.8594C35.9132 6.06476 35.9395 5.87261 35.9375 5.67971C35.9375 5.05811 35.6906 4.46197 35.251 4.02243C34.8115 3.58289 34.2154 3.33596 33.5938 3.33596C33.2894 3.33393 32.9878 3.39226 32.7062 3.50759C32.4245 3.62292 32.1686 3.79294 31.9531 4.00783C31.8001 3.33025 31.4257 2.72297 30.889 2.28193C30.3523 1.8409 29.6839 1.59125 28.9896 1.57244C28.2952 1.55362 27.6143 1.76671 27.0545 2.17803C26.4947 2.58936 26.0879 3.17547 25.8984 3.84377C25.683 3.61488 25.4226 3.4329 25.1336 3.30923C24.8445 3.18556 24.5331 3.12285 24.2188 3.12502C23.5971 3.12502 23.001 3.37195 22.5615 3.81149C22.1219 4.25103 21.875 4.84717 21.875 5.46877C21.8726 5.73823 21.9203 6.00578 22.0156 6.25783C21.969 6.25134 21.922 6.24873 21.875 6.25002C21.4606 6.25002 21.0632 6.41464 20.7701 6.70767C20.4771 7.00069 20.3125 7.39812 20.3125 7.81252C20.3125 8.22692 20.4771 8.62435 20.7701 8.91738C21.0632 9.2104 21.4606 9.37502 21.875 9.37502H35.9375Z" fill="#3080C1"/>
<path d="M37.3586 7.17266C37.2227 6.87777 36.999 6.63216 36.718 6.46953C36.4821 6.32784 36.2126 6.25203 35.9375 6.25H35.8594C35.9132 6.06474 35.9395 5.87259 35.9375 5.67969C35.9371 5.2183 35.8006 4.76728 35.545 4.38316C35.2894 3.99904 34.9261 3.69891 34.5006 3.52039C34.0752 3.34186 33.6065 3.29288 33.1533 3.37959C32.7001 3.4663 32.2826 3.68484 31.9531 4.00781C31.862 3.6149 31.6953 3.24343 31.4625 2.91406C30.9438 2.54555 30.3238 2.34636 29.6875 2.34375C29.006 2.344 28.3432 2.56703 27.8002 2.97887C27.2572 3.39072 26.8637 3.96879 26.6797 4.625C26.4642 4.3961 26.2038 4.21413 25.9148 4.09046C25.6258 3.96678 25.3144 3.90407 25 3.90625C24.3784 3.90625 23.7823 4.15318 23.3427 4.59272C22.9032 5.03226 22.6562 5.6284 22.6562 6.25C22.6539 6.51946 22.7016 6.78701 22.7969 7.03906C22.7503 7.03257 22.7033 7.02996 22.6562 7.03125C22.2422 7.03249 21.8455 7.1975 21.5528 7.49026C21.26 7.78302 21.095 8.17973 21.0938 8.59375C21.0945 8.8147 21.1427 9.03291 21.2352 9.23359C21.4358 9.32602 21.6541 9.37424 21.875 9.375H35.9375C36.3515 9.37376 36.7482 9.20875 37.041 8.91599C37.3337 8.62323 37.4988 8.22652 37.5 7.8125C37.4992 7.59155 37.451 7.37334 37.3586 7.17266Z" fill="#3E9FE1"/>
<path d="M28.9062 35V39.8438H29.0109C32.6691 39.8435 36.2869 40.6078 39.6323 42.0878C42.9778 43.5677 45.977 45.7305 48.4375 48.4375H1.5625C4.02304 45.7305 7.02222 43.5677 10.3677 42.0878C13.7131 40.6078 17.3309 39.8435 20.9891 39.8438H21.0938V35H28.9062Z" fill="#25668D"/>
<path d="M29.0109 39.8438H28.9062V35H23.4375V39.8438H23.3328C19.6747 39.8435 16.0568 40.6078 12.7114 42.0878C9.36597 43.5677 6.36679 45.7305 3.90625 48.4375H48.4375C45.977 45.7305 42.9778 43.5677 39.6323 42.0878C36.2869 40.6078 32.6691 39.8435 29.0109 39.8438Z" fill="#3080C1"/>
<path d="M20.3125 42.9688L21.875 45.3125L25 43.75L28.125 45.3125L29.6875 42.9688H33.5938V40.2547C32.0811 39.9838 30.5476 39.8463 29.0109 39.8438H28.9062V35H21.0938V39.8438H20.9891C19.4524 39.8463 17.9189 39.9838 16.4062 40.2547V42.9688H20.3125Z" fill="#3E9FE1"/>
<path d="M28.9062 35V39.8438L25 42.1875L21.0938 39.8438V35H28.9062ZM16.4102 25H15.625C15.0034 25 14.4073 25.2469 13.9677 25.6865C13.5282 26.126 13.2813 26.7221 13.2812 27.3438C13.2813 27.9654 13.5282 28.5615 13.9677 29.001C14.4073 29.4406 15.0034 29.6875 15.625 29.6875H16.7297M33.5938 25H34.375C34.9966 25 35.5927 25.2469 36.0323 25.6865C36.4718 26.126 36.7188 26.7221 36.7188 27.3438C36.7188 27.9654 36.4718 28.5615 36.0323 29.001C35.5927 29.4406 34.9966 29.6875 34.375 29.6875H33.2703" fill="#E0B1AA"/>
<path d="M33.5938 19.5312V27.3438C33.5938 29.623 32.6883 31.8088 31.0767 33.4204C29.4651 35.0321 27.2792 35.9375 25 35.9375C22.7208 35.9375 20.5349 35.0321 18.9233 33.4204C17.3117 31.8088 16.4062 29.623 16.4062 27.3438V19.5312H33.5938Z" fill="#E0B1AA"/>
<path d="M17.1875 26.5625C17.1855 28.2153 17.6606 29.8335 18.5559 31.2228C19.4512 32.6121 20.7286 33.7133 22.2346 34.3943C23.7405 35.0752 25.4111 35.3069 27.0455 35.0616C28.68 34.8162 30.2088 34.1041 31.4484 33.0109C32.8314 31.4471 33.5945 29.4314 33.5938 27.3438V19.5312H17.1875V26.5625Z" fill="#FDE1D5"/>
<path d="M24.2188 40.125H25.7812V48.4375H24.2188V40.125Z" fill="#25668D"/>
<path d="M19.5312 24.2188H22.6562V25.7812H19.5312V24.2188ZM27.3438 24.2188H30.4688V25.7812H27.3438V24.2188ZM26.9945 32.7344L26.1305 32.3023C25.7779 32.1294 25.3904 32.0395 24.9977 32.0395C24.6049 32.0395 24.2174 32.1294 23.8648 32.3023L23.0016 32.7344L22.3031 31.3359L23.1664 30.9047C23.7358 30.6256 24.3616 30.4805 24.9957 30.4805C25.6298 30.4805 26.2556 30.6256 26.825 30.9047L27.6891 31.3359L26.9945 32.7344Z" fill="#E0B1AA"/>
<path d="M22.6562 12.5L21.0938 14.8438L23.4375 17.1875L21.0938 19.5313L25 22.6563V19.5313L27.3438 17.1875L25.7812 14.8438L28.1242 12.4993" fill="#D8B42F"/>
<path d="M21.0938 36.0156V39.8438L25 42.1875L28.9062 39.8438V36.0156C27.6637 36.5069 26.3358 36.7459 25 36.7188C23.6642 36.7459 22.3363 36.5069 21.0938 36.0156Z" fill="#FDE1D5"/>
<path d="M25.7812 14.8438L28.1242 12.4993L25 12.5L23.4375 14.8438L25.7812 17.1875L23.4375 19.5313L25 20.7813V19.5313L27.3437 17.1875L25.7812 14.8438Z" fill="#F9D647"/>
<path d="M28.125 12.5C28.5394 12.5 28.9368 12.3354 29.2299 12.0424C29.5229 11.7494 29.6875 11.3519 29.6875 10.9375C29.6875 10.5231 29.5229 10.1257 29.2299 9.83267C28.9368 9.53964 28.5394 9.37502 28.125 9.37502H28.0469C28.1007 9.18976 28.127 8.99761 28.125 8.80471C28.125 8.18311 27.8781 7.58697 27.4385 7.14743C26.999 6.70789 26.4029 6.46096 25.7812 6.46096C25.4769 6.45893 25.1753 6.51726 24.8937 6.63259C24.612 6.74792 24.3561 6.91794 24.1406 7.13283C23.9876 6.45525 23.6132 5.84797 23.0765 5.40693C22.5398 4.9659 21.8714 4.71625 21.1771 4.69744C20.4827 4.67862 19.8018 4.89171 19.242 5.30303C18.6822 5.71436 18.2754 6.30047 18.0859 6.96877C17.8705 6.73988 17.6101 6.5579 17.3211 6.43423C17.032 6.31056 16.7206 6.24785 16.4062 6.25002C15.7846 6.25002 15.1885 6.49695 14.749 6.93649C14.3094 7.37603 14.0625 7.97217 14.0625 8.59377C14.0601 8.86323 14.1078 9.13078 14.2031 9.38283C14.1565 9.37634 14.1095 9.37373 14.0625 9.37502C13.6481 9.37502 13.2507 9.53964 12.9576 9.83267C12.6646 10.1257 12.5 10.5231 12.5 10.9375C12.5 11.3519 12.6646 11.7494 12.9576 12.0424C13.2507 12.3354 13.6481 12.5 14.0625 12.5H28.125Z" fill="#4DBBEE"/>
<path d="M29.5461 10.2977C29.4102 10.0028 29.1865 9.75716 28.9055 9.59453C28.6696 9.45284 28.4001 9.37703 28.125 9.375H28.0469C28.1007 9.18974 28.127 8.99759 28.125 8.80469C28.1246 8.3433 27.9881 7.89228 27.7325 7.50816C27.4769 7.12404 27.1136 6.82391 26.6881 6.64539C26.2627 6.46686 25.794 6.41788 25.3408 6.50459C24.8876 6.5913 24.4701 6.80984 24.1406 7.13281C24.0495 6.7399 23.8828 6.36843 23.65 6.03906C23.1313 5.67055 22.5113 5.47136 21.875 5.46875C21.1935 5.469 20.5307 5.69203 19.9877 6.10387C19.4447 6.51572 19.0512 7.09379 18.8672 7.75C18.6517 7.5211 18.3913 7.33913 18.1023 7.21546C17.8133 7.09178 17.5019 7.02907 17.1875 7.03125C16.5659 7.03125 15.9698 7.27818 15.5302 7.71772C15.0907 8.15726 14.8438 8.7534 14.8438 9.375C14.8414 9.64446 14.8891 9.91201 14.9844 10.1641C14.9378 10.1576 14.8908 10.155 14.8438 10.1562C14.4297 10.1575 14.033 10.3225 13.7403 10.6153C13.4475 10.908 13.2825 11.3047 13.2812 11.7188C13.282 11.9397 13.3302 12.1579 13.4227 12.3586C13.6233 12.451 13.8416 12.4992 14.0625 12.5H28.125C28.539 12.4988 28.9357 12.3337 29.2285 12.041C29.5212 11.7482 29.6863 11.3515 29.6875 10.9375C29.6867 10.7166 29.6385 10.4983 29.5461 10.2977Z" fill="#A9DBF7"/>
<path d="M29.6875 39.0711V35.45C31.6137 34.3319 33.0809 32.5669 33.8282 30.4688H34.375C35.2038 30.4688 35.9987 30.1396 36.5847 29.5535C37.1708 28.9675 37.5 28.1726 37.5 27.3438C37.5 26.515 37.1708 25.7201 36.5847 25.1341C35.9987 24.548 35.2038 24.2188 34.375 24.2188V19.5313C34.375 19.3241 34.2927 19.1254 34.1462 18.9789C33.9997 18.8324 33.801 18.75 33.5938 18.75H26.886L27.8961 17.7399C28.0239 17.6122 28.1034 17.4441 28.1212 17.2644C28.139 17.0846 28.094 16.9042 27.9938 16.754L26.7868 14.943L28.4836 13.2454C28.8243 13.1948 29.1494 13.0693 29.4356 12.8778C29.7219 12.6864 29.962 12.4338 30.1388 12.1383C30.3155 11.8427 30.4245 11.5117 30.4578 11.1689C30.4911 10.8262 30.4479 10.4803 30.3313 10.1563H35.9375C36.4906 10.1566 37.026 9.96127 37.449 9.60488C37.872 9.24848 38.1553 8.75398 38.2488 8.20884C38.3423 7.6637 38.24 7.10305 37.96 6.62605C37.68 6.14906 37.2404 5.78646 36.7188 5.60239C36.7055 5.08936 36.5664 4.58745 36.3137 4.1408C36.061 3.69414 35.7024 3.31644 35.2694 3.04089C34.8365 2.76535 34.3425 2.60042 33.8308 2.5606C33.3192 2.52078 32.8056 2.6073 32.3352 2.81255C32.001 2.19538 31.5055 1.68048 30.9016 1.32276C30.2978 0.965039 29.6081 0.7779 28.9063 0.781295C28.2367 0.783082 27.5788 0.956351 26.9953 1.28458C26.4117 1.61281 25.9219 2.08506 25.5727 2.6563C24.8595 2.31332 24.0424 2.25498 23.2877 2.49315C22.533 2.73132 21.8974 3.2481 21.5102 3.93833C21.372 3.92044 21.233 3.90975 21.0938 3.9063C20.4242 3.90808 19.7663 4.08135 19.1828 4.40958C18.5992 4.73781 18.1094 5.21006 17.7602 5.7813C17.2841 5.55244 16.7578 5.448 16.2304 5.47773C15.703 5.50746 15.1918 5.67038 14.7444 5.95129C14.2971 6.23219 13.9283 6.62191 13.6724 7.08402C13.4165 7.54614 13.282 8.06557 13.2813 8.5938V8.72661C12.7592 8.91028 12.3189 9.27282 12.0384 9.75001C11.758 10.2272 11.6555 10.7882 11.749 11.3338C11.8426 11.8793 12.1262 12.3741 12.5497 12.7306C12.9731 13.087 13.509 13.2821 14.0625 13.2813H21.1969L20.4438 14.4102C20.3436 14.5605 20.2985 14.7409 20.3163 14.9206C20.3341 15.1004 20.4137 15.2684 20.5414 15.3961L22.3328 17.1875L20.7703 18.75H16.4063C16.1991 18.75 16.0004 18.8324 15.8539 18.9789C15.7073 19.1254 15.625 19.3241 15.625 19.5313V24.2188C14.7962 24.2188 14.0014 24.548 13.4153 25.1341C12.8293 25.7201 12.5 26.515 12.5 27.3438C12.5 28.1726 12.8293 28.9675 13.4153 29.5535C14.0014 30.1396 14.7962 30.4688 15.625 30.4688H16.1719C16.9191 32.5669 18.3863 34.3319 20.3125 35.45V39.0711C16.6613 39.1659 13.0669 39.9979 9.74543 41.5171C6.42393 43.0364 3.44389 45.2115 0.984411 47.9118C0.882515 48.0238 0.815355 48.1629 0.791098 48.3124C0.766841 48.4618 0.786533 48.6151 0.847779 48.7536C0.909024 48.892 1.00918 49.0097 1.13608 49.0923C1.26297 49.1749 1.41113 49.2188 1.56254 49.2188H48.4375C48.5889 49.2188 48.7371 49.1749 48.864 49.0923C48.9909 49.0097 49.091 48.892 49.1523 48.7536C49.2135 48.6151 49.2332 48.4618 49.209 48.3124C49.1847 48.1629 49.1176 48.0238 49.0157 47.9118C46.5562 45.2115 43.5761 43.0364 40.2546 41.5171C36.9331 39.9979 33.3388 39.1659 29.6875 39.0711ZM32.8125 40.9149V42.1875H29.6875C29.5589 42.1875 29.4323 42.2192 29.319 42.2799C29.2056 42.3405 29.1089 42.4282 29.0375 42.5352L27.8578 44.3047L25.7813 43.2672V42.6297L29.118 40.625C30.3549 40.6316 31.5897 40.7284 32.8125 40.9149ZM17.1875 40.9149C18.4103 40.7284 19.6451 40.6316 20.8821 40.625L24.2188 42.6297V43.2672L22.1422 44.3047L20.9625 42.5352C20.8912 42.4282 20.7945 42.3405 20.6811 42.2799C20.5677 42.2192 20.4411 42.1875 20.3125 42.1875H17.1875V40.9149ZM35.9375 27.3438C35.9375 27.7582 35.7729 28.1556 35.4799 28.4487C35.1869 28.7417 34.7894 28.9063 34.375 28.9063H34.2336C34.3244 28.3903 34.3717 27.8677 34.375 27.3438V25.7813C34.7894 25.7813 35.1869 25.9459 35.4799 26.2389C35.7729 26.532 35.9375 26.9294 35.9375 27.3438ZM24.2188 3.9063C24.4256 3.90442 24.6306 3.94506 24.821 4.0257C25.0114 4.10633 25.1832 4.22524 25.3258 4.37505C25.4203 4.47765 25.5405 4.55308 25.674 4.59351C25.8075 4.63395 25.9494 4.6379 26.0849 4.60498C26.2205 4.57205 26.3447 4.50344 26.4448 4.40626C26.5448 4.30909 26.6171 4.1869 26.6539 4.05239C26.7967 3.55173 27.102 3.11285 27.5218 2.80497C27.9416 2.49709 28.452 2.33775 28.9724 2.35208C29.4928 2.36641 29.9936 2.55359 30.3959 2.8841C30.7981 3.21461 31.0788 3.66964 31.1938 4.17739C31.2243 4.31393 31.2909 4.43977 31.3867 4.54177C31.4825 4.64376 31.6039 4.71816 31.7382 4.7572C31.8726 4.79623 32.015 4.79847 32.1505 4.76368C32.286 4.72889 32.4097 4.65835 32.5086 4.55942C32.6514 4.41777 32.8208 4.30577 33.007 4.22988C33.1933 4.15399 33.3927 4.1157 33.5938 4.11723C34.0082 4.11723 34.4056 4.28185 34.6986 4.57488C34.9917 4.8679 35.1563 5.26533 35.1563 5.67973C35.1579 5.7956 35.1429 5.9111 35.1118 6.0227C35.0762 6.13948 35.0686 6.26296 35.0894 6.38323C35.1102 6.50351 35.1589 6.61723 35.2316 6.71529C35.3043 6.81335 35.3989 6.89301 35.5079 6.94788C35.617 7.00276 35.7374 7.03133 35.8594 7.0313H35.9375C36.1447 7.0313 36.3435 7.11361 36.49 7.26012C36.6365 7.40663 36.7188 7.60535 36.7188 7.81255C36.7188 8.01975 36.6365 8.21846 36.49 8.36497C36.3435 8.51149 36.1447 8.5938 35.9375 8.5938H28.8891C28.8557 8.09383 28.7025 7.60924 28.4425 7.18089C28.1825 6.75254 27.8233 6.39299 27.3952 6.13257C26.9671 5.87215 26.4827 5.71848 25.9827 5.68454C25.4828 5.6506 24.9821 5.73737 24.5227 5.93755C24.1848 5.31322 23.6815 4.79399 23.068 4.43676C23.2118 4.2725 23.3886 4.14036 23.5869 4.04897C23.7852 3.95757 24.0005 3.90896 24.2188 3.9063ZM13.2813 10.9375C13.2836 10.7283 13.3687 10.5286 13.5181 10.3821C13.6675 10.2356 13.8689 10.1544 14.0782 10.1563C14.214 10.1783 14.3532 10.164 14.4818 10.1149C14.6103 10.0658 14.7236 9.98359 14.8102 9.87663C14.8968 9.76967 14.9536 9.64174 14.9748 9.50579C14.9961 9.36983 14.9811 9.23067 14.9313 9.10239C14.871 8.93971 14.8413 8.76727 14.8438 8.5938C14.8438 8.17939 15.0084 7.78197 15.3014 7.48894C15.5945 7.19592 15.9919 7.0313 16.4063 7.0313C16.6131 7.02942 16.8181 7.07007 17.0085 7.1507C17.1989 7.23134 17.3707 7.35024 17.5133 7.50005C17.6078 7.60265 17.728 7.67808 17.8615 7.71851C17.995 7.75895 18.1369 7.7629 18.2724 7.72998C18.408 7.69705 18.5322 7.62844 18.6323 7.53126C18.7323 7.43409 18.8046 7.3119 18.8414 7.17739C18.9842 6.67673 19.2895 6.23785 19.7093 5.92997C20.1291 5.62209 20.6395 5.46275 21.1599 5.47708C21.6803 5.49141 22.1811 5.67859 22.5834 6.0091C22.9856 6.33961 23.2663 6.79464 23.3813 7.30239C23.4118 7.43893 23.4784 7.56477 23.5742 7.66677C23.67 7.76876 23.7914 7.84316 23.9257 7.8822C24.0601 7.92123 24.2025 7.92347 24.338 7.88868C24.4735 7.85389 24.5972 7.78335 24.6961 7.68442C24.8389 7.54277 25.0083 7.43077 25.1945 7.35488C25.3808 7.27899 25.5802 7.2407 25.7813 7.24223C26.1957 7.24223 26.5931 7.40685 26.8861 7.69988C27.1792 7.9929 27.3438 8.39033 27.3438 8.80473C27.3454 8.9206 27.3304 9.0361 27.2993 9.1477C27.2637 9.26448 27.2561 9.38796 27.2769 9.50823C27.2977 9.62851 27.3464 9.74223 27.4191 9.84029C27.4918 9.93834 27.5864 10.018 27.6954 10.0729C27.8045 10.1278 27.9249 10.1563 28.0469 10.1563H28.125C28.3322 10.1563 28.531 10.2386 28.6775 10.3851C28.824 10.5316 28.9063 10.7303 28.9063 10.9375C28.9063 11.1447 28.824 11.3435 28.6775 11.49C28.531 11.6365 28.3322 11.7188 28.125 11.7188H14.0625C13.8553 11.7188 13.6566 11.6365 13.5101 11.49C13.3636 11.3435 13.2813 11.1447 13.2813 10.9375ZM23.9899 17.7399C24.1363 17.5934 24.2186 17.3947 24.2186 17.1875C24.2186 16.9804 24.1363 16.7817 23.9899 16.6352L22.0993 14.7446L23.0743 13.2813H26.2383L25.2282 14.2915C25.1005 14.4193 25.0211 14.5873 25.0035 14.7671C24.9858 14.9469 25.031 15.1272 25.1313 15.2774L26.3383 17.0883L24.4477 18.979C24.3012 19.1254 24.2188 19.3241 24.2188 19.5313V21.0305L22.2657 19.468L23.9899 17.7399ZM15.625 28.9063C15.2106 28.9063 14.8132 28.7417 14.5202 28.4487C14.2272 28.1556 14.0625 27.7582 14.0625 27.3438C14.0625 26.9294 14.2272 26.532 14.5202 26.2389C14.8132 25.9459 15.2106 25.7813 15.625 25.7813V27.3438C15.6284 27.8677 15.6757 28.3903 15.7664 28.9063H15.625ZM17.1875 27.3438V20.3125H20.8203L24.5118 23.2665C24.6267 23.3585 24.7652 23.4161 24.9115 23.4328C25.0578 23.4495 25.2058 23.4245 25.3385 23.3607C25.4711 23.297 25.5831 23.197 25.6615 23.0724C25.7398 22.9477 25.7813 22.8035 25.7813 22.6563V20.3125H32.8125V27.3438C32.8125 29.4158 31.9894 31.4029 30.5243 32.8681C29.0592 34.3332 27.072 35.1563 25 35.1563C22.928 35.1563 20.9409 34.3332 19.4758 32.8681C18.0106 31.4029 17.1875 29.4158 17.1875 27.3438ZM25 36.7188C26.0653 36.7166 27.1223 36.5316 28.125 36.1719V39.4016L25 41.2766L21.875 39.4016V36.1719C22.8778 36.5316 23.9348 36.7166 25 36.7188ZM15.625 41.2063V42.9688C15.625 43.176 15.7073 43.3747 15.8539 43.5212C16.0004 43.6677 16.1991 43.75 16.4063 43.75H19.8946L21.2227 45.7454C21.3283 45.904 21.4882 46.0185 21.6724 46.0674C21.8566 46.1164 22.0523 46.0963 22.2227 46.011L24.2188 45.0141V47.6563H3.418C6.81771 44.4264 11.041 42.1949 15.625 41.2063ZM25.7813 47.6563V45.0141L27.7758 46.011C27.9462 46.0963 28.1419 46.1164 28.3261 46.0674C28.5103 46.0185 28.6702 45.904 28.7758 45.7454L30.1055 43.75H33.5938C33.801 43.75 33.9997 43.6677 34.1462 43.5212C34.2927 43.3747 34.375 43.176 34.375 42.9688V41.2063C38.959 42.1949 43.1824 44.4264 46.5821 47.6563H25.7813Z" fill="black"/>
<path d="M19.5312 24.2188H22.6562V25.7812H19.5312V24.2188ZM27.3438 24.2188H30.4688V25.7812H27.3438V24.2188ZM26.1305 32.2984L26.9945 32.7305L27.693 31.332L26.8289 30.9008C26.2595 30.6217 25.6338 30.4766 24.9996 30.4766C24.3655 30.4766 23.7397 30.6217 23.1703 30.9008L22.307 31.332L23.0055 32.7305L23.8688 32.2984C24.2208 32.1261 24.6076 32.0366 24.9996 32.0366C25.3916 32.0366 25.7784 32.1261 26.1305 32.2984Z" fill="black"/>
</svg>
