<svg width="36" height="36" viewBox="0 0 36 36" fill="none" xmlns="http://www.w3.org/2000/svg">
<path d="M1.98921 14.1683C2.11531 14.2196 2.25018 14.246 2.38633 14.2459C2.52719 14.2459 2.66661 14.2177 2.7964 14.163L5.95111 12.8315C6.48752 12.6049 6.7391 11.9863 6.51248 11.4497C6.28587 10.913 5.66761 10.6617 5.1307 10.8882L4.35888 11.2138C6.75337 5.76338 12.1707 2.17969 18.1984 2.17969C25.0901 2.17969 31.1084 6.83979 32.8338 13.5121C32.9566 13.9875 33.3848 14.3031 33.8541 14.3031C33.9415 14.3031 34.0305 14.2921 34.1189 14.2694C34.6828 14.1235 35.022 13.5481 34.8762 12.9842C32.9098 5.38059 26.0517 0.0703125 18.1984 0.0703125C11.291 0.0703125 5.08753 4.20061 2.38275 10.4705L2.02647 9.62677C1.80021 9.09007 1.18167 8.83856 0.644975 9.06511C0.108279 9.29166 -0.143299 9.91027 0.0833184 10.4469L1.41455 13.6013C1.46837 13.7289 1.54683 13.8447 1.64542 13.942C1.74401 14.0392 1.86081 14.1161 1.98914 14.1683H1.98921ZM35.9168 25.4795L34.5856 22.3251C34.4767 22.0674 34.2701 21.8634 34.011 21.7579C33.7518 21.6526 33.4615 21.6546 33.2038 21.7633L30.049 23.0949C29.5123 23.3212 29.261 23.9401 29.4877 24.4767C29.714 25.0134 30.3328 25.2647 30.8692 25.0381L31.7525 24.6654C29.4181 30.2619 23.925 33.9604 17.8018 33.9604C10.91 33.9604 4.89171 29.3003 3.16631 22.6277C3.02048 22.0638 2.44483 21.7252 1.88121 21.8708C1.3173 22.0166 0.978397 22.592 1.12422 23.1559C3.09023 30.7593 9.94844 36.0695 17.8018 36.0695C24.7482 36.0695 30.9826 31.8925 33.6627 25.5632L33.9734 26.2996C34.1434 26.7023 34.5342 26.9445 34.9457 26.9445C35.0821 26.9445 35.2214 26.9176 35.3552 26.861C35.8919 26.6347 36.1432 26.0162 35.9168 25.4795Z" fill="#1E8FD3"/>
<path d="M20.7422 7.10156H15.2578C14.6753 7.10156 14.2031 7.57371 14.2031 8.15597V10.0544H13.3857C12.4409 10.0544 11.6719 10.8303 11.6719 11.784V27.3092C11.6719 28.2629 12.441 29.0388 13.3857 29.0388H22.6143C23.5591 29.0388 24.3281 28.2629 24.3281 27.3092V11.784C24.3281 10.8303 23.559 10.0544 22.6143 10.0544H21.7969V8.15597C21.7969 7.57371 21.3244 7.10156 20.7422 7.10156ZM20.3082 19.0492L17.9412 21.9988C17.7331 22.2585 17.4271 22.3934 17.1181 22.3934C16.8865 22.3934 16.6533 22.3176 16.4586 22.1614C16.0044 21.7969 15.9315 21.1331 16.296 20.6788L17.287 19.4439H16.5141C16.1098 19.4439 15.7409 19.2126 15.5649 18.8484C15.4785 18.67 15.4442 18.4708 15.4658 18.2738C15.4875 18.0768 15.5643 17.8898 15.6874 17.7344L17.8992 14.942C18.2609 14.4852 18.9243 14.4083 19.3807 14.77C19.8375 15.1317 19.9143 15.7951 19.5526 16.2515L18.6948 17.3345H19.4856C19.6845 17.3344 19.8792 17.3906 20.0475 17.4965C20.2158 17.6023 20.3507 17.7536 20.4367 17.9329C20.5227 18.1121 20.5563 18.3121 20.5336 18.5096C20.5109 18.7071 20.4328 18.8942 20.3083 19.0492H20.3082Z" fill="#1E8FD3"/>
</svg>
