<svg width="26" height="26" viewBox="0 0 26 26" fill="none" xmlns="http://www.w3.org/2000/svg">
<g clip-path="url(#clip0_158_582)">
<path d="M13 0.8125C10.5895 0.8125 8.23322 1.52728 6.22899 2.86646C4.22477 4.20564 2.66267 6.10907 1.74022 8.33605C0.817781 10.563 0.576427 13.0135 1.04668 15.3777C1.51694 17.7418 2.67769 19.9134 4.38214 21.6179C6.08659 23.3223 8.2582 24.4831 10.6223 24.9533C12.9865 25.4236 15.437 25.1822 17.664 24.2598C19.8909 23.3373 21.7944 21.7752 23.1335 19.771C24.4727 17.7668 25.1875 15.4105 25.1875 13C25.1835 9.7689 23.8982 6.67127 21.6135 4.38653C19.3287 2.10179 16.2311 0.816478 13 0.8125ZM12.9797 4.875C13.8265 4.87511 14.6387 5.21156 15.2375 5.81036C15.8363 6.40917 16.1727 7.22129 16.1728 8.06813C15.9981 12.3013 9.96126 12.3013 9.78657 8.06813C9.78668 7.22129 10.1231 6.40917 10.7219 5.81036C11.3207 5.21156 12.1329 4.87511 12.9797 4.875ZM16.7538 20.2556C16.7526 20.4865 16.66 20.7076 16.4964 20.8705C16.3327 21.0334 16.1112 21.1249 15.8803 21.125H10.0791C9.84815 21.1249 9.62667 21.0334 9.463 20.8705C9.29934 20.7076 9.20681 20.4865 9.20563 20.2556V16.1728C9.26986 16.1856 9.33514 16.1924 9.40063 16.1931H16.5994C16.6511 16.1931 16.7027 16.189 16.7538 16.1809V20.2556ZM17.1803 15.0312C17.1798 15.1584 17.1378 15.2818 17.0609 15.383C16.9839 15.4841 16.8761 15.5575 16.7538 15.5919C16.7033 15.6046 16.6515 15.6114 16.5994 15.6122H9.40063C9.32423 15.6126 9.24852 15.5978 9.17787 15.5687C9.10722 15.5397 9.04303 15.4969 8.98901 15.4429C8.93499 15.3889 8.89221 15.3247 8.86315 15.254C8.83409 15.1834 8.81932 15.1076 8.81969 15.0312V14.4503C8.81969 14.2962 8.8809 14.1485 8.98985 14.0395C9.09879 13.9306 9.24656 13.8694 9.40063 13.8694H11.3019C11.1175 13.809 10.9484 13.7095 10.806 13.5777C10.6637 13.4458 10.5515 13.2848 10.4772 13.1056C10.2172 12.5369 10.4 11.5822 11.1353 11.5334C11.2659 11.5224 11.3971 11.5468 11.515 11.604C11.633 11.6612 11.7334 11.7491 11.8056 11.8584L12.9756 13.5728L14.1416 11.8584C14.2165 11.7507 14.3182 11.6642 14.4365 11.6075C14.5549 11.5507 14.6859 11.5256 14.8169 11.5346C14.9479 11.5436 15.0743 11.5864 15.1837 11.6588C15.2932 11.7312 15.382 11.8308 15.4416 11.9478C15.5284 12.1242 15.5766 12.3171 15.5831 12.5136C15.5897 12.7101 15.5543 12.9057 15.4793 13.0875C15.4044 13.2692 15.2916 13.433 15.1485 13.5678C15.0054 13.7026 14.8353 13.8054 14.6494 13.8694H16.5994C16.7535 13.8694 16.9012 13.9306 17.0102 14.0395C17.1191 14.1485 17.1803 14.2962 17.1803 14.4503V15.0312Z" fill="#323131"/>
<path d="M13 0.8125C10.5895 0.8125 8.23322 1.52728 6.22899 2.86646C4.22477 4.20564 2.66267 6.10907 1.74022 8.33605C0.817781 10.563 0.576427 13.0135 1.04668 15.3777C1.51694 17.7418 2.67769 19.9134 4.38214 21.6179C6.08659 23.3223 8.2582 24.4831 10.6223 24.9533C12.9865 25.4236 15.437 25.1822 17.664 24.2598C19.8909 23.3373 21.7944 21.7752 23.1335 19.771C24.4727 17.7668 25.1875 15.4105 25.1875 13C25.1835 9.7689 23.8982 6.67127 21.6135 4.38653C19.3287 2.10179 16.2311 0.816478 13 0.8125ZM12.9797 4.875C13.8265 4.87511 14.6387 5.21156 15.2375 5.81036C15.8363 6.40917 16.1727 7.22129 16.1728 8.06813C15.9981 12.3013 9.96126 12.3013 9.78657 8.06813C9.78668 7.22129 10.1231 6.40917 10.7219 5.81036C11.3207 5.21156 12.1329 4.87511 12.9797 4.875ZM16.7538 20.2556C16.7526 20.4865 16.66 20.7076 16.4964 20.8705C16.3327 21.0334 16.1112 21.1249 15.8803 21.125H10.0791C9.84815 21.1249 9.62667 21.0334 9.463 20.8705C9.29934 20.7076 9.20681 20.4865 9.20563 20.2556V16.1728C9.26986 16.1856 9.33514 16.1924 9.40063 16.1931H16.5994C16.6511 16.1931 16.7027 16.189 16.7538 16.1809V20.2556ZM17.1803 15.0312C17.1798 15.1584 17.1378 15.2818 17.0609 15.383C16.9839 15.4841 16.8761 15.5575 16.7538 15.5919C16.7033 15.6046 16.6515 15.6114 16.5994 15.6122H9.40063C9.32423 15.6126 9.24852 15.5978 9.17787 15.5687C9.10722 15.5397 9.04303 15.4969 8.98901 15.4429C8.93499 15.3889 8.89221 15.3247 8.86315 15.254C8.83409 15.1834 8.81932 15.1076 8.81969 15.0312V14.4503C8.81969 14.2962 8.8809 14.1485 8.98985 14.0395C9.09879 13.9306 9.24656 13.8694 9.40063 13.8694H11.3019C11.1175 13.809 10.9484 13.7095 10.806 13.5777C10.6637 13.4458 10.5515 13.2848 10.4772 13.1056C10.2172 12.5369 10.4 11.5822 11.1353 11.5334C11.2659 11.5224 11.3971 11.5468 11.515 11.604C11.633 11.6612 11.7334 11.7491 11.8056 11.8584L12.9756 13.5728L14.1416 11.8584C14.2165 11.7507 14.3182 11.6642 14.4365 11.6075C14.5549 11.5507 14.6859 11.5256 14.8169 11.5346C14.9479 11.5436 15.0743 11.5864 15.1837 11.6588C15.2932 11.7312 15.382 11.8308 15.4416 11.9478C15.5284 12.1242 15.5766 12.3171 15.5831 12.5136C15.5897 12.7101 15.5543 12.9057 15.4793 13.0875C15.4044 13.2692 15.2916 13.433 15.1485 13.5678C15.0054 13.7026 14.8353 13.8054 14.6494 13.8694H16.5994C16.7535 13.8694 16.9012 13.9306 17.0102 14.0395C17.1191 14.1485 17.1803 14.2962 17.1803 14.4503V15.0312Z" fill="url(#paint0_linear_158_582)"/>
<path d="M11.1758 12.1103C11.1451 12.1105 11.1151 12.1193 11.0892 12.1359C11.0633 12.1524 11.0427 12.176 11.0296 12.2038C10.9786 12.308 10.9506 12.422 10.9475 12.538C10.9445 12.654 10.9665 12.7693 11.0119 12.876C11.0574 12.9828 11.1253 13.0785 11.2111 13.1567C11.2969 13.2349 11.3985 13.2937 11.509 13.3291L12.2687 13.5688L11.3302 12.1834C11.3131 12.1589 11.2898 12.1392 11.2627 12.1264C11.2357 12.1136 11.2057 12.108 11.1758 12.1103ZM14.9458 12.8781C15.0393 12.6709 15.0515 12.1469 14.7671 12.1103C14.7386 12.1096 14.7103 12.1159 14.6848 12.1286C14.6593 12.1414 14.6374 12.1602 14.6208 12.1834L13.6824 13.5688C14.0724 13.4225 14.7874 13.3453 14.9458 12.8781ZM11.8462 8.57188L11.643 9.20563C11.6078 9.30971 11.607 9.42234 11.6406 9.52693C11.6743 9.63153 11.7406 9.72254 11.8299 9.78657C11.9188 9.85191 12.0263 9.88715 12.1366 9.88715C12.247 9.88715 12.3544 9.85191 12.4433 9.78657L12.9796 9.39657L13.5158 9.78657C13.6056 9.84998 13.7127 9.88403 13.8226 9.88403C13.9324 9.88403 14.0396 9.84998 14.1293 9.78657C14.2186 9.72254 14.2849 9.63153 14.3186 9.52693C14.3522 9.42234 14.3514 9.30971 14.3162 9.20563L14.113 8.57188L14.6493 8.18188C14.7368 8.11655 14.8017 8.02548 14.8348 7.92142C14.868 7.81736 14.8678 7.70553 14.8342 7.60161C14.8006 7.4977 14.7353 7.40689 14.6475 7.34194C14.5597 7.27698 14.4538 7.24112 14.3446 7.23938H13.6783L13.4752 6.60563C13.4405 6.50161 13.374 6.41114 13.2851 6.34702C13.1961 6.28291 13.0892 6.24841 12.9796 6.24841C12.8699 6.24841 12.7631 6.28291 12.6741 6.34702C12.5852 6.41114 12.5186 6.50161 12.484 6.60563L12.2808 7.23938H11.6146C11.5045 7.23932 11.3973 7.27417 11.3082 7.33891C11.2192 7.40366 11.153 7.49497 11.1191 7.59971C11.0853 7.70446 11.0855 7.81724 11.1198 7.92184C11.1541 8.02645 11.2206 8.11749 11.3099 8.18188L11.8462 8.57188ZM12.3255 7.82032C12.4352 7.81985 12.5419 7.78459 12.6302 7.71961C12.7185 7.65464 12.784 7.5633 12.8171 7.45876L12.9796 6.96313L13.1421 7.45876C13.1753 7.56327 13.2407 7.65457 13.329 7.71953C13.4174 7.7845 13.524 7.81979 13.6337 7.82032H14.1618L13.7352 8.12907C13.3493 8.40532 13.6052 8.86032 13.7108 9.20563C13.4143 9.00251 13.0527 8.61251 12.6749 8.90095L12.2483 9.20563L12.4108 8.71001C12.5652 8.25907 12.0899 8.04376 11.7974 7.82032H12.3255Z" fill="#323131"/>
<path d="M11.1758 12.1103C11.1451 12.1105 11.1151 12.1193 11.0892 12.1359C11.0633 12.1524 11.0427 12.176 11.0296 12.2038C10.9786 12.308 10.9506 12.422 10.9475 12.538C10.9445 12.654 10.9665 12.7693 11.0119 12.876C11.0574 12.9828 11.1253 13.0785 11.2111 13.1567C11.2969 13.2349 11.3985 13.2937 11.509 13.3291L12.2687 13.5688L11.3302 12.1834C11.3131 12.1589 11.2898 12.1392 11.2627 12.1264C11.2357 12.1136 11.2057 12.108 11.1758 12.1103ZM14.9458 12.8781C15.0393 12.6709 15.0515 12.1469 14.7671 12.1103C14.7386 12.1096 14.7103 12.1159 14.6848 12.1286C14.6593 12.1414 14.6374 12.1602 14.6208 12.1834L13.6824 13.5688C14.0724 13.4225 14.7874 13.3453 14.9458 12.8781ZM11.8462 8.57188L11.643 9.20563C11.6078 9.30971 11.607 9.42234 11.6406 9.52693C11.6743 9.63153 11.7406 9.72254 11.8299 9.78657C11.9188 9.85191 12.0263 9.88715 12.1366 9.88715C12.247 9.88715 12.3544 9.85191 12.4433 9.78657L12.9796 9.39657L13.5158 9.78657C13.6056 9.84998 13.7127 9.88403 13.8226 9.88403C13.9324 9.88403 14.0396 9.84998 14.1293 9.78657C14.2186 9.72254 14.2849 9.63153 14.3186 9.52693C14.3522 9.42234 14.3514 9.30971 14.3162 9.20563L14.113 8.57188L14.6493 8.18188C14.7368 8.11655 14.8017 8.02548 14.8348 7.92142C14.868 7.81736 14.8678 7.70553 14.8342 7.60161C14.8006 7.4977 14.7353 7.40689 14.6475 7.34194C14.5597 7.27698 14.4538 7.24112 14.3446 7.23938H13.6783L13.4752 6.60563C13.4405 6.50161 13.374 6.41114 13.2851 6.34702C13.1961 6.28291 13.0892 6.24841 12.9796 6.24841C12.8699 6.24841 12.7631 6.28291 12.6741 6.34702C12.5852 6.41114 12.5186 6.50161 12.484 6.60563L12.2808 7.23938H11.6146C11.5045 7.23932 11.3973 7.27417 11.3082 7.33891C11.2192 7.40366 11.153 7.49497 11.1191 7.59971C11.0853 7.70446 11.0855 7.81724 11.1198 7.92184C11.1541 8.02645 11.2206 8.11749 11.3099 8.18188L11.8462 8.57188ZM12.3255 7.82032C12.4352 7.81985 12.5419 7.78459 12.6302 7.71961C12.7185 7.65464 12.784 7.5633 12.8171 7.45876L12.9796 6.96313L13.1421 7.45876C13.1753 7.56327 13.2407 7.65457 13.329 7.71953C13.4174 7.7845 13.524 7.81979 13.6337 7.82032H14.1618L13.7352 8.12907C13.3493 8.40532 13.6052 8.86032 13.7108 9.20563C13.4143 9.00251 13.0527 8.61251 12.6749 8.90095L12.2483 9.20563L12.4108 8.71001C12.5652 8.25907 12.0899 8.04376 11.7974 7.82032H12.3255Z" fill="url(#paint1_linear_158_582)"/>
</g>
<defs>
<linearGradient id="paint0_linear_158_582" x1="0.8125" y1="25.1875" x2="30.0636" y2="15.4301" gradientUnits="userSpaceOnUse">
<stop stop-color="#40D3B6"/>
<stop offset="1" stop-color="#1E8FD3"/>
</linearGradient>
<linearGradient id="paint1_linear_158_582" x1="10.9473" y1="13.5688" x2="16.1801" y2="12.6011" gradientUnits="userSpaceOnUse">
<stop stop-color="#40D3B6"/>
<stop offset="1" stop-color="#1E8FD3"/>
</linearGradient>
<clipPath id="clip0_158_582">
<rect width="26" height="26" fill="white"/>
</clipPath>
</defs>
</svg>
