<svg width="78" height="78" viewBox="0 0 78 78" fill="none" xmlns="http://www.w3.org/2000/svg">
<g filter="url(#filter0_d_17_3)">
<path d="M54 10H24C18.4772 10 14 14.4772 14 20V50C14 55.5228 18.4772 60 24 60H54C59.5228 60 64 55.5228 64 50V20C64 14.4772 59.5228 10 54 10Z" fill="white" fill-opacity="0.4"/>
<path d="M54 10.5H24C18.7533 10.5 14.5 14.7533 14.5 20V50C14.5 55.2467 18.7533 59.5 24 59.5H54C59.2467 59.5 63.5 55.2467 63.5 50V20C63.5 14.7533 59.2467 10.5 54 10.5Z" stroke="white" stroke-opacity="0.4"/>
<mask id="mask0_17_3" style="mask-type:luminance" maskUnits="userSpaceOnUse" x="21" y="17" width="38" height="37">
<path d="M58.934 18.991L23.9907 17L21.9997 51.9433L56.9431 53.9343L58.934 18.991Z" fill="white"/>
</mask>
<g mask="url(#mask0_17_3)">
<path d="M25.1446 33.0516C26.2218 26.4522 31.4204 21.3497 37.8618 20.2794L36.8303 19.3091C36.4988 18.9747 36.4957 18.4136 36.8301 18.0821C37.1275 17.7835 37.6207 17.7415 37.9912 18.008L40.4266 20.1801C40.5933 20.3298 40.6862 20.5455 40.7072 20.792C40.7282 21.0386 40.6444 21.2793 40.4947 21.446L38.3226 23.8814C38.1359 24.0811 37.8834 24.2069 37.6058 24.1561C37.1166 24.1282 36.7541 23.7219 36.782 23.2327C36.794 23.0231 36.8758 22.8174 36.9886 22.6836L37.5116 22.1174C32.0797 23.3154 27.8334 27.7009 26.8818 33.3259C26.821 33.7782 26.4187 34.0707 25.9645 34.0449L25.8946 34.0409C25.4074 33.9781 25.0818 33.5388 25.1446 33.0516ZM38.2209 49.0464C32.559 48.1278 28.1775 43.8116 27.0165 38.3467L27.6835 38.9456C28.0499 39.282 28.613 39.2439 28.9144 38.8755C29.2508 38.509 29.2128 37.946 28.8444 37.6445L26.411 35.4375C26.2442 35.2878 26.0036 35.204 25.7919 35.227C25.5453 35.248 25.3297 35.3409 25.18 35.5076L23.0079 37.943C22.8602 38.0748 22.8133 38.2825 22.8014 38.4921C22.7385 38.9794 23.101 39.3856 23.5902 39.4135C23.8698 39.4294 24.1203 39.3385 24.307 39.1388L25.2054 38.1383C26.3106 44.5816 31.3822 49.7084 37.9816 50.7856L38.0515 50.7895C38.5387 50.8524 38.9799 50.4919 39.0078 50.0027C39.0686 49.5504 38.7082 49.1092 38.2209 49.0464ZM54.9636 36.9943C54.4764 36.9314 54.0372 37.257 53.9414 37.7073C53.0249 43.3342 48.7436 47.7178 43.3116 48.9157L43.9475 48.2158C44.2839 47.8493 44.2458 47.2862 43.8774 46.9848C43.5109 46.6484 42.9478 46.6864 42.6464 47.0549L40.5871 49.3565C40.3326 49.5172 40.1769 49.7888 40.1959 50.0704C40.176 50.4198 40.4047 50.7133 40.6762 50.869L42.9429 52.9263C43.0767 53.039 43.2824 53.1209 43.492 53.1328C43.7716 53.1488 44.0221 53.0579 44.1739 52.8562C44.5103 52.4897 44.4722 51.9266 44.1038 51.6252L43.1362 50.7637C49.5116 49.6196 54.6035 44.546 55.6766 38.0165C55.7764 37.4963 55.4509 37.0571 54.9636 36.9943ZM57.8731 32.0768C57.5066 31.7404 56.9435 31.7784 56.6421 32.1469L55.7068 33.1803C54.6774 26.6362 49.5788 21.3676 42.9115 20.2516C42.4263 20.1538 41.9521 20.4774 41.8893 20.9646C41.8265 21.4518 42.152 21.891 42.6023 21.9868C48.3321 22.9443 52.7796 27.3344 53.8648 32.9001L53.2327 32.3032C52.8662 31.9668 52.3032 32.0048 52.0017 32.3733C51.7003 32.7417 51.7033 33.3028 52.0718 33.6043L54.5072 35.7763C54.641 35.8891 54.8467 35.9709 55.0563 35.9829C55.3359 35.9988 55.5864 35.9079 55.7731 35.7082L57.9452 33.2728C58.2446 32.9393 58.2415 32.3782 57.8731 32.0768ZM39.9474 44.5874C34.8806 44.2987 30.9922 39.9404 31.2809 34.8736C31.5696 29.8069 35.9279 25.9185 40.9946 26.2072C46.0614 26.4959 49.9498 30.8541 49.6611 35.9209C49.3704 41.0226 45.0142 44.876 39.9474 44.5874ZM43.2558 37.5892C43.3474 35.9818 42.1282 34.6153 40.5208 34.5237C39.8918 34.4878 39.3975 33.9338 39.4334 33.3048C39.4692 32.6759 40.0232 32.1816 40.6522 32.2174C41.2812 32.2533 41.7755 32.8073 41.7396 33.4362C41.7117 33.9255 42.0742 34.3317 42.5634 34.3596C43.0526 34.3875 43.4589 34.025 43.4868 33.5358C43.5605 32.2429 42.8205 31.0789 41.6193 30.6249L41.6273 30.4851C41.6552 29.9959 41.2927 29.5896 40.8035 29.5617C40.3143 29.5338 39.908 29.8963 39.8801 30.3855L39.8722 30.5253C38.6273 30.84 37.7229 31.9453 37.6493 33.2382C37.5926 34.8476 38.8119 36.2142 40.4212 36.2708C41.0133 36.3396 41.4417 36.8198 41.4428 37.4158C41.4419 38.0468 40.9208 38.578 40.2898 38.5771C39.6609 38.5413 39.1666 37.9872 39.2024 37.3583C39.2303 36.8691 38.8678 36.4628 38.3786 36.4349C37.8894 36.407 37.4831 36.7695 37.4552 37.2587C37.3836 38.5167 38.1585 39.6826 39.3247 40.1347L39.3147 40.3094C39.2868 40.7986 39.6493 41.2049 40.1385 41.2328C40.6277 41.2607 41.034 40.8982 41.0619 40.409L41.0718 40.2343C42.3168 39.9196 43.1842 38.8472 43.2558 37.5892Z" fill="white"/>
</g>
</g>
<defs>
<filter id="filter0_d_17_3" x="0" y="0" width="78" height="78" filterUnits="userSpaceOnUse" color-interpolation-filters="sRGB">
<feFlood flood-opacity="0" result="BackgroundImageFix"/>
<feColorMatrix in="SourceAlpha" type="matrix" values="0 0 0 0 0 0 0 0 0 0 0 0 0 0 0 0 0 0 127 0" result="hardAlpha"/>
<feOffset dy="4"/>
<feGaussianBlur stdDeviation="7"/>
<feComposite in2="hardAlpha" operator="out"/>
<feColorMatrix type="matrix" values="0 0 0 0 0.117647 0 0 0 0 0.560784 0 0 0 0 0.827451 0 0 0 0.4 0"/>
<feBlend mode="normal" in2="BackgroundImageFix" result="effect1_dropShadow_17_3"/>
<feBlend mode="normal" in="SourceGraphic" in2="effect1_dropShadow_17_3" result="shape"/>
</filter>
</defs>
</svg>
