<svg width="25" height="26" viewBox="0 0 25 26" fill="none" xmlns="http://www.w3.org/2000/svg">
<path d="M12.5022 1.36719C9.28513 1.37158 6.2011 2.6515 3.9263 4.9263C1.6515 7.2011 0.371581 10.2851 0.367188 13.5022C1.03695 29.6004 23.97 29.5958 24.6372 13.5022C24.6328 10.2851 23.3529 7.2011 21.0781 4.9263C18.8033 2.6515 15.7192 1.37158 12.5022 1.36719ZM12.5022 20.5277C9.82908 20.4434 9.82993 16.5666 12.5022 16.4827C15.1753 16.567 15.1744 20.4438 12.5022 20.5277ZM14.9973 9.1932L14.5928 13.8769C14.5474 14.4004 14.3072 14.8878 13.9198 15.2428C13.5323 15.5978 13.0257 15.7944 12.5002 15.7939C11.9747 15.7933 11.4686 15.5957 11.0818 15.2399C10.6951 14.8842 10.4559 14.3962 10.4116 13.8726L10.0071 9.1932C9.97737 8.84809 10.02 8.50059 10.1321 8.17288C10.2443 7.84517 10.4236 7.54445 10.6585 7.28992C12.2246 5.53141 15.226 6.85647 14.9973 9.1932Z" fill="#323131"/>
<path d="M12.5022 1.36719C9.28513 1.37158 6.2011 2.6515 3.9263 4.9263C1.6515 7.2011 0.371581 10.2851 0.367188 13.5022C1.03695 29.6004 23.97 29.5958 24.6372 13.5022C24.6328 10.2851 23.3529 7.2011 21.0781 4.9263C18.8033 2.6515 15.7192 1.37158 12.5022 1.36719ZM12.5022 20.5277C9.82908 20.4434 9.82993 16.5666 12.5022 16.4827C15.1753 16.567 15.1744 20.4438 12.5022 20.5277ZM14.9973 9.1932L14.5928 13.8769C14.5474 14.4004 14.3072 14.8878 13.9198 15.2428C13.5323 15.5978 13.0257 15.7944 12.5002 15.7939C11.9747 15.7933 11.4686 15.5957 11.0818 15.2399C10.6951 14.8842 10.4559 14.3962 10.4116 13.8726L10.0071 9.1932C9.97737 8.84809 10.02 8.50059 10.1321 8.17288C10.2443 7.84517 10.4236 7.54445 10.6585 7.28992C12.2246 5.53141 15.226 6.85647 14.9973 9.1932Z" fill="url(#paint0_linear_158_646)"/>
<path d="M13.7248 9.08669L13.3203 13.7661C13.2996 13.9685 13.2045 14.1561 13.0535 14.2925C12.9025 14.4288 12.7062 14.5043 12.5028 14.5043C12.2993 14.5043 12.103 14.4288 11.952 14.2925C11.801 14.1561 11.7059 13.9685 11.6853 13.7661L11.2808 9.08669C11.2682 8.91854 11.2905 8.7496 11.3462 8.59046C11.4019 8.43131 11.4899 8.28538 11.6046 8.16178C11.7193 8.03819 11.8582 7.9396 12.0128 7.87218C12.1673 7.80476 12.3341 7.76996 12.5028 7.76996C12.6714 7.76996 12.8382 7.80476 12.9927 7.87218C13.1473 7.9396 13.2863 8.03819 13.401 8.16178C13.5157 8.28538 13.6036 8.43131 13.6594 8.59046C13.7151 8.7496 13.7373 8.91854 13.7248 9.08669ZM13.2479 18.5051C13.2479 18.7028 13.1694 18.8923 13.0297 19.032C12.8899 19.1718 12.7004 19.2503 12.5028 19.2503C12.3051 19.2503 12.1156 19.1718 11.9759 19.032C11.8361 18.8923 11.7576 18.7028 11.7576 18.5051C11.7576 18.3075 11.8361 18.118 11.9759 17.9783C12.1156 17.8385 12.3051 17.76 12.5028 17.76C12.7004 17.76 12.8899 17.8385 13.0297 17.9783C13.1694 18.118 13.2479 18.3075 13.2479 18.5051Z" fill="#323131"/>
<path d="M13.7248 9.08669L13.3203 13.7661C13.2996 13.9685 13.2045 14.1561 13.0535 14.2925C12.9025 14.4288 12.7062 14.5043 12.5028 14.5043C12.2993 14.5043 12.103 14.4288 11.952 14.2925C11.801 14.1561 11.7059 13.9685 11.6853 13.7661L11.2808 9.08669C11.2682 8.91854 11.2905 8.7496 11.3462 8.59046C11.4019 8.43131 11.4899 8.28538 11.6046 8.16178C11.7193 8.03819 11.8582 7.9396 12.0128 7.87218C12.1673 7.80476 12.3341 7.76996 12.5028 7.76996C12.6714 7.76996 12.8382 7.80476 12.9927 7.87218C13.1473 7.9396 13.2863 8.03819 13.401 8.16178C13.5157 8.28538 13.6036 8.43131 13.6594 8.59046C13.7151 8.7496 13.7373 8.91854 13.7248 9.08669ZM13.2479 18.5051C13.2479 18.7028 13.1694 18.8923 13.0297 19.032C12.8899 19.1718 12.7004 19.2503 12.5028 19.2503C12.3051 19.2503 12.1156 19.1718 11.9759 19.032C11.8361 18.8923 11.7576 18.7028 11.7576 18.5051C11.7576 18.3075 11.8361 18.118 11.9759 17.9783C12.1156 17.8385 12.3051 17.76 12.5028 17.76C12.7004 17.76 12.8899 17.8385 13.0297 17.9783C13.1694 18.118 13.2479 18.3075 13.2479 18.5051Z" fill="url(#paint1_linear_158_646)"/>
<defs>
<linearGradient id="paint0_linear_158_646" x1="0.367188" y1="25.5741" x2="29.477" y2="15.8386" gradientUnits="userSpaceOnUse">
<stop stop-color="#40D3B6"/>
<stop offset="1" stop-color="#1E8FD3"/>
</linearGradient>
<linearGradient id="paint1_linear_158_646" x1="11.2773" y1="19.2503" x2="14.5292" y2="19.0187" gradientUnits="userSpaceOnUse">
<stop stop-color="#40D3B6"/>
<stop offset="1" stop-color="#1E8FD3"/>
</linearGradient>
</defs>
</svg>
