<svg width="18" height="36" viewBox="0 0 18 36" fill="none" xmlns="http://www.w3.org/2000/svg">
<path d="M11.8344 6.81255C8.18381 10.1013 12.3276 14.8475 16.0638 11.8719C19.7176 8.57317 15.5638 3.85317 11.8344 6.81255Z" fill="#1E8FD3"/>
<path d="M17.7501 18.525C17.7173 18.2139 17.6225 17.9125 17.4711 17.6388C17.3197 17.365 17.1149 17.1244 16.8689 16.9312L10.9626 12.1187C10.9545 12.1169 9.46699 10.835 9.46886 10.825C8.66699 10.0062 8.62136 8.65687 8.50636 7.58749C8.48835 7.42143 8.52744 7.25419 8.61719 7.11332C8.70694 6.97244 8.842 6.86634 9.00011 6.81249L13.5314 5.28124C14.1452 5.0774 14.6538 4.63956 14.9466 4.06286C15.2395 3.48615 15.2929 2.81718 15.0953 2.2013C14.8977 1.58543 14.465 1.07242 13.8913 0.773752C13.3176 0.475083 12.6492 0.414886 12.0314 0.606242L5.75636 2.49999C5.11492 2.69311 4.55303 3.08826 4.15435 3.62659C3.75567 4.16491 3.54155 4.81762 3.54386 5.48749V12.6125L0.268863 32.5312C0.168453 33.1574 0.313499 33.7982 0.673787 34.3201C1.03407 34.842 1.58182 35.2048 2.20294 35.3329C2.82405 35.461 3.47063 35.3445 4.008 35.0077C4.54537 34.6709 4.9321 34.1398 5.08761 33.525L7.08136 25.3625L9.94386 33.7437C11.1607 36.9912 15.9476 35.2937 14.8126 32L12.5501 25.9875L17.2376 20.2687C17.4347 20.0268 17.5816 19.7479 17.6696 19.4485C17.7576 19.1491 17.785 18.8351 17.7501 18.525ZM10.2064 17.3312L12.5751 19.225L10.8064 21.35C10.3176 20.1056 9.81074 18.6362 10.2064 17.3312Z" fill="#1E8FD3"/>
</svg>
