<svg width="25" height="25" viewBox="0 0 25 25" fill="none" xmlns="http://www.w3.org/2000/svg">
<g clip-path="url(#clip0_158_564)">
<path d="M2.08333 15.1042H11.7188V25H3.90625C2.90625 25 2.08333 24.1771 2.08333 23.1771V15.1042ZM22.9167 15.1042V23.1771C22.9167 24.1771 22.0938 25 21.0938 25H13.2812V15.1042H22.9167ZM0 9.11457V11.7187C0 12.7187 0.822917 13.5417 1.82292 13.5417H11.7188V7.29166H1.82292C0.822917 7.29166 0 8.11457 0 9.11457ZM23.1771 7.29166H13.2812V13.5417H23.1771C24.1771 13.5417 25 12.7187 25 11.7187V9.11457C25 8.11457 24.1771 7.29166 23.1771 7.29166Z" fill="#323131"/>
<path d="M2.08333 15.1042H11.7188V25H3.90625C2.90625 25 2.08333 24.1771 2.08333 23.1771V15.1042ZM22.9167 15.1042V23.1771C22.9167 24.1771 22.0938 25 21.0938 25H13.2812V15.1042H22.9167ZM0 9.11457V11.7187C0 12.7187 0.822917 13.5417 1.82292 13.5417H11.7188V7.29166H1.82292C0.822917 7.29166 0 8.11457 0 9.11457ZM23.1771 7.29166H13.2812V13.5417H23.1771C24.1771 13.5417 25 12.7187 25 11.7187V9.11457C25 8.11457 24.1771 7.29166 23.1771 7.29166Z" fill="url(#paint0_linear_158_564)"/>
<path d="M12.4998 8.37917C12.3876 8.37884 12.2768 8.35442 12.1749 8.30756C12.0729 8.2607 11.9823 8.19249 11.909 8.10755C11.8357 8.02261 11.7815 7.92293 11.7501 7.81523C11.7187 7.70754 11.7108 7.59436 11.7269 7.48334C12.1123 4.87917 14.1467 -0.046875 19.0925 -0.046875C21.9154 -0.0458333 22.9165 1.47917 22.9165 2.78542C22.9165 5.10729 19.6842 8.37917 12.4998 8.37917ZM19.0925 1.51667C15.3612 1.51667 13.9446 5.06354 13.4748 6.79375C16.4185 6.65625 18.2748 5.91146 19.3435 5.27708C20.8258 4.39688 21.354 3.4125 21.354 2.78438C21.354 1.84896 20.1862 1.51667 19.0925 1.51667Z" fill="#323131"/>
<path d="M12.4998 8.37917C12.3876 8.37884 12.2768 8.35442 12.1749 8.30756C12.0729 8.2607 11.9823 8.19249 11.909 8.10755C11.8357 8.02261 11.7815 7.92293 11.7501 7.81523C11.7187 7.70754 11.7108 7.59436 11.7269 7.48334C12.1123 4.87917 14.1467 -0.046875 19.0925 -0.046875C21.9154 -0.0458333 22.9165 1.47917 22.9165 2.78542C22.9165 5.10729 19.6842 8.37917 12.4998 8.37917ZM19.0925 1.51667C15.3612 1.51667 13.9446 5.06354 13.4748 6.79375C16.4185 6.65625 18.2748 5.91146 19.3435 5.27708C20.8258 4.39688 21.354 3.4125 21.354 2.78438C21.354 1.84896 20.1862 1.51667 19.0925 1.51667Z" fill="url(#paint1_linear_158_564)"/>
<path d="M12.5011 8.37916C5.31676 8.37916 2.08447 5.10729 2.08447 2.78541C2.08447 1.47916 3.08656 -0.0458374 5.90947 -0.0458374C10.8543 -0.0458374 12.8886 4.8802 13.2741 7.48437C13.29 7.59531 13.282 7.70838 13.2505 7.81595C13.219 7.92351 13.1648 8.02307 13.0915 8.10789C13.0182 8.19271 12.9276 8.26082 12.8258 8.30762C12.7239 8.35441 12.6132 8.37881 12.5011 8.37916ZM5.90947 1.51666C4.81572 1.51666 3.64697 1.85 3.64697 2.78541C3.64697 4.11562 5.97301 6.53958 11.5251 6.79479C11.0563 5.06354 9.63968 1.51666 5.90947 1.51666Z" fill="#323131"/>
<path d="M12.5011 8.37916C5.31676 8.37916 2.08447 5.10729 2.08447 2.78541C2.08447 1.47916 3.08656 -0.0458374 5.90947 -0.0458374C10.8543 -0.0458374 12.8886 4.8802 13.2741 7.48437C13.29 7.59531 13.282 7.70838 13.2505 7.81595C13.219 7.92351 13.1648 8.02307 13.0915 8.10789C13.0182 8.19271 12.9276 8.26082 12.8258 8.30762C12.7239 8.35441 12.6132 8.37881 12.5011 8.37916ZM5.90947 1.51666C4.81572 1.51666 3.64697 1.85 3.64697 2.78541C3.64697 4.11562 5.97301 6.53958 11.5251 6.79479C11.0563 5.06354 9.63968 1.51666 5.90947 1.51666Z" fill="url(#paint2_linear_158_564)"/>
</g>
<defs>
<linearGradient id="paint0_linear_158_564" x1="0" y1="25" x2="27.2877" y2="12.1495" gradientUnits="userSpaceOnUse">
<stop stop-color="#40D3B6"/>
<stop offset="1" stop-color="#1E8FD3"/>
</linearGradient>
<linearGradient id="paint1_linear_158_564" x1="11.7188" y1="8.37917" x2="24.1991" y2="2.84663" gradientUnits="userSpaceOnUse">
<stop stop-color="#40D3B6"/>
<stop offset="1" stop-color="#1E8FD3"/>
</linearGradient>
<linearGradient id="paint2_linear_158_564" x1="2.08447" y1="8.37916" x2="14.5642" y2="2.84629" gradientUnits="userSpaceOnUse">
<stop stop-color="#40D3B6"/>
<stop offset="1" stop-color="#1E8FD3"/>
</linearGradient>
<clipPath id="clip0_158_564">
<rect width="25" height="25" fill="white"/>
</clipPath>
</defs>
</svg>
