<svg width="40" height="40" viewBox="0 0 40 40" fill="none" xmlns="http://www.w3.org/2000/svg">
<rect width="40" height="40" rx="20" fill="white" fill-opacity="0.1"/>
<rect x="0.25" y="0.25" width="39.5" height="39.5" rx="19.75" stroke="url(#paint0_linear_208_4184)" stroke-opacity="0.5" stroke-width="0.5"/>
<g clip-path="url(#clip0_208_4184)">
<path fill-rule="evenodd" clip-rule="evenodd" d="M21.9601 12.5157C21.9601 12.5157 22.5175 14.1329 22.5175 14.1321C22.9808 14.3307 23.4187 14.5837 23.8221 14.886L25.5017 14.56C25.6967 14.5221 25.8976 14.5913 26.0286 14.7409C26.7097 15.5221 27.2326 16.4282 27.5683 17.4087C27.6 17.5012 27.6069 17.6005 27.5882 17.6965C27.5695 17.7924 27.526 17.8818 27.4619 17.9557C27.4619 17.9557 26.3404 19.2469 26.3404 19.2461C26.3999 19.7467 26.3999 20.2525 26.3404 20.7531L27.4619 22.0442C27.526 22.1181 27.5695 22.2075 27.5882 22.3035C27.6069 22.3995 27.6 22.4987 27.5683 22.5912C27.2326 23.5718 26.7097 24.4778 26.0286 25.2591C25.8976 25.4087 25.6967 25.4779 25.5017 25.4399C25.5017 25.4399 23.8221 25.114 23.8228 25.114C23.4191 25.4159 22.9809 25.6688 22.5175 25.8671L21.9601 27.4842C21.9283 27.5766 21.8728 27.6591 21.7991 27.7233C21.7255 27.7876 21.6363 27.8314 21.5404 27.8503C20.5231 28.0498 19.4768 28.0498 18.4595 27.8503C18.3636 27.8314 18.2744 27.7876 18.2007 27.7233C18.1271 27.6591 18.0716 27.5766 18.0397 27.4842C18.0397 27.4842 17.4824 25.8671 17.4824 25.8678C17.0191 25.6693 16.5811 25.4162 16.1778 25.114L14.4982 25.44C14.3032 25.478 14.1023 25.4087 13.9713 25.2591C13.2902 24.4779 12.7673 23.5718 12.4316 22.5912C12.3998 22.4987 12.393 22.3995 12.4116 22.3035C12.4303 22.2075 12.4739 22.1181 12.538 22.0443C12.538 22.0443 13.6595 20.7531 13.6595 20.7538C13.5999 20.2533 13.5999 19.7474 13.6595 19.2469L12.538 17.9557C12.4739 17.8818 12.4303 17.7924 12.4117 17.6965C12.393 17.6005 12.3998 17.5013 12.4316 17.4087C12.7673 16.4282 13.2902 15.5221 13.9713 14.7408C14.1022 14.5912 14.3032 14.522 14.4981 14.56C14.4981 14.56 16.1778 14.886 16.177 14.886C16.5807 14.584 17.0189 14.3312 17.4823 14.1328L18.0397 12.5157C18.0715 12.4233 18.127 12.3409 18.2007 12.2766C18.2743 12.2124 18.3636 12.1686 18.4594 12.1496C19.4767 11.9502 20.5231 11.9502 21.5404 12.1496C21.6362 12.1686 21.7255 12.2124 21.7991 12.2766C21.8728 12.3409 21.9283 12.4233 21.9601 12.5157ZM19.9999 16.71C18.1841 16.71 16.7099 18.1842 16.7099 20C16.7099 21.8159 18.1841 23.2901 19.9999 23.2901C21.8158 23.2901 23.29 21.8158 23.29 20C23.29 18.1842 21.8157 16.71 19.9999 16.71ZM19.9999 17.8262C21.1996 17.8262 22.1737 18.8004 22.1737 20C22.1737 21.1996 21.1996 22.1738 19.9999 22.1738C18.8003 22.1738 17.8262 21.1996 17.8262 20C17.8262 18.8004 18.8003 17.8262 19.9999 17.8262Z" fill="#323131"/>
</g>
<defs>
<linearGradient id="paint0_linear_208_4184" x1="0" y1="0" x2="40" y2="40" gradientUnits="userSpaceOnUse">
<stop stop-color="#40D3B6"/>
<stop offset="1" stop-color="#1E8FD3"/>
</linearGradient>
<clipPath id="clip0_208_4184">
<rect width="16" height="16" fill="white" transform="translate(12 12)"/>
</clipPath>
</defs>
</svg>
