<svg width="40" height="40" viewBox="0 0 40 40" fill="none" xmlns="http://www.w3.org/2000/svg">
<path d="M31.875 3.75H8.125C6.63367 3.75165 5.20389 4.34482 4.14935 5.39935C3.09482 6.45389 2.50165 7.88366 2.5 9.375V24.375C2.50165 25.8663 3.09482 27.2961 4.14935 28.3506C5.20389 29.4052 6.63367 29.9983 8.125 30H10V35C9.99994 35.2377 10.0676 35.4704 10.1952 35.671C10.3227 35.8716 10.5047 36.0316 10.72 36.1324C10.9352 36.2332 11.1747 36.2705 11.4105 36.24C11.6462 36.2095 11.8683 36.1124 12.0508 35.9602L19.1984 30H31.875C33.3663 29.9983 34.7961 29.4052 35.8506 28.3506C36.9052 27.2961 37.4983 25.8663 37.5 24.375V9.375C37.4983 7.88366 36.9052 6.45389 35.8506 5.39935C34.7961 4.34482 33.3663 3.75165 31.875 3.75ZM12.5 19.375C12.0055 19.375 11.5222 19.2284 11.1111 18.9537C10.7 18.679 10.3795 18.2885 10.1903 17.8317C10.0011 17.3749 9.95157 16.8722 10.048 16.3873C10.1445 15.9023 10.3826 15.4569 10.7322 15.1072C11.0819 14.7576 11.5273 14.5195 12.0123 14.423C12.4972 14.3266 12.9999 14.3761 13.4567 14.5653C13.9135 14.7545 14.304 15.075 14.5787 15.4861C14.8534 15.8972 15 16.3805 15 16.875C15 17.538 14.7366 18.1739 14.2678 18.6428C13.7989 19.1116 13.163 19.375 12.5 19.375ZM20 19.375C19.5055 19.375 19.0222 19.2284 18.6111 18.9537C18.2 18.679 17.8795 18.2885 17.6903 17.8317C17.5011 17.3749 17.4516 16.8722 17.548 16.3873C17.6445 15.9023 17.8826 15.4569 18.2322 15.1072C18.5819 14.7576 19.0273 14.5195 19.5123 14.423C19.9972 14.3266 20.4999 14.3761 20.9567 14.5653C21.4135 14.7545 21.804 15.075 22.0787 15.4861C22.3534 15.8972 22.5 16.3805 22.5 16.875C22.5 17.538 22.2366 18.1739 21.7678 18.6428C21.2989 19.1116 20.663 19.375 20 19.375ZM27.5 19.375C27.0055 19.375 26.5222 19.2284 26.1111 18.9537C25.7 18.679 25.3795 18.2885 25.1903 17.8317C25.0011 17.3749 24.9516 16.8722 25.048 16.3873C25.1445 15.9023 25.3826 15.4569 25.7322 15.1072C26.0819 14.7576 26.5273 14.5195 27.0123 14.423C27.4972 14.3266 27.9999 14.3761 28.4567 14.5653C28.9135 14.7545 29.304 15.075 29.5787 15.4861C29.8534 15.8972 30 16.3805 30 16.875C30 17.538 29.7366 18.1739 29.2678 18.6428C28.7989 19.1116 28.163 19.375 27.5 19.375Z" fill="black"/>
<path d="M31.875 3.75H8.125C6.63367 3.75165 5.20389 4.34482 4.14935 5.39935C3.09482 6.45389 2.50165 7.88366 2.5 9.375V24.375C2.50165 25.8663 3.09482 27.2961 4.14935 28.3506C5.20389 29.4052 6.63367 29.9983 8.125 30H10V35C9.99994 35.2377 10.0676 35.4704 10.1952 35.671C10.3227 35.8716 10.5047 36.0316 10.72 36.1324C10.9352 36.2332 11.1747 36.2705 11.4105 36.24C11.6462 36.2095 11.8683 36.1124 12.0508 35.9602L19.1984 30H31.875C33.3663 29.9983 34.7961 29.4052 35.8506 28.3506C36.9052 27.2961 37.4983 25.8663 37.5 24.375V9.375C37.4983 7.88366 36.9052 6.45389 35.8506 5.39935C34.7961 4.34482 33.3663 3.75165 31.875 3.75ZM12.5 19.375C12.0055 19.375 11.5222 19.2284 11.1111 18.9537C10.7 18.679 10.3795 18.2885 10.1903 17.8317C10.0011 17.3749 9.95157 16.8722 10.048 16.3873C10.1445 15.9023 10.3826 15.4569 10.7322 15.1072C11.0819 14.7576 11.5273 14.5195 12.0123 14.423C12.4972 14.3266 12.9999 14.3761 13.4567 14.5653C13.9135 14.7545 14.304 15.075 14.5787 15.4861C14.8534 15.8972 15 16.3805 15 16.875C15 17.538 14.7366 18.1739 14.2678 18.6428C13.7989 19.1116 13.163 19.375 12.5 19.375ZM20 19.375C19.5055 19.375 19.0222 19.2284 18.6111 18.9537C18.2 18.679 17.8795 18.2885 17.6903 17.8317C17.5011 17.3749 17.4516 16.8722 17.548 16.3873C17.6445 15.9023 17.8826 15.4569 18.2322 15.1072C18.5819 14.7576 19.0273 14.5195 19.5123 14.423C19.9972 14.3266 20.4999 14.3761 20.9567 14.5653C21.4135 14.7545 21.804 15.075 22.0787 15.4861C22.3534 15.8972 22.5 16.3805 22.5 16.875C22.5 17.538 22.2366 18.1739 21.7678 18.6428C21.2989 19.1116 20.663 19.375 20 19.375ZM27.5 19.375C27.0055 19.375 26.5222 19.2284 26.1111 18.9537C25.7 18.679 25.3795 18.2885 25.1903 17.8317C25.0011 17.3749 24.9516 16.8722 25.048 16.3873C25.1445 15.9023 25.3826 15.4569 25.7322 15.1072C26.0819 14.7576 26.5273 14.5195 27.0123 14.423C27.4972 14.3266 27.9999 14.3761 28.4567 14.5653C28.9135 14.7545 29.304 15.075 29.5787 15.4861C29.8534 15.8972 30 16.3805 30 16.875C30 17.538 29.7366 18.1739 29.2678 18.6428C28.7989 19.1116 28.163 19.375 27.5 19.375Z" fill="url(#paint0_linear_255_1722)"/>
<defs>
<linearGradient id="paint0_linear_255_1722" x1="2.5" y1="36.2503" x2="43.8403" y2="21.3997" gradientUnits="userSpaceOnUse">
<stop stop-color="#40D3B6"/>
<stop offset="1" stop-color="#1E8FD3"/>
</linearGradient>
</defs>
</svg>
