<svg width="47" height="48" viewBox="0 0 47 48" fill="none" xmlns="http://www.w3.org/2000/svg">
<path fill-rule="evenodd" clip-rule="evenodd" d="M9.88906 42.5636V47.0392C9.88906 47.1692 9.94071 47.2939 10.0326 47.3858C10.1246 47.4777 10.2493 47.5294 10.3793 47.5294H20.5479C20.6779 47.5294 20.8026 47.4777 20.8945 47.3858C20.9864 47.2939 21.0381 47.1692 21.0381 47.0392V42.5636C20.9892 38.0438 27.5468 36.2656 27.067 25.8504C26.7999 20.0209 23.187 15.2546 14.9658 15.6949C8.57377 16.0373 4.39828 20.736 4.39828 26.876L0.762788 33.5521C0.426023 34.1712 0.856905 34.9427 1.57004 34.9427H4.39828V36.5327C4.39828 39.6395 6.08798 42.5636 9.88906 42.5636Z" fill="#D5A889"/>
<path fill-rule="evenodd" clip-rule="evenodd" d="M12.586 11.9285C11.3376 12.7341 9.78389 13.212 8.10065 13.212C3.98644 13.212 0.64624 10.3573 0.64624 6.84127C0.64624 3.32519 3.98644 0.470581 8.10065 0.470581C12.2148 0.470581 15.555 3.32519 15.555 6.84127C15.555 7.95225 15.2215 8.99715 14.6356 9.90686L16.4931 12.4313C16.5557 12.5164 16.5892 12.6194 16.5885 12.725C16.5878 12.8307 16.553 12.9333 16.4892 13.0175C16.4255 13.1018 16.3362 13.1632 16.2348 13.1926C16.1333 13.222 16.0251 13.2179 15.9261 13.1808L12.586 11.9285Z" fill="#FDCD56"/>
<path fill-rule="evenodd" clip-rule="evenodd" d="M10.3754 4.28308C10.4398 4.28307 10.5036 4.29574 10.563 4.32037C10.6225 4.345 10.6766 4.38111 10.7221 4.42663C10.7676 4.47215 10.8037 4.52619 10.8283 4.58567C10.853 4.64515 10.8656 4.7089 10.8656 4.77328V9.4571C10.8656 9.5871 10.814 9.71177 10.722 9.80369C10.6301 9.89562 10.5054 9.94727 10.3754 9.9473H5.69161C5.5616 9.9473 5.43692 9.89565 5.34499 9.80372C5.25306 9.71179 5.20142 9.58711 5.20142 9.4571V4.77328C5.20139 4.7089 5.21405 4.64514 5.23868 4.58566C5.2633 4.52617 5.29941 4.47212 5.34493 4.4266C5.39046 4.38107 5.44451 4.34497 5.50399 4.32034C5.56348 4.29572 5.62723 4.28306 5.69161 4.28308H10.3754Z" fill="#F4F6F8"/>
<path fill-rule="evenodd" clip-rule="evenodd" d="M25.6289 11.9285C26.8773 12.7341 28.431 13.212 30.1144 13.212C34.2285 13.212 37.5687 10.3573 37.5687 6.84127C37.5687 3.32519 34.2285 0.470581 30.1144 0.470581C26.0001 0.470581 22.66 3.32519 22.66 6.84127C22.66 7.95225 22.9934 8.99715 23.5794 9.90686L21.7219 12.4313C21.6592 12.5163 21.6256 12.6194 21.6262 12.7251C21.6269 12.8308 21.6616 12.9334 21.7254 13.0177C21.7892 13.102 21.8785 13.1635 21.98 13.1929C22.0815 13.2222 22.1898 13.218 22.2888 13.1808L25.6289 11.9285Z" fill="#F76C82"/>
<path fill-rule="evenodd" clip-rule="evenodd" d="M29.7843 3.6569C29.8273 3.58237 29.8892 3.52047 29.9637 3.47744C30.0383 3.4344 30.1228 3.41174 30.2089 3.41174C30.2949 3.41174 30.3795 3.4344 30.454 3.47744C30.5285 3.52047 30.5904 3.58237 30.6334 3.6569L33.5625 8.73043C33.6056 8.80495 33.6283 8.88948 33.6283 8.97554C33.6283 9.0616 33.6057 9.14614 33.5626 9.22067C33.5196 9.2952 33.4577 9.35709 33.3832 9.40011C33.3086 9.44312 33.2241 9.46576 33.138 9.46573H27.2797C27.1937 9.46568 27.1092 9.44301 27.0347 9.39998C26.9602 9.35694 26.8983 9.29507 26.8553 9.22057C26.8123 9.14607 26.7896 9.06156 26.7896 8.97553C26.7895 8.8895 26.8121 8.80497 26.8551 8.73043L29.7843 3.6569Z" fill="#F4F6F8"/>
<path fill-rule="evenodd" clip-rule="evenodd" d="M34.414 25.2177C35.6624 26.0232 37.2161 26.5011 38.8994 26.5011C43.0136 26.5011 46.3538 23.6465 46.3538 20.1305C46.3538 16.6144 43.0136 13.7598 38.8994 13.7598C34.7852 13.7598 31.445 16.6144 31.445 20.1305C31.445 21.2413 31.7785 22.2863 32.3645 23.196L30.6045 24.2825C30.514 24.3384 30.4441 24.4221 30.4054 24.5212C30.3667 24.6202 30.3613 24.7292 30.3899 24.8316C30.4186 24.934 30.4797 25.0243 30.5641 25.0889C30.6486 25.1535 30.7518 25.1889 30.8581 25.1898L34.414 25.2177Z" fill="#C6EA94"/>
<path d="M39.0777 23.4638C40.9187 23.4638 42.4111 21.9714 42.4111 20.1305C42.4111 18.2895 40.9187 16.7971 39.0777 16.7971C37.2368 16.7971 35.7444 18.2895 35.7444 20.1305C35.7444 21.9714 37.2368 23.4638 39.0777 23.4638Z" fill="#F4F6F8"/>
<path fill-rule="evenodd" clip-rule="evenodd" d="M13.1483 30.3633C13.3397 30.2701 13.5169 30.15 13.6742 30.0066C13.7357 29.9506 13.7337 29.8565 13.6744 29.7967C13.6024 29.724 13.4833 29.7169 13.4085 29.785C12.9996 30.1578 12.4295 30.3486 11.8425 30.2466C10.8251 30.07 10.1583 29.0943 10.3345 28.0793C10.3768 27.833 10.4677 27.5977 10.6019 27.387C10.7361 27.1762 10.9109 26.9944 11.1162 26.8519C11.1323 26.8409 11.146 26.8266 11.1564 26.8101C11.1669 26.7936 11.1738 26.7751 11.1768 26.7557C11.1798 26.7364 11.1788 26.7167 11.1738 26.6978C11.1689 26.6789 11.1602 26.6611 11.1482 26.6457C11.1178 26.6064 11.0736 26.5802 11.0245 26.5723C10.9754 26.5645 10.9252 26.5757 10.8841 26.6036C10.512 26.8623 10.2189 27.235 10.0651 27.6821C10.0442 27.743 10.0085 27.7978 9.96139 27.8416C9.91425 27.8855 9.85704 27.917 9.79481 27.9336C9.73258 27.9501 9.66724 27.951 9.60456 27.9363C9.54188 27.9216 9.48379 27.8916 9.43541 27.8492C9.19395 27.6361 9.01125 27.3646 8.9048 27.0607C8.79835 26.7568 8.77172 26.4306 8.82747 26.1135C9.00345 25.0998 10.0128 24.4163 10.9775 24.5839L21.0983 26.3413C22.0914 26.5138 22.7815 27.4923 22.6054 28.5061C22.439 29.4646 21.5761 30.1354 20.625 30.0586C20.529 30.0508 20.4393 30.0081 20.3728 29.9384C20.3064 29.8687 20.2679 29.7771 20.2646 29.6808C20.2482 29.1877 20.0841 28.7215 19.8103 28.3324C19.7516 28.249 19.6339 28.2265 19.5479 28.2816C19.5313 28.292 19.517 28.3056 19.5058 28.3216C19.4947 28.3377 19.487 28.3559 19.4831 28.3751C19.4793 28.3942 19.4794 28.414 19.4835 28.4331C19.4876 28.4522 19.4955 28.4703 19.5069 28.4862C19.6732 28.7223 19.7912 28.989 19.8541 29.2709C19.917 29.5527 19.9236 29.8443 19.8734 30.1287C19.6677 31.314 18.5484 32.1207 17.3603 31.9145C16.1733 31.7083 15.3917 30.5714 15.5975 29.3861C15.6131 29.2964 15.5401 29.2178 15.4464 29.2015C15.3528 29.1852 15.2576 29.2347 15.242 29.3244C15.146 29.8726 15.238 30.4371 15.5031 30.9265C15.5296 30.9757 15.5454 31.0299 15.5492 31.0857C15.5531 31.1414 15.545 31.1973 15.5255 31.2497C15.506 31.302 15.4755 31.3496 15.4361 31.3892C15.3967 31.4288 15.3493 31.4596 15.2971 31.4794C14.9417 31.6146 14.5565 31.6514 14.182 31.5859C13.7497 31.5113 13.3513 31.304 13.0421 30.9928C12.998 30.9485 12.9652 30.8944 12.9462 30.8349C12.9273 30.7754 12.9229 30.7123 12.9332 30.6507C12.9436 30.5892 12.9686 30.531 13.0059 30.481C13.0433 30.431 13.0921 30.3906 13.1483 30.3633ZM11.2165 21.0519C11.2105 21.5248 11.3607 21.9745 11.6239 22.3435C11.6832 22.4266 11.801 22.4485 11.8867 22.3928C11.9032 22.3823 11.9174 22.3686 11.9284 22.3525C11.9394 22.3363 11.947 22.3181 11.9507 22.2989C11.9544 22.2797 11.9541 22.2599 11.9499 22.2408C11.9457 22.2217 11.9376 22.2037 11.9261 22.1879C11.7809 21.9846 11.6776 21.7544 11.6223 21.5108C11.567 21.2671 11.5608 21.0149 11.604 20.7689C11.7802 19.7539 12.7371 19.0601 13.7544 19.2368C14.3414 19.3388 14.8138 19.7105 15.0734 20.1984C15.121 20.2876 15.2355 20.321 15.3278 20.2768C15.4037 20.2403 15.4372 20.1524 15.3981 20.079C15.2982 19.8914 15.1721 19.7191 15.0234 19.5672C14.9797 19.5226 14.9473 19.4681 14.9289 19.4084C14.9105 19.3487 14.9066 19.2855 14.9176 19.224C14.9285 19.1625 14.954 19.1045 14.992 19.0549C15.0299 19.0052 15.0791 18.9653 15.1356 18.9386C15.5316 18.75 15.9764 18.6892 16.4084 18.7647C16.7831 18.8293 17.1334 18.9939 17.4224 19.2409C17.4649 19.2772 17.4992 19.3221 17.5229 19.3727C17.5466 19.4233 17.5593 19.4784 17.56 19.5342C17.5607 19.5901 17.5494 19.6455 17.527 19.6967C17.5045 19.7478 17.4714 19.7936 17.4298 19.8309C17.0153 20.2023 16.7384 20.7027 16.6438 21.2511C16.6283 21.3408 16.7013 21.4195 16.7949 21.4357C16.8886 21.452 16.9838 21.4026 16.9994 21.3129C17.2052 20.1276 18.3244 19.3207 19.5114 19.5269C20.6995 19.7332 21.4813 20.8701 21.2754 22.0554C21.2267 22.3401 21.1222 22.6123 20.968 22.8565C20.8137 23.1006 20.6127 23.3119 20.3766 23.4781C20.3605 23.4893 20.3469 23.5036 20.3366 23.5202C20.3263 23.5368 20.3196 23.5554 20.3167 23.5747C20.3139 23.5941 20.315 23.6138 20.3201 23.6327C20.3252 23.6516 20.334 23.6692 20.3462 23.6846C20.4086 23.7655 20.527 23.784 20.6104 23.7252C20.9994 23.4512 21.3109 23.0676 21.4927 22.609C21.5281 22.5194 21.5953 22.4461 21.6813 22.4029C21.7674 22.3597 21.8664 22.3497 21.9593 22.3748C22.8807 22.6231 23.4669 23.5455 23.3004 24.5041C23.1243 25.5178 22.1447 26.2064 21.1516 26.034L11.0308 24.2764C10.0662 24.1089 9.34639 23.1252 9.52237 22.1115C9.57683 21.7941 9.71187 21.4961 9.91455 21.2458C10.1172 20.9956 10.3808 20.8016 10.6799 20.6824C10.7398 20.6587 10.8046 20.6501 10.8686 20.6573C10.9325 20.6646 10.9937 20.6875 11.0468 20.724C11.0998 20.7605 11.143 20.8096 11.1726 20.8667C11.2022 20.9239 11.2173 20.9875 11.2165 21.0519Z" fill="#EB5463"/>
<path fill-rule="evenodd" clip-rule="evenodd" d="M15.8945 31.9994C15.3307 32.2911 14.6866 32.3896 14.0614 32.2797C13.6627 32.2113 13.2828 32.0602 12.9461 31.8362C12.6094 31.6121 12.3233 31.32 12.1063 30.9787C11.9774 30.9752 11.8489 30.9624 11.7219 30.9403C10.5915 30.744 9.7506 29.8514 9.58443 28.7804C8.53041 28.3062 7.87913 27.1726 8.08541 25.9846C8.22688 25.17 8.76364 24.5193 9.45051 24.1602C8.92492 23.5907 8.63894 22.7972 8.78041 21.9825C8.98668 20.7945 9.98198 19.9468 11.1342 19.8557C11.6517 18.9035 12.7443 18.3466 13.8747 18.5429C14.0036 18.5653 14.1288 18.5967 14.2496 18.6364C14.569 18.3883 14.9368 18.2097 15.3293 18.1123C15.7219 18.0149 16.1305 18.0007 16.5288 18.0707C17.1546 18.178 17.7277 18.4879 18.1601 18.9527C18.6324 18.7879 19.139 18.7467 19.6318 18.833C21.0442 19.0783 22.0522 20.2932 22.0599 21.6739C23.3917 21.9826 24.2785 23.2716 24.0422 24.6328C23.9007 25.4475 23.3777 26.1005 22.6947 26.4601C23.2164 27.029 23.4887 27.8201 23.3473 28.6349C23.1109 29.996 21.8413 30.9105 20.4834 30.7522C20.0107 32.0495 18.6522 32.8534 17.2397 32.6081C16.7467 32.5233 16.2837 32.3137 15.8945 31.9994ZM13.3197 30.7158C13.5718 30.9696 13.8965 31.1386 14.2489 31.1995C14.566 31.2546 14.8775 31.2191 15.1579 31.1126C14.8509 30.5459 14.7443 29.8921 14.8555 29.2572C14.9073 28.9591 15.2021 28.761 15.5133 28.8151C15.8247 28.8692 16.0355 29.1551 15.9837 29.4531C15.8149 30.4252 16.4538 31.359 17.4273 31.528C18.4017 31.6972 19.3182 31.0336 19.487 30.0614C19.5282 29.8277 19.5229 29.5882 19.4713 29.3566C19.4196 29.125 19.3227 28.9059 19.1861 28.7118C19.0083 28.4591 19.0755 28.1183 19.3363 27.9513C19.597 27.7843 19.9531 27.8539 20.131 28.1066C20.448 28.5571 20.6374 29.0968 20.6565 29.6676C21.4078 29.7283 22.0875 29.196 22.2189 28.4389C22.358 27.6383 21.8154 26.8638 21.031 26.7276L10.9102 24.9701C10.1483 24.8378 9.35276 25.3798 9.21374 26.1805C9.16949 26.4315 9.19043 26.6897 9.27455 26.9302C9.35866 27.1708 9.50314 27.3857 9.69413 27.5545C9.8757 27.0268 10.221 26.5867 10.6602 26.2814C10.914 26.1051 11.2725 26.1617 11.46 26.408C11.6476 26.6543 11.5937 26.9974 11.3399 27.1739C11.1773 27.2867 11.0388 27.4309 10.9325 27.5978C10.8262 27.7648 10.7543 27.9512 10.7208 28.1463C10.5816 28.9481 11.1058 29.7206 11.9095 29.8601C12.3725 29.9405 12.8218 29.7891 13.1443 29.4951C13.3715 29.288 13.7338 29.2995 13.953 29.5205C14.1721 29.7417 14.1655 30.0893 13.9383 30.2964C13.7532 30.4651 13.5449 30.6063 13.3197 30.7158ZM10.8242 21.0469C10.5875 21.1414 10.379 21.295 10.2187 21.4932C10.0584 21.6913 9.95161 21.9273 9.90864 22.1785C9.76962 22.9792 10.3359 23.7577 11.0979 23.89L21.2186 25.6475C22.003 25.7837 22.7749 25.2375 22.9139 24.4369C23.0454 23.6798 22.5849 22.9495 21.8572 22.7533C21.6468 23.2843 21.2864 23.7285 20.8361 24.0457C20.5834 24.2237 20.2248 24.1692 20.0356 23.9241C19.8464 23.6789 19.898 23.3353 20.1506 23.1574C20.3446 23.0208 20.5097 22.8472 20.6364 22.6465C20.7631 22.4459 20.849 22.2222 20.8889 21.9883C21.0578 21.0161 20.4186 20.0824 19.4442 19.9132C18.4708 19.7442 17.5544 20.4079 17.3857 21.38C17.3339 21.678 17.0391 21.8761 16.7278 21.822C16.4164 21.768 16.2056 21.482 16.2574 21.184C16.3668 20.5488 16.6876 19.9692 17.1677 19.5391C16.9321 19.3377 16.6466 19.2036 16.3412 19.1509C15.989 19.0895 15.6263 19.139 15.3035 19.2928C15.4783 19.4714 15.6267 19.674 15.7441 19.8946C15.8885 20.166 15.778 20.4956 15.4974 20.6302C15.2167 20.7649 14.8716 20.6539 14.7272 20.3825C14.5224 19.9977 14.1503 19.7035 13.6872 19.6231C12.8835 19.4835 12.1295 20.0341 11.9903 20.8358C11.9561 21.0308 11.961 21.2306 12.0047 21.4236C12.0485 21.6167 12.1303 21.7991 12.2453 21.9602C12.4248 22.2118 12.3598 22.553 12.1002 22.7216C11.8405 22.8902 11.484 22.8228 11.3045 22.5711C10.9939 22.1356 10.8172 21.6049 10.8242 21.0469Z" fill="#D94452"/>
</svg>
