<svg width="25" height="25" viewBox="0 0 25 25" fill="none" xmlns="http://www.w3.org/2000/svg">
<path d="M4.68755 21.875C4.68755 22.0822 4.76986 22.2809 4.91637 22.4274C5.06288 22.5739 5.2616 22.6563 5.4688 22.6563H19.5313C19.7385 22.6563 19.9372 22.5739 20.0837 22.4274C20.2302 22.2809 20.3125 22.0822 20.3125 21.875V19.5313H4.68755V21.875ZM22.3493 6.41016C22.2329 6.32172 22.0942 6.26754 21.9487 6.25374C21.8032 6.23993 21.6567 6.26705 21.5258 6.33203L16.0352 9.07735L13.2258 2.05391C13.168 1.90868 13.0679 1.78415 12.9385 1.69641C12.8091 1.60868 12.6564 1.56178 12.5 1.56178C12.3437 1.56178 12.191 1.60868 12.0616 1.69641C11.9322 1.78415 11.8321 1.90868 11.7743 2.05391L8.96489 9.07735L3.47426 6.33203C3.34344 6.26677 3.19693 6.23952 3.05139 6.25338C2.90585 6.26725 2.76713 6.32167 2.65098 6.41047C2.53484 6.49926 2.44594 6.61887 2.3944 6.75568C2.34286 6.89249 2.33074 7.04102 2.35942 7.18438L4.51567 17.9688H20.4844L22.6407 7.18438C22.6693 7.04111 22.6571 6.89268 22.6056 6.75597C22.5541 6.61925 22.4653 6.49972 22.3493 6.41094V6.41016ZM12.5 14.8438C12.0362 14.7865 11.6132 14.5501 11.3213 14.1852C11.0293 13.8203 10.8916 13.3557 10.9375 12.8906C10.8916 12.4256 11.0293 11.961 11.3213 11.596C11.6132 11.2311 12.0362 10.9948 12.5 10.9375C12.9639 10.9948 13.3869 11.2311 13.6788 11.596C13.9708 11.961 14.1085 12.4256 14.0625 12.8906C14.1085 13.3557 13.9708 13.8203 13.6788 14.1852C13.3869 14.5501 12.9639 14.7865 12.5 14.8438Z" fill="black"/>
<path d="M4.68755 21.875C4.68755 22.0822 4.76986 22.2809 4.91637 22.4274C5.06288 22.5739 5.2616 22.6563 5.4688 22.6563H19.5313C19.7385 22.6563 19.9372 22.5739 20.0837 22.4274C20.2302 22.2809 20.3125 22.0822 20.3125 21.875V19.5313H4.68755V21.875ZM22.3493 6.41016C22.2329 6.32172 22.0942 6.26754 21.9487 6.25374C21.8032 6.23993 21.6567 6.26705 21.5258 6.33203L16.0352 9.07735L13.2258 2.05391C13.168 1.90868 13.0679 1.78415 12.9385 1.69641C12.8091 1.60868 12.6564 1.56178 12.5 1.56178C12.3437 1.56178 12.191 1.60868 12.0616 1.69641C11.9322 1.78415 11.8321 1.90868 11.7743 2.05391L8.96489 9.07735L3.47426 6.33203C3.34344 6.26677 3.19693 6.23952 3.05139 6.25338C2.90585 6.26725 2.76713 6.32167 2.65098 6.41047C2.53484 6.49926 2.44594 6.61887 2.3944 6.75568C2.34286 6.89249 2.33074 7.04102 2.35942 7.18438L4.51567 17.9688H20.4844L22.6407 7.18438C22.6693 7.04111 22.6571 6.89268 22.6056 6.75597C22.5541 6.61925 22.4653 6.49972 22.3493 6.41094V6.41016ZM12.5 14.8438C12.0362 14.7865 11.6132 14.5501 11.3213 14.1852C11.0293 13.8203 10.8916 13.3557 10.9375 12.8906C10.8916 12.4256 11.0293 11.961 11.3213 11.596C11.6132 11.2311 12.0362 10.9948 12.5 10.9375C12.9639 10.9948 13.3869 11.2311 13.6788 11.596C13.9708 11.961 14.1085 12.4256 14.0625 12.8906C14.1085 13.3557 13.9708 13.8203 13.6788 14.1852C13.3869 14.5501 12.9639 14.7865 12.5 14.8438Z" fill="url(#paint0_linear_255_1488)"/>
<defs>
<linearGradient id="paint0_linear_255_1488" x1="2.34424" y1="22.6563" x2="26.8981" y2="14.7697" gradientUnits="userSpaceOnUse">
<stop stop-color="#40D3B6"/>
<stop offset="1" stop-color="#1E8FD3"/>
</linearGradient>
</defs>
</svg>
