<svg width="12" height="12" viewBox="0 0 12 12" fill="none" xmlns="http://www.w3.org/2000/svg">
<path d="M4.25 0.25H1.5C1.16848 0.25 0.850537 0.381696 0.616117 0.616117C0.381696 0.850537 0.25 1.16848 0.25 1.5V4.25C0.25 4.58152 0.381696 4.89946 0.616117 5.13388C0.850537 5.3683 1.16848 5.5 1.5 5.5H4.25C4.58152 5.5 4.89946 5.3683 5.13388 5.13388C5.3683 4.89946 5.5 4.58152 5.5 4.25V1.5C5.5 1.16848 5.3683 0.850537 5.13388 0.616117C4.89946 0.381696 4.58152 0.25 4.25 0.25ZM4 4H1.75V1.75H4V4ZM10.5 0.25H7.75C7.41848 0.25 7.10054 0.381696 6.86612 0.616117C6.6317 0.850537 6.5 1.16848 6.5 1.5V4.25C6.5 4.58152 6.6317 4.89946 6.86612 5.13388C7.10054 5.3683 7.41848 5.5 7.75 5.5H10.5C10.8315 5.5 11.1495 5.3683 11.3839 5.13388C11.6183 4.89946 11.75 4.58152 11.75 4.25V1.5C11.75 1.16848 11.6183 0.850537 11.3839 0.616117C11.1495 0.381696 10.8315 0.25 10.5 0.25ZM10.25 4H8V1.75H10.25V4ZM4.25 6.5H1.5C1.16848 6.5 0.850537 6.6317 0.616117 6.86612C0.381696 7.10054 0.25 7.41848 0.25 7.75V10.5C0.25 10.8315 0.381696 11.1495 0.616117 11.3839C0.850537 11.6183 1.16848 11.75 1.5 11.75H4.25C4.58152 11.75 4.89946 11.6183 5.13388 11.3839C5.3683 11.1495 5.5 10.8315 5.5 10.5V7.75C5.5 7.41848 5.3683 7.10054 5.13388 6.86612C4.89946 6.6317 4.58152 6.5 4.25 6.5ZM4 10.25H1.75V8H4V10.25ZM10.5 6.5H7.75C7.41848 6.5 7.10054 6.6317 6.86612 6.86612C6.6317 7.10054 6.5 7.41848 6.5 7.75V10.5C6.5 10.8315 6.6317 11.1495 6.86612 11.3839C7.10054 11.6183 7.41848 11.75 7.75 11.75H10.5C10.8315 11.75 11.1495 11.6183 11.3839 11.3839C11.6183 11.1495 11.75 10.8315 11.75 10.5V7.75C11.75 7.41848 11.6183 7.10054 11.3839 6.86612C11.1495 6.6317 10.8315 6.5 10.5 6.5ZM10.25 10.25H8V8H10.25V10.25Z" fill="#555756"/>
</svg>
