<svg width="25" height="25" viewBox="0 0 25 25" fill="none" xmlns="http://www.w3.org/2000/svg">
<g clip-path="url(#clip0_255_1193)">
<path d="M18.8502 11.5385C15.1387 11.5385 12.1194 14.5577 12.1194 18.2692C12.1194 21.9808 15.1387 25 18.8502 25C22.5617 25 25.581 21.9808 25.581 18.2692C25.581 14.5577 22.5617 11.5385 18.8502 11.5385ZM18.8502 21.9551C18.5952 21.9551 18.3506 21.8538 18.1703 21.6735C17.99 21.4932 17.8887 21.2486 17.8887 20.9936C17.8887 20.7386 17.99 20.494 18.1703 20.3137C18.3506 20.1334 18.5952 20.0321 18.8502 20.0321C19.1052 20.0321 19.3498 20.1334 19.5301 20.3137C19.7104 20.494 19.8117 20.7386 19.8117 20.9936C19.8117 21.2486 19.7104 21.4932 19.5301 21.6735C19.3498 21.8538 19.1052 21.9551 18.8502 21.9551ZM19.8117 18.4295C19.8117 18.6845 19.7104 18.9291 19.5301 19.1094C19.3498 19.2897 19.1052 19.391 18.8502 19.391C18.5952 19.391 18.3506 19.2897 18.1703 19.1094C17.99 18.9291 17.8887 18.6845 17.8887 18.4295V15.8654C17.8887 15.6104 17.99 15.3658 18.1703 15.1855C18.3506 15.0052 18.5952 14.9038 18.8502 14.9038C19.1052 14.9038 19.3498 15.0052 19.5301 15.1855C19.7104 15.3658 19.8117 15.6104 19.8117 15.8654V18.4295ZM18.5297 9.62821V3.52564C18.5297 1.57692 16.9528 0 15.004 0H3.46558C1.51686 0 -0.0600586 1.57692 -0.0600586 3.52564V20.1923C-0.0600586 22.141 1.51686 23.7179 3.46558 23.7179H12.1322C10.8799 22.1782 10.1963 20.254 10.1964 18.2692C10.1964 13.6026 13.9015 9.79487 18.5297 9.62821ZM4.74763 5.12821H13.722C14.2476 5.12821 14.6835 5.5641 14.6835 6.08974C14.6835 6.61539 14.2476 7.05128 13.722 7.05128H4.74763C4.22199 7.05128 3.7861 6.61539 3.7861 6.08974C3.7861 5.5641 4.22199 5.12821 4.74763 5.12821ZM4.74763 8.97436H13.722C14.2476 8.97436 14.6835 9.41026 14.6835 9.9359C14.6835 10.4615 14.2476 10.8974 13.722 10.8974H4.74763C4.22199 10.8974 3.7861 10.4615 3.7861 9.9359C3.7861 9.41026 4.22199 8.97436 4.74763 8.97436ZM8.59379 14.7436H4.74763C4.22199 14.7436 3.7861 14.3077 3.7861 13.7821C3.7861 13.2564 4.22199 12.8205 4.74763 12.8205H8.59379C9.11943 12.8205 9.55533 13.2564 9.55533 13.7821C9.55533 14.3077 9.11943 14.7436 8.59379 14.7436Z" fill="black"/>
<path d="M18.8502 11.5385C15.1387 11.5385 12.1194 14.5577 12.1194 18.2692C12.1194 21.9808 15.1387 25 18.8502 25C22.5617 25 25.581 21.9808 25.581 18.2692C25.581 14.5577 22.5617 11.5385 18.8502 11.5385ZM18.8502 21.9551C18.5952 21.9551 18.3506 21.8538 18.1703 21.6735C17.99 21.4932 17.8887 21.2486 17.8887 20.9936C17.8887 20.7386 17.99 20.494 18.1703 20.3137C18.3506 20.1334 18.5952 20.0321 18.8502 20.0321C19.1052 20.0321 19.3498 20.1334 19.5301 20.3137C19.7104 20.494 19.8117 20.7386 19.8117 20.9936C19.8117 21.2486 19.7104 21.4932 19.5301 21.6735C19.3498 21.8538 19.1052 21.9551 18.8502 21.9551ZM19.8117 18.4295C19.8117 18.6845 19.7104 18.9291 19.5301 19.1094C19.3498 19.2897 19.1052 19.391 18.8502 19.391C18.5952 19.391 18.3506 19.2897 18.1703 19.1094C17.99 18.9291 17.8887 18.6845 17.8887 18.4295V15.8654C17.8887 15.6104 17.99 15.3658 18.1703 15.1855C18.3506 15.0052 18.5952 14.9038 18.8502 14.9038C19.1052 14.9038 19.3498 15.0052 19.5301 15.1855C19.7104 15.3658 19.8117 15.6104 19.8117 15.8654V18.4295ZM18.5297 9.62821V3.52564C18.5297 1.57692 16.9528 0 15.004 0H3.46558C1.51686 0 -0.0600586 1.57692 -0.0600586 3.52564V20.1923C-0.0600586 22.141 1.51686 23.7179 3.46558 23.7179H12.1322C10.8799 22.1782 10.1963 20.254 10.1964 18.2692C10.1964 13.6026 13.9015 9.79487 18.5297 9.62821ZM4.74763 5.12821H13.722C14.2476 5.12821 14.6835 5.5641 14.6835 6.08974C14.6835 6.61539 14.2476 7.05128 13.722 7.05128H4.74763C4.22199 7.05128 3.7861 6.61539 3.7861 6.08974C3.7861 5.5641 4.22199 5.12821 4.74763 5.12821ZM4.74763 8.97436H13.722C14.2476 8.97436 14.6835 9.41026 14.6835 9.9359C14.6835 10.4615 14.2476 10.8974 13.722 10.8974H4.74763C4.22199 10.8974 3.7861 10.4615 3.7861 9.9359C3.7861 9.41026 4.22199 8.97436 4.74763 8.97436ZM8.59379 14.7436H4.74763C4.22199 14.7436 3.7861 14.3077 3.7861 13.7821C3.7861 13.2564 4.22199 12.8205 4.74763 12.8205H8.59379C9.11943 12.8205 9.55533 13.2564 9.55533 13.7821C9.55533 14.3077 9.11943 14.7436 8.59379 14.7436Z" fill="url(#paint0_linear_255_1193)"/>
</g>
<defs>
<linearGradient id="paint0_linear_255_1193" x1="-0.0600586" y1="25" x2="30.5511" y2="14.5271" gradientUnits="userSpaceOnUse">
<stop stop-color="#40D3B6"/>
<stop offset="1" stop-color="#1E8FD3"/>
</linearGradient>
<clipPath id="clip0_255_1193">
<rect width="25" height="25" fill="white"/>
</clipPath>
</defs>
</svg>
