<svg width="35" height="44" viewBox="0 0 35 44" fill="none" xmlns="http://www.w3.org/2000/svg">
<path fill-rule="evenodd" clip-rule="evenodd" d="M27.3187 15.6701C30.0987 18.1644 31.356 21.9276 31.356 26.0284C31.356 35.1204 25.4338 33.3986 25.0266 43.6872C25.0258 43.7103 25.0161 43.7322 24.9995 43.7483C24.9829 43.7644 24.9607 43.7735 24.9376 43.7735H12.0706C12.0214 43.7735 11.9813 43.7334 11.9813 43.6842V40.7313C11.9813 40.4133 12.0035 39.7652 11.7572 39.5413C11.511 39.3174 11.2114 39.2057 10.8645 39.2083C9.66662 39.2173 8.31991 39.6109 7.11951 39.624C5.9454 39.6369 4.91249 38.7893 4.91249 37.6247V32.6232C4.91249 32.4536 4.76156 32.3153 4.57662 32.3153H0.82249C0.552246 32.3153 0.39058 32.0376 0.546626 31.8317C1.713 30.2916 2.83834 28.738 3.94451 27.1574C5.02398 25.6151 5.32544 24.8778 6.1739 21.6136C6.73627 19.4499 7.95523 17.5366 9.60179 16.0358C9.61191 16.0269 9.61979 16.0157 9.62481 16.0031C9.62983 15.9906 9.63184 15.9771 9.63069 15.9636C9.61775 15.7797 9.61126 15.5954 9.61122 15.4111C9.61122 10.5287 13.5692 6.57075 18.4515 6.57075C23.4158 6.57075 27.4081 10.6676 27.2892 15.6016C27.2887 15.6145 27.2911 15.6273 27.2962 15.6392C27.3013 15.651 27.309 15.6616 27.3187 15.6701ZM31.7509 16.9594H33.8445C34.0221 16.9594 34.1925 16.8888 34.3182 16.7631C34.4438 16.6375 34.5144 16.4671 34.5144 16.2894C34.5144 16.1117 34.4438 15.9413 34.3182 15.8157C34.1925 15.6901 34.0221 15.6195 33.8445 15.6195H31.7509C31.5733 15.6195 31.4029 15.6901 31.2772 15.8157C31.1516 15.9413 31.081 16.1117 31.081 16.2894C31.081 16.4671 31.1516 16.6375 31.2772 16.7631C31.4029 16.8888 31.5733 16.9594 31.7509 16.9594ZM19.1216 2.99003C19.1216 3.1677 19.051 3.33811 18.9254 3.46375C18.7997 3.58938 18.6293 3.65997 18.4516 3.65997C18.274 3.65997 18.1036 3.58938 17.9779 3.46375C17.8523 3.33811 17.7817 3.1677 17.7817 2.99003V0.896505C17.7817 0.718825 17.8523 0.548423 17.9779 0.422784C18.1036 0.297146 18.274 0.226562 18.4516 0.226562C18.6293 0.226562 18.7997 0.297146 18.9254 0.422784C19.051 0.548423 19.1216 0.718825 19.1216 0.896505V2.99003ZM9.52121 6.41169L8.04083 4.93131C7.91486 4.8073 7.74498 4.7381 7.56821 4.73879C7.39144 4.73949 7.22211 4.81001 7.09712 4.93501C6.97212 5.06001 6.90159 5.22934 6.9009 5.40611C6.90021 5.58288 6.96941 5.75275 7.09342 5.87873L8.5738 7.3591C8.636 7.4213 8.70984 7.47065 8.79111 7.50431C8.87238 7.53797 8.95949 7.5553 9.04745 7.5553C9.13542 7.5553 9.22252 7.53797 9.30379 7.50431C9.38506 7.47065 9.45891 7.4213 9.52111 7.3591C9.58333 7.29691 9.63269 7.22306 9.66637 7.14179C9.70006 7.06051 9.7174 6.97339 9.71741 6.88542C9.71741 6.79744 9.70009 6.71032 9.66643 6.62904C9.63276 6.54775 9.58342 6.4739 9.52121 6.41169ZM5.15223 15.6195H3.05861C2.88093 15.6195 2.71053 15.6901 2.58489 15.8157C2.45925 15.9413 2.38867 16.1117 2.38867 16.2894C2.38867 16.4671 2.45925 16.6375 2.58489 16.7631C2.71053 16.8888 2.88093 16.9594 3.05861 16.9594H5.15223C5.32991 16.9594 5.50031 16.8888 5.62595 16.7631C5.75159 16.6375 5.82217 16.4671 5.82217 16.2894C5.82217 16.1117 5.75159 15.9413 5.62595 15.8157C5.50031 15.6901 5.32991 15.6195 5.15223 15.6195ZM28.3293 7.359L29.8096 5.87863C29.9326 5.75245 30.0009 5.58292 29.9998 5.40675C29.9987 5.23057 29.9282 5.06193 29.8036 4.93735C29.679 4.81277 29.5104 4.74227 29.3342 4.74112C29.1581 4.73997 28.9885 4.80826 28.8623 4.93121L27.382 6.41159C27.3198 6.47379 27.2704 6.54763 27.2368 6.6289C27.2031 6.71017 27.1858 6.79728 27.1858 6.88524C27.1858 6.97321 27.2031 7.06032 27.2368 7.14159C27.2704 7.22286 27.3198 7.2967 27.382 7.3589C27.4441 7.42112 27.518 7.47048 27.5993 7.50416C27.6805 7.53784 27.7676 7.55518 27.8556 7.55519C27.9436 7.5552 28.0307 7.53788 28.1119 7.50422C28.1932 7.47055 28.2671 7.42121 28.3293 7.359ZM20.3021 12.2362C19.5988 12.2362 18.9647 12.5313 18.5164 13.0042C18.4989 13.0227 18.4769 13.0321 18.4515 13.0321C18.4261 13.0321 18.4042 13.0227 18.3867 13.0042C17.9383 12.5313 17.3042 12.2362 16.601 12.2362C15.2419 12.2362 14.1403 13.3378 14.1403 14.6969C14.1403 16.9164 16.4558 19.443 18.4148 20.3262C18.439 20.3372 18.464 20.3372 18.4882 20.3262C20.4472 19.443 22.7627 16.9165 22.7627 14.697C22.7628 13.3379 21.6612 12.2362 20.3021 12.2362ZM15.2237 25.4999H21.6793C21.698 25.5001 21.7163 25.4943 21.7315 25.4834C21.7468 25.4725 21.7581 25.457 21.7639 25.4392C22.4977 23.273 23.3141 21.9237 24.4156 19.9458C25.4501 18.0881 26.0958 16.654 25.8624 14.5716C25.4455 10.8474 22.2872 7.95278 18.4516 7.95278C14.2945 7.95278 10.9936 11.3309 10.9936 15.4109C10.9936 17.1309 11.6709 18.4793 12.4876 19.9458C13.5891 21.9239 14.4053 23.2727 15.1393 25.4392C15.145 25.457 15.1563 25.4725 15.1715 25.4834C15.1867 25.4944 15.205 25.5001 15.2237 25.4999ZM21.3973 29.9351H15.5057C15.4936 29.935 15.4816 29.9373 15.4704 29.9421C15.4593 29.9469 15.4493 29.9539 15.441 29.9628C15.4325 29.9715 15.4259 29.9818 15.4217 29.9932C15.4175 30.0045 15.4157 30.0167 15.4164 30.0288C15.4938 31.6385 16.8225 32.9192 18.4514 32.9192C20.0803 32.9192 21.4092 31.6385 21.4865 30.0288C21.4873 30.0167 21.4855 30.0046 21.4813 29.9932C21.477 29.9818 21.4704 29.9715 21.462 29.9628C21.4537 29.9539 21.4437 29.9469 21.4326 29.9421C21.4215 29.9373 21.4094 29.9349 21.3973 29.9351ZM13.883 26.8168C13.49 26.8168 13.2974 27.4074 13.2974 27.7175C13.2974 28.0276 13.49 28.6182 13.883 28.6182H23.0202C23.4132 28.6182 23.6058 28.0277 23.6058 27.7175C23.6058 27.4074 23.4132 26.8168 23.0202 26.8168H13.883Z" fill="#1E8FD3"/>
</svg>
