<svg width="34" height="34" viewBox="0 0 34 34" fill="none" xmlns="http://www.w3.org/2000/svg">
<path d="M9.87328 10.3141C9.77449 10.2154 9.69613 10.0982 9.64266 9.96923C9.58919 9.84025 9.56166 9.70199 9.56166 9.56236C9.56166 9.42273 9.58919 9.28447 9.64266 9.15549C9.69613 9.0265 9.77449 8.90932 9.87328 8.81064L16.2483 2.43564C16.347 2.33685 16.4641 2.25848 16.5931 2.20501C16.7221 2.15154 16.8604 2.12402 17 2.12402C17.1396 2.12402 17.2779 2.15154 17.4069 2.20501C17.5359 2.25848 17.653 2.33685 17.7517 2.43564L24.1267 8.81064C24.3261 9.01001 24.4381 9.28041 24.4381 9.56236C24.4381 9.84431 24.3261 10.1147 24.1267 10.3141C23.9274 10.5134 23.6569 10.6255 23.375 10.6255C23.0931 10.6255 22.8226 10.5134 22.6233 10.3141L18.0625 5.75197V16.9999C18.0625 17.2817 17.9506 17.5519 17.7513 17.7512C17.552 17.9504 17.2818 18.0624 17 18.0624C16.7182 18.0624 16.448 17.9504 16.2487 17.7512C16.0494 17.5519 15.9375 17.2817 15.9375 16.9999V5.75197L11.3767 10.3141C11.278 10.4129 11.1609 10.4912 11.0319 10.5447C10.9029 10.5982 10.7646 10.6257 10.625 10.6257C10.4854 10.6257 10.3471 10.5982 10.2181 10.5447C10.0891 10.4912 9.97196 10.4129 9.87328 10.3141ZM31.875 18.0624V26.5624C31.875 27.1259 31.6511 27.6664 31.2526 28.065C30.8541 28.4635 30.3136 28.6874 29.75 28.6874H4.25C3.68641 28.6874 3.14591 28.4635 2.7474 28.065C2.34888 27.6664 2.125 27.1259 2.125 26.5624V18.0624C2.125 17.4988 2.34888 16.9583 2.7474 16.5598C3.14591 16.1612 3.68641 15.9374 4.25 15.9374H13.2812C13.4221 15.9374 13.5573 15.9933 13.6569 16.093C13.7565 16.1926 13.8125 16.3277 13.8125 16.4686V16.9281C13.8125 18.7145 15.2734 20.2206 17.0611 20.1874C17.8958 20.1714 18.691 19.8285 19.2756 19.2324C19.8602 18.6364 20.1877 17.8348 20.1875 16.9999V16.4686C20.1875 16.3277 20.2435 16.1926 20.3431 16.093C20.4427 15.9933 20.5779 15.9374 20.7188 15.9374H29.75C30.3136 15.9374 30.8541 16.1612 31.2526 16.5598C31.6511 16.9583 31.875 17.4988 31.875 18.0624ZM26.5625 22.3124C26.5625 21.9971 26.469 21.689 26.2939 21.4269C26.1188 21.1648 25.8699 20.9606 25.5787 20.8399C25.2874 20.7193 24.967 20.6877 24.6578 20.7492C24.3487 20.8107 24.0647 20.9625 23.8418 21.1854C23.6189 21.4083 23.4671 21.6923 23.4056 22.0014C23.3441 22.3106 23.3757 22.631 23.4963 22.9223C23.6169 23.2135 23.8212 23.4624 24.0833 23.6375C24.3454 23.8126 24.6535 23.9061 24.9688 23.9061C25.3914 23.9061 25.7968 23.7382 26.0957 23.4393C26.3946 23.1404 26.5625 22.735 26.5625 22.3124Z" fill="#113A5D"/>
</svg>
