<svg width="14" height="13" viewBox="0 0 14 13" fill="none" xmlns="http://www.w3.org/2000/svg">
<path d="M13.25 7.99961V11.9996C13.25 12.1985 13.171 12.3893 13.0303 12.5299C12.8897 12.6706 12.6989 12.7496 12.5 12.7496H1.5C1.30109 12.7496 1.11032 12.6706 0.96967 12.5299C0.829018 12.3893 0.75 12.1985 0.75 11.9996V7.99961C0.75 7.8007 0.829018 7.60994 0.96967 7.46929C1.11032 7.32863 1.30109 7.24961 1.5 7.24961C1.69891 7.24961 1.88968 7.32863 2.03033 7.46929C2.17098 7.60994 2.25 7.8007 2.25 7.99961V11.2496H11.75V7.99961C11.75 7.8007 11.829 7.60994 11.9697 7.46929C12.1103 7.32863 12.3011 7.24961 12.5 7.24961C12.6989 7.24961 12.8897 7.32863 13.0303 7.46929C13.171 7.60994 13.25 7.8007 13.25 7.99961ZM5.03062 4.03024L6.25 2.81211V7.99961C6.25 8.19853 6.32902 8.38929 6.46967 8.52994C6.61032 8.6706 6.80109 8.74961 7 8.74961C7.19891 8.74961 7.38968 8.6706 7.53033 8.52994C7.67098 8.38929 7.75 8.19853 7.75 7.99961V2.81211L8.96937 4.03211C9.03914 4.10188 9.12196 4.15722 9.21311 4.19498C9.30427 4.23273 9.40196 4.25217 9.50062 4.25217C9.59929 4.25217 9.69698 4.23273 9.78814 4.19498C9.87929 4.15722 9.96211 4.10188 10.0319 4.03211C10.1016 3.96235 10.157 3.87953 10.1947 3.78838C10.2325 3.69722 10.2519 3.59953 10.2519 3.50086C10.2519 3.4022 10.2325 3.30451 10.1947 3.21335C10.157 3.1222 10.1016 3.03938 10.0319 2.96961L7.53187 0.469615C7.4622 0.399695 7.3794 0.344217 7.28824 0.306363C7.19707 0.268509 7.09934 0.249023 7.00062 0.249023C6.90191 0.249023 6.80417 0.268509 6.71301 0.306363C6.62185 0.344217 6.53905 0.399695 6.46938 0.469615L3.96938 2.96961C3.89961 3.03938 3.84427 3.1222 3.80651 3.21335C3.76876 3.30451 3.74932 3.4022 3.74932 3.50086C3.74932 3.70012 3.82848 3.89122 3.96938 4.03211C4.11027 4.17301 4.30137 4.25217 4.50063 4.25217C4.69988 4.25217 4.89098 4.17301 5.03188 4.03211L5.03062 4.03024Z" fill="#343330"/>
</svg>
