<svg width="25" height="25" viewBox="0 0 25 25" fill="none" xmlns="http://www.w3.org/2000/svg">
<path d="M21.227 17.8727L20.999 18.1007C20.9583 18.1433 20.909 18.177 20.8545 18.1995C20.8262 18.2114 20.7946 18.2123 20.7642 18.2178C20.7398 18.2221 20.7176 18.2324 20.6924 18.2324H20.6877C20.631 18.2322 20.5749 18.2206 20.5228 18.1984C20.4707 18.1763 20.4235 18.1439 20.384 18.1032L20.1552 17.8689C19.7262 17.4399 19.1612 17.2252 18.5958 17.2252C18.0304 17.2252 17.462 17.4407 17.03 17.8727C16.6147 18.2833 16.3872 18.8371 16.3872 19.4346C16.3872 20.027 16.6156 20.5817 17.03 20.9961L18.3717 22.34C18.3825 22.3496 18.3926 22.3599 18.4021 22.3707L20.6907 24.6623L24.356 20.9966C25.2144 20.1335 25.2148 18.7319 24.356 17.8731C23.9408 17.4587 23.3781 17.2259 22.7915 17.2259C22.2048 17.2259 21.6422 17.4583 21.227 17.8727Z" fill="#323131"/>
<path d="M21.227 17.8727L20.999 18.1007C20.9583 18.1433 20.909 18.177 20.8545 18.1995C20.8262 18.2114 20.7946 18.2123 20.7642 18.2178C20.7398 18.2221 20.7176 18.2324 20.6924 18.2324H20.6877C20.631 18.2322 20.5749 18.2206 20.5228 18.1984C20.4707 18.1763 20.4235 18.1439 20.384 18.1032L20.1552 17.8689C19.7262 17.4399 19.1612 17.2252 18.5958 17.2252C18.0304 17.2252 17.462 17.4407 17.03 17.8727C16.6147 18.2833 16.3872 18.8371 16.3872 19.4346C16.3872 20.027 16.6156 20.5817 17.03 20.9961L18.3717 22.34C18.3825 22.3496 18.3926 22.3599 18.4021 22.3707L20.6907 24.6623L24.356 20.9966C25.2144 20.1335 25.2148 18.7319 24.356 17.8731C23.9408 17.4587 23.3781 17.2259 22.7915 17.2259C22.2048 17.2259 21.6422 17.4583 21.227 17.8727Z" fill="url(#paint0_linear_191_2338)"/>
<path d="M16.4253 21.6009C16.1406 21.3169 15.9149 20.9791 15.7616 20.6073C15.6082 20.2354 15.5302 19.8369 15.5319 19.4346C15.5319 18.6071 15.8497 17.8368 16.4271 17.2662C17.4672 16.2257 19.0762 16.0939 20.2652 16.8664V5.60563C20.2647 5.16645 20.0901 4.74538 19.7795 4.43484C19.469 4.12429 19.0479 3.94963 18.6087 3.94917H16.2889V5.38365C16.2889 6.53842 15.3493 7.47807 14.1945 7.47807H8.07037C7.51511 7.47739 6.98278 7.25651 6.59015 6.86388C6.19752 6.47125 5.97664 5.93892 5.97596 5.38365V3.94917H3.65017C3.21106 3.94974 2.79011 4.12445 2.47965 4.43499C2.1692 4.74552 1.99459 5.16652 1.99414 5.60563V20.571C1.99459 21.0101 2.16921 21.431 2.47968 21.7415C2.79015 22.052 3.2111 22.2266 3.65017 22.2271H17.0511L16.4253 21.6009ZM5.27754 10.3936H16.9835C17.0969 10.3936 17.2057 10.4387 17.2859 10.5189C17.3661 10.5991 17.4112 10.7079 17.4112 10.8213C17.4112 10.9348 17.3661 11.0436 17.2859 11.1238C17.2057 11.204 17.0969 11.249 16.9835 11.249H5.27754C5.16411 11.249 5.05532 11.204 4.97511 11.1238C4.89491 11.0436 4.84984 10.9348 4.84984 10.8213C4.84984 10.7079 4.89491 10.5991 4.97511 10.5189C5.05532 10.4387 5.16411 10.3936 5.27754 10.3936ZM4.84984 14.5919C4.84984 14.4784 4.89491 14.3697 4.97511 14.2895C5.05532 14.2092 5.16411 14.1642 5.27754 14.1642H16.9835C17.0969 14.1642 17.2057 14.2092 17.2859 14.2895C17.3661 14.3697 17.4112 14.4784 17.4112 14.5919C17.4112 14.7053 17.3661 14.8141 17.2859 14.8943C17.2057 14.9745 17.0969 15.0196 16.9835 15.0196H5.27754C5.16411 15.0196 5.05532 14.9745 4.97511 14.8943C4.89491 14.8141 4.84984 14.7053 4.84984 14.5919Z" fill="#323131"/>
<path d="M16.4253 21.6009C16.1406 21.3169 15.9149 20.9791 15.7616 20.6073C15.6082 20.2354 15.5302 19.8369 15.5319 19.4346C15.5319 18.6071 15.8497 17.8368 16.4271 17.2662C17.4672 16.2257 19.0762 16.0939 20.2652 16.8664V5.60563C20.2647 5.16645 20.0901 4.74538 19.7795 4.43484C19.469 4.12429 19.0479 3.94963 18.6087 3.94917H16.2889V5.38365C16.2889 6.53842 15.3493 7.47807 14.1945 7.47807H8.07037C7.51511 7.47739 6.98278 7.25651 6.59015 6.86388C6.19752 6.47125 5.97664 5.93892 5.97596 5.38365V3.94917H3.65017C3.21106 3.94974 2.79011 4.12445 2.47965 4.43499C2.1692 4.74552 1.99459 5.16652 1.99414 5.60563V20.571C1.99459 21.0101 2.16921 21.431 2.47968 21.7415C2.79015 22.052 3.2111 22.2266 3.65017 22.2271H17.0511L16.4253 21.6009ZM5.27754 10.3936H16.9835C17.0969 10.3936 17.2057 10.4387 17.2859 10.5189C17.3661 10.5991 17.4112 10.7079 17.4112 10.8213C17.4112 10.9348 17.3661 11.0436 17.2859 11.1238C17.2057 11.204 17.0969 11.249 16.9835 11.249H5.27754C5.16411 11.249 5.05532 11.204 4.97511 11.1238C4.89491 11.0436 4.84984 10.9348 4.84984 10.8213C4.84984 10.7079 4.89491 10.5991 4.97511 10.5189C5.05532 10.4387 5.16411 10.3936 5.27754 10.3936ZM4.84984 14.5919C4.84984 14.4784 4.89491 14.3697 4.97511 14.2895C5.05532 14.2092 5.16411 14.1642 5.27754 14.1642H16.9835C17.0969 14.1642 17.2057 14.2092 17.2859 14.2895C17.3661 14.3697 17.4112 14.4784 17.4112 14.5919C17.4112 14.7053 17.3661 14.8141 17.2859 14.8943C17.2057 14.9745 17.0969 15.0196 16.9835 15.0196H5.27754C5.16411 15.0196 5.05532 14.9745 4.97511 14.8943C4.89491 14.8141 4.84984 14.7053 4.84984 14.5919Z" fill="url(#paint1_linear_191_2338)"/>
<path d="M6.83008 5.38365C6.83042 5.71215 6.96107 6.02711 7.19336 6.2594C7.42564 6.49169 7.7406 6.62233 8.0691 6.62267H14.1932C14.5217 6.62233 14.8367 6.49169 15.069 6.2594C15.3013 6.02711 15.4319 5.71215 15.4323 5.38365V3.36793C15.4319 3.03943 15.3013 2.72447 15.069 2.49218C14.8367 2.25989 14.5217 2.12925 14.1932 2.12891H8.0691C7.7406 2.12925 7.42564 2.25989 7.19336 2.49218C6.96107 2.72447 6.83042 3.03943 6.83008 3.36793V3.52361V5.38365Z" fill="#323131"/>
<path d="M6.83008 5.38365C6.83042 5.71215 6.96107 6.02711 7.19336 6.2594C7.42564 6.49169 7.7406 6.62233 8.0691 6.62267H14.1932C14.5217 6.62233 14.8367 6.49169 15.069 6.2594C15.3013 6.02711 15.4319 5.71215 15.4323 5.38365V3.36793C15.4319 3.03943 15.3013 2.72447 15.069 2.49218C14.8367 2.25989 14.5217 2.12925 14.1932 2.12891H8.0691C7.7406 2.12925 7.42564 2.25989 7.19336 2.49218C6.96107 2.72447 6.83042 3.03943 6.83008 3.36793V3.52361V5.38365Z" fill="url(#paint2_linear_191_2338)"/>
<defs>
<linearGradient id="paint0_linear_191_2338" x1="16.3872" y1="24.6623" x2="26.3815" y2="20.8015" gradientUnits="userSpaceOnUse">
<stop stop-color="#40D3B6"/>
<stop offset="1" stop-color="#1E8FD3"/>
</linearGradient>
<linearGradient id="paint1_linear_191_2338" x1="1.99414" y1="22.2271" x2="23.9218" y2="14.9153" gradientUnits="userSpaceOnUse">
<stop stop-color="#40D3B6"/>
<stop offset="1" stop-color="#1E8FD3"/>
</linearGradient>
<linearGradient id="paint2_linear_191_2338" x1="6.83008" y1="6.62267" x2="14.9791" y2="1.4192" gradientUnits="userSpaceOnUse">
<stop stop-color="#40D3B6"/>
<stop offset="1" stop-color="#1E8FD3"/>
</linearGradient>
</defs>
</svg>
