<svg width="22" height="22" viewBox="0 0 22 22" fill="none" xmlns="http://www.w3.org/2000/svg">
<path d="M20.4897 10.2682C20.8926 10.2682 21.2196 9.94029 21.2196 9.53592C21.2196 9.13216 20.8926 8.80401 20.4897 8.80401H13.9197V7.34039H20.4897C20.8926 7.34039 21.2196 7.0125 21.2196 6.60838C21.2196 6.20436 20.8926 5.87642 20.4897 5.87642H13.9197V0.752793C13.9197 0.534433 13.8236 0.329531 13.6558 0.190492C13.4891 0.0500819 13.2657 -0.00836742 13.0556 0.0340857L1.37599 2.22992C1.03129 2.29421 0.780273 2.59722 0.780273 2.94852V19.0514C0.780273 19.4027 1.02996 19.7059 1.37599 19.7702L13.0555 21.9661C13.1009 21.975 13.1446 21.9793 13.1899 21.9793C13.3592 21.9793 13.5241 21.9207 13.6557 21.811C13.8237 21.6718 13.9197 21.4653 13.9197 21.2474V16.1236H20.4897C20.8925 16.1236 21.2196 15.7957 21.2196 15.3919C21.2196 14.9879 20.8925 14.6599 20.4897 14.6599H13.9197V13.1959H20.4897C20.8926 13.1959 21.2196 12.8679 21.2196 12.4639C21.2196 12.0597 20.8926 11.732 20.4897 11.732H13.9197V10.2683L20.4897 10.2682Z" fill="#2A5699"/>
<path d="M10.9957 8.15249L10.2657 14.7415C10.2276 15.0766 9.96479 15.3446 9.63054 15.3856C9.59982 15.3899 9.57057 15.3914 9.54005 15.3914C9.23922 15.3914 8.96465 15.204 8.85679 14.9171L7.34991 10.8885L5.84328 14.9171C5.72653 15.2305 5.41981 15.422 5.08141 15.3872C4.74986 15.3518 4.48412 15.0941 4.4375 14.7618L3.70737 9.63824C3.65039 9.23992 3.92791 8.8684 4.32639 8.81102C4.72634 8.75282 5.09578 9.03227 5.15265 9.43197L5.47826 11.7215L6.66538 8.54624C6.87835 7.97526 7.81867 7.97526 8.03327 8.54624L9.15132 11.5353L9.54416 7.98983C9.58931 7.58871 9.96042 7.30048 10.3503 7.34303C10.7515 7.38955 11.0393 7.75126 10.9957 8.15249Z" fill="white"/>
</svg>
